<svg width="239" height="74" viewBox="0 0 239 74" fill="none" xmlns="http://www.w3.org/2000/svg">
<g filter="url(#filter0_d_940_7381)">
<path d="M30.1389 22.005H29.4789C28.5622 22.7017 27.8289 23.4533 27.2789 24.26C26.7656 25.0667 26.5089 26.0933 26.5089 27.34V31.3V31.63C26.9489 31.5933 27.4622 31.5383 28.0489 31.465C28.6722 31.3917 29.2956 31.245 29.9189 31.025C30.5422 30.805 31.1289 30.4567 31.6789 29.98C32.2656 29.5033 32.7789 28.825 33.2189 27.945L36.8489 34.215C36.2989 34.985 35.5839 35.5717 34.7039 35.975C33.8606 36.3417 32.9622 36.525 32.0089 36.525C31.0189 36.525 30.0839 36.3417 29.2039 35.975C28.3239 35.5717 27.4622 35.095 26.6189 34.545C26.6189 35.095 26.5639 35.59 26.4539 36.03C26.3439 36.47 26.1239 36.855 25.7939 37.185C25.5006 37.4783 25.0606 37.7167 24.4739 37.9C23.9239 38.0467 23.1722 38.12 22.2189 38.12C21.3756 38.12 20.6606 38.065 20.0739 37.955C19.4872 37.845 18.9556 37.68 18.4789 37.46C18.0022 37.2033 17.5256 36.8917 17.0489 36.525C16.6089 36.1583 16.0772 35.7183 15.4539 35.205C15.1972 35.865 15.2156 36.5617 15.5089 37.295C15.8389 38.0283 16.2972 38.7067 16.8839 39.33C17.4706 39.9533 18.1306 40.4667 18.8639 40.87C19.5972 41.2733 20.2389 41.475 20.7889 41.475C21.4856 41.475 22.1089 41.3467 22.6589 41.09C23.2456 40.8333 23.7772 40.5583 24.2539 40.265C24.7672 39.9717 25.2439 39.6967 25.6839 39.44C26.1239 39.1833 26.5456 39.055 26.9489 39.055C27.4256 39.055 28.1589 39.3667 29.1489 39.99C30.1389 40.6133 31.1656 41.3467 32.2289 42.19C33.2922 43.0333 34.2822 43.8767 35.1989 44.72C36.1156 45.5633 36.7389 46.205 37.0689 46.645C36.9956 46.5717 36.9039 46.6083 36.7939 46.755C36.7206 46.9017 36.6289 46.975 36.5189 46.975C36.5189 46.975 36.4822 46.9383 36.4089 46.865C35.9689 46.095 35.4556 45.545 34.8689 45.215C34.3189 44.8483 33.8789 44.665 33.5489 44.665C33.0722 44.665 32.5589 44.8117 32.0089 45.105C31.4956 45.3617 30.9456 45.655 30.3589 45.985C29.7722 46.2783 29.1672 46.5717 28.5439 46.865C27.9206 47.1217 27.2606 47.25 26.5639 47.25C26.0506 47.25 25.5189 47.1583 24.9689 46.975C24.4556 46.7917 23.9972 46.5533 23.5939 46.26C23.0806 45.93 22.3472 45.3617 21.3939 44.555C20.4406 43.7483 19.3956 42.8133 18.2589 41.75C17.1589 40.6867 16.0222 39.5683 14.8489 38.395C13.6756 37.185 12.6122 36.03 11.6589 34.93C10.7056 33.7933 9.93557 32.7483 9.34891 31.795C8.72557 30.8417 8.41391 30.09 8.41391 29.54C8.41391 29.21 8.54224 28.8983 8.79891 28.605C9.01891 28.3117 9.31224 28.055 9.67891 27.835C10.0456 27.615 10.4122 27.45 10.7789 27.34C11.1822 27.23 11.5306 27.175 11.8239 27.175C12.2639 27.175 12.8139 27.3767 13.4739 27.78C14.1339 28.1467 14.7939 28.605 15.4539 29.155C16.1139 29.6683 16.7372 30.2 17.3239 30.75C17.9106 31.3 18.3506 31.74 18.6439 32.07C19.2672 31.7033 19.6522 31.3183 19.7989 30.915C19.9822 30.475 20.0739 29.925 20.0739 29.265C20.0739 28.0917 20.0556 26.8817 20.0189 25.635C20.0189 24.3883 20.0189 23.1783 20.0189 22.005H14.7939C13.8406 22.005 12.9422 22.2983 12.0989 22.885C11.2556 23.435 10.7239 24.2417 10.5039 25.305L4.89391 18.87C5.29724 18.3567 5.68224 17.9167 6.04891 17.55C6.41557 17.1467 6.85557 16.8167 7.36891 16.56C7.84557 16.3033 8.43224 16.12 9.12891 16.01C9.78891 15.8633 10.6506 15.79 11.7139 15.79H23.8689L26.7839 18.045C27.5539 17.1283 28.3606 16.5233 29.2039 16.23C30.0472 15.9367 31.0189 15.79 32.1189 15.79H35.8039L41.1389 22.005H39.2139C38.5539 22.005 37.8756 22.0417 37.1789 22.115C36.4822 22.1517 35.8039 22.2617 35.1439 22.445C34.5206 22.5917 33.9706 22.83 33.4939 23.16C33.0172 23.49 32.6689 23.9483 32.4489 24.535L30.1389 22.005ZM39.4451 32.07C39.4451 33.94 39.4451 35.8283 39.4451 37.735C39.4817 39.605 39.5001 41.475 39.5001 43.345C39.5001 44.885 39.7751 46.1133 40.3251 47.03C40.8751 47.9467 41.8101 48.8267 43.1301 49.67L42.9651 50C41.9017 49.3767 40.9117 48.6617 39.9951 47.855C39.0784 47.0117 38.1984 46.1683 37.3551 45.325C36.3651 44.335 35.5767 43.5467 34.9901 42.96C34.4401 42.3367 34.0184 41.7317 33.7251 41.145C33.4317 40.5217 33.2301 39.8067 33.1201 39C33.0467 38.1567 33.0101 37.02 33.0101 35.59V24.59L27.6751 18.32C27.6751 17.9533 27.8217 17.6233 28.1151 17.33C28.3717 17 28.7017 16.725 29.1051 16.505C29.4717 16.285 29.8751 16.12 30.3151 16.01C30.7551 15.8633 31.1217 15.79 31.4151 15.79H38.8951L45.4951 22.005C44.2851 22.2617 43.2767 22.7383 42.4701 23.435C41.7001 24.095 41.0767 24.8833 40.6001 25.8C40.1601 26.7167 39.8484 27.725 39.6651 28.825C39.5184 29.8883 39.4451 30.97 39.4451 32.07ZM50.8855 32.07C50.8855 33.94 50.8855 35.8283 50.8855 37.735C50.9222 39.605 50.9405 41.475 50.9405 43.345C50.9405 44.885 51.2155 46.1133 51.7655 47.03C52.3155 47.9467 53.2505 48.8267 54.5705 49.67L54.4055 50C53.3422 49.3767 52.3522 48.6617 51.4355 47.855C50.5188 47.0117 49.6388 46.1683 48.7955 45.325C47.8055 44.335 47.0172 43.5467 46.4305 42.96C45.8805 42.3367 45.4588 41.7317 45.1655 41.145C44.8722 40.5217 44.6705 39.8067 44.5605 39C44.4872 38.1567 44.4505 37.02 44.4505 35.59V24.59L39.1155 18.32C39.1155 17.9533 39.2622 17.6233 39.5555 17.33C39.8122 17 40.1422 16.725 40.5455 16.505C40.9122 16.285 41.3155 16.12 41.7555 16.01C42.1955 15.8633 42.5622 15.79 42.8555 15.79H50.3355L56.9355 22.005C55.7255 22.2617 54.7172 22.7383 53.9105 23.435C53.1405 24.095 52.5172 24.8833 52.0405 25.8C51.6005 26.7167 51.2888 27.725 51.1055 28.825C50.9588 29.8883 50.8855 30.97 50.8855 32.07ZM43.1859 8.75C43.2959 8.45666 43.5709 8.145 44.0109 7.815C44.4143 7.44833 44.8726 7.1 45.3859 6.77C45.8626 6.44 46.3026 6.12833 46.7059 5.835C47.0726 5.54166 47.2559 5.32166 47.2559 5.175C47.4393 5.24833 47.8426 5.52333 48.4659 6C49.0526 6.47666 49.6759 6.99 50.3359 7.54C50.9593 8.09 51.5276 8.62167 52.0409 9.135C52.5543 9.61167 52.8109 9.92333 52.8109 10.07C52.8109 10.18 52.6093 10.3817 52.2059 10.675C51.8026 10.9683 51.3626 11.28 50.8859 11.61C50.3726 11.94 49.9143 12.2883 49.5109 12.655C49.0709 12.985 48.8143 13.2783 48.7409 13.535C48.3743 13.3517 47.9343 13.0767 47.4209 12.71C46.8709 12.3067 46.3393 11.8667 45.8259 11.39C45.2759 10.9133 44.7626 10.4367 44.2859 9.96C43.8093 9.48333 43.4426 9.08 43.1859 8.75ZM48.1909 11.665C48.3009 11.775 48.4843 12.0683 48.7409 12.545C48.9976 12.985 49.2726 13.48 49.5659 14.03C49.8226 14.5433 50.0609 15.0383 50.2809 15.515C50.4643 15.955 50.5559 16.23 50.5559 16.34L48.7959 16.395C48.5759 15.7717 48.2459 14.965 47.8059 13.975C47.3293 12.9483 46.7243 11.9583 45.9909 11.005C45.2209 10.0517 44.3409 9.245 43.3509 8.585C42.3243 7.88833 41.1693 7.54 39.8859 7.54H39.3909C38.4009 7.61333 37.6309 7.66833 37.0809 7.705C36.5309 7.74167 36.0909 7.77833 35.7609 7.815C35.3943 7.815 35.1009 7.83333 34.8809 7.87C34.6243 7.87 34.3309 7.87 34.0009 7.87C32.9376 7.87 31.9659 7.66833 31.0859 7.265C30.2059 6.86166 29.3993 6.34833 28.6659 5.725C27.9326 5.065 27.2909 4.33167 26.7409 3.525C26.1543 2.68167 25.6409 1.82 25.2009 0.939999V0.884996C25.8243 1.655 26.3743 2.18666 26.8509 2.48C27.2909 2.77333 27.7493 2.92 28.2259 2.92C28.7026 2.92 29.2343 2.82833 29.8209 2.645C30.3709 2.425 31.1226 2.18666 32.0759 1.93C32.9559 1.71 33.7809 1.6 34.5509 1.6C35.9076 1.6 37.1909 1.875 38.4009 2.425C39.5743 2.975 40.7293 3.70833 41.8659 4.625C42.9659 5.54167 44.0476 6.605 45.1109 7.815C46.1376 9.025 47.1643 10.3083 48.1909 11.665ZM48.1909 16.615C48.3009 16.725 48.4659 16.9267 48.6859 17.22C48.8693 17.4767 49.0709 17.7517 49.2909 18.045C49.4743 18.3383 49.6393 18.6317 49.7859 18.925C49.9326 19.1817 50.0059 19.365 50.0059 19.475L48.2459 19.53C47.8059 19.1267 47.3843 18.5767 46.9809 17.88C46.5409 17.1467 46.0276 16.4317 45.4409 15.735C44.8543 15.0383 44.1576 14.4333 43.3509 13.92C42.5076 13.4067 41.4809 13.15 40.2709 13.15H39.6109C38.6209 13.2233 37.8693 13.315 37.3559 13.425C36.8059 13.4983 36.3843 13.5717 36.0909 13.645C35.7976 13.7183 35.5409 13.7917 35.3209 13.865C35.1009 13.9017 34.8259 13.92 34.4959 13.92C33.4326 13.92 32.4426 13.6633 31.5259 13.15C30.5726 12.6367 29.7109 11.995 28.9409 11.225C28.1343 10.4183 27.4193 9.55666 26.7959 8.64C26.1726 7.68666 25.6409 6.77 25.2009 5.89V5.835C26.1543 6.97167 27.2359 7.815 28.4459 8.365C29.6559 8.87833 30.9393 9.135 32.2959 9.135C32.7726 9.135 33.2493 9.09833 33.7259 9.025C34.1659 8.95166 34.6426 8.86 35.1559 8.75C35.7426 8.60333 36.2926 8.49333 36.8059 8.42C37.2826 8.34667 37.7593 8.31 38.2359 8.31C39.2993 8.31 40.2343 8.51167 41.0409 8.915C41.8476 9.28166 42.6176 9.83166 43.3509 10.565C44.0843 11.2617 44.8359 12.1233 45.6059 13.15C46.3393 14.1767 47.2009 15.3317 48.1909 16.615ZM76.4609 26.955C76.4609 27.5783 76.4793 28.22 76.5159 28.88C76.5526 29.5033 76.5709 30.1267 76.5709 30.75C76.5709 31.4833 76.4609 31.9967 76.2409 32.29C76.0576 32.5833 75.5626 32.73 74.7559 32.73C73.8026 32.73 72.8676 32.7117 71.9509 32.675C71.0709 32.6017 70.1543 32.565 69.2009 32.565C68.7609 32.565 68.1743 32.5833 67.4409 32.62C66.7443 32.6567 66.1943 32.7667 65.7909 32.95C65.3876 33.1333 64.9293 33.5 64.4159 34.05C63.9026 34.5633 63.4259 35.1317 62.9859 35.755C62.5459 36.3783 62.1609 37.02 61.8309 37.68C61.5376 38.34 61.3909 38.89 61.3909 39.33C61.3909 40.21 61.7576 40.9067 62.4909 41.42C63.2609 41.9333 64.1409 42.19 65.1309 42.19C65.6809 42.19 66.2309 42.0983 66.7809 41.915C67.3676 41.7317 67.9176 41.4383 68.4309 41.035C68.2476 40.8517 67.9909 40.6133 67.6609 40.32C67.3676 39.99 67.0743 39.66 66.7809 39.33C66.4876 39 66.2309 38.67 66.0109 38.34C65.7909 37.9733 65.6809 37.6617 65.6809 37.405C65.6809 36.965 65.8093 36.58 66.0659 36.25C66.3226 35.8833 66.6343 35.59 67.0009 35.37C67.4043 35.1133 67.8259 34.93 68.2659 34.82C68.7426 34.6733 69.1643 34.6 69.5309 34.6C69.7509 34.6 69.9709 34.6183 70.1909 34.655C70.4109 34.6917 70.6309 34.7467 70.8509 34.82C71.1443 34.93 71.6209 35.2417 72.2809 35.755C72.9776 36.2317 73.6743 36.7817 74.3709 37.405C75.1043 37.9917 75.7826 38.5783 76.4059 39.165C77.0659 39.7517 77.5059 40.1917 77.7259 40.485C78.2759 41.1083 78.5509 41.7683 78.5509 42.465C78.5509 43.4917 78.2943 44.335 77.7809 44.995C77.2676 45.6183 76.5526 46.0767 75.6359 46.37L81.9059 52.255L81.0809 53.52L73.9859 46.92H73.6559C73.3626 46.92 73.0509 46.9567 72.7209 47.03C72.4276 47.0667 72.1343 47.085 71.8409 47.085C69.8243 47.085 67.9543 46.59 66.2309 45.6C65.7543 45.3067 65.1309 44.9033 64.3609 44.39C63.5909 43.84 62.7843 43.2167 61.9409 42.52C61.0976 41.8233 60.2543 41.09 59.4109 40.32C58.5676 39.5133 57.7976 38.725 57.1009 37.955C56.4409 37.1483 55.9093 36.3783 55.5059 35.645C55.0659 34.875 54.8459 34.1967 54.8459 33.61C54.8459 33.2067 55.0109 32.6933 55.3409 32.07C55.6343 31.4467 56.0009 30.8417 56.4409 30.255C56.9176 29.6317 57.3943 29.0633 57.8709 28.55C58.3843 28.0367 58.8059 27.67 59.1359 27.45C59.5026 27.23 59.9793 27.1017 60.5659 27.065C61.1526 26.9917 61.7209 26.955 62.2709 26.955H63.3709C64.1409 26.955 64.9109 26.9733 65.6809 27.01C66.4509 27.0467 67.2209 27.065 67.9909 27.065C68.5043 27.065 68.9809 26.9917 69.4209 26.845C69.8609 26.6617 70.0809 26.2767 70.0809 25.69C70.0809 25.14 70.0626 24.535 70.0259 23.875C70.0259 23.1783 70.0259 22.555 70.0259 22.005H58.0909C57.2476 22.005 56.5509 22.3533 56.0009 23.05C55.4876 23.7467 55.1943 24.4617 55.1209 25.195L49.4009 18.705C49.4009 18.155 49.5293 17.6967 49.7859 17.33C50.0426 16.9633 50.3726 16.67 50.7759 16.45C51.1793 16.23 51.6376 16.065 52.1509 15.955C52.6276 15.845 53.0859 15.79 53.5259 15.79H72.8859L74.6459 17.055C75.3059 16.4317 75.9843 16.065 76.6809 15.955C77.4143 15.845 78.3126 15.79 79.3759 15.79H83.1709L88.4509 22.005H87.0209C86.3609 22.005 85.6276 22.0233 84.8209 22.06C84.0509 22.0967 83.3176 22.2067 82.6209 22.39C81.9243 22.5367 81.3009 22.775 80.7509 23.105C80.2376 23.435 79.8893 23.8933 79.7059 24.48C79.3393 24.1867 78.9909 23.8933 78.6609 23.6C78.3309 23.3067 78.0193 22.9767 77.7259 22.61C77.2126 23.1233 76.8643 23.8017 76.6809 24.645C76.5343 25.4517 76.4609 26.2217 76.4609 26.955ZM97.0696 22.72C96.5196 23.0133 96.0796 23.435 95.7496 23.985C95.4563 24.535 95.2179 25.14 95.0346 25.8C94.8879 26.46 94.7963 27.1383 94.7596 27.835C94.7229 28.495 94.7046 29.1 94.7046 29.65C94.7046 30.3467 94.7229 31.0433 94.7596 31.74C94.7963 32.4 94.8146 33.0783 94.8146 33.775C94.8146 34.5817 94.6863 35.205 94.4296 35.645C94.1729 36.085 93.8246 36.415 93.3846 36.635C92.9446 36.855 92.4313 37.0017 91.8446 37.075C91.2946 37.1117 90.6896 37.13 90.0296 37.13C89.6263 37.13 89.2413 37.1117 88.8746 37.075C88.5079 37.0017 88.1229 36.965 87.7196 36.965H87.4446C86.7846 37.0017 86.4363 37.185 86.3996 37.515C86.3996 37.845 86.6196 38.2117 87.0596 38.615C87.5363 38.9817 88.1963 39.33 89.0396 39.66C89.9196 39.99 90.8729 40.1733 91.8996 40.21C93.0363 40.21 94.1546 40.1183 95.2546 39.935C96.3913 39.7517 97.3996 39.4217 98.2796 38.945C99.1596 38.4317 99.8746 37.735 100.425 36.855C100.975 35.975 101.25 34.8567 101.25 33.5C101.25 33.3533 101.213 33.1333 101.14 32.84C101.36 32.9133 101.818 33.225 102.515 33.775C103.211 34.2883 103.926 34.875 104.66 35.535C105.43 36.1583 106.108 36.7633 106.695 37.35C107.281 37.9 107.593 38.2667 107.63 38.45C107.666 38.5967 107.685 38.7433 107.685 38.89C107.685 39.0367 107.685 39.1833 107.685 39.33C107.685 40.4667 107.41 41.4383 106.86 42.245C106.31 43.0517 105.613 43.7117 104.77 44.225C103.926 44.7017 102.973 45.05 101.91 45.27C100.883 45.49 99.8929 45.6 98.9396 45.6C97.4729 45.6 96.1346 45.4533 94.9246 45.16C93.7513 44.8667 92.6329 44.4633 91.5696 43.95C90.5429 43.4 89.5346 42.74 88.5446 41.97C87.5913 41.2 86.5829 40.3383 85.5196 39.385C85.1896 39.0917 84.7129 38.6333 84.0896 38.01C83.4663 37.3867 82.8246 36.7267 82.1646 36.03C81.5413 35.2967 80.9913 34.6 80.5146 33.94C80.0379 33.2433 79.7996 32.6933 79.7996 32.29C79.7996 31.8867 79.9646 31.63 80.2946 31.52C80.5879 31.3733 80.8813 31.3 81.1746 31.3C81.6146 31.3 82.0363 31.3367 82.4396 31.41C82.8796 31.4467 83.3196 31.465 83.7596 31.465C84.4929 31.465 85.1346 31.4467 85.6846 31.41C86.2713 31.3367 86.7663 31.19 87.1696 30.97C87.5729 30.7133 87.8663 30.3467 88.0496 29.87C88.2696 29.3567 88.3796 28.6783 88.3796 27.835V22.005H85.6296C84.5663 22.005 83.6313 22.2983 82.8246 22.885C82.0179 23.4717 81.5779 24.3333 81.5046 25.47L75.8946 18.925C75.8946 18.3017 76.0413 17.8067 76.3346 17.44C76.5913 17.0367 76.9396 16.7067 77.3796 16.45C77.7829 16.1933 78.2413 16.0283 78.7546 15.955C79.2679 15.845 79.7813 15.79 80.2946 15.79H93.8246L95.1446 16.945C95.5113 16.6517 95.8963 16.395 96.2996 16.175C96.7396 15.9183 97.1979 15.79 97.6746 15.79H103.34L108.62 22.005H106.915C106.181 22.005 105.448 22.0417 104.715 22.115C104.018 22.1517 103.34 22.28 102.68 22.5C102.02 22.6833 101.415 22.9767 100.865 23.38C100.315 23.7833 99.8379 24.3517 99.4346 25.085C99.0313 24.6817 98.6279 24.2967 98.2246 23.93C97.8213 23.5267 97.4363 23.1233 97.0696 22.72ZM107.551 32.07C107.551 33.94 107.551 35.8283 107.551 37.735C107.587 39.605 107.606 41.475 107.606 43.345C107.606 44.885 107.881 46.1133 108.431 47.03C108.981 47.9467 109.916 48.8267 111.236 49.67L111.071 50C110.007 49.3767 109.017 48.6617 108.101 47.855C107.184 47.0117 106.304 46.1683 105.461 45.325C104.471 44.335 103.682 43.5467 103.096 42.96C102.546 42.3367 102.124 41.7317 101.831 41.145C101.537 40.5217 101.336 39.8067 101.226 39C101.152 38.1567 101.116 37.02 101.116 35.59V24.59L95.7805 18.32C95.7805 17.9533 95.9272 17.6233 96.2205 17.33C96.4772 17 96.8072 16.725 97.2105 16.505C97.5772 16.285 97.9805 16.12 98.4205 16.01C98.8605 15.8633 99.2272 15.79 99.5205 15.79H107.001L113.601 22.005C112.391 22.2617 111.382 22.7383 110.576 23.435C109.806 24.095 109.182 24.8833 108.706 25.8C108.266 26.7167 107.954 27.725 107.771 28.825C107.624 29.8883 107.551 30.97 107.551 32.07ZM101.501 2.865C101.831 2.865 102.234 2.88333 102.711 2.92C103.188 2.95666 103.683 3.01167 104.196 3.085C104.673 3.15833 105.131 3.25 105.571 3.36C106.011 3.47 106.378 3.58 106.671 3.69C106.891 3.8 107.294 4.11166 107.881 4.625C108.468 5.10166 109.091 5.65167 109.751 6.275C110.374 6.86166 110.943 7.43 111.456 7.98C111.933 8.49333 112.208 8.84166 112.281 9.025C110.594 8.43833 108.926 8.145 107.276 8.145C105.626 8.145 104.251 8.49333 103.151 9.19C102.051 9.85 101.501 10.8217 101.501 12.105C101.501 12.8017 101.739 13.5167 102.216 14.25C102.693 14.9467 103.224 15.6067 103.811 16.23C104.361 16.8167 104.856 17.3117 105.296 17.715C105.736 18.0817 105.919 18.2833 105.846 18.32L104.251 19.09L97.046 10.62C96.5693 9.81333 96.331 8.915 96.331 7.925C96.331 7.375 96.4593 6.80666 96.716 6.22C96.936 5.59666 97.2843 5.04667 97.761 4.57C98.201 4.05666 98.751 3.65333 99.411 3.36C100.034 3.03 100.731 2.865 101.501 2.865ZM155.896 37.13C155.896 38.45 155.566 39.55 154.906 40.43C154.246 41.31 153.421 42.0433 152.431 42.63C151.441 43.2167 150.378 43.7117 149.241 44.115C148.104 44.4817 147.041 44.83 146.051 45.16C145.061 45.49 144.236 45.8383 143.576 46.205C142.916 46.5717 142.586 47.03 142.586 47.58C142.586 47.8367 142.641 48.075 142.751 48.295C142.861 48.4783 142.953 48.68 143.026 48.9C142.769 48.9 142.256 48.6067 141.486 48.02C140.753 47.3967 139.983 46.6817 139.176 45.875C138.369 45.0683 137.636 44.2983 136.976 43.565C136.353 42.795 136.041 42.2633 136.041 41.97C136.041 41.3467 136.426 40.8333 137.196 40.43C138.003 39.99 138.919 39.6233 139.946 39.33C140.973 39 141.981 38.725 142.971 38.505C143.998 38.285 144.731 38.065 145.171 37.845C144.218 37.185 143.301 36.4883 142.421 35.755C141.578 34.985 140.679 34.2517 139.726 33.555H139.286C138.626 33.555 137.856 33.5917 136.976 33.665C136.096 33.7383 135.234 33.9217 134.391 34.215C133.584 34.4717 132.888 34.875 132.301 35.425C131.751 35.9383 131.476 36.635 131.476 37.515C131.476 37.8083 131.513 38.12 131.586 38.45C131.659 38.7433 131.751 39.0367 131.861 39.33C131.641 39.22 131.201 38.9083 130.541 38.395C129.881 37.845 129.184 37.2583 128.451 36.635C127.718 36.0117 127.058 35.4067 126.471 34.82C125.884 34.2333 125.536 33.83 125.426 33.61C125.169 33.0967 125.041 32.51 125.041 31.85C125.041 30.9333 125.353 30.2183 125.976 29.705C126.599 29.1917 127.351 28.8067 128.231 28.55C129.111 28.2933 130.009 28.1283 130.926 28.055C131.879 27.9817 132.686 27.945 133.346 27.945C132.869 27.505 132.246 26.955 131.476 26.295C130.706 25.5983 129.936 24.865 129.166 24.095C128.433 23.325 127.791 22.555 127.241 21.785C126.691 20.9783 126.416 20.245 126.416 19.585C126.416 18.8883 126.563 18.3017 126.856 17.825C127.186 17.3483 127.589 16.9633 128.066 16.67C128.579 16.34 129.148 16.12 129.771 16.01C130.394 15.8633 130.999 15.79 131.586 15.79H141.321L147.921 21.895C146.601 22.3717 145.611 23.215 144.951 24.425C144.291 25.635 143.961 26.9 143.961 28.22C143.961 28.7333 143.979 29.265 144.016 29.815C144.053 30.3283 144.071 30.8417 144.071 31.355C144.071 31.8317 143.979 32.1983 143.796 32.455C143.613 32.7117 143.356 32.9133 143.026 33.06C142.733 33.17 142.403 33.2617 142.036 33.335C141.669 33.3717 141.303 33.4267 140.936 33.5C141.633 33.8667 142.348 34.16 143.081 34.38C143.851 34.6 144.621 34.71 145.391 34.71C145.831 34.71 146.308 34.655 146.821 34.545C147.334 34.435 147.793 34.215 148.196 33.885C148.636 33.555 148.966 33.115 149.186 32.565C149.443 31.9783 149.516 31.2267 149.406 30.31C149.663 30.42 150.121 30.7683 150.781 31.355C151.441 31.905 152.119 32.51 152.816 33.17C153.549 33.83 154.209 34.4717 154.796 35.095C155.383 35.6817 155.713 36.0667 155.786 36.25C155.859 36.3967 155.896 36.5433 155.896 36.69C155.896 36.8367 155.896 36.9833 155.896 37.13ZM137.581 25.635C137.581 24.9017 137.544 24.2967 137.471 23.82C137.398 23.3067 137.416 22.6833 137.526 21.95C135.986 21.9867 134.813 22.2433 134.006 22.72C133.236 23.1967 132.851 24.0583 132.851 25.305C132.851 25.855 133.016 26.3317 133.346 26.735C133.676 27.1017 134.098 27.4867 134.611 27.89C135.051 27.8533 135.454 27.835 135.821 27.835C136.188 27.7983 136.499 27.7067 136.756 27.56C137.013 27.4133 137.214 27.1933 137.361 26.9C137.508 26.6067 137.581 26.185 137.581 25.635ZM155.89 32.07C155.89 33.94 155.89 35.8283 155.89 37.735C155.927 39.605 155.945 41.475 155.945 43.345C155.945 44.885 156.22 46.1133 156.77 47.03C157.32 47.9467 158.255 48.8267 159.575 49.67L159.41 50C158.347 49.3767 157.357 48.6617 156.44 47.855C155.524 47.0117 154.644 46.1683 153.8 45.325C152.81 44.335 152.022 43.5467 151.435 42.96C150.885 42.3367 150.464 41.7317 150.17 41.145C149.877 40.5217 149.675 39.8067 149.565 39C149.492 38.1567 149.455 37.02 149.455 35.59V24.59L144.12 18.32C144.12 17.9533 144.267 17.6233 144.56 17.33C144.817 17 145.147 16.725 145.55 16.505C145.917 16.285 146.32 16.12 146.76 16.01C147.2 15.8633 147.567 15.79 147.86 15.79H155.34L161.94 22.005C160.73 22.2617 159.722 22.7383 158.915 23.435C158.145 24.095 157.522 24.8833 157.045 25.8C156.605 26.7167 156.294 27.725 156.11 28.825C155.964 29.8883 155.89 30.97 155.89 32.07ZM151.601 57.81C151.784 58.5433 152.206 59.1117 152.866 59.515C153.526 59.955 154.277 60.175 155.121 60.175C156.257 60.175 157.357 59.79 158.421 59.02C159.447 58.25 160.052 56.985 160.236 55.225L166.671 60.835C166.414 61.5683 166.121 62.2283 165.791 62.815C165.497 63.4383 165.131 63.97 164.691 64.41C164.287 64.85 163.774 65.18 163.151 65.4C162.564 65.6567 161.849 65.785 161.006 65.785C160.346 65.785 159.576 65.62 158.696 65.29C157.779 64.96 156.844 64.52 155.891 63.97C154.901 63.42 153.911 62.7967 152.921 62.1C151.931 61.4033 150.996 60.6883 150.116 59.955C149.236 59.2583 148.466 58.5433 147.806 57.81C147.109 57.1133 146.577 56.49 146.211 55.94C145.881 55.4267 145.624 54.84 145.441 54.18C145.221 53.52 145.111 52.8783 145.111 52.255C145.111 50.5683 145.477 49.3767 146.211 48.68C146.944 47.9467 147.861 47.47 148.961 47.25C150.024 47.03 151.197 46.9383 152.481 46.975C153.727 46.975 154.882 46.8467 155.946 46.59L162.381 52.255C161.684 52.4383 160.914 52.5483 160.071 52.585C159.191 52.6217 158.311 52.6583 157.431 52.695C156.551 52.7317 155.726 52.8233 154.956 52.97C154.149 53.1167 153.471 53.355 152.921 53.685C152.334 54.0517 151.912 54.565 151.656 55.225C151.399 55.885 151.381 56.7467 151.601 57.81ZM148.191 8.75C148.301 8.45666 148.576 8.145 149.016 7.815C149.419 7.44833 149.877 7.1 150.391 6.77C150.867 6.44 151.307 6.12833 151.711 5.835C152.077 5.54166 152.261 5.32166 152.261 5.175C152.444 5.24833 152.847 5.52333 153.471 6C154.057 6.47666 154.681 6.99 155.341 7.54C155.964 8.09 156.532 8.62167 157.046 9.135C157.559 9.61167 157.816 9.92333 157.816 10.07C157.816 10.18 157.614 10.3817 157.211 10.675C156.807 10.9683 156.367 11.28 155.891 11.61C155.377 11.94 154.919 12.2883 154.516 12.655C154.076 12.985 153.819 13.2783 153.746 13.535C153.379 13.3517 152.939 13.0767 152.426 12.71C151.876 12.3067 151.344 11.8667 150.831 11.39C150.281 10.9133 149.767 10.4367 149.291 9.96C148.814 9.48333 148.447 9.08 148.191 8.75ZM148.191 8.75C148.301 8.45666 148.576 8.145 149.016 7.815C149.419 7.44833 149.877 7.1 150.391 6.77C150.867 6.44 151.307 6.12833 151.711 5.835C152.077 5.54166 152.261 5.32166 152.261 5.175C152.444 5.24833 152.847 5.52333 153.471 6C154.057 6.47666 154.681 6.99 155.341 7.54C155.964 8.09 156.532 8.62167 157.046 9.135C157.559 9.61167 157.816 9.92333 157.816 10.07C157.816 10.18 157.614 10.3817 157.211 10.675C156.807 10.9683 156.367 11.28 155.891 11.61C155.377 11.94 154.919 12.2883 154.516 12.655C154.076 12.985 153.819 13.2783 153.746 13.535C153.379 13.3517 152.939 13.0767 152.426 12.71C151.876 12.3067 151.344 11.8667 150.831 11.39C150.281 10.9133 149.767 10.4367 149.291 9.96C148.814 9.48333 148.447 9.08 148.191 8.75ZM170.411 32.125C170.411 30.4383 170.374 28.7517 170.301 27.065C170.227 25.3783 170.191 23.6917 170.191 22.005H167.056C166.102 22.005 165.204 22.2067 164.361 22.61C163.517 23.0133 162.857 23.82 162.381 25.03L156.881 18.87C157.357 18.1 158.054 17.4033 158.971 16.78C159.887 16.12 160.987 15.79 162.271 15.79H172.721L173.821 16.78C174.591 16.3767 175.397 16.12 176.241 16.01C177.084 15.8633 177.927 15.79 178.771 15.79H181.851L187.241 22.005H182.896C181.686 22.005 180.824 22.0783 180.311 22.225C179.797 22.335 179.357 22.5917 178.991 22.995L179.486 23.875C178.936 24.205 178.477 24.4983 178.111 24.755C177.781 24.975 177.506 25.25 177.286 25.58C177.066 25.8733 176.919 26.24 176.846 26.68C176.772 27.0833 176.736 27.615 176.736 28.275C176.736 30.2183 176.772 32.1433 176.846 34.05C176.919 35.9567 176.956 37.8633 176.956 39.77C176.956 40.5033 176.791 41.145 176.461 41.695C176.131 42.2083 175.691 42.63 175.141 42.96C174.627 43.29 174.041 43.5283 173.381 43.675C172.757 43.8217 172.116 43.895 171.456 43.895C170.686 43.895 169.916 43.7667 169.146 43.51C168.412 43.2167 167.734 42.8683 167.111 42.465C166.487 42.0617 165.699 41.4933 164.746 40.76C163.792 39.99 162.857 39.165 161.941 38.285C161.061 37.405 160.309 36.5067 159.686 35.59C159.026 34.6367 158.696 33.7567 158.696 32.95C158.696 31.7033 159.172 30.7317 160.126 30.035C161.042 29.3017 162.087 28.935 163.261 28.935C164.764 28.935 166.047 29.2283 167.111 29.815C168.174 30.4017 169.274 31.1717 170.411 32.125ZM169.641 34.545H169.421C168.724 34.545 168.046 34.655 167.386 34.875C166.726 35.095 166.176 35.3883 165.736 35.755C165.296 36.1217 165.002 36.525 164.856 36.965C164.746 37.3683 164.874 37.79 165.241 38.23C165.534 38.56 165.901 38.725 166.341 38.725C166.781 38.725 167.239 38.615 167.716 38.395C168.192 38.1383 168.632 37.8083 169.036 37.405C169.439 37.0017 169.769 36.5617 170.026 36.085C170.282 35.5717 170.411 35.0767 170.411 34.6C170.264 34.6 170.136 34.6 170.026 34.6C169.916 34.5633 169.787 34.545 169.641 34.545ZM187.419 32.07C187.419 33.94 187.419 35.8283 187.419 37.735C187.455 39.605 187.474 41.475 187.474 43.345C187.474 44.885 187.749 46.1133 188.299 47.03C188.849 47.9467 189.784 48.8267 191.104 49.67L190.939 50C189.875 49.3767 188.885 48.6617 187.969 47.855C187.052 47.0117 186.172 46.1683 185.329 45.325C184.339 44.335 183.55 43.5467 182.964 42.96C182.414 42.3367 181.992 41.7317 181.699 41.145C181.405 40.5217 181.204 39.8067 181.094 39C181.02 38.1567 180.984 37.02 180.984 35.59V24.59L175.649 18.32C175.649 17.9533 175.795 17.6233 176.089 17.33C176.345 17 176.675 16.725 177.079 16.505C177.445 16.285 177.849 16.12 178.289 16.01C178.729 15.8633 179.095 15.79 179.389 15.79H186.869L193.469 22.005C192.259 22.2617 191.25 22.7383 190.444 23.435C189.674 24.095 189.05 24.8833 188.574 25.8C188.134 26.7167 187.822 27.725 187.639 28.825C187.492 29.8883 187.419 30.97 187.419 32.07ZM198.859 32.07C198.859 33.94 198.859 35.8283 198.859 37.735C198.896 39.605 198.914 41.475 198.914 43.345C198.914 44.885 199.189 46.1133 199.739 47.03C200.289 47.9467 201.224 48.8267 202.544 49.67L202.379 50C201.316 49.3767 200.326 48.6617 199.409 47.855C198.492 47.0117 197.612 46.1683 196.769 45.325C195.779 44.335 194.991 43.5467 194.404 42.96C193.854 42.3367 193.432 41.7317 193.139 41.145C192.846 40.5217 192.644 39.8067 192.534 39C192.461 38.1567 192.424 37.02 192.424 35.59V24.59L187.089 18.32C187.089 17.9533 187.236 17.6233 187.529 17.33C187.786 17 188.116 16.725 188.519 16.505C188.886 16.285 189.289 16.12 189.729 16.01C190.169 15.8633 190.536 15.79 190.829 15.79H198.309L204.909 22.005C203.699 22.2617 202.691 22.7383 201.884 23.435C201.114 24.095 200.491 24.8833 200.014 25.8C199.574 26.7167 199.262 27.725 199.079 28.825C198.932 29.8883 198.859 30.97 198.859 32.07ZM219.815 31.3C219.815 32.29 219.833 33.2067 219.87 34.05C219.943 34.8933 219.888 35.6267 219.705 36.25C219.521 36.8367 219.118 37.295 218.495 37.625C217.871 37.955 216.881 38.12 215.525 38.12C214.681 38.12 213.966 38.065 213.38 37.955C212.793 37.845 212.261 37.68 211.785 37.46C211.308 37.2033 210.831 36.8917 210.355 36.525C209.915 36.1583 209.383 35.7183 208.76 35.205C208.503 35.865 208.521 36.5617 208.815 37.295C209.145 38.0283 209.603 38.7067 210.19 39.33C210.776 39.9533 211.436 40.4667 212.17 40.87C212.903 41.2733 213.545 41.475 214.095 41.475C214.791 41.475 215.415 41.3467 215.965 41.09C216.551 40.8333 217.083 40.5583 217.56 40.265C218.073 39.9717 218.55 39.6967 218.99 39.44C219.43 39.1833 219.851 39.055 220.255 39.055C220.731 39.055 221.501 39.4217 222.565 40.155C223.665 40.8517 224.783 41.695 225.92 42.685C227.093 43.6383 228.175 44.5917 229.165 45.545C230.191 46.4617 230.87 47.14 231.2 47.58C231.126 47.5067 231.035 47.5433 230.925 47.69C230.851 47.8367 230.76 47.91 230.65 47.91C230.65 47.91 230.613 47.8733 230.54 47.8C230.32 47.3967 230.026 47.0117 229.66 46.645C229.33 46.2783 228.981 45.9483 228.615 45.655C228.248 45.3617 227.9 45.1233 227.57 44.94C227.276 44.7567 227.038 44.665 226.855 44.665C226.378 44.665 225.865 44.8117 225.315 45.105C224.801 45.3617 224.251 45.655 223.665 45.985C223.078 46.2783 222.473 46.5717 221.85 46.865C221.226 47.1217 220.566 47.25 219.87 47.25C219.356 47.25 218.825 47.1583 218.275 46.975C217.761 46.7917 217.303 46.5533 216.9 46.26C216.386 45.93 215.653 45.3617 214.7 44.555C213.746 43.7483 212.701 42.8133 211.565 41.75C210.465 40.6867 209.328 39.5683 208.155 38.395C206.981 37.185 205.918 36.03 204.965 34.93C204.011 33.7933 203.241 32.7483 202.655 31.795C202.031 30.8417 201.72 30.09 201.72 29.54C201.72 29.21 201.848 28.8983 202.105 28.605C202.325 28.3117 202.618 28.055 202.985 27.835C203.351 27.615 203.718 27.45 204.085 27.34C204.488 27.23 204.836 27.175 205.13 27.175C205.57 27.175 206.12 27.3767 206.78 27.78C207.44 28.1467 208.1 28.605 208.76 29.155C209.42 29.6683 210.043 30.2 210.63 30.75C211.216 31.3 211.656 31.74 211.95 32.07C212.573 31.7033 212.958 31.3183 213.105 30.915C213.288 30.475 213.38 29.925 213.38 29.265C213.38 28.0917 213.361 26.8817 213.325 25.635C213.325 24.3883 213.325 23.1783 213.325 22.005H208.1C207.146 22.005 206.248 22.2983 205.405 22.885C204.561 23.435 204.03 24.2417 203.81 25.305L198.2 18.87C198.603 18.3567 198.988 17.9167 199.355 17.55C199.721 17.1467 200.161 16.8167 200.675 16.56C201.151 16.3033 201.738 16.12 202.435 16.01C203.095 15.8633 203.956 15.79 205.02 15.79H217.175L220.09 18.045C220.86 17.1283 221.666 16.5233 222.51 16.23C223.353 15.9367 224.325 15.79 225.425 15.79H229.11L234.445 22.005H232.52C231.86 22.005 231.181 22.0417 230.485 22.115C229.788 22.1517 229.11 22.2617 228.45 22.445C227.826 22.5917 227.276 22.83 226.8 23.16C226.323 23.49 225.975 23.9483 225.755 24.535L223.445 22.005H222.785C221.868 22.7017 221.135 23.4533 220.585 24.26C220.071 25.0667 219.815 26.0933 219.815 27.34V31.3Z" fill="white"/>
</g>
<defs>
<filter id="filter0_d_940_7381" x="0.894531" y="0.884995" width="237.551" height="72.9" filterUnits="userSpaceOnUse" color-interpolation-filters="sRGB">
<feFlood flood-opacity="0" result="BackgroundImageFix"/>
<feColorMatrix in="SourceAlpha" type="matrix" values="0 0 0 0 0 0 0 0 0 0 0 0 0 0 0 0 0 0 127 0" result="hardAlpha"/>
<feOffset dy="4"/>
<feGaussianBlur stdDeviation="2"/>
<feComposite in2="hardAlpha" operator="out"/>
<feColorMatrix type="matrix" values="0 0 0 0 0 0 0 0 0 0 0 0 0 0 0 0 0 0 0.6 0"/>
<feBlend mode="normal" in2="BackgroundImageFix" result="effect1_dropShadow_940_7381"/>
<feBlend mode="normal" in="SourceGraphic" in2="effect1_dropShadow_940_7381" result="shape"/>
</filter>
</defs>
</svg>
