<svg width="236" height="52" viewBox="0 0 236 52" fill="none" xmlns="http://www.w3.org/2000/svg">
<path d="M15.0673 16.8394C14.7007 16.8394 14.3173 16.781 13.9173 16.6644C13.5173 16.531 13.1257 16.3644 12.7423 16.1644C12.359 15.9644 11.9923 15.7394 11.6423 15.4894C11.309 15.2227 11.0257 14.956 10.7923 14.6894C10.759 14.8227 10.7173 14.9477 10.6673 15.0644C10.634 15.181 10.5923 15.306 10.5423 15.4394C10.8757 15.6894 11.2007 15.9644 11.5173 16.2644C11.834 16.5477 12.1173 16.8644 12.3673 17.2144C12.634 17.5477 12.8423 17.906 12.9923 18.2894C13.159 18.6727 13.2423 19.0894 13.2423 19.5394C13.2423 19.9227 13.1507 20.281 12.9673 20.6144C12.784 20.931 12.5423 21.206 12.2423 21.4394C11.959 21.6727 11.634 21.856 11.2673 21.9894C10.9173 22.1227 10.559 22.1894 10.1923 22.1894C9.709 22.1894 9.17566 22.0477 8.59233 21.7644C8.009 21.4644 7.409 21.0894 6.79233 20.6394C6.17566 20.1727 5.559 19.656 4.94233 19.0894C4.32566 18.506 3.734 17.931 3.16733 17.3644C2.60066 16.781 2.06733 16.231 1.56733 15.7144C1.06733 15.1977 0.642329 14.7727 0.292329 14.4394L0.742329 14.2144L5.46733 18.7144C5.56733 18.7977 5.684 18.8977 5.81733 19.0144C5.96733 19.1144 6.12566 19.2144 6.29233 19.3144C6.459 19.3977 6.62566 19.4727 6.79233 19.5394C6.959 19.606 7.10066 19.6394 7.21733 19.6394C7.584 19.6394 7.95066 19.581 8.31733 19.4644C8.684 19.331 9.01733 19.1477 9.31733 18.9144C9.61733 18.6644 9.859 18.381 10.0423 18.0644C10.2257 17.731 10.3173 17.3644 10.3173 16.9644C10.3173 16.7644 10.2923 16.5727 10.2423 16.3894C10.209 16.1894 10.159 15.9977 10.0923 15.8144C9.959 15.881 9.809 15.9227 9.64233 15.9394C9.49233 15.9394 9.34233 15.9394 9.19233 15.9394C8.809 15.9394 8.46733 15.8894 8.16733 15.7894C7.86733 15.6894 7.559 15.5394 7.24233 15.3394C7.14233 15.2727 6.95066 15.1227 6.66733 14.8894C6.384 14.656 6.084 14.406 5.76733 14.1394C5.45066 13.8727 5.16733 13.6227 4.91733 13.3894C4.684 13.156 4.559 13.006 4.54233 12.9394L4.79233 12.7144C5.27566 13.1644 5.84233 13.3894 6.49233 13.3894C7.059 13.3894 7.42566 13.2227 7.59233 12.8894C7.759 12.556 7.84233 12.1477 7.84233 11.6644C7.84233 11.281 7.859 10.9144 7.89233 10.5644C7.92566 10.1977 7.94233 9.82269 7.94233 9.43935C7.709 9.43935 7.47566 9.45602 7.24233 9.48936C7.02566 9.52269 6.82566 9.58935 6.64233 9.68935C6.459 9.78935 6.309 9.93102 6.19233 10.1144C6.09233 10.281 6.04233 10.506 6.04233 10.7894C6.04233 10.9227 6.07566 11.0394 6.14233 11.1394C6.209 11.2394 6.259 11.3477 6.29233 11.4644C6.209 11.4644 6.04233 11.3394 5.79233 11.0894C5.54233 10.8227 5.26733 10.531 4.96733 10.2144C4.684 9.88102 4.41733 9.55602 4.16733 9.23935C3.934 8.92269 3.79233 8.71435 3.74233 8.61435C3.59233 8.36435 3.51733 8.10602 3.51733 7.83935C3.51733 7.55602 3.59233 7.33936 3.74233 7.18936C3.909 7.03936 4.109 6.92269 4.34233 6.83936C4.59233 6.75602 4.84233 6.70602 5.09233 6.68935C5.359 6.67269 5.59233 6.66435 5.79233 6.66435H10.4673L13.0673 9.48936H12.2673C12.0007 9.70602 11.7757 9.89769 11.5923 10.0644C11.409 10.231 11.259 10.406 11.1423 10.5894C11.0423 10.7727 10.9673 10.981 10.9173 11.2144C10.884 11.4477 10.8673 11.7477 10.8673 12.1144C10.8673 12.431 10.8507 12.7477 10.8173 13.0644C10.8007 13.381 10.7923 13.6977 10.7923 14.0144C11.0257 14.0977 11.2507 14.1644 11.4673 14.2144C11.7007 14.2644 11.934 14.2894 12.1673 14.2894C12.3507 14.2894 12.5423 14.2644 12.7423 14.2144C12.9423 14.1644 13.1257 14.0894 13.2923 13.9894C13.459 13.8727 13.5923 13.7394 13.6923 13.5894C13.7923 13.4227 13.8423 13.231 13.8423 13.0144C13.8423 12.8977 13.834 12.8144 13.8173 12.7644C13.9007 12.7644 14.0923 12.881 14.3923 13.1144C14.709 13.3477 15.034 13.6144 15.3673 13.9144C15.7173 14.2144 16.034 14.506 16.3173 14.7894C16.6007 15.056 16.7507 15.231 16.7673 15.3144C16.784 15.3644 16.7923 15.4477 16.7923 15.5644C16.7923 15.7977 16.734 15.9977 16.6173 16.1644C16.5173 16.3144 16.384 16.4394 16.2173 16.5394C16.0507 16.6394 15.8673 16.7144 15.6673 16.7644C15.4673 16.8144 15.2673 16.8394 15.0673 16.8394ZM16.7898 14.0644C16.7898 14.9144 16.7898 15.7727 16.7898 16.6394C16.8065 17.4894 16.8148 18.3394 16.8148 19.1894C16.8148 19.8894 16.9398 20.4477 17.1898 20.8644C17.4398 21.281 17.8648 21.681 18.4648 22.0644L18.3898 22.2144C17.9065 21.931 17.4565 21.606 17.0398 21.2394C16.6231 20.856 16.2231 20.4727 15.8398 20.0894C15.3898 19.6394 15.0315 19.281 14.7648 19.0144C14.5148 18.731 14.3231 18.456 14.1898 18.1894C14.0565 17.906 13.9648 17.581 13.9148 17.2144C13.8815 16.831 13.8648 16.3144 13.8648 15.6644V10.6644L11.4398 7.81435C11.4398 7.64769 11.5065 7.49769 11.6398 7.36435C11.7565 7.21435 11.9065 7.08935 12.0898 6.98935C12.2565 6.88936 12.4398 6.81436 12.6398 6.76435C12.8398 6.69769 13.0065 6.66435 13.1398 6.66435H16.5398L19.5398 9.48936C18.9898 9.60602 18.5315 9.82269 18.1648 10.1394C17.8148 10.4394 17.5315 10.7977 17.3148 11.2144C17.1148 11.631 16.9731 12.0894 16.8898 12.5894C16.8231 13.0727 16.7898 13.5644 16.7898 14.0644ZM21.99 14.0644C21.99 14.9144 21.99 15.7727 21.99 16.6394C22.0067 17.4894 22.015 18.3394 22.015 19.1894C22.015 19.8894 22.14 20.4477 22.39 20.8644C22.64 21.281 23.065 21.681 23.665 22.0644L23.59 22.2144C23.1067 21.931 22.6567 21.606 22.24 21.2394C21.8233 20.856 21.4233 20.4727 21.04 20.0894C20.59 19.6394 20.2317 19.281 19.965 19.0144C19.715 18.731 19.5233 18.456 19.39 18.1894C19.2567 17.906 19.165 17.581 19.115 17.2144C19.0817 16.831 19.065 16.3144 19.065 15.6644V10.6644L16.64 7.81435C16.64 7.64769 16.7067 7.49769 16.84 7.36435C16.9567 7.21435 17.1067 7.08935 17.29 6.98935C17.4567 6.88936 17.64 6.81436 17.84 6.76435C18.04 6.69769 18.2067 6.66435 18.34 6.66435H21.74L24.74 9.48936C24.19 9.60602 23.7317 9.82269 23.365 10.1394C23.015 10.4394 22.7317 10.7977 22.515 11.2144C22.315 11.631 22.1733 12.0894 22.09 12.5894C22.0233 13.0727 21.99 13.5644 21.99 14.0644ZM31.9152 14.9394C31.9152 15.2894 31.9152 15.6477 31.9152 16.0144C31.9152 16.381 31.8902 16.7394 31.8402 17.0894C31.7902 17.4394 31.7068 17.7894 31.5902 18.1394C31.4902 18.4727 31.3318 18.7894 31.1152 19.0894C30.8818 19.4227 30.5902 19.706 30.2402 19.9394C29.8902 20.156 29.4985 20.2644 29.0652 20.2644C28.8318 20.2644 28.5235 20.181 28.1402 20.0144C27.7568 19.8477 27.3485 19.631 26.9152 19.3644C26.4818 19.081 26.0402 18.7727 25.5902 18.4394C25.1568 18.0894 24.7652 17.7394 24.4152 17.3894C24.0652 17.0227 23.7818 16.6727 23.5652 16.3394C23.3318 16.006 23.2152 15.7144 23.2152 15.4644C23.2152 14.8644 23.4318 14.3727 23.8652 13.9894C24.2985 13.606 24.8152 13.2977 25.4152 13.0644C26.0318 12.831 26.6652 12.6644 27.3152 12.5644C27.9652 12.4644 28.5152 12.406 28.9652 12.3894C28.9652 11.9894 28.9568 11.506 28.9402 10.9394C28.9235 10.3727 28.9068 9.88936 28.8902 9.48936H24.8402C24.4568 9.48936 24.1402 9.63936 23.8902 9.93935C23.6402 10.2227 23.4985 10.556 23.4652 10.9394L20.8902 7.98936C20.8902 7.78935 20.9485 7.60602 21.0652 7.43935C21.1818 7.27269 21.3235 7.13935 21.4902 7.03935C21.6402 6.92269 21.8068 6.83102 21.9902 6.76435C22.1735 6.69769 22.3402 6.66435 22.4902 6.66435H30.3402L30.9902 7.31436C31.2402 6.88102 31.5985 6.66435 32.0652 6.66435H35.0402L37.4902 9.48936H34.7402C34.3902 9.48936 34.0735 9.64769 33.7902 9.96436C33.5235 10.2644 33.3735 10.5894 33.3402 10.9394C33.2568 10.9227 33.1568 10.8644 33.0402 10.7644C32.9402 10.6644 32.8318 10.556 32.7152 10.4394C32.5985 10.306 32.4902 10.181 32.3902 10.0644C32.2902 9.94769 32.2152 9.85602 32.1652 9.78936C32.0152 10.0227 31.9235 10.2894 31.8902 10.5894C31.8568 10.8894 31.8402 11.1727 31.8402 11.4394C31.8402 11.5727 31.8318 11.7644 31.8152 12.0144C31.8152 12.2644 31.8235 12.456 31.8402 12.5894C32.2402 12.656 32.6985 12.831 33.2152 13.1144C33.7485 13.3977 34.2568 13.7394 34.7402 14.1394C35.2235 14.5227 35.6568 14.9394 36.0402 15.3894C36.4235 15.8394 36.6818 16.2644 36.8152 16.6644L36.3402 16.5894C35.9735 15.9894 35.5068 15.556 34.9402 15.2894C34.3735 15.0227 33.6902 14.8894 32.8902 14.8894C32.7235 14.8894 32.5652 14.8977 32.4152 14.9144C32.2652 14.9144 32.0985 14.9227 31.9152 14.9394ZM28.6902 15.5144C28.3735 15.5144 28.0152 15.5977 27.6152 15.7644C27.2318 15.931 26.8902 16.131 26.5902 16.3644C26.3068 16.581 26.1068 16.8144 25.9902 17.0644C25.8902 17.2977 25.9652 17.506 26.2152 17.6894C26.3652 17.7894 26.5485 17.8394 26.7652 17.8394C26.9818 17.8394 27.2068 17.781 27.4402 17.6644C27.6735 17.5477 27.8818 17.3894 28.0652 17.1894C28.2652 16.9727 28.4235 16.7227 28.5402 16.4394C28.6568 16.156 28.7068 15.8477 28.6902 15.5144ZM37.4197 14.0644C37.4197 14.9144 37.4197 15.7727 37.4197 16.6394C37.4363 17.4894 37.4447 18.3394 37.4447 19.1894C37.4447 19.8894 37.5697 20.4477 37.8197 20.8644C38.0697 21.281 38.4947 21.681 39.0947 22.0644L39.0197 22.2144C38.5363 21.931 38.0863 21.606 37.6697 21.2394C37.253 20.856 36.853 20.4727 36.4697 20.0894C36.0197 19.6394 35.6613 19.281 35.3947 19.0144C35.1447 18.731 34.953 18.456 34.8197 18.1894C34.6863 17.906 34.5947 17.581 34.5447 17.2144C34.5113 16.831 34.4947 16.3144 34.4947 15.6644V10.6644L32.0697 7.81435C32.0697 7.64769 32.1363 7.49769 32.2697 7.36435C32.3863 7.21435 32.5363 7.08935 32.7197 6.98935C32.8863 6.88936 33.0697 6.81436 33.2697 6.76435C33.4697 6.69769 33.6363 6.66435 33.7697 6.66435H37.1697L40.1697 9.48936C39.6197 9.60602 39.1613 9.82269 38.7947 10.1394C38.4447 10.4394 38.1613 10.7977 37.9447 11.2144C37.7447 11.631 37.603 12.0894 37.5197 12.5894C37.453 13.0727 37.4197 13.5644 37.4197 14.0644ZM45.6949 18.4144C45.5282 18.2644 45.2782 18.006 44.9449 17.6394C44.6115 17.256 44.2782 16.8477 43.9449 16.4144C43.6115 15.9644 43.3199 15.5394 43.0699 15.1394C42.8199 14.7227 42.7032 14.4144 42.7199 14.2144L41.3699 14.2394L38.7949 11.2894L46.7449 11.2144L49.5699 14.2394H49.0699C48.7365 14.2394 48.3532 14.256 47.9199 14.2894C47.5032 14.306 47.1032 14.3644 46.7199 14.4644C46.3365 14.5644 46.0115 14.7144 45.7449 14.9144C45.4949 15.1144 45.3699 15.3894 45.3699 15.7394C45.3699 15.9894 45.4282 16.206 45.5449 16.3894C45.6615 16.5727 45.8032 16.731 45.9699 16.8644C46.1532 16.9977 46.3532 17.0977 46.5699 17.1644C46.7865 17.231 47.0032 17.2644 47.2199 17.2644C47.7865 17.2644 48.2782 17.1394 48.6949 16.8894C49.1115 16.6227 49.4532 16.2894 49.7199 15.8894C50.0032 15.4894 50.2115 15.0394 50.3449 14.5394C50.4782 14.0394 50.5449 13.5394 50.5449 13.0394L50.5699 11.5394C50.6365 11.556 50.7949 11.6977 51.0449 11.9644C51.2949 12.231 51.5615 12.5394 51.8449 12.8894C52.1282 13.2227 52.3865 13.5394 52.6199 13.8394C52.8532 14.1394 52.9949 14.3394 53.0449 14.4394C53.1615 14.6727 53.2365 14.9144 53.2699 15.1644C53.3199 15.4144 53.3449 15.6727 53.3449 15.9394C53.3449 16.4894 53.2449 16.9977 53.0449 17.4644C52.8449 17.9144 52.5699 18.306 52.2199 18.6394C51.8699 18.9727 51.4532 19.231 50.9699 19.4144C50.5032 19.5977 50.0032 19.6894 49.4699 19.6894C48.7865 19.6894 48.1199 19.5894 47.4699 19.3894C46.8199 19.1894 46.2282 18.8644 45.6949 18.4144ZM50.3949 9.48936H41.7699C41.3865 9.48936 41.0449 9.63102 40.7449 9.91436C40.4449 10.181 40.2699 10.4977 40.2199 10.8644L37.8449 8.11436C37.8449 8.08102 37.8449 8.05602 37.8449 8.03935C37.8282 8.02269 37.8199 8.00602 37.8199 7.98936C37.8199 7.83936 37.8699 7.68936 37.9699 7.53936C38.0532 7.38936 38.1699 7.24769 38.3199 7.11435C38.4532 6.98102 38.6032 6.87269 38.7699 6.78935C38.9365 6.70602 39.0865 6.66435 39.2199 6.66435H47.8699L50.3949 9.48936ZM53.4841 14.0644C53.4841 14.9144 53.4841 15.7727 53.4841 16.6394C53.5008 17.4894 53.5091 18.3394 53.5091 19.1894C53.5091 19.8894 53.6341 20.4477 53.8841 20.8644C54.1341 21.281 54.5591 21.681 55.1591 22.0644L55.0841 22.2144C54.6008 21.931 54.1508 21.606 53.7341 21.2394C53.3175 20.856 52.9175 20.4727 52.5341 20.0894C52.0841 19.6394 51.7258 19.281 51.4591 19.0144C51.2091 18.731 51.0175 18.456 50.8841 18.1894C50.7508 17.906 50.6591 17.581 50.6091 17.2144C50.5758 16.831 50.5591 16.3144 50.5591 15.6644V10.6644L48.1341 7.81435C48.1341 7.64769 48.2008 7.49769 48.3341 7.36435C48.4508 7.21435 48.6008 7.08935 48.7841 6.98935C48.9508 6.88936 49.1341 6.81436 49.3341 6.76435C49.5341 6.69769 49.7008 6.66435 49.8341 6.66435H53.2341L56.2341 9.48936C55.6841 9.60602 55.2258 9.82269 54.8591 10.1394C54.5091 10.4394 54.2258 10.7977 54.0091 11.2144C53.8091 11.631 53.6675 12.0894 53.5841 12.5894C53.5175 13.0727 53.4841 13.5644 53.4841 14.0644ZM58.6843 14.0644C58.6843 14.9144 58.6843 15.7727 58.6843 16.6394C58.701 17.4894 58.7093 18.3394 58.7093 19.1894C58.7093 19.8894 58.8343 20.4477 59.0843 20.8644C59.3343 21.281 59.7593 21.681 60.3593 22.0644L60.2843 22.2144C59.801 21.931 59.351 21.606 58.9343 21.2394C58.5177 20.856 58.1177 20.4727 57.7343 20.0894C57.2843 19.6394 56.926 19.281 56.6593 19.0144C56.4093 18.731 56.2177 18.456 56.0843 18.1894C55.951 17.906 55.8593 17.581 55.8093 17.2144C55.776 16.831 55.7593 16.3144 55.7593 15.6644V10.6644L53.3343 7.81435C53.3343 7.64769 53.401 7.49769 53.5343 7.36435C53.651 7.21435 53.801 7.08935 53.9843 6.98935C54.151 6.88936 54.3343 6.81436 54.5343 6.76435C54.7343 6.69769 54.901 6.66435 55.0343 6.66435H58.4343L61.4343 9.48936C60.8843 9.60602 60.426 9.82269 60.0593 10.1394C59.7093 10.4394 59.426 10.7977 59.2093 11.2144C59.0093 11.631 58.8677 12.0894 58.7843 12.5894C58.7177 13.0727 58.6843 13.5644 58.6843 14.0644ZM51.4845 1.46435C51.8012 1.46435 52.1595 1.58102 52.5595 1.81435C52.9595 2.03102 53.3762 2.32269 53.8095 2.68936C54.2428 3.05602 54.6845 3.47269 55.1345 3.93936C55.5678 4.40602 55.9845 4.88102 56.3845 5.36435C56.7845 5.83102 57.1512 6.28935 57.4845 6.73936C57.8179 7.17269 58.0929 7.54769 58.3095 7.86436L57.6845 8.21436C57.4512 7.76436 57.1679 7.33102 56.8345 6.91435C56.5012 6.49769 56.1345 6.13935 55.7345 5.83935C55.3179 5.52269 54.8762 5.27269 54.4095 5.08935C53.9262 4.88935 53.4178 4.78935 52.8845 4.78935C52.6178 4.80602 52.3428 4.89769 52.0595 5.06435C51.7595 5.21435 51.4678 5.40602 51.1845 5.63935C50.9012 5.87269 50.6345 6.14769 50.3845 6.46435C50.1345 6.78102 49.9179 7.11436 49.7345 7.46435C49.6345 7.41435 49.4262 7.26435 49.1095 7.01435C48.7928 6.76435 48.4678 6.49769 48.1345 6.21435C47.7845 5.91435 47.4762 5.63935 47.2095 5.38935C46.9262 5.13935 46.7845 4.98935 46.7845 4.93935V4.91435C47.0845 4.31435 47.4595 3.79769 47.9095 3.36436C48.3428 2.93102 48.7928 2.57269 49.2595 2.28935C49.7262 2.00602 50.1678 1.79769 50.5845 1.66435C50.9845 1.53102 51.2845 1.46435 51.4845 1.46435ZM69.9845 14.8894C70.0679 15.056 70.2512 15.2227 70.5345 15.3894C70.8179 15.556 71.1679 15.6394 71.5845 15.6394C71.6345 15.6394 71.6845 15.6394 71.7345 15.6394C71.8012 15.6394 71.8595 15.631 71.9095 15.6144C73.1762 15.4477 74.0262 14.9977 74.4595 14.2644C74.9095 13.531 75.0512 12.6227 74.8845 11.5394C74.9845 11.5727 75.1762 11.6977 75.4595 11.9144C75.7595 12.1144 76.0595 12.3477 76.3595 12.6144C76.6762 12.8644 76.9595 13.106 77.2095 13.3394C77.4595 13.556 77.5845 13.6977 77.5845 13.7644C77.5845 14.381 77.5012 14.956 77.3345 15.4894C77.1845 16.0227 76.9512 16.4894 76.6345 16.8894C76.3345 17.2727 75.9679 17.5727 75.5345 17.7894C75.1179 18.006 74.6512 18.1144 74.1345 18.1144C73.5845 18.1144 73.0429 18.006 72.5095 17.7894C71.9929 17.5727 71.4845 17.306 70.9845 16.9894C70.4845 16.656 70.0095 16.2977 69.5595 15.9144C69.1095 15.531 68.6929 15.1644 68.3095 14.8144C68.2429 14.7477 68.1429 14.6644 68.0095 14.5644C67.8762 14.4644 67.7429 14.3644 67.6095 14.2644C67.4929 14.1477 67.3762 14.0394 67.2595 13.9394C67.1429 13.8227 67.0595 13.7227 67.0095 13.6394L66.9845 9.48936C66.5179 9.48936 66.1179 9.63936 65.7845 9.93935C65.4512 10.2394 65.2679 10.631 65.2345 11.1144L62.6845 8.16435C62.7512 7.89769 62.8678 7.67269 63.0345 7.48935C63.1845 7.30602 63.3679 7.15602 63.5845 7.03935C63.7845 6.90602 64.0095 6.81436 64.2595 6.76435C64.4929 6.69769 64.7262 6.66435 64.9595 6.66435H70.3345L71.1345 7.38935C71.4679 7.07269 71.8012 6.87269 72.1345 6.78935C72.4679 6.70602 72.8679 6.66435 73.3345 6.66435H76.9595L79.4095 9.48936H76.9095C76.5262 9.48936 76.1429 9.50602 75.7595 9.53935C75.3929 9.55602 75.0345 9.62269 74.6845 9.73936C74.3512 9.83935 74.0345 10.006 73.7345 10.2394C73.4512 10.456 73.2012 10.756 72.9845 11.1394C72.5345 10.7394 72.1095 10.3144 71.7095 9.86436C71.5095 9.94769 71.3012 10.081 71.0845 10.2644C70.8845 10.431 70.6929 10.631 70.5095 10.8644C70.3429 11.081 70.2012 11.331 70.0845 11.6144C69.9845 11.881 69.9345 12.156 69.9345 12.4394C69.9345 12.9227 69.9429 13.331 69.9595 13.6644C69.9762 13.9977 69.9845 14.406 69.9845 14.8894ZM77.6296 14.0644C77.6296 14.9144 77.6296 15.7727 77.6296 16.6394C77.6463 17.4894 77.6546 18.3394 77.6546 19.1894C77.6546 19.8894 77.7796 20.4477 78.0296 20.8644C78.2796 21.281 78.7046 21.681 79.3046 22.0644L79.2296 22.2144C78.7463 21.931 78.2963 21.606 77.8796 21.2394C77.463 20.856 77.063 20.4727 76.6796 20.0894C76.2296 19.6394 75.8713 19.281 75.6046 19.0144C75.3546 18.731 75.163 18.456 75.0296 18.1894C74.8963 17.906 74.8046 17.581 74.7546 17.2144C74.7213 16.831 74.7046 16.3144 74.7046 15.6644V10.6644L72.2796 7.81435C72.2796 7.64769 72.3463 7.49769 72.4796 7.36435C72.5963 7.21435 72.7463 7.08935 72.9296 6.98935C73.0963 6.88936 73.2796 6.81436 73.4796 6.76435C73.6796 6.69769 73.8463 6.66435 73.9796 6.66435H77.3796L80.3796 9.48936C79.8296 9.60602 79.3713 9.82269 79.0046 10.1394C78.6546 10.4394 78.3713 10.7977 78.1546 11.2144C77.9546 11.631 77.813 12.0894 77.7296 12.5894C77.663 13.0727 77.6296 13.5644 77.6296 14.0644ZM87.1548 13.7144C87.1548 14.1644 87.1632 14.581 87.1798 14.9644C87.2132 15.3477 87.1882 15.681 87.1048 15.9644C87.0215 16.231 86.8382 16.4394 86.5548 16.5894C86.2715 16.7394 85.8215 16.8144 85.2048 16.8144C84.8215 16.8144 84.4965 16.7894 84.2298 16.7394C83.9632 16.6894 83.7215 16.6144 83.5048 16.5144C83.2882 16.3977 83.0715 16.256 82.8548 16.0894C82.6548 15.9227 82.4132 15.7227 82.1298 15.4894C82.0132 15.7894 82.0215 16.106 82.1548 16.4394C82.3048 16.7727 82.5132 17.081 82.7798 17.3644C83.0465 17.6477 83.3465 17.881 83.6798 18.0644C84.0132 18.2477 84.3048 18.3394 84.5548 18.3394C84.8715 18.3394 85.1548 18.281 85.4048 18.1644C85.6715 18.0477 85.9132 17.9227 86.1298 17.7894C86.3632 17.656 86.5798 17.531 86.7798 17.4144C86.9798 17.2977 87.1715 17.2394 87.3548 17.2394C87.5715 17.2394 87.9215 17.406 88.4048 17.7394C88.9048 18.056 89.4132 18.4394 89.9298 18.8894C90.4632 19.3227 90.9548 19.756 91.4048 20.1894C91.8715 20.606 92.1798 20.9144 92.3298 21.1144C92.2965 21.081 92.2548 21.0977 92.2048 21.1644C92.1715 21.231 92.1298 21.2644 92.0798 21.2644C92.0798 21.2644 92.0632 21.2477 92.0298 21.2144C91.9298 21.031 91.7965 20.856 91.6298 20.6894C91.4798 20.5227 91.3215 20.3727 91.1548 20.2394C90.9882 20.106 90.8298 19.9977 90.6798 19.9144C90.5465 19.831 90.4382 19.7894 90.3548 19.7894C90.1382 19.7894 89.9048 19.856 89.6548 19.9894C89.4215 20.106 89.1715 20.2394 88.9048 20.3894C88.6382 20.5227 88.3632 20.656 88.0798 20.7894C87.7965 20.906 87.4965 20.9644 87.1798 20.9644C86.9465 20.9644 86.7048 20.9227 86.4548 20.8394C86.2215 20.756 86.0132 20.6477 85.8298 20.5144C85.5965 20.3644 85.2632 20.106 84.8298 19.7394C84.3965 19.3727 83.9215 18.9477 83.4048 18.4644C82.9048 17.981 82.3882 17.4727 81.8548 16.9394C81.3215 16.3894 80.8382 15.8644 80.4048 15.3644C79.9715 14.8477 79.6215 14.3727 79.3548 13.9394C79.0715 13.506 78.9298 13.1644 78.9298 12.9144C78.9298 12.7644 78.9882 12.6227 79.1048 12.4894C79.2048 12.356 79.3382 12.2394 79.5048 12.1394C79.6715 12.0394 79.8382 11.9644 80.0048 11.9144C80.1882 11.8644 80.3465 11.8394 80.4798 11.8394C80.6798 11.8394 80.9298 11.931 81.2298 12.1144C81.5298 12.281 81.8298 12.4894 82.1298 12.7394C82.4298 12.9727 82.7132 13.2144 82.9798 13.4644C83.2465 13.7144 83.4465 13.9144 83.5798 14.0644C83.8632 13.8977 84.0382 13.7227 84.1048 13.5394C84.1882 13.3394 84.2298 13.0894 84.2298 12.7894C84.2298 12.256 84.2215 11.706 84.2048 11.1394C84.2048 10.5727 84.2048 10.0227 84.2048 9.48936H81.8298C81.3965 9.48936 80.9882 9.62269 80.6048 9.88935C80.2215 10.1394 79.9798 10.506 79.8798 10.9894L77.3298 8.06435C77.5132 7.83102 77.6882 7.63102 77.8548 7.46435C78.0215 7.28102 78.2215 7.13102 78.4548 7.01435C78.6715 6.89769 78.9382 6.81436 79.2548 6.76435C79.5548 6.69769 79.9465 6.66435 80.4298 6.66435H85.9548L87.2798 7.68935C87.6298 7.27269 87.9965 6.99769 88.3798 6.86435C88.7632 6.73102 89.2048 6.66435 89.7048 6.66435H91.3798L93.8048 9.48936H92.9298C92.6298 9.48936 92.3215 9.50602 92.0048 9.53935C91.6882 9.55602 91.3798 9.60602 91.0798 9.68935C90.7965 9.75602 90.5465 9.86436 90.3298 10.0144C90.1132 10.1644 89.9548 10.3727 89.8548 10.6394L88.8048 9.48936H88.5048C88.0882 9.80602 87.7548 10.1477 87.5048 10.5144C87.2715 10.881 87.1548 11.3477 87.1548 11.9144V13.7144ZM83.2464 2.21436C83.2464 2.11435 83.3631 1.97269 83.5964 1.78935C83.8131 1.60602 84.0631 1.42269 84.3464 1.23935C84.6131 1.03935 84.8631 0.856021 85.0964 0.689354C85.3131 0.522687 85.4214 0.397688 85.4214 0.314354C85.5214 0.364355 85.7298 0.514355 86.0464 0.764354C86.3631 0.997688 86.6964 1.26435 87.0464 1.56435C87.3798 1.84769 87.6798 2.12269 87.9464 2.38935C88.2131 2.63935 88.3464 2.80602 88.3464 2.88935C88.3464 2.95602 88.2464 3.06435 88.0464 3.21435C87.8298 3.36435 87.5964 3.53935 87.3464 3.73935C87.0964 3.92269 86.8548 4.10602 86.6214 4.28936C86.3881 4.47269 86.2464 4.63102 86.1964 4.76436C86.0964 4.69769 85.8881 4.53936 85.5714 4.28936C85.2548 4.03935 84.9214 3.77269 84.5714 3.48936C84.2214 3.20602 83.9131 2.93935 83.6464 2.68936C83.3798 2.43935 83.2464 2.28102 83.2464 2.21436ZM93.4464 14.8894C93.5298 15.056 93.7131 15.2227 93.9964 15.3894C94.2798 15.556 94.6298 15.6394 95.0464 15.6394C95.0964 15.6394 95.1464 15.6394 95.1964 15.6394C95.2631 15.6394 95.3214 15.631 95.3714 15.6144C96.6381 15.4477 97.4881 14.9977 97.9214 14.2644C98.3714 13.531 98.5131 12.6227 98.3464 11.5394C98.4464 11.5727 98.6381 11.6977 98.9214 11.9144C99.2214 12.1144 99.5214 12.3477 99.8214 12.6144C100.138 12.8644 100.421 13.106 100.671 13.3394C100.921 13.556 101.046 13.6977 101.046 13.7644C101.046 14.381 100.963 14.956 100.796 15.4894C100.646 16.0227 100.413 16.4894 100.096 16.8894C99.7964 17.2727 99.4298 17.5727 98.9964 17.7894C98.5798 18.006 98.1131 18.1144 97.5964 18.1144C97.0464 18.1144 96.5048 18.006 95.9714 17.7894C95.4548 17.5727 94.9464 17.306 94.4464 16.9894C93.9464 16.656 93.4714 16.2977 93.0214 15.9144C92.5714 15.531 92.1548 15.1644 91.7714 14.8144C91.7048 14.7477 91.6048 14.6644 91.4714 14.5644C91.3381 14.4644 91.2048 14.3644 91.0714 14.2644C90.9548 14.1477 90.8381 14.0394 90.7214 13.9394C90.6048 13.8227 90.5214 13.7227 90.4714 13.6394L90.4464 9.48936C89.9798 9.48936 89.5798 9.63936 89.2464 9.93935C88.9131 10.2394 88.7298 10.631 88.6964 11.1144L86.1464 8.16435C86.2131 7.89769 86.3298 7.67269 86.4964 7.48935C86.6464 7.30602 86.8298 7.15602 87.0464 7.03935C87.2464 6.90602 87.4714 6.81436 87.7214 6.76435C87.9548 6.69769 88.1881 6.66435 88.4214 6.66435H93.7964L94.5964 7.38935C94.9298 7.07269 95.2631 6.87269 95.5964 6.78935C95.9298 6.70602 96.3298 6.66435 96.7964 6.66435H100.421L102.871 9.48936H100.371C99.9881 9.48936 99.6048 9.50602 99.2214 9.53935C98.8548 9.55602 98.4964 9.62269 98.1464 9.73936C97.8131 9.83935 97.4964 10.006 97.1964 10.2394C96.9131 10.456 96.6631 10.756 96.4464 11.1394C95.9964 10.7394 95.5714 10.3144 95.1714 9.86436C94.9714 9.94769 94.7631 10.081 94.5464 10.2644C94.3464 10.431 94.1548 10.631 93.9714 10.8644C93.8048 11.081 93.6631 11.331 93.5464 11.6144C93.4464 11.881 93.3964 12.156 93.3964 12.4394C93.3964 12.9227 93.4048 13.331 93.4214 13.6644C93.4381 13.9977 93.4464 14.406 93.4464 14.8894ZM101.092 14.0644C101.092 14.9144 101.092 15.7727 101.092 16.6394C101.108 17.4894 101.117 18.3394 101.117 19.1894C101.117 19.8894 101.242 20.4477 101.492 20.8644C101.742 21.281 102.167 21.681 102.767 22.0644L102.692 22.2144C102.208 21.931 101.758 21.606 101.342 21.2394C100.925 20.856 100.525 20.4727 100.142 20.0894C99.6915 19.6394 99.3332 19.281 99.0665 19.0144C98.8165 18.731 98.6249 18.456 98.4915 18.1894C98.3582 17.906 98.2665 17.581 98.2165 17.2144C98.1832 16.831 98.1665 16.3144 98.1665 15.6644V10.6644L95.7415 7.81435C95.7415 7.64769 95.8082 7.49769 95.9415 7.36435C96.0582 7.21435 96.2082 7.08935 96.3915 6.98935C96.5582 6.88936 96.7415 6.81436 96.9415 6.76435C97.1415 6.69769 97.3082 6.66435 97.4415 6.66435H100.842L103.842 9.48936C103.292 9.60602 102.833 9.82269 102.467 10.1394C102.117 10.4394 101.833 10.7977 101.617 11.2144C101.417 11.631 101.275 12.0894 101.192 12.5894C101.125 13.0727 101.092 13.5644 101.092 14.0644ZM110.617 13.7144C110.617 14.1644 110.625 14.581 110.642 14.9644C110.675 15.3477 110.65 15.681 110.567 15.9644C110.483 16.231 110.3 16.4394 110.017 16.5894C109.733 16.7394 109.283 16.8144 108.667 16.8144C108.283 16.8144 107.958 16.7894 107.692 16.7394C107.425 16.6894 107.183 16.6144 106.967 16.5144C106.75 16.3977 106.533 16.256 106.317 16.0894C106.117 15.9227 105.875 15.7227 105.592 15.4894C105.475 15.7894 105.483 16.106 105.617 16.4394C105.767 16.7727 105.975 17.081 106.242 17.3644C106.508 17.6477 106.808 17.881 107.142 18.0644C107.475 18.2477 107.767 18.3394 108.017 18.3394C108.333 18.3394 108.617 18.281 108.867 18.1644C109.133 18.0477 109.375 17.9227 109.592 17.7894C109.825 17.656 110.042 17.531 110.242 17.4144C110.442 17.2977 110.633 17.2394 110.817 17.2394C111.033 17.2394 111.383 17.406 111.867 17.7394C112.367 18.056 112.875 18.4394 113.392 18.8894C113.925 19.3227 114.417 19.756 114.867 20.1894C115.333 20.606 115.642 20.9144 115.792 21.1144C115.758 21.081 115.717 21.0977 115.667 21.1644C115.633 21.231 115.592 21.2644 115.542 21.2644C115.542 21.2644 115.525 21.2477 115.492 21.2144C115.392 21.031 115.258 20.856 115.092 20.6894C114.942 20.5227 114.783 20.3727 114.617 20.2394C114.45 20.106 114.292 19.9977 114.142 19.9144C114.008 19.831 113.9 19.7894 113.817 19.7894C113.6 19.7894 113.367 19.856 113.117 19.9894C112.883 20.106 112.633 20.2394 112.367 20.3894C112.1 20.5227 111.825 20.656 111.542 20.7894C111.258 20.906 110.958 20.9644 110.642 20.9644C110.408 20.9644 110.167 20.9227 109.917 20.8394C109.683 20.756 109.475 20.6477 109.292 20.5144C109.058 20.3644 108.725 20.106 108.292 19.7394C107.858 19.3727 107.383 18.9477 106.867 18.4644C106.367 17.981 105.85 17.4727 105.317 16.9394C104.783 16.3894 104.3 15.8644 103.867 15.3644C103.433 14.8477 103.083 14.3727 102.817 13.9394C102.533 13.506 102.392 13.1644 102.392 12.9144C102.392 12.7644 102.45 12.6227 102.567 12.4894C102.667 12.356 102.8 12.2394 102.967 12.1394C103.133 12.0394 103.3 11.9644 103.467 11.9144C103.65 11.8644 103.808 11.8394 103.942 11.8394C104.142 11.8394 104.392 11.931 104.692 12.1144C104.992 12.281 105.292 12.4894 105.592 12.7394C105.892 12.9727 106.175 13.2144 106.442 13.4644C106.708 13.7144 106.908 13.9144 107.042 14.0644C107.325 13.8977 107.5 13.7227 107.567 13.5394C107.65 13.3394 107.692 13.0894 107.692 12.7894C107.692 12.256 107.683 11.706 107.667 11.1394C107.667 10.5727 107.667 10.0227 107.667 9.48936H105.292C104.858 9.48936 104.45 9.62269 104.067 9.88935C103.683 10.1394 103.442 10.506 103.342 10.9894L100.792 8.06435C100.975 7.83102 101.15 7.63102 101.317 7.46435C101.483 7.28102 101.683 7.13102 101.917 7.01435C102.133 6.89769 102.4 6.81436 102.717 6.76435C103.017 6.69769 103.408 6.66435 103.892 6.66435H109.417L110.742 7.68935C111.092 7.27269 111.458 6.99769 111.842 6.86435C112.225 6.73102 112.667 6.66435 113.167 6.66435H114.842L117.267 9.48936H116.392C116.092 9.48936 115.783 9.50602 115.467 9.53935C115.15 9.55602 114.842 9.60602 114.542 9.68935C114.258 9.75602 114.008 9.86436 113.792 10.0144C113.575 10.1644 113.417 10.3727 113.317 10.6394L112.267 9.48936H111.967C111.55 9.80602 111.217 10.1477 110.967 10.5144C110.733 10.881 110.617 11.3477 110.617 11.9144V13.7144ZM117.058 14.0644C117.058 14.9144 117.058 15.7727 117.058 16.6394C117.075 17.4894 117.083 18.3394 117.083 19.1894C117.083 19.8894 117.208 20.4477 117.458 20.8644C117.708 21.281 118.133 21.681 118.733 22.0644L118.658 22.2144C118.175 21.931 117.725 21.606 117.308 21.2394C116.892 20.856 116.492 20.4727 116.108 20.0894C115.658 19.6394 115.3 19.281 115.033 19.0144C114.783 18.731 114.592 18.456 114.458 18.1894C114.325 17.906 114.233 17.581 114.183 17.2144C114.15 16.831 114.133 16.3144 114.133 15.6644V10.6644L111.708 7.81435C111.708 7.64769 111.775 7.49769 111.908 7.36435C112.025 7.21435 112.175 7.08935 112.358 6.98935C112.525 6.88936 112.708 6.81436 112.908 6.76435C113.108 6.69769 113.275 6.66435 113.408 6.66435H116.808L119.808 9.48936C119.258 9.60602 118.8 9.82269 118.433 10.1394C118.083 10.4394 117.8 10.7977 117.583 11.2144C117.383 11.631 117.242 12.0894 117.158 12.5894C117.092 13.0727 117.058 13.5644 117.058 14.0644ZM128.509 14.0644C128.509 14.9144 128.509 15.7727 128.509 16.6394C128.525 17.4894 128.534 18.3394 128.534 19.1894C128.534 19.8894 128.659 20.4477 128.909 20.8644C129.159 21.281 129.584 21.681 130.184 22.0644L130.109 22.2144C129.625 21.931 129.175 21.606 128.759 21.2394C128.342 20.856 127.942 20.4727 127.559 20.0894C127.109 19.6394 126.75 19.281 126.484 19.0144C126.234 18.731 126.042 18.456 125.909 18.1894C125.775 17.906 125.684 17.581 125.634 17.2144C125.6 16.831 125.584 16.3144 125.584 15.6644V10.6644L123.159 7.81435C123.159 7.64769 123.225 7.49769 123.359 7.36435C123.475 7.21435 123.625 7.08935 123.809 6.98935C123.975 6.88936 124.159 6.81436 124.359 6.76435C124.559 6.69769 124.725 6.66435 124.859 6.66435H128.259L131.259 9.48936C130.709 9.60602 130.25 9.82269 129.884 10.1394C129.534 10.4394 129.25 10.7977 129.034 11.2144C128.834 11.631 128.692 12.0894 128.609 12.5894C128.542 13.0727 128.509 13.5644 128.509 14.0644ZM140.384 8.83935C140.234 8.68935 140.017 8.44769 139.734 8.11436C139.45 7.78102 139.159 7.43102 138.859 7.06436C138.575 6.69769 138.309 6.36435 138.059 6.06435C137.809 5.76435 137.65 5.57269 137.584 5.48935C137.084 4.87269 136.567 4.40602 136.034 4.08935C135.5 3.77269 134.834 3.61436 134.034 3.61436C133.267 3.61436 132.484 3.79769 131.684 4.16435C130.884 4.53102 130.142 4.93935 129.459 5.38935C128.775 5.82269 128.192 6.22269 127.709 6.58936C127.225 6.95602 126.925 7.13935 126.809 7.13935L124.259 4.23935V4.21435C124.775 3.76435 125.334 3.36435 125.934 3.01436C126.534 2.66435 127.125 2.30602 127.709 1.93935C128.292 1.57269 128.9 1.27269 129.534 1.03935C130.167 0.789354 130.834 0.664354 131.534 0.664354C132.384 0.664354 133.184 0.864354 133.934 1.26435C134.684 1.66435 135.384 2.16435 136.034 2.76435C136.684 3.36435 137.284 4.01435 137.834 4.71435C138.4 5.41435 138.925 6.06435 139.409 6.66435C139.542 6.81435 139.65 6.95602 139.734 7.08935C139.834 7.20602 139.934 7.33102 140.034 7.46435C140.134 7.59769 140.25 7.74769 140.384 7.91435C140.517 8.08102 140.684 8.28102 140.884 8.51435L140.384 8.83935ZM134.184 10.6394C134.584 10.6394 135.017 10.6894 135.484 10.7894C135.967 10.8894 136.392 11.031 136.759 11.2144C136.859 11.2644 137.059 11.4144 137.359 11.6644C137.675 11.8977 138 12.156 138.334 12.4394C138.667 12.706 138.967 12.9644 139.234 13.2144C139.5 13.4644 139.642 13.631 139.659 13.7144C139.375 13.581 139.125 13.481 138.909 13.4144C138.709 13.3477 138.509 13.2977 138.309 13.2644C138.125 13.231 137.942 13.2144 137.759 13.2144C137.575 13.1977 137.375 13.1894 137.159 13.1894C136.609 13.1894 136.092 13.281 135.609 13.4644C135.125 13.6477 134.7 13.906 134.334 14.2394C133.967 14.556 133.675 14.9477 133.459 15.4144C133.259 15.881 133.159 16.3977 133.159 16.9644C133.159 17.5644 133.234 18.0977 133.384 18.5644C133.55 19.0144 133.759 19.4227 134.009 19.7894C134.259 20.1394 134.542 20.4477 134.859 20.7144C135.175 20.9644 135.484 21.1894 135.784 21.3894C135.15 21.1894 134.509 20.8144 133.859 20.2644C133.209 19.6977 132.617 19.0727 132.084 18.3894C131.55 17.6894 131.109 16.981 130.759 16.2644C130.425 15.531 130.259 14.906 130.259 14.3894C130.259 13.8227 130.359 13.306 130.559 12.8394C130.759 12.3727 131.034 11.981 131.384 11.6644C131.734 11.331 132.15 11.081 132.634 10.9144C133.117 10.731 133.634 10.6394 134.184 10.6394ZM133.534 9.48936C133.234 9.48936 132.934 9.49769 132.634 9.51436C132.334 9.53102 132.05 9.58935 131.784 9.68935C131.534 9.78935 131.317 9.94769 131.134 10.1644C130.967 10.3644 130.867 10.6644 130.834 11.0644L128.284 8.11436C128.284 7.86435 128.342 7.64769 128.459 7.46435C128.575 7.28102 128.725 7.13102 128.909 7.01435C129.075 6.89769 129.267 6.81436 129.484 6.76435C129.7 6.69769 129.917 6.66435 130.134 6.66435H136.359L138.809 9.48936H133.534ZM141.277 14.0644C141.277 14.9144 141.277 15.7727 141.277 16.6394C141.294 17.4894 141.302 18.3394 141.302 19.1894C141.302 19.8894 141.427 20.4477 141.677 20.8644C141.927 21.281 142.352 21.681 142.952 22.0644L142.877 22.2144C142.394 21.931 141.944 21.606 141.527 21.2394C141.11 20.856 140.71 20.4727 140.327 20.0894C139.877 19.6394 139.519 19.281 139.252 19.0144C139.002 18.731 138.81 18.456 138.677 18.1894C138.544 17.906 138.452 17.581 138.402 17.2144C138.369 16.831 138.352 16.3144 138.352 15.6644V10.6644L135.927 7.81435C135.927 7.64769 135.994 7.49769 136.127 7.36435C136.244 7.21435 136.394 7.08935 136.577 6.98935C136.744 6.88936 136.927 6.81436 137.127 6.76435C137.327 6.69769 137.494 6.66435 137.627 6.66435H141.027L144.027 9.48936C143.477 9.60602 143.019 9.82269 142.652 10.1394C142.302 10.4394 142.019 10.7977 141.802 11.2144C141.602 11.631 141.46 12.0894 141.377 12.5894C141.31 13.0727 141.277 13.5644 141.277 14.0644ZM150.527 13.9894C149.977 13.9894 149.427 14.081 148.877 14.2644C149.111 14.4644 149.352 14.6727 149.602 14.8894C149.852 15.0894 150.077 15.3144 150.277 15.5644C150.477 15.8144 150.644 16.0894 150.777 16.3894C150.911 16.6727 150.977 16.981 150.977 17.3144C150.977 17.681 150.911 18.0727 150.777 18.4894C150.661 18.8894 150.486 19.2644 150.252 19.6144C150.036 19.9477 149.761 20.2227 149.427 20.4394C149.094 20.656 148.711 20.7644 148.277 20.7644C147.927 20.7644 147.527 20.6477 147.077 20.4144C146.627 20.181 146.186 19.8977 145.752 19.5644C145.319 19.231 144.911 18.881 144.527 18.5144C144.144 18.1477 143.844 17.831 143.627 17.5644C143.377 17.2644 143.177 16.9394 143.027 16.5894C142.877 16.2227 142.802 15.8477 142.802 15.4644C142.802 14.831 142.952 14.2644 143.252 13.7644C143.536 13.2644 143.911 12.8477 144.377 12.5144C144.861 12.1644 145.394 11.8977 145.977 11.7144C146.561 11.531 147.136 11.4394 147.702 11.4394C148.386 11.4394 149.052 11.5727 149.702 11.8394C150.369 12.0894 151.002 12.4227 151.602 12.8394C152.219 13.2394 152.794 13.6894 153.327 14.1894C153.861 14.6894 154.336 15.181 154.752 15.6644C154.669 15.6644 154.527 15.581 154.327 15.4144C154.127 15.231 153.852 15.0394 153.502 14.8394C153.152 14.6227 152.727 14.431 152.227 14.2644C151.744 14.081 151.177 13.9894 150.527 13.9894ZM153.052 9.48936H145.727H145.227C144.977 9.48936 144.719 9.50602 144.452 9.53935C144.202 9.55602 143.977 9.61435 143.777 9.71436C143.577 9.81436 143.411 9.96435 143.277 10.1644C143.127 10.3477 143.044 10.606 143.027 10.9394L140.577 8.11436C140.577 7.86435 140.636 7.64769 140.752 7.46435C140.852 7.28102 140.994 7.13102 141.177 7.01435C141.344 6.89769 141.536 6.81436 141.752 6.76435C141.969 6.69769 142.186 6.66435 142.402 6.66435H150.602L153.052 9.48936ZM148.277 14.5394C147.911 14.706 147.519 14.9394 147.102 15.2394C146.686 15.5227 146.327 15.8394 146.027 16.1894C145.727 16.5394 145.536 16.8894 145.452 17.2394C145.369 17.5894 145.461 17.8977 145.727 18.1644C145.911 18.3144 146.127 18.3894 146.377 18.3894C146.694 18.3894 147.036 18.281 147.402 18.0644C147.769 17.8477 148.077 17.5644 148.327 17.2144C148.577 16.8477 148.719 16.4394 148.752 15.9894C148.786 15.5227 148.627 15.0394 148.277 14.5394ZM155.535 14.0644C155.535 14.9144 155.535 15.7727 155.535 16.6394C155.552 17.4894 155.56 18.3394 155.56 19.1894C155.56 19.8894 155.685 20.4477 155.935 20.8644C156.185 21.281 156.61 21.681 157.21 22.0644L157.135 22.2144C156.652 21.931 156.202 21.606 155.785 21.2394C155.368 20.856 154.968 20.4727 154.585 20.0894C154.135 19.6394 153.777 19.281 153.51 19.0144C153.26 18.731 153.068 18.456 152.935 18.1894C152.802 17.906 152.71 17.581 152.66 17.2144C152.627 16.831 152.61 16.3144 152.61 15.6644V10.6644L150.185 7.81435C150.185 7.64769 150.252 7.49769 150.385 7.36435C150.502 7.21435 150.652 7.08935 150.835 6.98935C151.002 6.88936 151.185 6.81436 151.385 6.76435C151.585 6.69769 151.752 6.66435 151.885 6.66435H155.285L158.285 9.48936C157.735 9.60602 157.277 9.82269 156.91 10.1394C156.56 10.4394 156.277 10.7977 156.06 11.2144C155.86 11.631 155.718 12.0894 155.635 12.5894C155.568 13.0727 155.535 13.5644 155.535 14.0644ZM166.985 14.0644C166.985 14.9144 166.985 15.7727 166.985 16.6394C167.002 17.4894 167.01 18.3394 167.01 19.1894C167.01 19.8894 167.135 20.4477 167.385 20.8644C167.635 21.281 168.06 21.681 168.66 22.0644L168.585 22.2144C168.102 21.931 167.652 21.606 167.235 21.2394C166.818 20.856 166.418 20.4727 166.035 20.0894C165.585 19.6394 165.227 19.281 164.96 19.0144C164.71 18.731 164.518 18.456 164.385 18.1894C164.252 17.906 164.16 17.581 164.11 17.2144C164.077 16.831 164.06 16.3144 164.06 15.6644V10.6644L161.635 7.81435C161.635 7.64769 161.702 7.49769 161.835 7.36435C161.952 7.21435 162.102 7.08935 162.285 6.98935C162.452 6.88936 162.635 6.81436 162.835 6.76435C163.035 6.69769 163.202 6.66435 163.335 6.66435H166.735L169.735 9.48936C169.185 9.60602 168.727 9.82269 168.36 10.1394C168.01 10.4394 167.727 10.7977 167.51 11.2144C167.31 11.631 167.168 12.0894 167.085 12.5894C167.018 13.0727 166.985 13.5644 166.985 14.0644ZM178.86 8.83935C178.71 8.68935 178.494 8.44769 178.21 8.11436C177.927 7.78102 177.635 7.43102 177.335 7.06436C177.052 6.69769 176.785 6.36435 176.535 6.06435C176.285 5.76435 176.127 5.57269 176.06 5.48935C175.56 4.87269 175.044 4.40602 174.51 4.08935C173.977 3.77269 173.31 3.61436 172.51 3.61436C171.744 3.61436 170.96 3.79769 170.16 4.16435C169.36 4.53102 168.619 4.93935 167.935 5.38935C167.252 5.82269 166.669 6.22269 166.185 6.58936C165.702 6.95602 165.402 7.13935 165.285 7.13935L162.735 4.23935V4.21435C163.252 3.76435 163.81 3.36435 164.41 3.01436C165.01 2.66435 165.602 2.30602 166.185 1.93935C166.769 1.57269 167.377 1.27269 168.01 1.03935C168.644 0.789354 169.31 0.664354 170.01 0.664354C170.86 0.664354 171.66 0.864354 172.41 1.26435C173.16 1.66435 173.86 2.16435 174.51 2.76435C175.16 3.36435 175.76 4.01435 176.31 4.71435C176.877 5.41435 177.402 6.06435 177.885 6.66435C178.019 6.81435 178.127 6.95602 178.21 7.08935C178.31 7.20602 178.41 7.33102 178.51 7.46435C178.61 7.59769 178.727 7.74769 178.86 7.91435C178.994 8.08102 179.16 8.28102 179.36 8.51435L178.86 8.83935ZM172.035 14.8894C172.119 15.056 172.302 15.2227 172.585 15.3894C172.869 15.556 173.219 15.6394 173.635 15.6394C173.685 15.6394 173.735 15.6394 173.785 15.6394C173.852 15.6394 173.91 15.631 173.96 15.6144C175.227 15.4477 176.077 14.9977 176.51 14.2644C176.96 13.531 177.102 12.6227 176.935 11.5394C177.035 11.5727 177.227 11.6977 177.51 11.9144C177.81 12.1144 178.11 12.3477 178.41 12.6144C178.727 12.8644 179.01 13.106 179.26 13.3394C179.51 13.556 179.635 13.6977 179.635 13.7644C179.635 14.381 179.552 14.956 179.385 15.4894C179.235 16.0227 179.002 16.4894 178.685 16.8894C178.385 17.2727 178.019 17.5727 177.585 17.7894C177.169 18.006 176.702 18.1144 176.185 18.1144C175.635 18.1144 175.094 18.006 174.56 17.7894C174.044 17.5727 173.535 17.306 173.035 16.9894C172.535 16.656 172.06 16.2977 171.61 15.9144C171.16 15.531 170.744 15.1644 170.36 14.8144C170.294 14.7477 170.194 14.6644 170.06 14.5644C169.927 14.4644 169.794 14.3644 169.66 14.2644C169.544 14.1477 169.427 14.0394 169.31 13.9394C169.194 13.8227 169.11 13.7227 169.06 13.6394L169.035 9.48936C168.569 9.48936 168.169 9.63936 167.835 9.93935C167.502 10.2394 167.319 10.631 167.285 11.1144L164.735 8.16435C164.802 7.89769 164.919 7.67269 165.085 7.48935C165.235 7.30602 165.419 7.15602 165.635 7.03935C165.835 6.90602 166.06 6.81436 166.31 6.76435C166.544 6.69769 166.777 6.66435 167.01 6.66435H172.385L173.185 7.38935C173.519 7.07269 173.852 6.87269 174.185 6.78935C174.519 6.70602 174.919 6.66435 175.385 6.66435H179.01L181.46 9.48936H178.96C178.577 9.48936 178.194 9.50602 177.81 9.53935C177.444 9.55602 177.085 9.62269 176.735 9.73936C176.402 9.83935 176.085 10.006 175.785 10.2394C175.502 10.456 175.252 10.756 175.035 11.1394C174.585 10.7394 174.16 10.3144 173.76 9.86436C173.56 9.94769 173.352 10.081 173.135 10.2644C172.935 10.431 172.744 10.631 172.56 10.8644C172.394 11.081 172.252 11.331 172.135 11.6144C172.035 11.881 171.985 12.156 171.985 12.4394C171.985 12.9227 171.994 13.331 172.01 13.6644C172.027 13.9977 172.035 14.406 172.035 14.8894ZM179.68 14.0644C179.68 14.9144 179.68 15.7727 179.68 16.6394C179.697 17.4894 179.705 18.3394 179.705 19.1894C179.705 19.8894 179.83 20.4477 180.08 20.8644C180.33 21.281 180.755 21.681 181.355 22.0644L181.28 22.2144C180.797 21.931 180.347 21.606 179.93 21.2394C179.514 20.856 179.114 20.4727 178.73 20.0894C178.28 19.6394 177.922 19.281 177.655 19.0144C177.405 18.731 177.214 18.456 177.08 18.1894C176.947 17.906 176.855 17.581 176.805 17.2144C176.772 16.831 176.755 16.3144 176.755 15.6644V10.6644L174.33 7.81435C174.33 7.64769 174.397 7.49769 174.53 7.36435C174.647 7.21435 174.797 7.08935 174.98 6.98935C175.147 6.88936 175.33 6.81436 175.53 6.76435C175.73 6.69769 175.897 6.66435 176.03 6.66435H179.43L182.43 9.48936C181.88 9.60602 181.422 9.82269 181.055 10.1394C180.705 10.4394 180.422 10.7977 180.205 11.2144C180.005 11.631 179.864 12.0894 179.78 12.5894C179.714 13.0727 179.68 13.5644 179.68 14.0644ZM190.031 7.58935C190.114 7.33935 190.247 7.12269 190.431 6.93936C190.614 6.75602 190.847 6.66435 191.131 6.66435H194.456L196.931 9.48936H193.881C193.714 9.48936 193.547 9.53936 193.381 9.63935C193.214 9.72269 193.064 9.83102 192.931 9.96436C192.797 10.0977 192.689 10.256 192.606 10.4394C192.522 10.606 192.472 10.7727 192.456 10.9394C192.356 10.8894 192.264 10.8227 192.181 10.7394C192.097 10.6394 192.014 10.5477 191.931 10.4644C191.847 10.5977 191.789 10.7977 191.756 11.0644C191.739 11.3144 191.731 11.5977 191.731 11.9144C191.747 12.231 191.764 12.556 191.781 12.8894C191.814 13.2227 191.831 13.531 191.831 13.8144C191.831 14.081 191.806 14.306 191.756 14.4894C191.706 14.656 191.614 14.7394 191.481 14.7394C190.914 14.7394 190.356 14.706 189.806 14.6394C189.272 14.556 188.722 14.5144 188.156 14.5144C187.689 14.5144 187.231 14.556 186.781 14.6394C186.347 14.7227 185.972 14.8727 185.656 15.0894C185.339 15.2894 185.097 15.5644 184.931 15.9144C184.781 16.2644 184.739 16.706 184.806 17.2394C184.839 17.5227 184.947 17.7894 185.131 18.0394C185.331 18.2727 185.564 18.481 185.831 18.6644C186.114 18.831 186.414 18.9644 186.731 19.0644C187.047 19.1477 187.347 19.1894 187.631 19.1894C187.897 19.1894 188.131 19.1477 188.331 19.0644C188.547 18.9644 188.697 18.8144 188.781 18.6144C188.631 18.481 188.439 18.3227 188.206 18.1394C187.989 17.956 187.781 17.7644 187.581 17.5644C187.381 17.3477 187.206 17.131 187.056 16.9144C186.922 16.681 186.856 16.456 186.856 16.2394C186.856 15.8394 186.989 15.5144 187.256 15.2644C187.522 14.9977 187.856 14.8644 188.256 14.8644C188.506 14.8644 188.847 14.9977 189.281 15.2644C189.714 15.531 190.147 15.8477 190.581 16.2144C191.031 16.5644 191.439 16.9227 191.806 17.2894C192.189 17.656 192.439 17.9477 192.556 18.1644C192.756 18.5144 192.856 18.8894 192.856 19.2894C192.856 19.6894 192.756 20.0394 192.556 20.3394C192.356 20.6394 192.097 20.8894 191.781 21.0894C191.481 21.2894 191.139 21.4394 190.756 21.5394C190.389 21.6394 190.031 21.6894 189.681 21.6894C189.214 21.6894 188.764 21.6227 188.331 21.4894C187.897 21.356 187.472 21.181 187.056 20.9644C186.772 20.8144 186.397 20.5644 185.931 20.2144C185.481 19.8644 185.022 19.4894 184.556 19.0894C184.106 18.6727 183.681 18.256 183.281 17.8394C182.897 17.4227 182.622 17.081 182.456 16.8144C182.072 16.1477 181.881 15.431 181.881 14.6644C181.881 14.131 181.956 13.6977 182.106 13.3644C182.272 13.0144 182.497 12.7394 182.781 12.5394C183.081 12.3227 183.422 12.1727 183.806 12.0894C184.206 12.006 184.639 11.9644 185.106 11.9644C185.689 11.9644 186.264 12.006 186.831 12.0894C187.397 12.156 187.972 12.1894 188.556 12.1894C188.689 12.1894 188.764 12.1394 188.781 12.0394C188.814 11.9227 188.831 11.8227 188.831 11.7394V9.48936H186.606C185.789 9.48936 185.122 9.60602 184.606 9.83935C184.089 10.056 183.689 10.381 183.406 10.8144L180.831 7.88936C181.031 7.62269 181.222 7.41435 181.406 7.26435C181.572 7.09769 181.764 6.97269 181.981 6.88935C182.197 6.78935 182.456 6.73102 182.756 6.71436C183.056 6.68102 183.439 6.66435 183.906 6.66435H188.606L190.031 7.58935ZM201.21 9.81435C200.96 9.94769 200.76 10.1394 200.61 10.3894C200.477 10.6394 200.369 10.9144 200.285 11.2144C200.219 11.5144 200.177 11.8227 200.16 12.1394C200.144 12.4394 200.135 12.7144 200.135 12.9644C200.135 13.281 200.144 13.5977 200.16 13.9144C200.177 14.2144 200.185 14.5227 200.185 14.8394C200.185 15.206 200.127 15.4894 200.01 15.6894C199.894 15.8894 199.735 16.0394 199.535 16.1394C199.335 16.2394 199.102 16.306 198.835 16.3394C198.585 16.356 198.31 16.3644 198.01 16.3644C197.827 16.3644 197.652 16.356 197.485 16.3394C197.319 16.306 197.144 16.2894 196.96 16.2894H196.835C196.535 16.306 196.377 16.3894 196.36 16.5394C196.36 16.6894 196.46 16.856 196.66 17.0394C196.877 17.206 197.177 17.3644 197.56 17.5144C197.96 17.6644 198.394 17.7477 198.86 17.7644C199.377 17.7644 199.885 17.7227 200.385 17.6394C200.902 17.556 201.36 17.406 201.76 17.1894C202.16 16.956 202.485 16.6394 202.735 16.2394C202.985 15.8394 203.11 15.331 203.11 14.7144C203.11 14.6477 203.094 14.5477 203.06 14.4144C203.16 14.4477 203.369 14.5894 203.685 14.8394C204.002 15.0727 204.327 15.3394 204.66 15.6394C205.01 15.9227 205.319 16.1977 205.585 16.4644C205.852 16.7144 205.994 16.881 206.01 16.9644C206.027 17.031 206.035 17.0977 206.035 17.1644C206.035 17.231 206.035 17.2977 206.035 17.3644C206.035 17.881 205.91 18.3227 205.66 18.6894C205.41 19.056 205.094 19.356 204.71 19.5894C204.327 19.806 203.894 19.9644 203.41 20.0644C202.944 20.1644 202.494 20.2144 202.06 20.2144C201.394 20.2144 200.785 20.1477 200.235 20.0144C199.702 19.881 199.194 19.6977 198.71 19.4644C198.244 19.2144 197.785 18.9144 197.335 18.5644C196.902 18.2144 196.444 17.8227 195.96 17.3894C195.81 17.256 195.594 17.0477 195.31 16.7644C195.027 16.481 194.735 16.181 194.435 15.8644C194.152 15.531 193.902 15.2144 193.685 14.9144C193.469 14.5977 193.36 14.3477 193.36 14.1644C193.36 13.981 193.435 13.8644 193.585 13.8144C193.719 13.7477 193.852 13.7144 193.985 13.7144C194.185 13.7144 194.377 13.731 194.56 13.7644C194.76 13.781 194.96 13.7894 195.16 13.7894C195.494 13.7894 195.785 13.781 196.035 13.7644C196.302 13.731 196.527 13.6644 196.71 13.5644C196.894 13.4477 197.027 13.281 197.11 13.0644C197.21 12.831 197.26 12.5227 197.26 12.1394V9.48936H196.01C195.527 9.48936 195.102 9.62269 194.735 9.88935C194.369 10.156 194.169 10.5477 194.135 11.0644L191.585 8.08936C191.585 7.80602 191.652 7.58102 191.785 7.41436C191.902 7.23102 192.06 7.08102 192.26 6.96436C192.444 6.84769 192.652 6.77269 192.885 6.73936C193.119 6.68935 193.352 6.66435 193.585 6.66435H199.735L200.335 7.18936C200.502 7.05602 200.677 6.93935 200.86 6.83936C201.06 6.72269 201.269 6.66435 201.485 6.66435H204.06L206.46 9.48936H205.685C205.352 9.48936 205.019 9.50602 204.685 9.53935C204.369 9.55602 204.06 9.61435 203.76 9.71436C203.46 9.79769 203.185 9.93102 202.935 10.1144C202.685 10.2977 202.469 10.556 202.285 10.8894C202.102 10.706 201.919 10.531 201.735 10.3644C201.552 10.181 201.377 9.99769 201.21 9.81435ZM205.974 14.0644C205.974 14.9144 205.974 15.7727 205.974 16.6394C205.991 17.4894 205.999 18.3394 205.999 19.1894C205.999 19.8894 206.124 20.4477 206.374 20.8644C206.624 21.281 207.049 21.681 207.649 22.0644L207.574 22.2144C207.091 21.931 206.641 21.606 206.224 21.2394C205.808 20.856 205.408 20.4727 205.024 20.0894C204.574 19.6394 204.216 19.281 203.949 19.0144C203.699 18.731 203.508 18.456 203.374 18.1894C203.241 17.906 203.149 17.581 203.099 17.2144C203.066 16.831 203.049 16.3144 203.049 15.6644V10.6644L200.624 7.81435C200.624 7.64769 200.691 7.49769 200.824 7.36435C200.941 7.21435 201.091 7.08935 201.274 6.98935C201.441 6.88936 201.624 6.81436 201.824 6.76435C202.024 6.69769 202.191 6.66435 202.324 6.66435H205.724L208.724 9.48936C208.174 9.60602 207.716 9.82269 207.349 10.1394C206.999 10.4394 206.716 10.7977 206.499 11.2144C206.299 11.631 206.158 12.0894 206.074 12.5894C206.008 13.0727 205.974 13.5644 205.974 14.0644ZM211.175 14.0644C211.175 14.9144 211.175 15.7727 211.175 16.6394C211.191 17.4894 211.2 18.3394 211.2 19.1894C211.2 19.8894 211.325 20.4477 211.575 20.8644C211.825 21.281 212.25 21.681 212.85 22.0644L212.775 22.2144C212.291 21.931 211.841 21.606 211.425 21.2394C211.008 20.856 210.608 20.4727 210.225 20.0894C209.775 19.6394 209.416 19.281 209.15 19.0144C208.9 18.731 208.708 18.456 208.575 18.1894C208.441 17.906 208.35 17.581 208.3 17.2144C208.266 16.831 208.25 16.3144 208.25 15.6644V10.6644L205.825 7.81435C205.825 7.64769 205.891 7.49769 206.025 7.36435C206.141 7.21435 206.291 7.08935 206.475 6.98935C206.641 6.88936 206.825 6.81436 207.025 6.76435C207.225 6.69769 207.391 6.66435 207.525 6.66435H210.925L213.925 9.48936C213.375 9.60602 212.916 9.82269 212.55 10.1394C212.2 10.4394 211.916 10.7977 211.7 11.2144C211.5 11.631 211.358 12.0894 211.275 12.5894C211.208 13.0727 211.175 13.5644 211.175 14.0644ZM206.025 2.21436C206.025 2.11435 206.141 1.97269 206.375 1.78935C206.591 1.60602 206.841 1.42269 207.125 1.23935C207.391 1.03935 207.641 0.856021 207.875 0.689354C208.091 0.522687 208.2 0.397688 208.2 0.314354C208.3 0.364355 208.508 0.514355 208.825 0.764354C209.141 0.997688 209.475 1.26435 209.825 1.56435C210.158 1.84769 210.458 2.12269 210.725 2.38935C210.991 2.63935 211.125 2.80602 211.125 2.88935C211.125 2.95602 211.025 3.06435 210.825 3.21435C210.608 3.36435 210.375 3.53935 210.125 3.73935C209.875 3.92269 209.633 4.10602 209.4 4.28936C209.166 4.47269 209.025 4.63102 208.975 4.76436C208.875 4.69769 208.666 4.53936 208.35 4.28936C208.033 4.03935 207.7 3.77269 207.35 3.48936C207 3.20602 206.691 2.93935 206.425 2.68936C206.158 2.43935 206.025 2.28102 206.025 2.21436ZM219.45 18.4144C219.283 18.2644 219.033 18.006 218.7 17.6394C218.366 17.256 218.033 16.8477 217.7 16.4144C217.366 15.9644 217.075 15.5394 216.825 15.1394C216.575 14.7227 216.458 14.4144 216.475 14.2144L215.125 14.2394L212.55 11.2894L220.5 11.2144L223.325 14.2394H222.825C222.491 14.2394 222.108 14.256 221.675 14.2894C221.258 14.306 220.858 14.3644 220.475 14.4644C220.091 14.5644 219.766 14.7144 219.5 14.9144C219.25 15.1144 219.125 15.3894 219.125 15.7394C219.125 15.9894 219.183 16.206 219.3 16.3894C219.416 16.5727 219.558 16.731 219.725 16.8644C219.908 16.9977 220.108 17.0977 220.325 17.1644C220.541 17.231 220.758 17.2644 220.975 17.2644C221.541 17.2644 222.033 17.1394 222.45 16.8894C222.866 16.6227 223.208 16.2894 223.475 15.8894C223.758 15.4894 223.966 15.0394 224.1 14.5394C224.233 14.0394 224.3 13.5394 224.3 13.0394L224.325 11.5394C224.391 11.556 224.55 11.6977 224.8 11.9644C225.05 12.231 225.316 12.5394 225.6 12.8894C225.883 13.2227 226.141 13.5394 226.375 13.8394C226.608 14.1394 226.75 14.3394 226.8 14.4394C226.916 14.6727 226.991 14.9144 227.025 15.1644C227.075 15.4144 227.1 15.6727 227.1 15.9394C227.1 16.4894 227 16.9977 226.8 17.4644C226.6 17.9144 226.325 18.306 225.975 18.6394C225.625 18.9727 225.208 19.231 224.725 19.4144C224.258 19.5977 223.758 19.6894 223.225 19.6894C222.541 19.6894 221.875 19.5894 221.225 19.3894C220.575 19.1894 219.983 18.8644 219.45 18.4144ZM224.15 9.48936H215.525C215.141 9.48936 214.8 9.63102 214.5 9.91436C214.2 10.181 214.025 10.4977 213.975 10.8644L211.6 8.11436C211.6 8.08102 211.6 8.05602 211.6 8.03935C211.583 8.02269 211.575 8.00602 211.575 7.98936C211.575 7.83936 211.625 7.68936 211.725 7.53936C211.808 7.38936 211.925 7.24769 212.075 7.11435C212.208 6.98102 212.358 6.87269 212.525 6.78935C212.691 6.70602 212.841 6.66435 212.975 6.66435H221.625L224.15 9.48936ZM227.239 14.0644C227.239 14.9144 227.239 15.7727 227.239 16.6394C227.256 17.4894 227.264 18.3394 227.264 19.1894C227.264 19.8894 227.389 20.4477 227.639 20.8644C227.889 21.281 228.314 21.681 228.914 22.0644L228.839 22.2144C228.356 21.931 227.906 21.606 227.489 21.2394C227.072 20.856 226.672 20.4727 226.289 20.0894C225.839 19.6394 225.481 19.281 225.214 19.0144C224.964 18.731 224.772 18.456 224.639 18.1894C224.506 17.906 224.414 17.581 224.364 17.2144C224.331 16.831 224.314 16.3144 224.314 15.6644V10.6644L221.889 7.81435C221.889 7.64769 221.956 7.49769 222.089 7.36435C222.206 7.21435 222.356 7.08935 222.539 6.98935C222.706 6.88936 222.889 6.81436 223.089 6.76435C223.289 6.69769 223.456 6.66435 223.589 6.66435H226.989L229.989 9.48936C229.439 9.60602 228.981 9.82269 228.614 10.1394C228.264 10.4394 227.981 10.7977 227.764 11.2144C227.564 11.631 227.422 12.0894 227.339 12.5894C227.272 13.0727 227.239 13.5644 227.239 14.0644ZM232.439 14.0644C232.439 14.9144 232.439 15.7727 232.439 16.6394C232.456 17.4894 232.464 18.3394 232.464 19.1894C232.464 19.8894 232.589 20.4477 232.839 20.8644C233.089 21.281 233.514 21.681 234.114 22.0644L234.039 22.2144C233.556 21.931 233.106 21.606 232.689 21.2394C232.273 20.856 231.873 20.4727 231.489 20.0894C231.039 19.6394 230.681 19.281 230.414 19.0144C230.164 18.731 229.973 18.456 229.839 18.1894C229.706 17.906 229.614 17.581 229.564 17.2144C229.531 16.831 229.514 16.3144 229.514 15.6644V10.6644L227.089 7.81435C227.089 7.64769 227.156 7.49769 227.289 7.36435C227.406 7.21435 227.556 7.08935 227.739 6.98935C227.906 6.88936 228.089 6.81436 228.289 6.76435C228.489 6.69769 228.656 6.66435 228.789 6.66435H232.189L235.189 9.48936C234.639 9.60602 234.181 9.82269 233.814 10.1394C233.464 10.4394 233.181 10.7977 232.964 11.2144C232.764 11.631 232.623 12.0894 232.539 12.5894C232.473 13.0727 232.439 13.5644 232.439 14.0644ZM75.4555 39.8394C75.0888 39.8394 74.7055 39.781 74.3055 39.6644C73.9055 39.531 73.5138 39.3644 73.1305 39.1644C72.7472 38.9644 72.3805 38.7394 72.0305 38.4894C71.6972 38.2227 71.4138 37.956 71.1805 37.6894C71.1472 37.8227 71.1055 37.9477 71.0555 38.0644C71.0222 38.181 70.9805 38.306 70.9305 38.4394C71.2638 38.6894 71.5888 38.9644 71.9055 39.2644C72.2222 39.5477 72.5055 39.8644 72.7555 40.2144C73.0222 40.5477 73.2305 40.906 73.3805 41.2894C73.5472 41.6727 73.6305 42.0894 73.6305 42.5394C73.6305 42.9227 73.5388 43.281 73.3555 43.6144C73.1722 43.931 72.9305 44.206 72.6305 44.4394C72.3472 44.6727 72.0222 44.856 71.6555 44.9894C71.3055 45.1227 70.9472 45.1894 70.5805 45.1894C70.0972 45.1894 69.5638 45.0477 68.9805 44.7644C68.3972 44.4644 67.7972 44.0894 67.1805 43.6394C66.5638 43.1727 65.9472 42.656 65.3305 42.0894C64.7138 41.506 64.1222 40.931 63.5555 40.3644C62.9888 39.781 62.4555 39.231 61.9555 38.7144C61.4555 38.1977 61.0305 37.7727 60.6805 37.4394L61.1305 37.2144L65.8555 41.7144C65.9555 41.7977 66.0722 41.8977 66.2055 42.0144C66.3555 42.1144 66.5138 42.2144 66.6805 42.3144C66.8472 42.3977 67.0138 42.4727 67.1805 42.5394C67.3472 42.606 67.4888 42.6394 67.6055 42.6394C67.9722 42.6394 68.3388 42.581 68.7055 42.4644C69.0722 42.331 69.4055 42.1477 69.7055 41.9144C70.0055 41.6644 70.2472 41.381 70.4305 41.0644C70.6138 40.731 70.7055 40.3644 70.7055 39.9644C70.7055 39.7644 70.6805 39.5727 70.6305 39.3894C70.5972 39.1894 70.5472 38.9977 70.4805 38.8144C70.3472 38.881 70.1972 38.9227 70.0305 38.9394C69.8805 38.9394 69.7305 38.9394 69.5805 38.9394C69.1972 38.9394 68.8555 38.8894 68.5555 38.7894C68.2555 38.6894 67.9472 38.5394 67.6305 38.3394C67.5305 38.2727 67.3388 38.1227 67.0555 37.8894C66.7722 37.656 66.4722 37.406 66.1555 37.1394C65.8388 36.8727 65.5555 36.6227 65.3055 36.3894C65.0722 36.156 64.9472 36.006 64.9305 35.9394L65.1805 35.7144C65.6638 36.1644 66.2305 36.3894 66.8805 36.3894C67.4472 36.3894 67.8138 36.2227 67.9805 35.8894C68.1472 35.556 68.2305 35.1477 68.2305 34.6644C68.2305 34.281 68.2472 33.9144 68.2805 33.5644C68.3138 33.1977 68.3305 32.8227 68.3305 32.4394C68.0972 32.4394 67.8638 32.456 67.6305 32.4894C67.4138 32.5227 67.2138 32.5894 67.0305 32.6894C66.8472 32.7894 66.6972 32.931 66.5805 33.1144C66.4805 33.281 66.4305 33.506 66.4305 33.7894C66.4305 33.9227 66.4638 34.0394 66.5305 34.1394C66.5972 34.2394 66.6472 34.3477 66.6805 34.4644C66.5972 34.4644 66.4305 34.3394 66.1805 34.0894C65.9305 33.8227 65.6555 33.531 65.3555 33.2144C65.0722 32.881 64.8055 32.556 64.5555 32.2394C64.3222 31.9227 64.1805 31.7144 64.1305 31.6144C63.9805 31.3644 63.9055 31.106 63.9055 30.8394C63.9055 30.556 63.9805 30.3394 64.1305 30.1894C64.2972 30.0394 64.4972 29.9227 64.7305 29.8394C64.9805 29.756 65.2305 29.706 65.4805 29.6894C65.7472 29.6727 65.9805 29.6644 66.1805 29.6644H70.8555L73.4555 32.4894H72.6555C72.3888 32.706 72.1638 32.8977 71.9805 33.0644C71.7972 33.231 71.6472 33.406 71.5305 33.5894C71.4305 33.7727 71.3555 33.981 71.3055 34.2144C71.2722 34.4477 71.2555 34.7477 71.2555 35.1144C71.2555 35.431 71.2388 35.7477 71.2055 36.0644C71.1888 36.381 71.1805 36.6977 71.1805 37.0144C71.4138 37.0977 71.6388 37.1644 71.8555 37.2144C72.0888 37.2644 72.3222 37.2894 72.5555 37.2894C72.7388 37.2894 72.9305 37.2644 73.1305 37.2144C73.3305 37.1644 73.5138 37.0894 73.6805 36.9894C73.8472 36.8727 73.9805 36.7394 74.0805 36.5894C74.1805 36.4227 74.2305 36.231 74.2305 36.0144C74.2305 35.8977 74.2222 35.8144 74.2055 35.7644C74.2888 35.7644 74.4805 35.881 74.7805 36.1144C75.0972 36.3477 75.4222 36.6144 75.7555 36.9144C76.1055 37.2144 76.4222 37.506 76.7055 37.7894C76.9888 38.056 77.1388 38.231 77.1555 38.3144C77.1722 38.3644 77.1805 38.4477 77.1805 38.5644C77.1805 38.7977 77.1222 38.9977 77.0055 39.1644C76.9055 39.3144 76.7722 39.4394 76.6055 39.5394C76.4388 39.6394 76.2555 39.7144 76.0555 39.7644C75.8555 39.8144 75.6555 39.8394 75.4555 39.8394ZM77.178 37.0644C77.178 37.9144 77.178 38.7727 77.178 39.6394C77.1946 40.4894 77.203 41.3394 77.203 42.1894C77.203 42.8894 77.328 43.4477 77.578 43.8644C77.828 44.281 78.253 44.681 78.853 45.0644L78.778 45.2144C78.2946 44.931 77.8446 44.606 77.428 44.2394C77.0113 43.856 76.6113 43.4727 76.228 43.0894C75.778 42.6394 75.4196 42.281 75.153 42.0144C74.903 41.731 74.7113 41.456 74.578 41.1894C74.4446 40.906 74.353 40.581 74.303 40.2144C74.2696 39.831 74.253 39.3144 74.253 38.6644V33.6644L71.828 30.8144C71.828 30.6477 71.8946 30.4977 72.028 30.3644C72.1446 30.2144 72.2946 30.0894 72.478 29.9894C72.6446 29.8894 72.828 29.8144 73.028 29.7644C73.228 29.6977 73.3946 29.6644 73.528 29.6644H76.928L79.928 32.4894C79.378 32.606 78.9196 32.8227 78.553 33.1394C78.203 33.4394 77.9196 33.7977 77.703 34.2144C77.503 34.631 77.3613 35.0894 77.278 35.5894C77.2113 36.0727 77.178 36.5644 77.178 37.0644ZM87.1032 37.9394C87.1032 38.2894 87.1032 38.6477 87.1032 39.0144C87.1032 39.381 87.0782 39.7394 87.0282 40.0894C86.9782 40.4394 86.8948 40.7894 86.7782 41.1394C86.6782 41.4727 86.5198 41.7894 86.3032 42.0894C86.0698 42.4227 85.7782 42.706 85.4282 42.9394C85.0782 43.156 84.6865 43.2644 84.2532 43.2644C84.0198 43.2644 83.7115 43.181 83.3282 43.0144C82.9448 42.8477 82.5365 42.631 82.1032 42.3644C81.6698 42.081 81.2282 41.7727 80.7782 41.4394C80.3448 41.0894 79.9532 40.7394 79.6032 40.3894C79.2532 40.0227 78.9698 39.6727 78.7532 39.3394C78.5198 39.006 78.4032 38.7144 78.4032 38.4644C78.4032 37.8644 78.6198 37.3727 79.0532 36.9894C79.4865 36.606 80.0032 36.2977 80.6032 36.0644C81.2198 35.831 81.8532 35.6644 82.5032 35.5644C83.1532 35.4644 83.7032 35.406 84.1532 35.3894C84.1532 34.9894 84.1448 34.506 84.1282 33.9394C84.1115 33.3727 84.0948 32.8894 84.0782 32.4894H80.0282C79.6448 32.4894 79.3282 32.6394 79.0782 32.9394C78.8282 33.2227 78.6865 33.556 78.6532 33.9394L76.0782 30.9894C76.0782 30.7894 76.1365 30.606 76.2532 30.4394C76.3698 30.2727 76.5115 30.1394 76.6782 30.0394C76.8282 29.9227 76.9948 29.831 77.1782 29.7644C77.3615 29.6977 77.5282 29.6644 77.6782 29.6644H85.5282L86.1782 30.3144C86.4282 29.881 86.7865 29.6644 87.2532 29.6644H90.2282L92.6782 32.4894H89.9282C89.5782 32.4894 89.2615 32.6477 88.9782 32.9644C88.7115 33.2644 88.5615 33.5894 88.5282 33.9394C88.4448 33.9227 88.3448 33.8644 88.2282 33.7644C88.1282 33.6644 88.0198 33.556 87.9032 33.4394C87.7865 33.306 87.6782 33.181 87.5782 33.0644C87.4782 32.9477 87.4032 32.856 87.3532 32.7894C87.2032 33.0227 87.1115 33.2894 87.0782 33.5894C87.0448 33.8894 87.0282 34.1727 87.0282 34.4394C87.0282 34.5727 87.0198 34.7644 87.0032 35.0144C87.0032 35.2644 87.0115 35.456 87.0282 35.5894C87.4282 35.656 87.8865 35.831 88.4032 36.1144C88.9365 36.3977 89.4448 36.7394 89.9282 37.1394C90.4115 37.5227 90.8448 37.9394 91.2282 38.3894C91.6115 38.8394 91.8698 39.2644 92.0032 39.6644L91.5282 39.5894C91.1615 38.9894 90.6948 38.556 90.1282 38.2894C89.5615 38.0227 88.8782 37.8894 88.0782 37.8894C87.9115 37.8894 87.7532 37.8977 87.6032 37.9144C87.4532 37.9144 87.2865 37.9227 87.1032 37.9394ZM83.8782 38.5144C83.5615 38.5144 83.2032 38.5977 82.8032 38.7644C82.4198 38.931 82.0782 39.131 81.7782 39.3644C81.4948 39.581 81.2948 39.8144 81.1782 40.0644C81.0782 40.2977 81.1532 40.506 81.4032 40.6894C81.5532 40.7894 81.7365 40.8394 81.9532 40.8394C82.1698 40.8394 82.3948 40.781 82.6282 40.6644C82.8615 40.5477 83.0698 40.3894 83.2532 40.1894C83.4532 39.9727 83.6115 39.7227 83.7282 39.4394C83.8448 39.156 83.8948 38.8477 83.8782 38.5144ZM92.6077 37.0644C92.6077 37.9144 92.6077 38.7727 92.6077 39.6394C92.6243 40.4894 92.6327 41.3394 92.6327 42.1894C92.6327 42.8894 92.7577 43.4477 93.0077 43.8644C93.2577 44.281 93.6827 44.681 94.2827 45.0644L94.2077 45.2144C93.7243 44.931 93.2743 44.606 92.8577 44.2394C92.441 43.856 92.041 43.4727 91.6577 43.0894C91.2077 42.6394 90.8493 42.281 90.5827 42.0144C90.3327 41.731 90.141 41.456 90.0077 41.1894C89.8743 40.906 89.7827 40.581 89.7327 40.2144C89.6993 39.831 89.6827 39.3144 89.6827 38.6644V33.6644L87.2577 30.8144C87.2577 30.6477 87.3243 30.4977 87.4577 30.3644C87.5743 30.2144 87.7243 30.0894 87.9077 29.9894C88.0743 29.8894 88.2577 29.8144 88.4577 29.7644C88.6577 29.6977 88.8243 29.6644 88.9577 29.6644H92.3577L95.3577 32.4894C94.8077 32.606 94.3493 32.8227 93.9827 33.1394C93.6327 33.4394 93.3493 33.7977 93.1327 34.2144C92.9327 34.631 92.791 35.0894 92.7077 35.5894C92.641 36.0727 92.6077 36.5644 92.6077 37.0644ZM96.8079 50.8644C96.5745 51.2144 96.2745 51.4894 95.9079 51.6894C95.5579 51.8894 95.1745 51.9894 94.7579 51.9894C94.4079 51.9894 94.0079 51.8644 93.5579 51.6144C93.1079 51.381 92.6662 51.0894 92.2329 50.7394C91.7829 50.406 91.3662 50.056 90.9829 49.6894C90.5995 49.3227 90.3079 49.006 90.1079 48.7394C89.7579 48.2727 89.5829 47.7477 89.5829 47.1644C89.5829 46.7144 89.6745 46.306 89.8579 45.9394C90.0412 45.5894 90.2912 45.2894 90.6079 45.0394C90.9079 44.7894 91.2579 44.5977 91.6579 44.4644C92.0412 44.3144 92.4412 44.2394 92.8579 44.2394C93.6579 44.2394 94.4079 44.4394 95.1079 44.8394C95.8079 45.2227 96.4579 45.656 97.0579 46.1394C97.1745 46.2394 97.4162 46.4477 97.7829 46.7644C98.1662 47.081 98.5662 47.4227 98.9829 47.7894C99.3995 48.156 99.7662 48.4894 100.083 48.7894C100.416 49.106 100.591 49.2977 100.608 49.3644L100.258 49.6894C99.9079 49.356 99.5495 49.006 99.1829 48.6394C98.8162 48.2894 98.4329 47.9644 98.0329 47.6644C97.6329 47.3644 97.1995 47.1144 96.7329 46.9144C96.2829 46.731 95.7995 46.6394 95.2829 46.6394C95.0162 46.6394 94.6995 46.681 94.3329 46.7644C93.9495 46.8477 93.5912 46.9727 93.2579 47.1394C92.9079 47.306 92.6162 47.5144 92.3829 47.7644C92.1329 48.0144 92.0079 48.2977 92.0079 48.6144C92.0079 48.831 92.0995 49.006 92.2829 49.1394C92.4495 49.2727 92.6329 49.3394 92.8329 49.3394C93.1162 49.3394 93.3579 49.2394 93.5579 49.0394C93.7412 48.8394 93.8495 48.5977 93.8829 48.3144C94.3995 48.6977 94.9079 49.0977 95.4079 49.5144C95.9079 49.931 96.3745 50.381 96.8079 50.8644ZM102.708 36.9894C103.141 36.706 103.566 36.3977 103.983 36.0644C104.4 35.7144 104.858 35.4644 105.358 35.3144C105.458 35.3477 105.6 35.456 105.783 35.6394C105.966 35.8227 106.166 36.0394 106.383 36.2894C106.6 36.5227 106.816 36.7727 107.033 37.0394C107.25 37.306 107.441 37.5477 107.608 37.7644C107.691 37.8644 107.758 37.9644 107.808 38.0644C107.875 38.1477 107.925 38.2144 107.958 38.2644C107.841 38.2977 107.625 38.3977 107.308 38.5644C107.008 38.731 106.666 38.9394 106.283 39.1894C105.9 39.4394 105.5 39.706 105.083 39.9894C104.683 40.2727 104.308 40.5477 103.958 40.8144C103.625 41.081 103.35 41.3227 103.133 41.5394C102.916 41.756 102.808 41.9144 102.808 42.0144C102.808 42.131 102.858 42.256 102.958 42.3894C103.058 42.5227 103.133 42.631 103.183 42.7144C103.033 42.581 102.791 42.356 102.458 42.0394C102.141 41.706 101.816 41.356 101.483 40.9894C101.166 40.606 100.883 40.2394 100.633 39.8894C100.383 39.5394 100.258 39.2727 100.258 39.0894C100.258 38.9727 100.333 38.8394 100.483 38.6894C100.65 38.5227 100.841 38.356 101.058 38.1894C101.275 38.0227 101.483 37.8727 101.683 37.7394C101.9 37.5894 102.058 37.4727 102.158 37.3894C101.708 36.8227 101.15 36.5394 100.483 36.5394C100.183 36.5394 99.8745 36.606 99.5579 36.7394C99.2579 36.856 98.9745 37.031 98.7079 37.2644C98.4579 37.4977 98.2412 37.781 98.0579 38.1144C97.8745 38.4477 97.7579 38.8227 97.7079 39.2394C97.6412 39.7894 97.7329 40.3394 97.9829 40.8894C98.2495 41.4227 98.5829 41.931 98.9829 42.4144C99.3995 42.881 99.8329 43.2977 100.283 43.6644C100.75 44.031 101.15 44.306 101.483 44.4894C101.466 44.4727 101.45 44.4977 101.433 44.5644C101.416 44.6144 101.4 44.6727 101.383 44.7394C101.366 44.7894 101.35 44.8477 101.333 44.9144C101.316 44.9644 101.3 44.981 101.283 44.9644C100.683 44.631 100.016 44.1727 99.2829 43.5894C98.5662 42.9894 97.8995 42.331 97.2829 41.6144C96.6662 40.8977 96.1495 40.1477 95.7329 39.3644C95.3162 38.5644 95.1079 37.806 95.1079 37.0894C95.1079 36.656 95.1829 36.2477 95.3329 35.8644C95.4995 35.4644 95.7245 35.1144 96.0079 34.8144C96.2912 34.5144 96.6162 34.2727 96.9829 34.0894C97.3662 33.906 97.7829 33.8144 98.2329 33.8144C98.7329 33.8144 99.1912 33.9144 99.6079 34.1144C100.041 34.3144 100.441 34.5727 100.808 34.8894C101.175 35.1894 101.516 35.531 101.833 35.9144C102.15 36.281 102.441 36.6394 102.708 36.9894ZM109.958 32.4894H100.208C99.9745 32.4894 99.7329 32.4894 99.4829 32.4894C99.2329 32.4727 98.9829 32.4644 98.7329 32.4644C98.3662 32.4644 97.9995 32.481 97.6329 32.5144C97.2829 32.5477 96.9412 32.6227 96.6079 32.7394C96.2745 32.8394 95.9662 32.9894 95.6829 33.1894C95.3995 33.3894 95.1579 33.6644 94.9579 34.0144C94.8579 33.9144 94.6745 33.7227 94.4079 33.4394C94.1245 33.156 93.8329 32.856 93.5329 32.5394C93.2329 32.206 92.9745 31.8977 92.7579 31.6144C92.5245 31.331 92.4079 31.1477 92.4079 31.0644C92.4079 30.9977 92.4579 30.906 92.5579 30.7894C92.6579 30.6727 92.7745 30.5644 92.9079 30.4644C93.0412 30.3477 93.1745 30.2477 93.3079 30.1644C93.4412 30.0644 93.5412 29.9977 93.6079 29.9644C93.8912 29.831 94.1829 29.7477 94.4829 29.7144C94.7829 29.681 95.0829 29.6644 95.3829 29.6644H107.458L109.958 32.4894ZM111.916 32.8144C111.666 32.9477 111.466 33.1394 111.316 33.3894C111.183 33.6394 111.074 33.9144 110.991 34.2144C110.924 34.5144 110.883 34.8227 110.866 35.1394C110.849 35.4394 110.841 35.7144 110.841 35.9644C110.841 36.281 110.849 36.5977 110.866 36.9144C110.883 37.2144 110.891 37.5227 110.891 37.8394C110.891 38.206 110.833 38.4894 110.716 38.6894C110.599 38.8894 110.441 39.0394 110.241 39.1394C110.041 39.2394 109.808 39.306 109.541 39.3394C109.291 39.356 109.016 39.3644 108.716 39.3644C108.533 39.3644 108.358 39.356 108.191 39.3394C108.024 39.306 107.849 39.2894 107.666 39.2894H107.541C107.241 39.306 107.083 39.3894 107.066 39.5394C107.066 39.6894 107.166 39.856 107.366 40.0394C107.583 40.206 107.883 40.3644 108.266 40.5144C108.666 40.6644 109.099 40.7477 109.566 40.7644C110.083 40.7644 110.591 40.7227 111.091 40.6394C111.608 40.556 112.066 40.406 112.466 40.1894C112.866 39.956 113.191 39.6394 113.441 39.2394C113.691 38.8394 113.816 38.331 113.816 37.7144C113.816 37.6477 113.799 37.5477 113.766 37.4144C113.866 37.4477 114.074 37.5894 114.391 37.8394C114.708 38.0727 115.033 38.3394 115.366 38.6394C115.716 38.9227 116.024 39.1977 116.291 39.4644C116.558 39.7144 116.699 39.881 116.716 39.9644C116.733 40.031 116.741 40.0977 116.741 40.1644C116.741 40.231 116.741 40.2977 116.741 40.3644C116.741 40.881 116.616 41.3227 116.366 41.6894C116.116 42.056 115.799 42.356 115.416 42.5894C115.033 42.806 114.599 42.9644 114.116 43.0644C113.649 43.1644 113.199 43.2144 112.766 43.2144C112.099 43.2144 111.491 43.1477 110.941 43.0144C110.408 42.881 109.899 42.6977 109.416 42.4644C108.949 42.2144 108.491 41.9144 108.041 41.5644C107.608 41.2144 107.149 40.8227 106.666 40.3894C106.516 40.256 106.299 40.0477 106.016 39.7644C105.733 39.481 105.441 39.181 105.141 38.8644C104.858 38.531 104.608 38.2144 104.391 37.9144C104.174 37.5977 104.066 37.3477 104.066 37.1644C104.066 36.981 104.141 36.8644 104.291 36.8144C104.424 36.7477 104.558 36.7144 104.691 36.7144C104.891 36.7144 105.083 36.731 105.266 36.7644C105.466 36.781 105.666 36.7894 105.866 36.7894C106.199 36.7894 106.491 36.781 106.741 36.7644C107.008 36.731 107.233 36.6644 107.416 36.5644C107.599 36.4477 107.733 36.281 107.816 36.0644C107.916 35.831 107.966 35.5227 107.966 35.1394V32.4894H106.716C106.233 32.4894 105.808 32.6227 105.441 32.8894C105.074 33.156 104.874 33.5477 104.841 34.0644L102.291 31.0894C102.291 30.806 102.358 30.581 102.491 30.4144C102.608 30.231 102.766 30.081 102.966 29.9644C103.149 29.8477 103.358 29.7727 103.591 29.7394C103.824 29.6894 104.058 29.6644 104.291 29.6644H110.441L111.041 30.1894C111.208 30.056 111.383 29.9394 111.566 29.8394C111.766 29.7227 111.974 29.6644 112.191 29.6644H114.766L117.166 32.4894H116.391C116.058 32.4894 115.724 32.506 115.391 32.5394C115.074 32.556 114.766 32.6144 114.466 32.7144C114.166 32.7977 113.891 32.931 113.641 33.1144C113.391 33.2977 113.174 33.556 112.991 33.8894C112.808 33.706 112.624 33.531 112.441 33.3644C112.258 33.181 112.083 32.9977 111.916 32.8144ZM116.68 37.0644C116.68 37.9144 116.68 38.7727 116.68 39.6394C116.697 40.4894 116.705 41.3394 116.705 42.1894C116.705 42.8894 116.83 43.4477 117.08 43.8644C117.33 44.281 117.755 44.681 118.355 45.0644L118.28 45.2144C117.797 44.931 117.347 44.606 116.93 44.2394C116.513 43.856 116.113 43.4727 115.73 43.0894C115.28 42.6394 114.922 42.281 114.655 42.0144C114.405 41.731 114.213 41.456 114.08 41.1894C113.947 40.906 113.855 40.581 113.805 40.2144C113.772 39.831 113.755 39.3144 113.755 38.6644V33.6644L111.33 30.8144C111.33 30.6477 111.397 30.4977 111.53 30.3644C111.647 30.2144 111.797 30.0894 111.98 29.9894C112.147 29.8894 112.33 29.8144 112.53 29.7644C112.73 29.6977 112.897 29.6644 113.03 29.6644H116.43L119.43 32.4894C118.88 32.606 118.422 32.8227 118.055 33.1394C117.705 33.4394 117.422 33.7977 117.205 34.2144C117.005 34.631 116.863 35.0894 116.78 35.5894C116.713 36.0727 116.68 36.5644 116.68 37.0644ZM132.28 35.4894C132.38 35.5894 132.555 35.781 132.805 36.0644C133.072 36.331 133.347 36.6227 133.63 36.9394C133.93 37.2394 134.197 37.5394 134.43 37.8394C134.663 38.1227 134.797 38.3227 134.83 38.4394C134.863 38.556 134.88 38.6644 134.88 38.7644C134.897 38.8477 134.905 38.9477 134.905 39.0644C134.905 39.6644 134.763 40.206 134.48 40.6894C134.213 41.156 133.863 41.5477 133.43 41.8644C132.997 42.181 132.505 42.4227 131.955 42.5894C131.422 42.756 130.88 42.8394 130.33 42.8394C129.713 42.8394 129.147 42.681 128.63 42.3644C128.33 42.181 127.955 41.8644 127.505 41.4144C127.055 40.9477 126.613 40.4477 126.18 39.9144C125.763 39.3644 125.405 38.8227 125.105 38.2894C124.788 37.7394 124.63 37.2894 124.63 36.9394C124.63 36.4394 124.747 35.981 124.98 35.5644C125.213 35.1477 125.513 34.7894 125.88 34.4894C126.263 34.1727 126.688 33.931 127.155 33.7644C127.622 33.581 128.088 33.4894 128.555 33.4894C128.938 33.4894 129.305 33.556 129.655 33.6894C130.022 33.806 130.355 33.9644 130.655 34.1644C130.972 34.3644 131.263 34.581 131.53 34.8144C131.813 35.0477 132.063 35.2727 132.28 35.4894ZM133.93 32.4894H126.58C126.313 32.4894 126.047 32.506 125.78 32.5394C125.513 32.556 125.28 32.6144 125.08 32.7144C124.863 32.8144 124.688 32.9644 124.555 33.1644C124.422 33.3477 124.338 33.606 124.305 33.9394L121.755 30.9894C121.772 30.556 121.947 30.231 122.28 30.0144C122.597 29.781 122.947 29.6644 123.33 29.6644H131.505L133.93 32.4894ZM132.305 36.5894C131.855 36.4727 131.388 36.4144 130.905 36.4144C129.922 36.4144 129.122 36.5977 128.505 36.9644C127.905 37.3144 127.48 37.7144 127.23 38.1644C126.997 38.5977 126.947 38.9977 127.08 39.3644C127.213 39.7144 127.53 39.8894 128.03 39.8894C128.563 39.8894 129.08 39.8144 129.58 39.6644C130.097 39.5144 130.555 39.2977 130.955 39.0144C131.372 38.7144 131.705 38.3644 131.955 37.9644C132.205 37.5477 132.322 37.0894 132.305 36.5894ZM135.479 37.0644C135.479 37.9144 135.479 38.7727 135.479 39.6394C135.495 40.4894 135.504 41.3394 135.504 42.1894C135.504 42.8894 135.629 43.4477 135.879 43.8644C136.129 44.281 136.554 44.681 137.154 45.0644L137.079 45.2144C136.595 44.931 136.145 44.606 135.729 44.2394C135.312 43.856 134.912 43.4727 134.529 43.0894C134.079 42.6394 133.72 42.281 133.454 42.0144C133.204 41.731 133.012 41.456 132.879 41.1894C132.745 40.906 132.654 40.581 132.604 40.2144C132.57 39.831 132.554 39.3144 132.554 38.6644V33.6644L130.129 30.8144C130.129 30.6477 130.195 30.4977 130.329 30.3644C130.445 30.2144 130.595 30.0894 130.779 29.9894C130.945 29.8894 131.129 29.8144 131.329 29.7644C131.529 29.6977 131.695 29.6644 131.829 29.6644H135.229L138.229 32.4894C137.679 32.606 137.22 32.8227 136.854 33.1394C136.504 33.4394 136.22 33.7977 136.004 34.2144C135.804 34.631 135.662 35.0894 135.579 35.5894C135.512 36.0727 135.479 36.5644 135.479 37.0644ZM140.679 37.0644C140.679 37.9144 140.679 38.7727 140.679 39.6394C140.696 40.4894 140.704 41.3394 140.704 42.1894C140.704 42.8894 140.829 43.4477 141.079 43.8644C141.329 44.281 141.754 44.681 142.354 45.0644L142.279 45.2144C141.796 44.931 141.346 44.606 140.929 44.2394C140.512 43.856 140.112 43.4727 139.729 43.0894C139.279 42.6394 138.921 42.281 138.654 42.0144C138.404 41.731 138.212 41.456 138.079 41.1894C137.946 40.906 137.854 40.581 137.804 40.2144C137.771 39.831 137.754 39.3144 137.754 38.6644V33.6644L135.329 30.8144C135.329 30.6477 135.396 30.4977 135.529 30.3644C135.646 30.2144 135.796 30.0894 135.979 29.9894C136.146 29.8894 136.329 29.8144 136.529 29.7644C136.729 29.6977 136.896 29.6644 137.029 29.6644H140.429L143.429 32.4894C142.879 32.606 142.421 32.8227 142.054 33.1394C141.704 33.4394 141.421 33.7977 141.204 34.2144C141.004 34.631 140.862 35.0894 140.779 35.5894C140.712 36.0727 140.679 36.5644 140.679 37.0644ZM150.204 36.7144C150.204 37.1644 150.212 37.581 150.229 37.9644C150.262 38.3477 150.237 38.681 150.154 38.9644C150.071 39.231 149.887 39.4394 149.604 39.5894C149.321 39.7394 148.871 39.8144 148.254 39.8144C147.871 39.8144 147.546 39.7894 147.279 39.7394C147.012 39.6894 146.771 39.6144 146.554 39.5144C146.337 39.3977 146.121 39.256 145.904 39.0894C145.704 38.9227 145.462 38.7227 145.179 38.4894C145.062 38.7894 145.071 39.106 145.204 39.4394C145.354 39.7727 145.562 40.081 145.829 40.3644C146.096 40.6477 146.396 40.881 146.729 41.0644C147.062 41.2477 147.354 41.3394 147.604 41.3394C147.921 41.3394 148.204 41.281 148.454 41.1644C148.721 41.0477 148.962 40.9227 149.179 40.7894C149.412 40.656 149.629 40.531 149.829 40.4144C150.029 40.2977 150.221 40.2394 150.404 40.2394C150.621 40.2394 150.971 40.406 151.454 40.7394C151.954 41.056 152.462 41.4394 152.979 41.8894C153.512 42.3227 154.004 42.756 154.454 43.1894C154.921 43.606 155.229 43.9144 155.379 44.1144C155.346 44.081 155.304 44.0977 155.254 44.1644C155.221 44.231 155.179 44.2644 155.129 44.2644C155.129 44.2644 155.112 44.2477 155.079 44.2144C154.979 44.031 154.846 43.856 154.679 43.6894C154.529 43.5227 154.371 43.3727 154.204 43.2394C154.037 43.106 153.879 42.9977 153.729 42.9144C153.596 42.831 153.487 42.7894 153.404 42.7894C153.187 42.7894 152.954 42.856 152.704 42.9894C152.471 43.106 152.221 43.2394 151.954 43.3894C151.687 43.5227 151.412 43.656 151.129 43.7894C150.846 43.906 150.546 43.9644 150.229 43.9644C149.996 43.9644 149.754 43.9227 149.504 43.8394C149.271 43.756 149.062 43.6477 148.879 43.5144C148.646 43.3644 148.312 43.106 147.879 42.7394C147.446 42.3727 146.971 41.9477 146.454 41.4644C145.954 40.981 145.437 40.4727 144.904 39.9394C144.371 39.3894 143.887 38.8644 143.454 38.3644C143.021 37.8477 142.671 37.3727 142.404 36.9394C142.121 36.506 141.979 36.1644 141.979 35.9144C141.979 35.7644 142.037 35.6227 142.154 35.4894C142.254 35.356 142.387 35.2394 142.554 35.1394C142.721 35.0394 142.887 34.9644 143.054 34.9144C143.237 34.8644 143.396 34.8394 143.529 34.8394C143.729 34.8394 143.979 34.931 144.279 35.1144C144.579 35.281 144.879 35.4894 145.179 35.7394C145.479 35.9727 145.762 36.2144 146.029 36.4644C146.296 36.7144 146.496 36.9144 146.629 37.0644C146.912 36.8977 147.087 36.7227 147.154 36.5394C147.237 36.3394 147.279 36.0894 147.279 35.7894C147.279 35.256 147.271 34.706 147.254 34.1394C147.254 33.5727 147.254 33.0227 147.254 32.4894H144.879C144.446 32.4894 144.037 32.6227 143.654 32.8894C143.271 33.1394 143.029 33.506 142.929 33.9894L140.379 31.0644C140.562 30.831 140.737 30.631 140.904 30.4644C141.071 30.281 141.271 30.131 141.504 30.0144C141.721 29.8977 141.987 29.8144 142.304 29.7644C142.604 29.6977 142.996 29.6644 143.479 29.6644H149.004L150.329 30.6894C150.679 30.2727 151.046 29.9977 151.429 29.8644C151.812 29.731 152.254 29.6644 152.754 29.6644H154.429L156.854 32.4894H155.979C155.679 32.4894 155.371 32.506 155.054 32.5394C154.737 32.556 154.429 32.606 154.129 32.6894C153.846 32.756 153.596 32.8644 153.379 33.0144C153.162 33.1644 153.004 33.3727 152.904 33.6394L151.854 32.4894H151.554C151.137 32.806 150.804 33.1477 150.554 33.5144C150.321 33.881 150.204 34.3477 150.204 34.9144V36.7144ZM162.621 32.4894H162.321C161.904 32.806 161.571 33.1477 161.321 33.5144C161.087 33.881 160.971 34.3477 160.971 34.9144V36.7144V36.8644C161.171 36.8477 161.404 36.8227 161.671 36.7894C161.954 36.756 162.237 36.6894 162.521 36.5894C162.804 36.4894 163.071 36.331 163.321 36.1144C163.587 35.8977 163.821 35.5894 164.021 35.1894L165.671 38.0394C165.421 38.3894 165.096 38.656 164.696 38.8394C164.312 39.006 163.904 39.0894 163.471 39.0894C163.021 39.0894 162.596 39.006 162.196 38.8394C161.796 38.656 161.404 38.4394 161.021 38.1894C161.021 38.4394 160.996 38.6644 160.946 38.8644C160.896 39.0644 160.796 39.2394 160.646 39.3894C160.512 39.5227 160.312 39.631 160.046 39.7144C159.796 39.781 159.454 39.8144 159.021 39.8144C158.637 39.8144 158.312 39.7894 158.046 39.7394C157.779 39.6894 157.537 39.6144 157.321 39.5144C157.104 39.3977 156.887 39.256 156.671 39.0894C156.471 38.9227 156.229 38.7227 155.946 38.4894C155.829 38.7894 155.837 39.106 155.971 39.4394C156.121 39.7727 156.329 40.081 156.596 40.3644C156.862 40.6477 157.162 40.881 157.496 41.0644C157.829 41.2477 158.121 41.3394 158.371 41.3394C158.687 41.3394 158.971 41.281 159.221 41.1644C159.487 41.0477 159.729 40.9227 159.946 40.7894C160.179 40.656 160.396 40.531 160.596 40.4144C160.796 40.2977 160.987 40.2394 161.171 40.2394C161.387 40.2394 161.721 40.381 162.171 40.6644C162.621 40.9477 163.087 41.281 163.571 41.6644C164.054 42.0477 164.504 42.431 164.921 42.8144C165.337 43.1977 165.621 43.4894 165.771 43.6894C165.737 43.656 165.696 43.6727 165.646 43.7394C165.612 43.806 165.571 43.8394 165.521 43.8394C165.521 43.8394 165.504 43.8227 165.471 43.7894C165.271 43.4394 165.037 43.1894 164.771 43.0394C164.521 42.8727 164.321 42.7894 164.171 42.7894C163.954 42.7894 163.721 42.856 163.471 42.9894C163.237 43.106 162.987 43.2394 162.721 43.3894C162.454 43.5227 162.179 43.656 161.896 43.7894C161.612 43.906 161.312 43.9644 160.996 43.9644C160.762 43.9644 160.521 43.9227 160.271 43.8394C160.037 43.756 159.829 43.6477 159.646 43.5144C159.412 43.3644 159.079 43.106 158.646 42.7394C158.212 42.3727 157.737 41.9477 157.221 41.4644C156.721 40.981 156.204 40.4727 155.671 39.9394C155.137 39.3894 154.654 38.8644 154.221 38.3644C153.787 37.8477 153.437 37.3727 153.171 36.9394C152.887 36.506 152.746 36.1644 152.746 35.9144C152.746 35.7644 152.804 35.6227 152.921 35.4894C153.021 35.356 153.154 35.2394 153.321 35.1394C153.487 35.0394 153.654 34.9644 153.821 34.9144C154.004 34.8644 154.162 34.8394 154.296 34.8394C154.496 34.8394 154.746 34.931 155.046 35.1144C155.346 35.281 155.646 35.4894 155.946 35.7394C156.246 35.9727 156.529 36.2144 156.796 36.4644C157.062 36.7144 157.262 36.9144 157.396 37.0644C157.679 36.8977 157.854 36.7227 157.921 36.5394C158.004 36.3394 158.046 36.0894 158.046 35.7894C158.046 35.256 158.037 34.706 158.021 34.1394C158.021 33.5727 158.021 33.0227 158.021 32.4894H155.646C155.212 32.4894 154.804 32.6227 154.421 32.8894C154.037 33.1394 153.796 33.506 153.696 33.9894L151.146 31.0644C151.329 30.831 151.504 30.631 151.671 30.4644C151.837 30.281 152.037 30.131 152.271 30.0144C152.487 29.8977 152.754 29.8144 153.071 29.7644C153.371 29.6977 153.762 29.6644 154.246 29.6644H159.771L161.096 30.6894C161.446 30.2727 161.812 29.9977 162.196 29.8644C162.579 29.731 163.021 29.6644 163.521 29.6644H165.196L167.621 32.4894H166.746C166.446 32.4894 166.137 32.506 165.821 32.5394C165.504 32.556 165.196 32.606 164.896 32.6894C164.612 32.756 164.362 32.8644 164.146 33.0144C163.929 33.1644 163.771 33.3727 163.671 33.6394L162.621 32.4894ZM166.851 37.0644C166.851 37.9144 166.851 38.7727 166.851 39.6394C166.867 40.4894 166.876 41.3394 166.876 42.1894C166.876 42.8894 167.001 43.4477 167.251 43.8644C167.501 44.281 167.926 44.681 168.526 45.0644L168.451 45.2144C167.967 44.931 167.517 44.606 167.101 44.2394C166.684 43.856 166.284 43.4727 165.901 43.0894C165.451 42.6394 165.092 42.281 164.826 42.0144C164.576 41.731 164.384 41.456 164.251 41.1894C164.117 40.906 164.026 40.581 163.976 40.2144C163.942 39.831 163.926 39.3144 163.926 38.6644V33.6644L161.501 30.8144C161.501 30.6477 161.567 30.4977 161.701 30.3644C161.817 30.2144 161.967 30.0894 162.151 29.9894C162.317 29.8894 162.501 29.8144 162.701 29.7644C162.901 29.6977 163.067 29.6644 163.201 29.6644H166.601L169.601 32.4894C169.051 32.606 168.592 32.8227 168.226 33.1394C167.876 33.4394 167.592 33.7977 167.376 34.2144C167.176 34.631 167.034 35.0894 166.951 35.5894C166.884 36.0727 166.851 36.5644 166.851 37.0644ZM172.051 37.0644C172.051 37.9144 172.051 38.7727 172.051 39.6394C172.068 40.4894 172.076 41.3394 172.076 42.1894C172.076 42.8894 172.201 43.4477 172.451 43.8644C172.701 44.281 173.126 44.681 173.726 45.0644L173.651 45.2144C173.168 44.931 172.718 44.606 172.301 44.2394C171.884 43.856 171.484 43.4727 171.101 43.0894C170.651 42.6394 170.293 42.281 170.026 42.0144C169.776 41.731 169.584 41.456 169.451 41.1894C169.318 40.906 169.226 40.581 169.176 40.2144C169.143 39.831 169.126 39.3144 169.126 38.6644V33.6644L166.701 30.8144C166.701 30.6477 166.768 30.4977 166.901 30.3644C167.018 30.2144 167.168 30.0894 167.351 29.9894C167.518 29.8894 167.701 29.8144 167.901 29.7644C168.101 29.6977 168.268 29.6644 168.401 29.6644H171.801L174.801 32.4894C174.251 32.606 173.793 32.8227 173.426 33.1394C173.076 33.4394 172.793 33.7977 172.576 34.2144C172.376 34.631 172.234 35.0894 172.151 35.5894C172.084 36.0727 172.051 36.5644 172.051 37.0644Z" fill="#393185"/>
</svg>
