<svg width="134" height="56" viewBox="0 0 134 56" fill="none" xmlns="http://www.w3.org/2000/svg">
<g filter="url(#filter0_d_959_7454)">
<path d="M20.16 28.885C20.3433 29.2517 20.7467 29.6183 21.37 29.985C21.9933 30.3517 22.7633 30.535 23.68 30.535C23.79 30.535 23.9 30.535 24.01 30.535C24.1567 30.535 24.285 30.5167 24.395 30.48C27.1817 30.1133 29.0517 29.1233 30.005 27.51C30.995 25.8967 31.3067 23.8983 30.94 21.515C31.16 21.5883 31.5817 21.8633 32.205 22.34C32.865 22.78 33.525 23.2933 34.185 23.88C34.8817 24.43 35.505 24.9617 36.055 25.475C36.605 25.9517 36.88 26.2633 36.88 26.41C36.88 27.7667 36.6967 29.0317 36.33 30.205C36 31.3783 35.4867 32.405 34.79 33.285C34.13 34.1283 33.3233 34.7883 32.37 35.265C31.4533 35.7417 30.4267 35.98 29.29 35.98C28.08 35.98 26.8883 35.7417 25.715 35.265C24.5783 34.7883 23.46 34.2017 22.36 33.505C21.26 32.7717 20.215 31.9833 19.225 31.14C18.235 30.2967 17.3183 29.49 16.475 28.72C16.3283 28.5733 16.1083 28.39 15.815 28.17C15.5217 27.95 15.2283 27.73 14.935 27.51C14.6783 27.2533 14.4217 27.015 14.165 26.795C13.9083 26.5383 13.725 26.3183 13.615 26.135L13.56 17.005C12.5333 17.005 11.6533 17.335 10.92 17.995C10.1867 18.655 9.78333 19.5167 9.71 20.58L4.1 14.09C4.24667 13.5033 4.50333 13.0083 4.87 12.605C5.2 12.2017 5.60333 11.8717 6.08 11.615C6.52 11.3217 7.015 11.12 7.565 11.01C8.07833 10.8633 8.59167 10.79 9.105 10.79H20.93L22.69 12.385C23.4233 11.6883 24.1567 11.2483 24.89 11.065C25.6233 10.8817 26.5033 10.79 27.53 10.79H35.505L40.895 17.005H35.395C34.5517 17.005 33.7083 17.0417 32.865 17.115C32.0583 17.1517 31.27 17.2983 30.5 17.555C29.7667 17.775 29.07 18.1417 28.41 18.655C27.7867 19.1317 27.2367 19.7917 26.76 20.635C25.77 19.755 24.835 18.82 23.955 17.83C23.515 18.0133 23.0567 18.3067 22.58 18.71C22.14 19.0767 21.7183 19.5167 21.315 20.03C20.9483 20.5067 20.6367 21.0567 20.38 21.68C20.16 22.2667 20.05 22.8717 20.05 23.495C20.05 24.5583 20.0683 25.4567 20.105 26.19C20.1417 26.9233 20.16 27.8217 20.16 28.885ZM36.9793 27.07C36.9793 28.94 36.9793 30.8283 36.9793 32.735C37.0159 34.605 37.0343 36.475 37.0343 38.345C37.0343 39.885 37.3093 41.1133 37.8593 42.03C38.4093 42.9467 39.3443 43.8267 40.6643 44.67L40.4993 45C39.4359 44.3767 38.4459 43.6617 37.5293 42.855C36.6126 42.0117 35.7326 41.1683 34.8893 40.325C33.8993 39.335 33.1109 38.5467 32.5243 37.96C31.9743 37.3367 31.5526 36.7317 31.2593 36.145C30.9659 35.5217 30.7643 34.8067 30.6543 34C30.5809 33.1567 30.5443 32.02 30.5443 30.59V19.59L25.2093 13.32C25.2093 12.9533 25.3559 12.6233 25.6493 12.33C25.9059 12 26.2359 11.725 26.6393 11.505C27.0059 11.285 27.4093 11.12 27.8493 11.01C28.2893 10.8633 28.6559 10.79 28.9493 10.79H36.4293L43.0293 17.005C41.8193 17.2617 40.8109 17.7383 40.0043 18.435C39.2343 19.095 38.6109 19.8833 38.1343 20.8C37.6943 21.7167 37.3826 22.725 37.1993 23.825C37.0526 24.8883 36.9793 25.97 36.9793 27.07ZM57.9347 26.3C57.9347 27.29 57.953 28.2067 57.9897 29.05C58.063 29.8933 58.008 30.6267 57.8247 31.25C57.6414 31.8367 57.238 32.295 56.6147 32.625C55.9914 32.955 55.0014 33.12 53.6447 33.12C52.8014 33.12 52.0864 33.065 51.4997 32.955C50.913 32.845 50.3814 32.68 49.9047 32.46C49.428 32.2033 48.9514 31.8917 48.4747 31.525C48.0347 31.1583 47.503 30.7183 46.8797 30.205C46.623 30.865 46.6414 31.5617 46.9347 32.295C47.2647 33.0283 47.723 33.7067 48.3097 34.33C48.8964 34.9533 49.5564 35.4667 50.2897 35.87C51.023 36.2733 51.6647 36.475 52.2147 36.475C52.9114 36.475 53.5347 36.3467 54.0847 36.09C54.6714 35.8333 55.203 35.5583 55.6797 35.265C56.193 34.9717 56.6697 34.6967 57.1097 34.44C57.5497 34.1833 57.9714 34.055 58.3747 34.055C58.8514 34.055 59.6214 34.4217 60.6847 35.155C61.7847 35.8517 62.903 36.695 64.0397 37.685C65.213 38.6383 66.2947 39.5917 67.2847 40.545C68.3114 41.4617 68.9897 42.14 69.3197 42.58C69.2464 42.5067 69.1547 42.5433 69.0447 42.69C68.9714 42.8367 68.8797 42.91 68.7697 42.91C68.7697 42.91 68.733 42.8733 68.6597 42.8C68.4397 42.3967 68.1464 42.0117 67.7797 41.645C67.4497 41.2783 67.1014 40.9483 66.7347 40.655C66.368 40.3617 66.0197 40.1233 65.6897 39.94C65.3964 39.7567 65.158 39.665 64.9747 39.665C64.498 39.665 63.9847 39.8117 63.4347 40.105C62.9214 40.3617 62.3714 40.655 61.7847 40.985C61.198 41.2783 60.593 41.5717 59.9697 41.865C59.3464 42.1217 58.6864 42.25 57.9897 42.25C57.4764 42.25 56.9447 42.1583 56.3947 41.975C55.8814 41.7917 55.423 41.5533 55.0197 41.26C54.5064 40.93 53.773 40.3617 52.8197 39.555C51.8664 38.7483 50.8214 37.8133 49.6847 36.75C48.5847 35.6867 47.448 34.5683 46.2747 33.395C45.1014 32.185 44.038 31.03 43.0847 29.93C42.1314 28.7933 41.3614 27.7483 40.7747 26.795C40.1514 25.8417 39.8397 25.09 39.8397 24.54C39.8397 24.21 39.968 23.8983 40.2247 23.605C40.4447 23.3117 40.738 23.055 41.1047 22.835C41.4714 22.615 41.838 22.45 42.2047 22.34C42.608 22.23 42.9564 22.175 43.2497 22.175C43.6897 22.175 44.2397 22.3767 44.8997 22.78C45.5597 23.1467 46.2197 23.605 46.8797 24.155C47.5397 24.6683 48.163 25.2 48.7497 25.75C49.3364 26.3 49.7764 26.74 50.0697 27.07C50.693 26.7033 51.078 26.3183 51.2247 25.915C51.408 25.475 51.4997 24.925 51.4997 24.265C51.4997 23.0917 51.4814 21.8817 51.4447 20.635C51.4447 19.3883 51.4447 18.1783 51.4447 17.005H46.2197C45.2664 17.005 44.368 17.2983 43.5247 17.885C42.6814 18.435 42.1497 19.2417 41.9297 20.305L36.3197 13.87C36.723 13.3567 37.108 12.9167 37.4747 12.55C37.8414 12.1467 38.2814 11.8167 38.7947 11.56C39.2714 11.3033 39.858 11.12 40.5547 11.01C41.2147 10.8633 42.0764 10.79 43.1397 10.79H55.2947L58.2097 13.045C58.9797 12.1283 59.7864 11.5233 60.6297 11.23C61.473 10.9367 62.4447 10.79 63.5447 10.79H67.2297L72.5647 17.005H70.6397C69.9797 17.005 69.3014 17.0417 68.6047 17.115C67.908 17.1517 67.2297 17.2617 66.5697 17.445C65.9464 17.5917 65.3964 17.83 64.9197 18.16C64.443 18.49 64.0947 18.9483 63.8747 19.535L61.5647 17.005H60.9047C59.988 17.7017 59.2547 18.4533 58.7047 19.26C58.1914 20.0667 57.9347 21.0933 57.9347 22.34V26.3ZM52.9662 3.75C53.0762 3.45666 53.3512 3.145 53.7912 2.815C54.1945 2.44833 54.6529 2.1 55.1662 1.77C55.6429 1.44 56.0829 1.12833 56.4862 0.834998C56.8529 0.541664 57.0362 0.321664 57.0362 0.174997C57.2195 0.248331 57.6229 0.523332 58.2462 0.999999C58.8329 1.47666 59.4562 1.99 60.1162 2.54C60.7395 3.09 61.3079 3.62167 61.8212 4.135C62.3345 4.61167 62.5912 4.92333 62.5912 5.07C62.5912 5.18 62.3895 5.38166 61.9862 5.675C61.5829 5.96833 61.1429 6.28 60.6662 6.61C60.1529 6.94 59.6945 7.28833 59.2912 7.655C58.8512 7.985 58.5945 8.27833 58.5212 8.535C58.1545 8.35166 57.7145 8.07666 57.2012 7.71C56.6512 7.30667 56.1195 6.86667 55.6062 6.39C55.0562 5.91333 54.5429 5.43666 54.0662 4.96C53.5895 4.48333 53.2229 4.08 52.9662 3.75ZM71.7762 28.885C71.9595 29.2517 72.3629 29.6183 72.9862 29.985C73.6095 30.3517 74.3795 30.535 75.2962 30.535C75.4062 30.535 75.5162 30.535 75.6262 30.535C75.7729 30.535 75.9012 30.5167 76.0112 30.48C78.7979 30.1133 80.6679 29.1233 81.6212 27.51C82.6112 25.8967 82.9229 23.8983 82.5562 21.515C82.7762 21.5883 83.1979 21.8633 83.8212 22.34C84.4812 22.78 85.1412 23.2933 85.8012 23.88C86.4979 24.43 87.1212 24.9617 87.6712 25.475C88.2212 25.9517 88.4962 26.2633 88.4962 26.41C88.4962 27.7667 88.3129 29.0317 87.9462 30.205C87.6162 31.3783 87.1029 32.405 86.4062 33.285C85.7462 34.1283 84.9395 34.7883 83.9862 35.265C83.0695 35.7417 82.0429 35.98 80.9062 35.98C79.6962 35.98 78.5045 35.7417 77.3312 35.265C76.1945 34.7883 75.0762 34.2017 73.9762 33.505C72.8762 32.7717 71.8312 31.9833 70.8412 31.14C69.8512 30.2967 68.9345 29.49 68.0912 28.72C67.9445 28.5733 67.7245 28.39 67.4312 28.17C67.1379 27.95 66.8445 27.73 66.5512 27.51C66.2945 27.2533 66.0379 27.015 65.7812 26.795C65.5245 26.5383 65.3412 26.3183 65.2312 26.135L65.1762 17.005C64.1495 17.005 63.2695 17.335 62.5362 17.995C61.8029 18.655 61.3995 19.5167 61.3262 20.58L55.7162 14.09C55.8629 13.5033 56.1195 13.0083 56.4862 12.605C56.8162 12.2017 57.2195 11.8717 57.6962 11.615C58.1362 11.3217 58.6312 11.12 59.1812 11.01C59.6945 10.8633 60.2079 10.79 60.7212 10.79H72.5462L74.3062 12.385C75.0395 11.6883 75.7729 11.2483 76.5062 11.065C77.2395 10.8817 78.1195 10.79 79.1462 10.79H87.1212L92.5112 17.005H87.0112C86.1679 17.005 85.3245 17.0417 84.4812 17.115C83.6745 17.1517 82.8862 17.2983 82.1162 17.555C81.3829 17.775 80.6862 18.1417 80.0262 18.655C79.4029 19.1317 78.8529 19.7917 78.3762 20.635C77.3862 19.755 76.4512 18.82 75.5712 17.83C75.1312 18.0133 74.6729 18.3067 74.1962 18.71C73.7562 19.0767 73.3345 19.5167 72.9312 20.03C72.5645 20.5067 72.2529 21.0567 71.9962 21.68C71.7762 22.2667 71.6662 22.8717 71.6662 23.495C71.6662 24.5583 71.6845 25.4567 71.7212 26.19C71.7579 26.9233 71.7762 27.8217 71.7762 28.885ZM88.5955 27.07C88.5955 28.94 88.5955 30.8283 88.5955 32.735C88.6321 34.605 88.6505 36.475 88.6505 38.345C88.6505 39.885 88.9255 41.1133 89.4755 42.03C90.0255 42.9467 90.9605 43.8267 92.2805 44.67L92.1155 45C91.0521 44.3767 90.0621 43.6617 89.1455 42.855C88.2288 42.0117 87.3488 41.1683 86.5055 40.325C85.5155 39.335 84.7271 38.5467 84.1405 37.96C83.5905 37.3367 83.1688 36.7317 82.8755 36.145C82.5821 35.5217 82.3805 34.8067 82.2705 34C82.1971 33.1567 82.1605 32.02 82.1605 30.59V19.59L76.8255 13.32C76.8255 12.9533 76.9721 12.6233 77.2655 12.33C77.5221 12 77.8521 11.725 78.2555 11.505C78.6221 11.285 79.0255 11.12 79.4655 11.01C79.9055 10.8633 80.2721 10.79 80.5655 10.79H88.0455L94.6455 17.005C93.4355 17.2617 92.4271 17.7383 91.6205 18.435C90.8505 19.095 90.2271 19.8833 89.7505 20.8C89.3105 21.7167 88.9988 22.725 88.8155 23.825C88.6688 24.8883 88.5955 25.97 88.5955 27.07ZM109.551 26.3C109.551 27.29 109.569 28.2067 109.606 29.05C109.679 29.8933 109.624 30.6267 109.441 31.25C109.258 31.8367 108.854 32.295 108.231 32.625C107.608 32.955 106.618 33.12 105.261 33.12C104.418 33.12 103.703 33.065 103.116 32.955C102.529 32.845 101.998 32.68 101.521 32.46C101.044 32.2033 100.568 31.8917 100.091 31.525C99.6509 31.1583 99.1192 30.7183 98.4959 30.205C98.2392 30.865 98.2576 31.5617 98.5509 32.295C98.8809 33.0283 99.3392 33.7067 99.9259 34.33C100.513 34.9533 101.173 35.4667 101.906 35.87C102.639 36.2733 103.281 36.475 103.831 36.475C104.528 36.475 105.151 36.3467 105.701 36.09C106.288 35.8333 106.819 35.5583 107.296 35.265C107.809 34.9717 108.286 34.6967 108.726 34.44C109.166 34.1833 109.588 34.055 109.991 34.055C110.468 34.055 111.238 34.4217 112.301 35.155C113.401 35.8517 114.519 36.695 115.656 37.685C116.829 38.6383 117.911 39.5917 118.901 40.545C119.928 41.4617 120.606 42.14 120.936 42.58C120.863 42.5067 120.771 42.5433 120.661 42.69C120.588 42.8367 120.496 42.91 120.386 42.91C120.386 42.91 120.349 42.8733 120.276 42.8C120.056 42.3967 119.763 42.0117 119.396 41.645C119.066 41.2783 118.718 40.9483 118.351 40.655C117.984 40.3617 117.636 40.1233 117.306 39.94C117.013 39.7567 116.774 39.665 116.591 39.665C116.114 39.665 115.601 39.8117 115.051 40.105C114.538 40.3617 113.988 40.655 113.401 40.985C112.814 41.2783 112.209 41.5717 111.586 41.865C110.963 42.1217 110.303 42.25 109.606 42.25C109.093 42.25 108.561 42.1583 108.011 41.975C107.498 41.7917 107.039 41.5533 106.636 41.26C106.123 40.93 105.389 40.3617 104.436 39.555C103.483 38.7483 102.438 37.8133 101.301 36.75C100.201 35.6867 99.0642 34.5683 97.8909 33.395C96.7176 32.185 95.6542 31.03 94.7009 29.93C93.7476 28.7933 92.9776 27.7483 92.3909 26.795C91.7676 25.8417 91.4559 25.09 91.4559 24.54C91.4559 24.21 91.5842 23.8983 91.8409 23.605C92.0609 23.3117 92.3542 23.055 92.7209 22.835C93.0876 22.615 93.4542 22.45 93.8209 22.34C94.2242 22.23 94.5726 22.175 94.8659 22.175C95.3059 22.175 95.8559 22.3767 96.5159 22.78C97.1759 23.1467 97.8359 23.605 98.4959 24.155C99.1559 24.6683 99.7792 25.2 100.366 25.75C100.953 26.3 101.393 26.74 101.686 27.07C102.309 26.7033 102.694 26.3183 102.841 25.915C103.024 25.475 103.116 24.925 103.116 24.265C103.116 23.0917 103.098 21.8817 103.061 20.635C103.061 19.3883 103.061 18.1783 103.061 17.005H97.8359C96.8826 17.005 95.9842 17.2983 95.1409 17.885C94.2976 18.435 93.7659 19.2417 93.5459 20.305L87.9359 13.87C88.3392 13.3567 88.7242 12.9167 89.0909 12.55C89.4576 12.1467 89.8976 11.8167 90.4109 11.56C90.8876 11.3033 91.4742 11.12 92.1709 11.01C92.8309 10.8633 93.6926 10.79 94.7559 10.79H106.911L109.826 13.045C110.596 12.1283 111.403 11.5233 112.246 11.23C113.089 10.9367 114.061 10.79 115.161 10.79H118.846L124.181 17.005H122.256C121.596 17.005 120.918 17.0417 120.221 17.115C119.524 17.1517 118.846 17.2617 118.186 17.445C117.563 17.5917 117.013 17.83 116.536 18.16C116.059 18.49 115.711 18.9483 115.491 19.535L113.181 17.005H112.521C111.604 17.7017 110.871 18.4533 110.321 19.26C109.808 20.0667 109.551 21.0933 109.551 22.34V26.3ZM123.722 27.07C123.722 28.94 123.722 30.8283 123.722 32.735C123.759 34.605 123.777 36.475 123.777 38.345C123.777 39.885 124.052 41.1133 124.602 42.03C125.152 42.9467 126.087 43.8267 127.407 44.67L127.242 45C126.179 44.3767 125.189 43.6617 124.272 42.855C123.356 42.0117 122.476 41.1683 121.632 40.325C120.642 39.335 119.854 38.5467 119.267 37.96C118.717 37.3367 118.296 36.7317 118.002 36.145C117.709 35.5217 117.507 34.8067 117.397 34C117.324 33.1567 117.287 32.02 117.287 30.59V19.59L111.952 13.32C111.952 12.9533 112.099 12.6233 112.392 12.33C112.649 12 112.979 11.725 113.382 11.505C113.749 11.285 114.152 11.12 114.592 11.01C115.032 10.8633 115.399 10.79 115.692 10.79H123.172L129.772 17.005C128.562 17.2617 127.554 17.7383 126.747 18.435C125.977 19.095 125.354 19.8833 124.877 20.8C124.437 21.7167 124.126 22.725 123.942 23.825C123.796 24.8883 123.722 25.97 123.722 27.07Z" fill="white"/>
</g>
<defs>
<filter id="filter0_d_959_7454" x="0.0996094" y="0.175049" width="133.672" height="52.825" filterUnits="userSpaceOnUse" color-interpolation-filters="sRGB">
<feFlood flood-opacity="0" result="BackgroundImageFix"/>
<feColorMatrix in="SourceAlpha" type="matrix" values="0 0 0 0 0 0 0 0 0 0 0 0 0 0 0 0 0 0 127 0" result="hardAlpha"/>
<feOffset dy="4"/>
<feGaussianBlur stdDeviation="2"/>
<feComposite in2="hardAlpha" operator="out"/>
<feColorMatrix type="matrix" values="0 0 0 0 0 0 0 0 0 0 0 0 0 0 0 0 0 0 0.6 0"/>
<feBlend mode="normal" in2="BackgroundImageFix" result="effect1_dropShadow_959_7454"/>
<feBlend mode="normal" in="SourceGraphic" in2="effect1_dropShadow_959_7454" result="shape"/>
</filter>
</defs>
</svg>
