<svg width="846" height="128" viewBox="0 0 846 128" fill="none" xmlns="http://www.w3.org/2000/svg">
<g filter="url(#filter0_d_876_7247)">
<path d="M43.144 21.264V112.784H37.512V21.264H43.144ZM56.712 21.264V112.784H50.952V21.264H56.712ZM10.632 68.624C10.632 66.1493 11.4853 64.0587 13.192 62.352C14.984 60.56 17.1173 59.664 19.592 59.664C22.0667 59.664 24.2 60.56 25.992 62.352C27.784 64.0587 28.68 66.1493 28.68 68.624C28.68 71.0987 27.784 73.232 25.992 75.024C24.2 76.816 22.0667 77.712 19.592 77.712C17.1173 77.712 14.984 76.816 13.192 75.024C11.4853 73.232 10.632 71.0987 10.632 68.624ZM134.773 76.56C137.162 75.3653 139.466 73.872 141.685 72.08C143.904 70.2027 145.824 68.1547 147.445 65.936C149.152 63.632 150.517 61.2 151.541 58.64C152.565 55.9947 153.077 53.264 153.077 50.448C153.077 47.888 152.736 45.456 152.053 43.152C151.37 40.848 150.304 38.8427 148.853 37.136C147.488 35.344 145.738 33.9787 143.605 33.04C141.472 32.016 138.997 31.504 136.181 31.504C133.536 31.504 131.104 31.9733 128.885 32.912C126.752 33.8507 124.917 35.1307 123.381 36.752C121.845 38.3733 120.65 40.336 119.797 42.64C118.944 44.8587 118.517 47.248 118.517 49.808C118.517 52.624 118.944 55.312 119.797 57.872C120.65 60.432 121.802 62.864 123.253 65.168C124.789 67.3867 126.538 69.4773 128.501 71.44C130.464 73.3173 132.554 75.024 134.773 76.56ZM100.341 77.328C105.973 79.5467 111.733 80.656 117.621 80.656C119.328 80.656 121.034 80.5707 122.741 80.4C124.448 80.144 126.112 79.76 127.733 79.248C126.794 78.0533 125.728 76.8587 124.533 75.664C123.424 74.4693 122.357 73.2747 121.333 72.08C115.616 65.3387 112.757 57.488 112.757 48.528C112.757 45.2853 113.354 42.2987 114.549 39.568C115.829 36.752 117.536 34.32 119.669 32.272C121.802 30.224 124.277 28.6453 127.093 27.536C129.994 26.3413 133.024 25.744 136.181 25.744C139.85 25.744 143.093 26.4267 145.909 27.792C148.725 29.072 151.072 30.8213 152.949 33.04C154.912 35.2587 156.362 37.904 157.301 40.976C158.325 43.9627 158.837 47.1627 158.837 50.576C158.837 53.648 158.325 56.6347 157.301 59.536C156.362 62.352 155.04 65.04 153.333 67.6C151.712 70.0747 149.749 72.3787 147.445 74.512C145.226 76.6453 142.88 78.48 140.405 80.016C142.624 81.2107 144.885 82.2773 147.189 83.216C149.493 84.0693 151.882 84.752 154.357 85.264C156.405 83.6427 158.581 82.3627 160.885 81.424C163.274 80.4 165.792 79.888 168.437 79.888C170.4 79.888 172.32 80.2293 174.197 80.912C176.074 81.5093 177.696 82.5333 179.061 83.984L174.965 88.08C174.112 87.1413 173.088 86.5013 171.893 86.16C170.784 85.8187 169.632 85.648 168.437 85.648C165.877 85.648 163.445 86.3307 161.141 87.696C158.922 89.0613 156.746 90.768 154.613 92.816C152.48 94.864 150.304 97.0827 148.085 99.472C145.866 101.776 143.434 103.952 140.789 106C138.144 108.048 135.242 109.755 132.085 111.12C129.013 112.485 125.514 113.168 121.589 113.168C118.688 113.168 115.872 112.656 113.141 111.632C110.41 110.608 107.978 109.115 105.845 107.152L109.685 102.928C111.306 104.464 113.141 105.616 115.189 106.384C117.322 107.152 119.498 107.536 121.717 107.536C124.192 107.536 126.752 107.024 129.397 106C132.042 104.891 134.602 103.483 137.077 101.776C139.552 99.984 141.813 98.064 143.861 96.016C145.994 93.8827 147.658 91.792 148.853 89.744C146.208 88.8907 143.648 87.9093 141.173 86.8C138.784 85.6907 136.394 84.496 134.005 83.216C131.616 84.24 128.928 85.0507 125.941 85.648C123.04 86.16 120.266 86.416 117.621 86.416C110.965 86.416 104.48 85.136 98.165 82.576L100.341 77.328ZM166.389 30.736H180.853V36.496H166.389V30.736ZM189.339 30.736V36.496H180.635V106H174.875V36.496H166.043V30.736H189.339ZM206.464 30.736V36.496H197.76V106H192V36.496H183.168V30.736H206.464ZM227.045 25.232C225.765 27.7067 223.845 29.584 221.285 30.864C218.81 32.0587 216.208 32.656 213.477 32.656C210.917 32.656 208.698 32.2293 206.821 31.376C204.944 30.4373 203.322 29.2853 201.957 27.92C200.506 26.5547 199.184 25.0613 197.989 23.44C196.709 21.8187 195.386 20.3253 194.021 18.96C192.656 17.5947 191.12 16.4853 189.413 15.632C187.706 14.6933 185.658 14.224 183.269 14.224C180.624 14.224 178.405 14.864 176.613 16.144C174.736 17.424 173.285 19.0453 172.261 21.008C171.237 22.8853 170.682 24.976 170.597 27.28C170.512 29.4987 170.938 31.5893 171.877 33.552L166.117 34.192C165.349 31.2053 165.136 28.176 165.477 25.104C165.818 22.032 166.714 19.2587 168.165 16.784C169.616 14.3093 171.621 12.304 174.181 10.768C176.656 9.232 179.685 8.464 183.269 8.464C186.085 8.464 188.517 8.93333 190.565 9.87199C192.528 10.7253 194.277 11.8773 195.813 13.328C197.349 14.6933 198.714 16.1867 199.909 17.808C201.104 19.344 202.384 20.8373 203.749 22.288C205.029 23.6533 206.437 24.8053 207.973 25.744C209.509 26.5973 211.344 27.024 213.477 27.024C215.098 27.024 216.72 26.6827 218.341 26C219.962 25.3173 221.157 24.208 221.925 22.672L227.045 25.232ZM206.181 30.736H283.237V36.496H251.493V62.736H283.237V68.496H251.493C251.493 71.6533 251.45 74.9813 251.365 78.48C251.28 81.8933 250.853 85.2213 250.085 88.464C249.402 91.6213 248.208 94.5653 246.501 97.296C244.794 100.027 242.32 102.245 239.077 103.952C236.005 105.573 232.762 106.384 229.349 106.384C226.021 106.384 222.949 105.829 220.133 104.72C217.317 103.611 214.842 102.075 212.709 100.112C210.661 98.064 209.082 95.6747 207.973 92.944C206.778 90.128 206.181 87.0133 206.181 83.6C206.181 83.088 206.181 82.6187 206.181 82.192C206.181 81.68 206.224 81.168 206.309 80.656C206.992 75.6213 208.741 71.8667 211.557 69.392C214.373 66.9173 217.701 65.2107 221.541 64.272C225.466 63.248 229.562 62.736 233.829 62.736C238.181 62.736 242.192 62.736 245.861 62.736V36.496H206.181V30.736ZM245.861 68.496H233.189C230.629 68.496 228.069 68.7093 225.509 69.136C223.034 69.4773 220.773 70.2027 218.725 71.312C216.677 72.4213 215.013 73.9573 213.733 75.92C212.453 77.8827 211.813 80.4427 211.813 83.6C211.813 88.72 213.434 92.8587 216.677 96.016C219.92 99.088 224.101 100.624 229.221 100.624C232.464 100.624 235.152 99.8987 237.285 98.448C239.418 96.912 241.125 94.992 242.405 92.688C243.685 90.384 244.581 87.824 245.093 85.008C245.605 82.192 245.861 79.4613 245.861 76.816V68.496ZM295.714 30.736V36.496H287.01V106H281.25V36.496H272.418V30.736H295.714ZM286.599 15.504C286.599 14.5653 286.3 13.7973 285.703 13.2C285.02 12.5173 284.21 12.176 283.271 12.176C282.332 12.176 281.564 12.5173 280.967 13.2C280.284 13.7973 279.943 14.5653 279.943 15.504C279.943 16.4427 280.284 17.2533 280.967 17.936C281.564 18.5333 282.332 18.832 283.271 18.832C284.21 18.832 285.02 18.5333 285.703 17.936C286.3 17.2533 286.599 16.4427 286.599 15.504H292.359C292.359 17.9787 291.463 20.112 289.671 21.904C287.879 23.6107 285.746 24.464 283.271 24.464C280.796 24.464 278.706 23.6107 276.999 21.904C275.207 20.112 274.311 17.9787 274.311 15.504C274.311 13.0293 275.207 10.896 276.999 9.104C278.706 7.31199 280.796 6.41599 283.271 6.41599C285.746 6.41599 287.879 7.31199 289.671 9.104C291.463 10.896 292.359 13.0293 292.359 15.504H286.599ZM292.743 30.736H364.167V36.496H292.743V30.736ZM362.887 56.208H325.895C322.738 56.208 319.751 56.6773 316.935 57.616C314.119 58.5547 311.644 59.9627 309.511 61.84C307.378 63.632 305.714 65.8507 304.519 68.496C303.324 71.1413 302.727 74.1707 302.727 77.584C302.727 80.656 303.239 83.472 304.263 86.032C305.287 88.592 306.738 90.8107 308.615 92.688C310.492 94.48 312.668 95.888 315.143 96.912C317.703 97.936 320.519 98.448 323.591 98.448C325.298 98.448 326.962 98.32 328.583 98.064C330.29 97.7227 331.996 97.296 333.703 96.784L335.367 102.288C333.404 102.885 331.442 103.355 329.479 103.696C327.516 104.037 325.554 104.208 323.591 104.208C319.751 104.208 316.21 103.568 312.967 102.288C309.724 100.923 306.908 99.0453 304.519 96.656C302.13 94.2667 300.252 91.4507 298.887 88.208C297.607 84.9653 296.967 81.424 296.967 77.584C296.967 73.4027 297.735 69.648 299.271 66.32C300.807 62.9067 302.855 60.048 305.415 57.744C308.06 55.3547 311.132 53.5627 314.631 52.368C318.215 51.088 322.012 50.448 326.023 50.448H362.887V56.208ZM374.464 30.736V36.496H365.76V106H360V36.496H351.168V30.736H374.464ZM407.064 30.736H496.92V36.496H460.056C463.896 39.312 466.925 42.6827 469.144 46.608C471.363 50.5333 472.472 54.928 472.472 59.792C472.472 61.6693 472.259 63.6747 471.832 65.808H496.92V71.568H469.656C468.376 73.9573 466.755 76.1333 464.792 78.096C462.915 80.0587 460.781 81.7653 458.392 83.216C456.003 84.5813 453.485 85.648 450.84 86.416C448.195 87.0987 445.507 87.44 442.776 87.44C440.899 87.44 439.021 87.2693 437.144 86.928C435.352 86.5013 433.603 86.032 431.896 85.52C433.261 87.7387 434.755 89.9147 436.376 92.048C438.083 94.096 439.96 95.9733 442.008 97.68C444.056 99.3013 446.275 100.624 448.664 101.648C451.139 102.672 453.784 103.184 456.6 103.184C458.477 103.184 460.355 102.928 462.232 102.416C464.109 101.819 465.816 101.008 467.352 99.984C468.888 98.8747 470.168 97.552 471.192 96.016C472.216 94.3947 472.856 92.56 473.112 90.512L478.744 91.152C478.403 94.0533 477.464 96.6133 475.928 98.832C474.477 101.051 472.643 102.928 470.424 104.464C468.205 105.915 465.731 106.981 463 107.664C460.355 108.432 457.667 108.816 454.936 108.816C452.973 108.816 450.883 108.432 448.664 107.664C446.531 106.981 444.611 106.128 442.904 105.104C440.088 103.397 437.528 101.435 435.224 99.216C433.005 96.912 431 94.3947 429.208 91.664C428.184 90.2133 427.117 88.336 426.008 86.032C424.899 83.728 423.661 81.5093 422.296 79.376C420.931 77.1573 419.395 75.28 417.688 73.744C415.981 72.208 414.104 71.44 412.056 71.44V65.808C415.299 65.808 417.859 66.6613 419.736 68.368C421.699 69.9893 423.619 71.824 425.496 73.872C427.373 75.8347 429.592 77.6693 432.152 79.376C434.712 80.9973 438.253 81.808 442.776 81.808C445.763 81.808 448.707 81.2533 451.608 80.144C454.509 79.0347 457.069 77.4987 459.288 75.536C461.592 73.5733 463.427 71.2693 464.792 68.624C466.157 65.8933 466.84 62.9493 466.84 59.792C466.84 56.208 466.115 52.9653 464.664 50.064C463.213 47.1627 461.251 44.7307 458.776 42.768C456.387 40.72 453.613 39.184 450.456 38.16C447.299 37.0507 444.013 36.496 440.6 36.496C437.784 36.496 435.011 37.136 432.28 38.416C429.635 39.696 427.459 41.4453 425.752 43.664L421.272 40.208C421.784 39.5253 422.339 38.8853 422.936 38.288C423.533 37.6907 424.131 37.0933 424.728 36.496H407.064V30.736ZM508.339 30.736V36.496H499.635V106H493.875V36.496H485.043V30.736H508.339ZM546.712 48.272L585.88 48.4V54.032H563.096C566.253 56.6773 568.6 59.8347 570.136 63.504C571.757 67.1733 572.568 71.056 572.568 75.152C572.568 80.1013 571.629 84.496 569.752 88.336C567.96 92.176 565.485 95.4613 562.328 98.192C559.256 100.837 555.672 102.885 551.576 104.336C547.48 105.701 543.128 106.384 538.52 106.384C533.827 106.384 529.432 105.445 525.336 103.568C521.24 101.691 517.699 99.1733 514.712 96.016C511.811 92.7733 509.507 89.0613 507.8 84.88C506.093 80.6133 505.24 76.176 505.24 71.568C505.24 64.656 507.117 58.5973 510.872 53.392C514.541 48.1867 519.576 44.2613 525.976 41.616L528.024 46.992C522.733 49.1253 518.552 52.3253 515.48 56.592C512.408 60.7733 510.872 65.7653 510.872 71.568C510.872 75.408 511.555 79.0773 512.92 82.576C514.371 86.0747 516.333 89.1893 518.808 91.92C521.283 94.5653 524.227 96.6987 527.64 98.32C531.053 99.856 534.723 100.624 538.648 100.624C542.488 100.624 546.115 100.069 549.528 98.96C552.941 97.7653 555.928 96.1013 558.488 93.968C561.048 91.7493 563.053 89.0613 564.504 85.904C566.04 82.6613 566.808 78.992 566.808 74.896C566.808 72.2507 566.339 69.6907 565.4 67.216C564.461 64.656 563.139 62.4373 561.432 60.56C559.811 58.5973 557.848 57.0187 555.544 55.824C553.24 54.6293 550.68 54.032 547.864 54.032H540.312V48.4L546.712 48.272ZM506.776 30.736H586.392V36.496H506.776V30.736ZM598.214 30.736V36.496H589.51V106H583.75V36.496H574.918V30.736H598.214ZM615.339 30.736V36.496H606.635V106H600.875V36.496H592.043V30.736H615.339ZM682.256 80.784C682 84.88 680.976 88.464 679.184 91.536C677.392 94.608 675.045 97.168 672.144 99.216C669.328 101.264 666.128 102.8 662.544 103.824C659.045 104.848 655.419 105.36 651.664 105.36C646.885 105.36 642.363 104.635 638.096 103.184C633.915 101.648 630.245 99.472 627.088 96.656C623.931 93.84 621.413 90.4693 619.536 86.544C617.744 82.5333 616.848 78.0533 616.848 73.104C616.848 68.1547 617.701 63.7173 619.408 59.792C621.2 55.7813 623.589 52.368 626.576 49.552C629.648 46.736 633.232 44.6027 637.328 43.152C641.424 41.616 645.861 40.848 650.64 40.848C653.797 40.848 656.912 41.232 659.984 42C663.141 42.6827 666.085 43.792 668.816 45.328C671.632 46.7787 674.149 48.6133 676.368 50.832C678.672 52.9653 680.549 55.4827 682 58.384L676.88 60.944C675.685 58.4693 674.107 56.336 672.144 54.544C670.267 52.752 668.176 51.3013 665.872 50.192C663.568 48.9973 661.093 48.1013 658.448 47.504C655.803 46.9067 653.2 46.608 650.64 46.608C646.629 46.608 642.917 47.2053 639.504 48.4C636.091 49.5947 633.104 51.344 630.544 53.648C628.069 55.952 626.107 58.768 624.656 62.096C623.291 65.3387 622.608 69.008 622.608 73.104C622.608 77.2853 623.376 81.04 624.912 84.368C626.448 87.6107 628.539 90.384 631.184 92.688C633.829 94.9067 636.901 96.6133 640.4 97.808C643.984 99.0027 647.739 99.6 651.664 99.6C654.565 99.6 657.467 99.216 660.368 98.448C663.355 97.68 666 96.528 668.304 94.992C670.693 93.3707 672.656 91.3653 674.192 88.976C675.813 86.5867 676.709 83.728 676.88 80.4L682.256 80.784ZM609.168 30.736H682.384V36.496H609.168V30.736ZM691.214 30.736V36.496H682.51V106H676.75V36.496H667.918V30.736H691.214ZM688.883 30.736H772.211V36.496H748.019V56.08H742.259H721.267C718.195 56.08 715.336 56.464 712.691 57.232C710.046 57.9147 707.699 59.0667 705.651 60.688C703.688 62.224 702.152 64.1867 701.043 66.576C699.934 68.9653 699.379 71.824 699.379 75.152C699.379 78.8213 700.19 82.2347 701.811 85.392C703.518 88.5493 705.694 91.3227 708.339 93.712C711.07 96.016 714.142 97.8507 717.555 99.216C721.054 100.496 724.552 101.136 728.051 101.136C731.72 101.136 735.134 100.539 738.291 99.344C741.534 98.064 744.35 96.3147 746.739 94.096C749.214 91.792 751.176 89.0613 752.627 85.904C754.078 82.7467 754.846 79.2907 754.931 75.536L760.691 75.792C760.52 80.3147 759.539 84.496 757.747 88.336C756.04 92.0907 753.736 95.3333 750.835 98.064C747.934 100.795 744.52 102.928 740.595 104.464C736.755 106 732.574 106.768 728.051 106.768C723.784 106.768 719.56 105.957 715.379 104.336C711.283 102.715 707.614 100.496 704.371 97.68C701.214 94.864 698.654 91.536 696.691 87.696C694.728 83.7707 693.747 79.5893 693.747 75.152C693.747 74.4693 693.747 73.8293 693.747 73.232C693.747 72.5493 693.832 71.8667 694.003 71.184C694.6 67.088 695.795 63.7173 697.587 61.072C699.379 58.4267 701.555 56.336 704.115 54.8C706.675 53.264 709.491 52.1973 712.563 51.6C715.72 50.9173 718.963 50.4907 722.291 50.32C725.704 50.1493 729.118 50.1493 732.531 50.32C735.944 50.4053 739.187 50.448 742.259 50.448V36.496H688.883V30.736ZM797.413 21.264V112.784H791.781V21.264H797.413ZM810.981 21.264V112.784H805.221V21.264H810.981ZM817.893 68.624C817.893 66.1493 818.789 64.0587 820.581 62.352C822.373 60.56 824.506 59.664 826.981 59.664C829.456 59.664 831.546 60.56 833.253 62.352C835.045 64.0587 835.941 66.1493 835.941 68.624C835.941 71.0987 835.045 73.232 833.253 75.024C831.546 76.816 829.456 77.712 826.981 77.712C824.506 77.712 822.373 76.816 820.581 75.024C818.789 73.232 817.893 71.0987 817.893 68.624Z" fill="white"/>
<path d="M43.144 21.264V112.784H37.512V21.264H43.144ZM56.712 21.264V112.784H50.952V21.264H56.712ZM10.632 68.624C10.632 66.1493 11.4853 64.0587 13.192 62.352C14.984 60.56 17.1173 59.664 19.592 59.664C22.0667 59.664 24.2 60.56 25.992 62.352C27.784 64.0587 28.68 66.1493 28.68 68.624C28.68 71.0987 27.784 73.232 25.992 75.024C24.2 76.816 22.0667 77.712 19.592 77.712C17.1173 77.712 14.984 76.816 13.192 75.024C11.4853 73.232 10.632 71.0987 10.632 68.624ZM134.773 76.56C137.162 75.3653 139.466 73.872 141.685 72.08C143.904 70.2027 145.824 68.1547 147.445 65.936C149.152 63.632 150.517 61.2 151.541 58.64C152.565 55.9947 153.077 53.264 153.077 50.448C153.077 47.888 152.736 45.456 152.053 43.152C151.37 40.848 150.304 38.8427 148.853 37.136C147.488 35.344 145.738 33.9787 143.605 33.04C141.472 32.016 138.997 31.504 136.181 31.504C133.536 31.504 131.104 31.9733 128.885 32.912C126.752 33.8507 124.917 35.1307 123.381 36.752C121.845 38.3733 120.65 40.336 119.797 42.64C118.944 44.8587 118.517 47.248 118.517 49.808C118.517 52.624 118.944 55.312 119.797 57.872C120.65 60.432 121.802 62.864 123.253 65.168C124.789 67.3867 126.538 69.4773 128.501 71.44C130.464 73.3173 132.554 75.024 134.773 76.56ZM100.341 77.328C105.973 79.5467 111.733 80.656 117.621 80.656C119.328 80.656 121.034 80.5707 122.741 80.4C124.448 80.144 126.112 79.76 127.733 79.248C126.794 78.0533 125.728 76.8587 124.533 75.664C123.424 74.4693 122.357 73.2747 121.333 72.08C115.616 65.3387 112.757 57.488 112.757 48.528C112.757 45.2853 113.354 42.2987 114.549 39.568C115.829 36.752 117.536 34.32 119.669 32.272C121.802 30.224 124.277 28.6453 127.093 27.536C129.994 26.3413 133.024 25.744 136.181 25.744C139.85 25.744 143.093 26.4267 145.909 27.792C148.725 29.072 151.072 30.8213 152.949 33.04C154.912 35.2587 156.362 37.904 157.301 40.976C158.325 43.9627 158.837 47.1627 158.837 50.576C158.837 53.648 158.325 56.6347 157.301 59.536C156.362 62.352 155.04 65.04 153.333 67.6C151.712 70.0747 149.749 72.3787 147.445 74.512C145.226 76.6453 142.88 78.48 140.405 80.016C142.624 81.2107 144.885 82.2773 147.189 83.216C149.493 84.0693 151.882 84.752 154.357 85.264C156.405 83.6427 158.581 82.3627 160.885 81.424C163.274 80.4 165.792 79.888 168.437 79.888C170.4 79.888 172.32 80.2293 174.197 80.912C176.074 81.5093 177.696 82.5333 179.061 83.984L174.965 88.08C174.112 87.1413 173.088 86.5013 171.893 86.16C170.784 85.8187 169.632 85.648 168.437 85.648C165.877 85.648 163.445 86.3307 161.141 87.696C158.922 89.0613 156.746 90.768 154.613 92.816C152.48 94.864 150.304 97.0827 148.085 99.472C145.866 101.776 143.434 103.952 140.789 106C138.144 108.048 135.242 109.755 132.085 111.12C129.013 112.485 125.514 113.168 121.589 113.168C118.688 113.168 115.872 112.656 113.141 111.632C110.41 110.608 107.978 109.115 105.845 107.152L109.685 102.928C111.306 104.464 113.141 105.616 115.189 106.384C117.322 107.152 119.498 107.536 121.717 107.536C124.192 107.536 126.752 107.024 129.397 106C132.042 104.891 134.602 103.483 137.077 101.776C139.552 99.984 141.813 98.064 143.861 96.016C145.994 93.8827 147.658 91.792 148.853 89.744C146.208 88.8907 143.648 87.9093 141.173 86.8C138.784 85.6907 136.394 84.496 134.005 83.216C131.616 84.24 128.928 85.0507 125.941 85.648C123.04 86.16 120.266 86.416 117.621 86.416C110.965 86.416 104.48 85.136 98.165 82.576L100.341 77.328ZM166.389 30.736H180.853V36.496H166.389V30.736ZM189.339 30.736V36.496H180.635V106H174.875V36.496H166.043V30.736H189.339ZM206.464 30.736V36.496H197.76V106H192V36.496H183.168V30.736H206.464ZM227.045 25.232C225.765 27.7067 223.845 29.584 221.285 30.864C218.81 32.0587 216.208 32.656 213.477 32.656C210.917 32.656 208.698 32.2293 206.821 31.376C204.944 30.4373 203.322 29.2853 201.957 27.92C200.506 26.5547 199.184 25.0613 197.989 23.44C196.709 21.8187 195.386 20.3253 194.021 18.96C192.656 17.5947 191.12 16.4853 189.413 15.632C187.706 14.6933 185.658 14.224 183.269 14.224C180.624 14.224 178.405 14.864 176.613 16.144C174.736 17.424 173.285 19.0453 172.261 21.008C171.237 22.8853 170.682 24.976 170.597 27.28C170.512 29.4987 170.938 31.5893 171.877 33.552L166.117 34.192C165.349 31.2053 165.136 28.176 165.477 25.104C165.818 22.032 166.714 19.2587 168.165 16.784C169.616 14.3093 171.621 12.304 174.181 10.768C176.656 9.232 179.685 8.464 183.269 8.464C186.085 8.464 188.517 8.93333 190.565 9.87199C192.528 10.7253 194.277 11.8773 195.813 13.328C197.349 14.6933 198.714 16.1867 199.909 17.808C201.104 19.344 202.384 20.8373 203.749 22.288C205.029 23.6533 206.437 24.8053 207.973 25.744C209.509 26.5973 211.344 27.024 213.477 27.024C215.098 27.024 216.72 26.6827 218.341 26C219.962 25.3173 221.157 24.208 221.925 22.672L227.045 25.232ZM206.181 30.736H283.237V36.496H251.493V62.736H283.237V68.496H251.493C251.493 71.6533 251.45 74.9813 251.365 78.48C251.28 81.8933 250.853 85.2213 250.085 88.464C249.402 91.6213 248.208 94.5653 246.501 97.296C244.794 100.027 242.32 102.245 239.077 103.952C236.005 105.573 232.762 106.384 229.349 106.384C226.021 106.384 222.949 105.829 220.133 104.72C217.317 103.611 214.842 102.075 212.709 100.112C210.661 98.064 209.082 95.6747 207.973 92.944C206.778 90.128 206.181 87.0133 206.181 83.6C206.181 83.088 206.181 82.6187 206.181 82.192C206.181 81.68 206.224 81.168 206.309 80.656C206.992 75.6213 208.741 71.8667 211.557 69.392C214.373 66.9173 217.701 65.2107 221.541 64.272C225.466 63.248 229.562 62.736 233.829 62.736C238.181 62.736 242.192 62.736 245.861 62.736V36.496H206.181V30.736ZM245.861 68.496H233.189C230.629 68.496 228.069 68.7093 225.509 69.136C223.034 69.4773 220.773 70.2027 218.725 71.312C216.677 72.4213 215.013 73.9573 213.733 75.92C212.453 77.8827 211.813 80.4427 211.813 83.6C211.813 88.72 213.434 92.8587 216.677 96.016C219.92 99.088 224.101 100.624 229.221 100.624C232.464 100.624 235.152 99.8987 237.285 98.448C239.418 96.912 241.125 94.992 242.405 92.688C243.685 90.384 244.581 87.824 245.093 85.008C245.605 82.192 245.861 79.4613 245.861 76.816V68.496ZM295.714 30.736V36.496H287.01V106H281.25V36.496H272.418V30.736H295.714ZM286.599 15.504C286.599 14.5653 286.3 13.7973 285.703 13.2C285.02 12.5173 284.21 12.176 283.271 12.176C282.332 12.176 281.564 12.5173 280.967 13.2C280.284 13.7973 279.943 14.5653 279.943 15.504C279.943 16.4427 280.284 17.2533 280.967 17.936C281.564 18.5333 282.332 18.832 283.271 18.832C284.21 18.832 285.02 18.5333 285.703 17.936C286.3 17.2533 286.599 16.4427 286.599 15.504H292.359C292.359 17.9787 291.463 20.112 289.671 21.904C287.879 23.6107 285.746 24.464 283.271 24.464C280.796 24.464 278.706 23.6107 276.999 21.904C275.207 20.112 274.311 17.9787 274.311 15.504C274.311 13.0293 275.207 10.896 276.999 9.104C278.706 7.31199 280.796 6.41599 283.271 6.41599C285.746 6.41599 287.879 7.31199 289.671 9.104C291.463 10.896 292.359 13.0293 292.359 15.504H286.599ZM292.743 30.736H364.167V36.496H292.743V30.736ZM362.887 56.208H325.895C322.738 56.208 319.751 56.6773 316.935 57.616C314.119 58.5547 311.644 59.9627 309.511 61.84C307.378 63.632 305.714 65.8507 304.519 68.496C303.324 71.1413 302.727 74.1707 302.727 77.584C302.727 80.656 303.239 83.472 304.263 86.032C305.287 88.592 306.738 90.8107 308.615 92.688C310.492 94.48 312.668 95.888 315.143 96.912C317.703 97.936 320.519 98.448 323.591 98.448C325.298 98.448 326.962 98.32 328.583 98.064C330.29 97.7227 331.996 97.296 333.703 96.784L335.367 102.288C333.404 102.885 331.442 103.355 329.479 103.696C327.516 104.037 325.554 104.208 323.591 104.208C319.751 104.208 316.21 103.568 312.967 102.288C309.724 100.923 306.908 99.0453 304.519 96.656C302.13 94.2667 300.252 91.4507 298.887 88.208C297.607 84.9653 296.967 81.424 296.967 77.584C296.967 73.4027 297.735 69.648 299.271 66.32C300.807 62.9067 302.855 60.048 305.415 57.744C308.06 55.3547 311.132 53.5627 314.631 52.368C318.215 51.088 322.012 50.448 326.023 50.448H362.887V56.208ZM374.464 30.736V36.496H365.76V106H360V36.496H351.168V30.736H374.464ZM407.064 30.736H496.92V36.496H460.056C463.896 39.312 466.925 42.6827 469.144 46.608C471.363 50.5333 472.472 54.928 472.472 59.792C472.472 61.6693 472.259 63.6747 471.832 65.808H496.92V71.568H469.656C468.376 73.9573 466.755 76.1333 464.792 78.096C462.915 80.0587 460.781 81.7653 458.392 83.216C456.003 84.5813 453.485 85.648 450.84 86.416C448.195 87.0987 445.507 87.44 442.776 87.44C440.899 87.44 439.021 87.2693 437.144 86.928C435.352 86.5013 433.603 86.032 431.896 85.52C433.261 87.7387 434.755 89.9147 436.376 92.048C438.083 94.096 439.96 95.9733 442.008 97.68C444.056 99.3013 446.275 100.624 448.664 101.648C451.139 102.672 453.784 103.184 456.6 103.184C458.477 103.184 460.355 102.928 462.232 102.416C464.109 101.819 465.816 101.008 467.352 99.984C468.888 98.8747 470.168 97.552 471.192 96.016C472.216 94.3947 472.856 92.56 473.112 90.512L478.744 91.152C478.403 94.0533 477.464 96.6133 475.928 98.832C474.477 101.051 472.643 102.928 470.424 104.464C468.205 105.915 465.731 106.981 463 107.664C460.355 108.432 457.667 108.816 454.936 108.816C452.973 108.816 450.883 108.432 448.664 107.664C446.531 106.981 444.611 106.128 442.904 105.104C440.088 103.397 437.528 101.435 435.224 99.216C433.005 96.912 431 94.3947 429.208 91.664C428.184 90.2133 427.117 88.336 426.008 86.032C424.899 83.728 423.661 81.5093 422.296 79.376C420.931 77.1573 419.395 75.28 417.688 73.744C415.981 72.208 414.104 71.44 412.056 71.44V65.808C415.299 65.808 417.859 66.6613 419.736 68.368C421.699 69.9893 423.619 71.824 425.496 73.872C427.373 75.8347 429.592 77.6693 432.152 79.376C434.712 80.9973 438.253 81.808 442.776 81.808C445.763 81.808 448.707 81.2533 451.608 80.144C454.509 79.0347 457.069 77.4987 459.288 75.536C461.592 73.5733 463.427 71.2693 464.792 68.624C466.157 65.8933 466.84 62.9493 466.84 59.792C466.84 56.208 466.115 52.9653 464.664 50.064C463.213 47.1627 461.251 44.7307 458.776 42.768C456.387 40.72 453.613 39.184 450.456 38.16C447.299 37.0507 444.013 36.496 440.6 36.496C437.784 36.496 435.011 37.136 432.28 38.416C429.635 39.696 427.459 41.4453 425.752 43.664L421.272 40.208C421.784 39.5253 422.339 38.8853 422.936 38.288C423.533 37.6907 424.131 37.0933 424.728 36.496H407.064V30.736ZM508.339 30.736V36.496H499.635V106H493.875V36.496H485.043V30.736H508.339ZM546.712 48.272L585.88 48.4V54.032H563.096C566.253 56.6773 568.6 59.8347 570.136 63.504C571.757 67.1733 572.568 71.056 572.568 75.152C572.568 80.1013 571.629 84.496 569.752 88.336C567.96 92.176 565.485 95.4613 562.328 98.192C559.256 100.837 555.672 102.885 551.576 104.336C547.48 105.701 543.128 106.384 538.52 106.384C533.827 106.384 529.432 105.445 525.336 103.568C521.24 101.691 517.699 99.1733 514.712 96.016C511.811 92.7733 509.507 89.0613 507.8 84.88C506.093 80.6133 505.24 76.176 505.24 71.568C505.24 64.656 507.117 58.5973 510.872 53.392C514.541 48.1867 519.576 44.2613 525.976 41.616L528.024 46.992C522.733 49.1253 518.552 52.3253 515.48 56.592C512.408 60.7733 510.872 65.7653 510.872 71.568C510.872 75.408 511.555 79.0773 512.92 82.576C514.371 86.0747 516.333 89.1893 518.808 91.92C521.283 94.5653 524.227 96.6987 527.64 98.32C531.053 99.856 534.723 100.624 538.648 100.624C542.488 100.624 546.115 100.069 549.528 98.96C552.941 97.7653 555.928 96.1013 558.488 93.968C561.048 91.7493 563.053 89.0613 564.504 85.904C566.04 82.6613 566.808 78.992 566.808 74.896C566.808 72.2507 566.339 69.6907 565.4 67.216C564.461 64.656 563.139 62.4373 561.432 60.56C559.811 58.5973 557.848 57.0187 555.544 55.824C553.24 54.6293 550.68 54.032 547.864 54.032H540.312V48.4L546.712 48.272ZM506.776 30.736H586.392V36.496H506.776V30.736ZM598.214 30.736V36.496H589.51V106H583.75V36.496H574.918V30.736H598.214ZM615.339 30.736V36.496H606.635V106H600.875V36.496H592.043V30.736H615.339ZM682.256 80.784C682 84.88 680.976 88.464 679.184 91.536C677.392 94.608 675.045 97.168 672.144 99.216C669.328 101.264 666.128 102.8 662.544 103.824C659.045 104.848 655.419 105.36 651.664 105.36C646.885 105.36 642.363 104.635 638.096 103.184C633.915 101.648 630.245 99.472 627.088 96.656C623.931 93.84 621.413 90.4693 619.536 86.544C617.744 82.5333 616.848 78.0533 616.848 73.104C616.848 68.1547 617.701 63.7173 619.408 59.792C621.2 55.7813 623.589 52.368 626.576 49.552C629.648 46.736 633.232 44.6027 637.328 43.152C641.424 41.616 645.861 40.848 650.64 40.848C653.797 40.848 656.912 41.232 659.984 42C663.141 42.6827 666.085 43.792 668.816 45.328C671.632 46.7787 674.149 48.6133 676.368 50.832C678.672 52.9653 680.549 55.4827 682 58.384L676.88 60.944C675.685 58.4693 674.107 56.336 672.144 54.544C670.267 52.752 668.176 51.3013 665.872 50.192C663.568 48.9973 661.093 48.1013 658.448 47.504C655.803 46.9067 653.2 46.608 650.64 46.608C646.629 46.608 642.917 47.2053 639.504 48.4C636.091 49.5947 633.104 51.344 630.544 53.648C628.069 55.952 626.107 58.768 624.656 62.096C623.291 65.3387 622.608 69.008 622.608 73.104C622.608 77.2853 623.376 81.04 624.912 84.368C626.448 87.6107 628.539 90.384 631.184 92.688C633.829 94.9067 636.901 96.6133 640.4 97.808C643.984 99.0027 647.739 99.6 651.664 99.6C654.565 99.6 657.467 99.216 660.368 98.448C663.355 97.68 666 96.528 668.304 94.992C670.693 93.3707 672.656 91.3653 674.192 88.976C675.813 86.5867 676.709 83.728 676.88 80.4L682.256 80.784ZM609.168 30.736H682.384V36.496H609.168V30.736ZM691.214 30.736V36.496H682.51V106H676.75V36.496H667.918V30.736H691.214ZM688.883 30.736H772.211V36.496H748.019V56.08H742.259H721.267C718.195 56.08 715.336 56.464 712.691 57.232C710.046 57.9147 707.699 59.0667 705.651 60.688C703.688 62.224 702.152 64.1867 701.043 66.576C699.934 68.9653 699.379 71.824 699.379 75.152C699.379 78.8213 700.19 82.2347 701.811 85.392C703.518 88.5493 705.694 91.3227 708.339 93.712C711.07 96.016 714.142 97.8507 717.555 99.216C721.054 100.496 724.552 101.136 728.051 101.136C731.72 101.136 735.134 100.539 738.291 99.344C741.534 98.064 744.35 96.3147 746.739 94.096C749.214 91.792 751.176 89.0613 752.627 85.904C754.078 82.7467 754.846 79.2907 754.931 75.536L760.691 75.792C760.52 80.3147 759.539 84.496 757.747 88.336C756.04 92.0907 753.736 95.3333 750.835 98.064C747.934 100.795 744.52 102.928 740.595 104.464C736.755 106 732.574 106.768 728.051 106.768C723.784 106.768 719.56 105.957 715.379 104.336C711.283 102.715 707.614 100.496 704.371 97.68C701.214 94.864 698.654 91.536 696.691 87.696C694.728 83.7707 693.747 79.5893 693.747 75.152C693.747 74.4693 693.747 73.8293 693.747 73.232C693.747 72.5493 693.832 71.8667 694.003 71.184C694.6 67.088 695.795 63.7173 697.587 61.072C699.379 58.4267 701.555 56.336 704.115 54.8C706.675 53.264 709.491 52.1973 712.563 51.6C715.72 50.9173 718.963 50.4907 722.291 50.32C725.704 50.1493 729.118 50.1493 732.531 50.32C735.944 50.4053 739.187 50.448 742.259 50.448V36.496H688.883V30.736ZM797.413 21.264V112.784H791.781V21.264H797.413ZM810.981 21.264V112.784H805.221V21.264H810.981ZM817.893 68.624C817.893 66.1493 818.789 64.0587 820.581 62.352C822.373 60.56 824.506 59.664 826.981 59.664C829.456 59.664 831.546 60.56 833.253 62.352C835.045 64.0587 835.941 66.1493 835.941 68.624C835.941 71.0987 835.045 73.232 833.253 75.024C831.546 76.816 829.456 77.712 826.981 77.712C824.506 77.712 822.373 76.816 820.581 75.024C818.789 73.232 817.893 71.0987 817.893 68.624Z" fill="white" fill-opacity="0.2"/>
</g>
<defs>
<filter id="filter0_d_876_7247" x="0.632812" y="0.416016" width="845.309" height="126.752" filterUnits="userSpaceOnUse" color-interpolation-filters="sRGB">
<feFlood flood-opacity="0" result="BackgroundImageFix"/>
<feColorMatrix in="SourceAlpha" type="matrix" values="0 0 0 0 0 0 0 0 0 0 0 0 0 0 0 0 0 0 127 0" result="hardAlpha"/>
<feOffset dy="4"/>
<feGaussianBlur stdDeviation="5"/>
<feComposite in2="hardAlpha" operator="out"/>
<feColorMatrix type="matrix" values="0 0 0 0 0.25 0 0 0 0 0.127404 0 0 0 0 0.0516827 0 0 0 1 0"/>
<feBlend mode="normal" in2="BackgroundImageFix" result="effect1_dropShadow_876_7247"/>
<feBlend mode="normal" in="SourceGraphic" in2="effect1_dropShadow_876_7247" result="shape"/>
</filter>
</defs>
</svg>
