<svg width="256" height="116" viewBox="0 0 256 116" fill="none" xmlns="http://www.w3.org/2000/svg">
<path d="M23.85 16.55H23.25C22.4167 17.1833 21.75 17.8667 21.25 18.6C20.7833 19.3333 20.55 20.2667 20.55 21.4V25V25.3C20.95 25.2667 21.4167 25.2167 21.95 25.15C22.5167 25.0833 23.0833 24.95 23.65 24.75C24.2167 24.55 24.75 24.2333 25.25 23.8C25.7833 23.3667 26.25 22.75 26.65 21.95L29.95 27.65C29.45 28.35 28.8 28.8833 28 29.25C27.2333 29.5833 26.4167 29.75 25.55 29.75C24.65 29.75 23.8 29.5833 23 29.25C22.2 28.8833 21.4167 28.45 20.65 27.95C20.65 28.45 20.6 28.9 20.5 29.3C20.4 29.7 20.2 30.05 19.9 30.35C19.6333 30.6167 19.2333 30.8333 18.7 31C18.2 31.1333 17.5167 31.2 16.65 31.2C15.8833 31.2 15.2333 31.15 14.7 31.05C14.1667 30.95 13.6833 30.8 13.25 30.6C12.8167 30.3667 12.3833 30.0833 11.95 29.75C11.55 29.4167 11.0667 29.0167 10.5 28.55C10.2667 29.15 10.2833 29.7833 10.55 30.45C10.85 31.1167 11.2667 31.7333 11.8 32.3C12.3333 32.8667 12.9333 33.3333 13.6 33.7C14.2667 34.0667 14.85 34.25 15.35 34.25C15.9833 34.25 16.55 34.1333 17.05 33.9C17.5833 33.6667 18.0667 33.4167 18.5 33.15C18.9667 32.8833 19.4 32.6333 19.8 32.4C20.2 32.1667 20.5833 32.05 20.95 32.05C21.3833 32.05 22.05 32.3333 22.95 32.9C23.85 33.4667 24.7833 34.1333 25.75 34.9C26.7167 35.6667 27.6167 36.4333 28.45 37.2C29.2833 37.9667 29.85 38.55 30.15 38.95C30.0833 38.8833 30 38.9167 29.9 39.05C29.8333 39.1833 29.75 39.25 29.65 39.25C29.65 39.25 29.6167 39.2167 29.55 39.15C29.15 38.45 28.6833 37.95 28.15 37.65C27.65 37.3167 27.25 37.15 26.95 37.15C26.5167 37.15 26.05 37.2833 25.55 37.55C25.0833 37.7833 24.5833 38.05 24.05 38.35C23.5167 38.6167 22.9667 38.8833 22.4 39.15C21.8333 39.3833 21.2333 39.5 20.6 39.5C20.1333 39.5 19.65 39.4167 19.15 39.25C18.6833 39.0833 18.2667 38.8667 17.9 38.6C17.4333 38.3 16.7667 37.7833 15.9 37.05C15.0333 36.3167 14.0833 35.4667 13.05 34.5C12.05 33.5333 11.0167 32.5167 9.95 31.45C8.88333 30.35 7.91667 29.3 7.05 28.3C6.18333 27.2667 5.48333 26.3167 4.95 25.45C4.38333 24.5833 4.1 23.9 4.1 23.4C4.1 23.1 4.21667 22.8167 4.45 22.55C4.65 22.2833 4.91667 22.05 5.25 21.85C5.58333 21.65 5.91667 21.5 6.25 21.4C6.61667 21.3 6.93333 21.25 7.2 21.25C7.6 21.25 8.1 21.4333 8.7 21.8C9.3 22.1333 9.9 22.55 10.5 23.05C11.1 23.5167 11.6667 24 12.2 24.5C12.7333 25 13.1333 25.4 13.4 25.7C13.9667 25.3667 14.3167 25.0167 14.45 24.65C14.6167 24.25 14.7 23.75 14.7 23.15C14.7 22.0833 14.6833 20.9833 14.65 19.85C14.65 18.7167 14.65 17.6167 14.65 16.55H9.9C9.03333 16.55 8.21667 16.8167 7.45 17.35C6.68333 17.85 6.2 18.5833 6 19.55L0.9 13.7C1.26667 13.2333 1.61667 12.8333 1.95 12.5C2.28333 12.1333 2.68333 11.8333 3.15 11.6C3.58333 11.3667 4.11667 11.2 4.75 11.1C5.35 10.9667 6.13333 10.9 7.1 10.9H18.15L20.8 12.95C21.5 12.1167 22.2333 11.5667 23 11.3C23.7667 11.0333 24.65 10.9 25.65 10.9H29L33.85 16.55H32.1C31.5 16.55 30.8833 16.5833 30.25 16.65C29.6167 16.6833 29 16.7833 28.4 16.95C27.8333 17.0833 27.3333 17.3 26.9 17.6C26.4667 17.9 26.15 18.3167 25.95 18.85L23.85 16.55ZM32.3102 25.7C32.3102 27.4 32.3102 29.1167 32.3102 30.85C32.3435 32.55 32.3602 34.25 32.3602 35.95C32.3602 37.35 32.6102 38.4667 33.1102 39.3C33.6102 40.1333 34.4602 40.9333 35.6602 41.7L35.5102 42C34.5435 41.4333 33.6435 40.7833 32.8102 40.05C31.9768 39.2833 31.1768 38.5167 30.4102 37.75C29.5102 36.85 28.7935 36.1333 28.2602 35.6C27.7602 35.0333 27.3768 34.4833 27.1102 33.95C26.8435 33.3833 26.6602 32.7333 26.5602 32C26.4935 31.2333 26.4602 30.2 26.4602 28.9V18.9L21.6102 13.2C21.6102 12.8667 21.7435 12.5667 22.0102 12.3C22.2435 12 22.5435 11.75 22.9102 11.55C23.2435 11.35 23.6102 11.2 24.0102 11.1C24.4102 10.9667 24.7435 10.9 25.0102 10.9H31.8102L37.8102 16.55C36.7102 16.7833 35.7935 17.2167 35.0602 17.85C34.3602 18.45 33.7935 19.1667 33.3602 20C32.9602 20.8333 32.6768 21.75 32.5102 22.75C32.3768 23.7167 32.3102 24.7 32.3102 25.7ZM42.7105 25.7C42.7105 27.4 42.7105 29.1167 42.7105 30.85C42.7439 32.55 42.7605 34.25 42.7605 35.95C42.7605 37.35 43.0105 38.4667 43.5105 39.3C44.0105 40.1333 44.8605 40.9333 46.0605 41.7L45.9105 42C44.9439 41.4333 44.0439 40.7833 43.2105 40.05C42.3772 39.2833 41.5772 38.5167 40.8105 37.75C39.9105 36.85 39.1939 36.1333 38.6605 35.6C38.1605 35.0333 37.7772 34.4833 37.5105 33.95C37.2439 33.3833 37.0605 32.7333 36.9605 32C36.8939 31.2333 36.8605 30.2 36.8605 28.9V18.9L32.0105 13.2C32.0105 12.8667 32.1439 12.5667 32.4105 12.3C32.6439 12 32.9439 11.75 33.3105 11.55C33.6439 11.35 34.0105 11.2 34.4105 11.1C34.8105 10.9667 35.1439 10.9 35.4105 10.9H42.2105L48.2105 16.55C47.1105 16.7833 46.1939 17.2167 45.4605 17.85C44.7605 18.45 44.1939 19.1667 43.7605 20C43.3605 20.8333 43.0772 21.75 42.9105 22.75C42.7772 23.7167 42.7105 24.7 42.7105 25.7ZM31.9609 7.1C31.0609 7.16667 30.3776 7.25 29.9109 7.35C29.4109 7.41666 29.0276 7.48333 28.7609 7.55C28.4943 7.61667 28.2609 7.68333 28.0609 7.75C27.8609 7.78333 27.6109 7.8 27.3109 7.8C26.3443 7.8 25.4443 7.56667 24.6109 7.1C23.7443 6.63333 22.9609 6.05 22.2609 5.35C21.5276 4.61666 20.8776 3.83333 20.3109 3C19.7443 2.13333 19.2609 1.3 18.8609 0.499998V0.449998C19.4276 1.15 19.9276 1.63333 20.3609 1.9C20.7609 2.16666 21.1776 2.3 21.6109 2.3C22.0443 2.3 22.5276 2.21667 23.0609 2.05C23.5609 1.85 24.2443 1.63333 25.1109 1.4C25.9109 1.2 26.6609 1.1 27.3609 1.1C28.5943 1.1 29.7609 1.35 30.8609 1.85C31.9276 2.35 32.9776 3.01666 34.0109 3.85C35.0109 4.68333 35.9943 5.65 36.9609 6.75C37.8943 7.85 38.8276 9.01666 39.7609 10.25C39.8609 10.35 40.0109 10.5333 40.2109 10.8C40.3776 11.0333 40.5609 11.2833 40.7609 11.55C40.9276 11.8167 41.0776 12.0833 41.2109 12.35C41.3443 12.5833 41.4109 12.75 41.4109 12.85L39.8109 12.9C39.4109 12.5333 39.0276 12.0333 38.6609 11.4C38.2609 10.7333 37.7943 10.0833 37.2609 9.45C36.7276 8.81667 36.0943 8.26667 35.3609 7.8C34.5943 7.33333 33.6609 7.1 32.5609 7.1H31.9609ZM61.2109 25.55C60.1109 25.55 59.0109 25.7333 57.9109 26.1C58.3776 26.5 58.8609 26.9167 59.3609 27.35C59.8609 27.75 60.3109 28.2 60.7109 28.7C61.1109 29.2 61.4443 29.75 61.7109 30.35C61.9776 30.9167 62.1109 31.5333 62.1109 32.2C62.1109 32.9333 61.9776 33.7167 61.7109 34.55C61.4776 35.35 61.1276 36.1 60.6609 36.8C60.2276 37.4667 59.6776 38.0167 59.0109 38.45C58.3443 38.8833 57.5776 39.1 56.7109 39.1C56.0109 39.1 55.2109 38.8667 54.3109 38.4C53.4109 37.9333 52.5276 37.3667 51.6609 36.7C50.7943 36.0333 49.9776 35.3333 49.2109 34.6C48.4443 33.8667 47.8443 33.2333 47.4109 32.7C46.9109 32.1 46.5109 31.45 46.2109 30.75C45.9109 30.0167 45.7609 29.2667 45.7609 28.5C45.7609 27.2333 46.0609 26.1 46.6609 25.1C47.2276 24.1 47.9776 23.2667 48.9109 22.6C49.8776 21.9 50.9443 21.3667 52.1109 21C53.2776 20.6333 54.4276 20.45 55.5609 20.45C56.9276 20.45 58.2609 20.7167 59.5609 21.25C60.8943 21.75 62.1609 22.4167 63.3609 23.25C64.5943 24.05 65.7443 24.95 66.8109 25.95C67.8776 26.95 68.8276 27.9333 69.6609 28.9C69.4943 28.9 69.2109 28.7333 68.8109 28.4C68.4109 28.0333 67.8609 27.65 67.1609 27.25C66.4609 26.8167 65.6109 26.4333 64.6109 26.1C63.6443 25.7333 62.5109 25.55 61.2109 25.55ZM66.2609 16.55H51.6109H50.6109C50.1109 16.55 49.5943 16.5833 49.0609 16.65C48.5609 16.6833 48.1109 16.8 47.7109 17C47.3109 17.2 46.9776 17.5 46.7109 17.9C46.4109 18.2667 46.2443 18.7833 46.2109 19.45L41.3109 13.8C41.3109 13.3 41.4276 12.8667 41.6609 12.5C41.8609 12.1333 42.1443 11.8333 42.5109 11.6C42.8443 11.3667 43.2276 11.2 43.6609 11.1C44.0943 10.9667 44.5276 10.9 44.9609 10.9H61.3609L66.2609 16.55ZM56.7109 26.65C55.9776 26.9833 55.1943 27.45 54.3609 28.05C53.5276 28.6167 52.8109 29.25 52.2109 29.95C51.6109 30.65 51.2276 31.35 51.0609 32.05C50.8943 32.75 51.0776 33.3667 51.6109 33.9C51.9776 34.2 52.4109 34.35 52.9109 34.35C53.5443 34.35 54.2276 34.1333 54.9609 33.7C55.6943 33.2667 56.3109 32.7 56.8109 32C57.3109 31.2667 57.5943 30.45 57.6609 29.55C57.7276 28.6167 57.4109 27.65 56.7109 26.65ZM71.2262 25.7C71.2262 27.4 71.2262 29.1167 71.2262 30.85C71.2595 32.55 71.2762 34.25 71.2762 35.95C71.2762 37.35 71.5262 38.4667 72.0262 39.3C72.5262 40.1333 73.3762 40.9333 74.5762 41.7L74.4262 42C73.4595 41.4333 72.5595 40.7833 71.7262 40.05C70.8928 39.2833 70.0928 38.5167 69.3262 37.75C68.4262 36.85 67.7095 36.1333 67.1762 35.6C66.6762 35.0333 66.2928 34.4833 66.0262 33.95C65.7595 33.3833 65.5762 32.7333 65.4762 32C65.4095 31.2333 65.3762 30.2 65.3762 28.9V18.9L60.5262 13.2C60.5262 12.8667 60.6595 12.5667 60.9262 12.3C61.1595 12 61.4595 11.75 61.8262 11.55C62.1595 11.35 62.5262 11.2 62.9262 11.1C63.3262 10.9667 63.6595 10.9 63.9262 10.9H70.7262L76.7262 16.55C75.6262 16.7833 74.7095 17.2167 73.9762 17.85C73.2762 18.45 72.7095 19.1667 72.2762 20C71.8762 20.8333 71.5928 21.75 71.4262 22.75C71.2928 23.7167 71.2262 24.7 71.2262 25.7ZM60.4766 7.1C59.5766 7.16667 58.8932 7.25 58.4266 7.35C57.9266 7.41666 57.5432 7.48333 57.2766 7.55C57.0099 7.61667 56.7766 7.68333 56.5766 7.75C56.3766 7.78333 56.1266 7.8 55.8266 7.8C54.8599 7.8 53.9599 7.56667 53.1266 7.1C52.2599 6.63333 51.4766 6.05 50.7766 5.35C50.0432 4.61666 49.3932 3.83333 48.8266 3C48.2599 2.13333 47.7766 1.3 47.3766 0.499998V0.449998C47.9432 1.15 48.4432 1.63333 48.8766 1.9C49.2766 2.16666 49.6932 2.3 50.1266 2.3C50.5599 2.3 51.0432 2.21667 51.5766 2.05C52.0766 1.85 52.7599 1.63333 53.6266 1.4C54.4266 1.2 55.1766 1.1 55.8766 1.1C57.1099 1.1 58.2766 1.35 59.3766 1.85C60.4432 2.35 61.4932 3.01666 62.5266 3.85C63.5266 4.68333 64.5099 5.65 65.4766 6.75C66.4099 7.85 67.3432 9.01666 68.2766 10.25C68.3766 10.35 68.5266 10.5333 68.7266 10.8C68.8932 11.0333 69.0766 11.2833 69.2766 11.55C69.4432 11.8167 69.5932 12.0833 69.7266 12.35C69.8599 12.5833 69.9266 12.75 69.9266 12.85L68.3266 12.9C67.9266 12.5333 67.5432 12.0333 67.1766 11.4C66.7766 10.7333 66.3099 10.0833 65.7766 9.45C65.2432 8.81667 64.6099 8.26667 63.8766 7.8C63.1099 7.33333 62.1766 7.1 61.0766 7.1H60.4766ZM90.2766 25C90.2766 25.9 90.2932 26.7333 90.3266 27.5C90.3932 28.2667 90.3432 28.9333 90.1766 29.5C90.0099 30.0333 89.6432 30.45 89.0766 30.75C88.5099 31.05 87.6099 31.2 86.3766 31.2C85.6099 31.2 84.9599 31.15 84.4266 31.05C83.8932 30.95 83.4099 30.8 82.9766 30.6C82.5432 30.3667 82.1099 30.0833 81.6766 29.75C81.2766 29.4167 80.7932 29.0167 80.2266 28.55C79.9932 29.15 80.0099 29.7833 80.2766 30.45C80.5766 31.1167 80.9932 31.7333 81.5266 32.3C82.0599 32.8667 82.6599 33.3333 83.3266 33.7C83.9932 34.0667 84.5766 34.25 85.0766 34.25C85.7099 34.25 86.2766 34.1333 86.7766 33.9C87.3099 33.6667 87.7932 33.4167 88.2266 33.15C88.6932 32.8833 89.1266 32.6333 89.5266 32.4C89.9266 32.1667 90.3099 32.05 90.6766 32.05C91.1099 32.05 91.8099 32.3833 92.7766 33.05C93.7766 33.6833 94.7932 34.45 95.8266 35.35C96.8932 36.2167 97.8766 37.0833 98.7766 37.95C99.7099 38.7833 100.327 39.4 100.627 39.8C100.56 39.7333 100.477 39.7667 100.377 39.9C100.31 40.0333 100.227 40.1 100.127 40.1C100.127 40.1 100.093 40.0667 100.027 40C99.8266 39.6333 99.5599 39.2833 99.2266 38.95C98.9266 38.6167 98.6099 38.3167 98.2766 38.05C97.9432 37.7833 97.6266 37.5667 97.3266 37.4C97.0599 37.2333 96.8432 37.15 96.6766 37.15C96.2432 37.15 95.7766 37.2833 95.2766 37.55C94.8099 37.7833 94.3099 38.05 93.7766 38.35C93.2432 38.6167 92.6932 38.8833 92.1266 39.15C91.5599 39.3833 90.9599 39.5 90.3266 39.5C89.8599 39.5 89.3766 39.4167 88.8766 39.25C88.4099 39.0833 87.9932 38.8667 87.6266 38.6C87.1599 38.3 86.4932 37.7833 85.6266 37.05C84.7599 36.3167 83.8099 35.4667 82.7766 34.5C81.7766 33.5333 80.7432 32.5167 79.6766 31.45C78.6099 30.35 77.6432 29.3 76.7766 28.3C75.9099 27.2667 75.2099 26.3167 74.6766 25.45C74.1099 24.5833 73.8266 23.9 73.8266 23.4C73.8266 23.1 73.9432 22.8167 74.1766 22.55C74.3766 22.2833 74.6432 22.05 74.9766 21.85C75.3099 21.65 75.6432 21.5 75.9766 21.4C76.3432 21.3 76.6599 21.25 76.9266 21.25C77.3266 21.25 77.8266 21.4333 78.4266 21.8C79.0266 22.1333 79.6266 22.55 80.2266 23.05C80.8266 23.5167 81.3932 24 81.9266 24.5C82.4599 25 82.8599 25.4 83.1266 25.7C83.6932 25.3667 84.0432 25.0167 84.1766 24.65C84.3432 24.25 84.4266 23.75 84.4266 23.15C84.4266 22.0833 84.4099 20.9833 84.3766 19.85C84.3766 18.7167 84.3766 17.6167 84.3766 16.55H79.6266C78.7599 16.55 77.9432 16.8167 77.1766 17.35C76.4099 17.85 75.9266 18.5833 75.7266 19.55L70.6266 13.7C70.9932 13.2333 71.3432 12.8333 71.6766 12.5C72.0099 12.1333 72.4099 11.8333 72.8766 11.6C73.3099 11.3667 73.8432 11.2 74.4766 11.1C75.0766 10.9667 75.8599 10.9 76.8266 10.9H87.8766L90.5266 12.95C91.2266 12.1167 91.9599 11.5667 92.7266 11.3C93.4932 11.0333 94.3766 10.9 95.3766 10.9H98.7266L103.577 16.55H101.827C101.227 16.55 100.61 16.5833 99.9766 16.65C99.3432 16.6833 98.7266 16.7833 98.1266 16.95C97.5599 17.0833 97.0599 17.3 96.6266 17.6C96.1932 17.9 95.8766 18.3167 95.6766 18.85L93.5766 16.55H92.9766C92.1432 17.1833 91.4766 17.8667 90.9766 18.6C90.5099 19.3333 90.2766 20.2667 90.2766 21.4V25ZM103.16 25.7C103.16 27.4 103.16 29.1167 103.16 30.85C103.193 32.55 103.21 34.25 103.21 35.95C103.21 37.35 103.46 38.4667 103.96 39.3C104.46 40.1333 105.31 40.9333 106.51 41.7L106.36 42C105.393 41.4333 104.493 40.7833 103.66 40.05C102.826 39.2833 102.026 38.5167 101.26 37.75C100.36 36.85 99.6431 36.1333 99.1098 35.6C98.6098 35.0333 98.2264 34.4833 97.9598 33.95C97.6931 33.3833 97.5098 32.7333 97.4098 32C97.3431 31.2333 97.3098 30.2 97.3098 28.9V18.9L92.4598 13.2C92.4598 12.8667 92.5931 12.5667 92.8598 12.3C93.0931 12 93.3931 11.75 93.7598 11.55C94.0931 11.35 94.4598 11.2 94.8598 11.1C95.2598 10.9667 95.5931 10.9 95.8598 10.9H102.66L108.66 16.55C107.56 16.7833 106.643 17.2167 105.91 17.85C105.21 18.45 104.643 19.1667 104.21 20C103.81 20.8333 103.526 21.75 103.36 22.75C103.226 23.7167 103.16 24.7 103.16 25.7ZM88.7602 0.499998C89.3935 0.499998 90.1102 0.733331 90.9102 1.2C91.7102 1.63333 92.5435 2.21667 93.4102 2.95C94.2768 3.68333 95.1602 4.51666 96.0602 5.45C96.9268 6.38333 97.7602 7.33333 98.5602 8.3C99.3602 9.23333 100.093 10.15 100.76 11.05C101.427 11.9167 101.977 12.6667 102.41 13.3L101.16 14C100.693 13.1 100.127 12.2333 99.4602 11.4C98.7935 10.5667 98.0602 9.85 97.2602 9.25C96.4268 8.61667 95.5435 8.11666 94.6102 7.75C93.6435 7.35 92.6268 7.15 91.5602 7.15C91.0268 7.18333 90.4768 7.36666 89.9102 7.7C89.3102 8 88.7268 8.38333 88.1602 8.85C87.5935 9.31666 87.0602 9.86666 86.5602 10.5C86.0602 11.1333 85.6268 11.8 85.2602 12.5C85.0602 12.4 84.6435 12.1 84.0102 11.6C83.3768 11.1 82.7268 10.5667 82.0602 10C81.3602 9.4 80.7435 8.85 80.2102 8.35C79.6435 7.85 79.3602 7.55 79.3602 7.45V7.4C79.9602 6.2 80.7102 5.16667 81.6102 4.3C82.4768 3.43333 83.3768 2.71666 84.3102 2.15C85.2435 1.58333 86.1268 1.16667 86.9602 0.899999C87.7602 0.633331 88.3602 0.499998 88.7602 0.499998ZM143.66 31.25C142.927 31.25 142.16 31.1333 141.36 30.9C140.56 30.6333 139.777 30.3 139.01 29.9C138.243 29.5 137.51 29.05 136.81 28.55C136.143 28.0167 135.577 27.4833 135.11 26.95C135.043 27.2167 134.96 27.4667 134.86 27.7C134.793 27.9333 134.71 28.1833 134.61 28.45C135.277 28.95 135.927 29.5 136.56 30.1C137.193 30.6667 137.76 31.3 138.26 32C138.793 32.6667 139.21 33.3833 139.51 34.15C139.843 34.9167 140.01 35.75 140.01 36.65C140.01 37.4167 139.827 38.1333 139.46 38.8C139.093 39.4333 138.61 39.9833 138.01 40.45C137.443 40.9167 136.793 41.2833 136.06 41.55C135.36 41.8167 134.643 41.95 133.91 41.95C132.943 41.95 131.877 41.6667 130.71 41.1C129.543 40.5 128.343 39.75 127.11 38.85C125.877 37.9167 124.643 36.8833 123.41 35.75C122.177 34.5833 120.993 33.4333 119.86 32.3C118.727 31.1333 117.66 30.0333 116.66 29C115.66 27.9667 114.81 27.1167 114.11 26.45L115.01 26L124.46 35C124.66 35.1667 124.893 35.3667 125.16 35.6C125.46 35.8 125.777 36 126.11 36.2C126.443 36.3667 126.777 36.5167 127.11 36.65C127.443 36.7833 127.727 36.85 127.96 36.85C128.693 36.85 129.427 36.7333 130.16 36.5C130.893 36.2333 131.56 35.8667 132.16 35.4C132.76 34.9 133.243 34.3333 133.61 33.7C133.977 33.0333 134.16 32.3 134.16 31.5C134.16 31.1 134.11 30.7167 134.01 30.35C133.943 29.95 133.843 29.5667 133.71 29.2C133.443 29.3333 133.143 29.4167 132.81 29.45C132.51 29.45 132.21 29.45 131.91 29.45C131.143 29.45 130.46 29.35 129.86 29.15C129.26 28.95 128.643 28.65 128.01 28.25C127.81 28.1167 127.427 27.8167 126.86 27.35C126.293 26.8833 125.693 26.3833 125.06 25.85C124.427 25.3167 123.86 24.8167 123.36 24.35C122.893 23.8833 122.643 23.5833 122.61 23.45L123.11 23C124.077 23.9 125.21 24.35 126.51 24.35C127.643 24.35 128.377 24.0167 128.71 23.35C129.043 22.6833 129.21 21.8667 129.21 20.9C129.21 20.1333 129.243 19.4 129.31 18.7C129.377 17.9667 129.41 17.2167 129.41 16.45C128.943 16.45 128.477 16.4833 128.01 16.55C127.577 16.6167 127.177 16.75 126.81 16.95C126.443 17.15 126.143 17.4333 125.91 17.8C125.71 18.1333 125.61 18.5833 125.61 19.15C125.61 19.4167 125.677 19.65 125.81 19.85C125.943 20.05 126.043 20.2667 126.11 20.5C125.943 20.5 125.61 20.25 125.11 19.75C124.61 19.2167 124.06 18.6333 123.46 18C122.893 17.3333 122.36 16.6833 121.86 16.05C121.393 15.4167 121.11 15 121.01 14.8C120.71 14.3 120.56 13.7833 120.56 13.25C120.56 12.6833 120.71 12.25 121.01 11.95C121.343 11.65 121.743 11.4167 122.21 11.25C122.71 11.0833 123.21 10.9833 123.71 10.95C124.243 10.9167 124.71 10.9 125.11 10.9H134.46L139.66 16.55H138.06C137.527 16.9833 137.077 17.3667 136.71 17.7C136.343 18.0333 136.043 18.3833 135.81 18.75C135.61 19.1167 135.46 19.5333 135.36 20C135.293 20.4667 135.26 21.0667 135.26 21.8C135.26 22.4333 135.227 23.0667 135.16 23.7C135.127 24.3333 135.11 24.9667 135.11 25.6C135.577 25.7667 136.027 25.9 136.46 26C136.927 26.1 137.393 26.15 137.86 26.15C138.227 26.15 138.61 26.1 139.01 26C139.41 25.9 139.777 25.75 140.11 25.55C140.443 25.3167 140.71 25.05 140.91 24.75C141.11 24.4167 141.21 24.0333 141.21 23.6C141.21 23.3667 141.193 23.2 141.16 23.1C141.327 23.1 141.71 23.3333 142.31 23.8C142.943 24.2667 143.593 24.8 144.26 25.4C144.96 26 145.593 26.5833 146.16 27.15C146.727 27.6833 147.027 28.0333 147.06 28.2C147.093 28.3 147.11 28.4667 147.11 28.7C147.11 29.1667 146.993 29.5667 146.76 29.9C146.56 30.2 146.293 30.45 145.96 30.65C145.627 30.85 145.26 31 144.86 31.1C144.46 31.2 144.06 31.25 143.66 31.25ZM147.105 25.7C147.105 27.4 147.105 29.1167 147.105 30.85C147.138 32.55 147.155 34.25 147.155 35.95C147.155 37.35 147.405 38.4667 147.905 39.3C148.405 40.1333 149.255 40.9333 150.455 41.7L150.305 42C149.338 41.4333 148.438 40.7833 147.605 40.05C146.772 39.2833 145.972 38.5167 145.205 37.75C144.305 36.85 143.588 36.1333 143.055 35.6C142.555 35.0333 142.172 34.4833 141.905 33.95C141.638 33.3833 141.455 32.7333 141.355 32C141.288 31.2333 141.255 30.2 141.255 28.9V18.9L136.405 13.2C136.405 12.8667 136.538 12.5667 136.805 12.3C137.038 12 137.338 11.75 137.705 11.55C138.038 11.35 138.405 11.2 138.805 11.1C139.205 10.9667 139.538 10.9 139.805 10.9H146.605L152.605 16.55C151.505 16.7833 150.588 17.2167 149.855 17.85C149.155 18.45 148.588 19.1667 148.155 20C147.755 20.8333 147.472 21.75 147.305 22.75C147.172 23.7167 147.105 24.7 147.105 25.7ZM157.505 25.7C157.505 27.4 157.505 29.1167 157.505 30.85C157.539 32.55 157.555 34.25 157.555 35.95C157.555 37.35 157.805 38.4667 158.305 39.3C158.805 40.1333 159.655 40.9333 160.855 41.7L160.705 42C159.739 41.4333 158.839 40.7833 158.005 40.05C157.172 39.2833 156.372 38.5167 155.605 37.75C154.705 36.85 153.989 36.1333 153.455 35.6C152.955 35.0333 152.572 34.4833 152.305 33.95C152.039 33.3833 151.855 32.7333 151.755 32C151.689 31.2333 151.655 30.2 151.655 28.9V18.9L146.805 13.2C146.805 12.8667 146.939 12.5667 147.205 12.3C147.439 12 147.739 11.75 148.105 11.55C148.439 11.35 148.805 11.2 149.205 11.1C149.605 10.9667 149.939 10.9 150.205 10.9H157.005L163.005 16.55C161.905 16.7833 160.989 17.2167 160.255 17.85C159.555 18.45 158.989 19.1667 158.555 20C158.155 20.8333 157.872 21.75 157.705 22.75C157.572 23.7167 157.505 24.7 157.505 25.7ZM181.606 27.35C180.539 27.35 179.423 27.3 178.256 27.2C178.956 27.8 179.673 28.4167 180.406 29.05C181.173 29.65 181.856 30.3167 182.456 31.05C183.089 31.7833 183.606 32.5833 184.006 33.45C184.406 34.2833 184.606 35.2 184.606 36.2C184.606 37.9 184.039 39.2 182.906 40.1C181.806 41 180.456 41.45 178.856 41.45C177.356 41.45 175.956 41.2333 174.656 40.8C173.389 40.3667 172.173 39.7833 171.006 39.05C169.873 38.3167 168.789 37.4833 167.756 36.55C166.723 35.5833 165.706 34.5833 164.706 33.55C163.839 32.6833 163.173 31.7333 162.706 30.7C162.273 29.6333 162.056 28.4833 162.056 27.25C162.056 26.2167 162.206 25.35 162.506 24.65C162.839 23.95 163.273 23.4 163.806 23C164.373 22.5667 165.039 22.2667 165.806 22.1C166.606 21.9333 167.473 21.85 168.406 21.85C169.573 21.85 170.706 21.9333 171.806 22.1C172.906 22.2333 174.039 22.3 175.206 22.3C175.673 22.3 175.906 22.0667 175.906 21.6V16.55H170.106C169.073 16.55 168.106 16.7667 167.206 17.2C166.339 17.6 165.623 18.3833 165.056 19.55L159.956 13.7C160.356 13.1333 160.739 12.6667 161.106 12.3C161.473 11.9333 161.873 11.65 162.306 11.45C162.773 11.25 163.306 11.1167 163.906 11.05C164.539 10.95 165.289 10.9 166.156 10.9H175.906L178.356 13.1C178.589 12.4333 179.006 11.9 179.606 11.5C180.206 11.1 180.789 10.9 181.356 10.9H186.006L191.306 16.55H186.056C185.356 16.6167 184.723 17 184.156 17.7C183.623 18.4 183.323 19.1 183.256 19.8C183.023 19.6667 182.823 19.5167 182.656 19.35C182.489 19.1833 182.323 19.0167 182.156 18.85C181.989 19.05 181.873 19.3333 181.806 19.7C181.773 20.0333 181.756 20.3667 181.756 20.7C181.756 20.9667 181.773 21.45 181.806 22.15C181.839 22.85 181.856 23.5833 181.856 24.35C181.856 25.0833 181.839 25.75 181.806 26.35C181.773 26.95 181.706 27.2833 181.606 27.35ZM174.456 26.95C173.523 26.95 172.623 27.0333 171.756 27.2C170.889 27.3667 170.139 27.6667 169.506 28.1C168.873 28.5 168.406 29.05 168.106 29.75C167.806 30.45 167.723 31.3333 167.856 32.4C168.023 33.6333 168.606 34.5667 169.606 35.2C170.606 35.8 171.706 36.1 172.906 36.1C173.606 36.1 174.306 36 175.006 35.8C175.706 35.5667 176.323 35.2333 176.856 34.8C177.423 34.3667 177.873 33.8333 178.206 33.2C178.573 32.5667 178.756 31.8333 178.756 31C178.756 30.7333 178.723 30.4167 178.656 30.05C178.589 29.6833 178.489 29.3167 178.356 28.95C178.256 28.55 178.123 28.2 177.956 27.9C177.789 27.5667 177.606 27.3 177.406 27.1C176.406 27 175.423 26.95 174.456 26.95ZM202.036 22.55C202.236 22.75 202.586 23.1333 203.086 23.7C203.619 24.2333 204.169 24.8167 204.736 25.45C205.336 26.05 205.869 26.65 206.336 27.25C206.803 27.8167 207.069 28.2167 207.136 28.45C207.203 28.6833 207.236 28.9 207.236 29.1C207.269 29.2667 207.286 29.4667 207.286 29.7C207.286 30.9 207.003 31.9833 206.436 32.95C205.903 33.8833 205.203 34.6667 204.336 35.3C203.469 35.9333 202.486 36.4167 201.386 36.75C200.319 37.0833 199.236 37.25 198.136 37.25C196.903 37.25 195.769 36.9333 194.736 36.3C194.136 35.9333 193.386 35.3 192.486 34.4C191.586 33.4667 190.703 32.4667 189.836 31.4C189.003 30.3 188.286 29.2167 187.686 28.15C187.053 27.05 186.736 26.15 186.736 25.45C186.736 24.45 186.969 23.5333 187.436 22.7C187.903 21.8667 188.503 21.15 189.236 20.55C190.003 19.9167 190.853 19.4333 191.786 19.1C192.719 18.7333 193.653 18.55 194.586 18.55C195.353 18.55 196.086 18.6833 196.786 18.95C197.519 19.1833 198.186 19.5 198.786 19.9C199.419 20.3 200.003 20.7333 200.536 21.2C201.103 21.6667 201.603 22.1167 202.036 22.55ZM205.336 16.55H190.636C190.103 16.55 189.569 16.5833 189.036 16.65C188.503 16.6833 188.036 16.8 187.636 17C187.203 17.2 186.853 17.5 186.586 17.9C186.319 18.2667 186.153 18.7833 186.086 19.45L180.986 13.55C181.019 12.6833 181.369 12.0333 182.036 11.6C182.669 11.1333 183.369 10.9 184.136 10.9H200.486L205.336 16.55ZM202.086 24.75C201.186 24.5167 200.253 24.4 199.286 24.4C197.319 24.4 195.719 24.7667 194.486 25.5C193.286 26.2 192.436 27 191.936 27.9C191.469 28.7667 191.369 29.5667 191.636 30.3C191.903 31 192.536 31.35 193.536 31.35C194.603 31.35 195.636 31.2 196.636 30.9C197.669 30.6 198.586 30.1667 199.386 29.6C200.219 29 200.886 28.3 201.386 27.5C201.886 26.6667 202.119 25.75 202.086 24.75ZM208.433 25.7C208.433 27.4 208.433 29.1167 208.433 30.85C208.467 32.55 208.483 34.25 208.483 35.95C208.483 37.35 208.733 38.4667 209.233 39.3C209.733 40.1333 210.583 40.9333 211.783 41.7L211.633 42C210.667 41.4333 209.767 40.7833 208.933 40.05C208.1 39.2833 207.3 38.5167 206.533 37.75C205.633 36.85 204.917 36.1333 204.383 35.6C203.883 35.0333 203.5 34.4833 203.233 33.95C202.967 33.3833 202.783 32.7333 202.683 32C202.617 31.2333 202.583 30.2 202.583 28.9V18.9L197.733 13.2C197.733 12.8667 197.867 12.5667 198.133 12.3C198.367 12 198.667 11.75 199.033 11.55C199.367 11.35 199.733 11.2 200.133 11.1C200.533 10.9667 200.867 10.9 201.133 10.9H207.933L213.933 16.55C212.833 16.7833 211.917 17.2167 211.183 17.85C210.483 18.45 209.917 19.1667 209.483 20C209.083 20.8333 208.8 21.75 208.633 22.75C208.5 23.7167 208.433 24.7 208.433 25.7ZM224.234 37.15C223.7 37.15 223.017 37.05 222.184 36.85C221.35 36.6167 220.684 36.4 220.184 36.2C219.784 36.0333 219.117 35.65 218.184 35.05C217.284 34.4167 216.367 33.7167 215.434 32.95C214.534 32.15 213.717 31.3833 212.984 30.65C212.284 29.8833 211.934 29.3 211.934 28.9C211.934 28.7 212.017 28.5167 212.184 28.35C212.35 28.15 212.467 27.9667 212.534 27.8C212.7 27.4333 212.8 26.9667 212.834 26.4C212.867 25.8333 212.884 25.3333 212.884 24.9V16.55C212.584 16.5833 212.267 16.6833 211.934 16.85C211.6 16.9833 211.3 17.1833 211.034 17.45C210.734 17.6833 210.5 17.9833 210.334 18.35C210.167 18.6833 210.1 19.0833 210.134 19.55L204.984 13.7C204.984 13.2 205.1 12.7833 205.334 12.45C205.534 12.0833 205.8 11.7833 206.134 11.55C206.467 11.3167 206.817 11.15 207.184 11.05C207.55 10.95 207.9 10.9 208.234 10.9H218.834L220.284 12.1C220.55 11.5333 220.884 11.2 221.284 11.1C221.717 10.9667 222.05 10.9 222.284 10.9H232.834L237.834 16.55H234.484C233.517 16.95 232.717 17.45 232.084 18.05C231.484 18.6167 231 19.2667 230.634 20C230.3 20.7333 230.067 21.5333 229.934 22.4C229.834 23.2667 229.784 24.1833 229.784 25.15C229.784 25.85 229.8 26.55 229.834 27.25C229.867 27.95 229.884 28.6667 229.884 29.4C229.884 30.8667 229.684 32.2333 229.284 33.5C228.884 34.7667 227.984 35.7667 226.584 36.5C226.217 36.6667 225.834 36.8167 225.434 36.95C225.034 37.0833 224.634 37.15 224.234 37.15ZM224.084 17.3C223.684 17.5333 223.3 17.85 222.934 18.25C222.6 18.65 222.434 19.0833 222.434 19.55C222.3 19.4833 222.117 19.35 221.884 19.15C221.65 18.9167 221.4 18.6667 221.134 18.4C220.867 18.1 220.617 17.8333 220.384 17.6C220.15 17.3333 219.984 17.1333 219.884 17C219.517 17.3 219.25 17.65 219.084 18.05C218.917 18.45 218.8 18.8667 218.734 19.3C218.7 19.7 218.7 20.1333 218.734 20.6C218.767 21.0333 218.784 21.4667 218.784 21.9C218.784 22.5 218.767 23.1 218.734 23.7C218.734 24.2667 218.734 24.85 218.734 25.45C218.734 26.1833 218.75 26.9167 218.784 27.65C218.817 28.35 218.834 29.0833 218.834 29.85C218.834 30.2167 218.834 30.5833 218.834 30.95C218.834 31.2833 218.8 31.6333 218.734 32C219.9 31.8667 220.834 31.5333 221.534 31C222.234 30.4333 222.75 29.7333 223.084 28.9C223.45 28.0667 223.684 27.15 223.784 26.15C223.917 25.15 223.984 24.1333 223.984 23.1C224.017 22.0333 224.017 21 223.984 20C223.95 19 223.984 18.1 224.084 17.3ZM239.927 25.7C239.927 27.4 239.927 29.1167 239.927 30.85C239.961 32.55 239.977 34.25 239.977 35.95C239.977 37.35 240.227 38.4667 240.727 39.3C241.227 40.1333 242.077 40.9333 243.277 41.7L243.127 42C242.161 41.4333 241.261 40.7833 240.427 40.05C239.594 39.2833 238.794 38.5167 238.027 37.75C237.127 36.85 236.411 36.1333 235.877 35.6C235.377 35.0333 234.994 34.4833 234.727 33.95C234.461 33.3833 234.277 32.7333 234.177 32C234.111 31.2333 234.077 30.2 234.077 28.9V18.9L229.227 13.2C229.227 12.8667 229.361 12.5667 229.627 12.3C229.861 12 230.161 11.75 230.527 11.55C230.861 11.35 231.227 11.2 231.627 11.1C232.027 10.9667 232.361 10.9 232.627 10.9H239.427L245.427 16.55C244.327 16.7833 243.411 17.2167 242.677 17.85C241.977 18.45 241.411 19.1667 240.977 20C240.577 20.8333 240.294 21.75 240.127 22.75C239.994 23.7167 239.927 24.7 239.927 25.7ZM250.328 25.7C250.328 27.4 250.328 29.1167 250.328 30.85C250.361 32.55 250.378 34.25 250.378 35.95C250.378 37.35 250.628 38.4667 251.128 39.3C251.628 40.1333 252.478 40.9333 253.678 41.7L253.528 42C252.561 41.4333 251.661 40.7833 250.828 40.05C249.994 39.2833 249.194 38.5167 248.428 37.75C247.528 36.85 246.811 36.1333 246.278 35.6C245.778 35.0333 245.394 34.4833 245.128 33.95C244.861 33.3833 244.678 32.7333 244.578 32C244.511 31.2333 244.478 30.2 244.478 28.9V18.9L239.628 13.2C239.628 12.8667 239.761 12.5667 240.028 12.3C240.261 12 240.561 11.75 240.928 11.55C241.261 11.35 241.628 11.2 242.028 11.1C242.428 10.9667 242.761 10.9 243.028 10.9H249.828L255.828 16.55C254.728 16.7833 253.811 17.2167 253.078 17.85C252.378 18.45 251.811 19.1667 251.378 20C250.978 20.8333 250.694 21.75 250.528 22.75C250.394 23.7167 250.328 24.7 250.328 25.7ZM235.928 0.499998C236.561 0.499998 237.278 0.733331 238.078 1.2C238.878 1.63333 239.711 2.21667 240.578 2.95C241.445 3.68333 242.328 4.51666 243.228 5.45C244.095 6.38333 244.928 7.33333 245.728 8.3C246.528 9.23333 247.261 10.15 247.928 11.05C248.595 11.9167 249.145 12.6667 249.578 13.3L248.328 14C247.861 13.1 247.295 12.2333 246.628 11.4C245.961 10.5667 245.228 9.85 244.428 9.25C243.595 8.61667 242.711 8.11666 241.778 7.75C240.811 7.35 239.795 7.15 238.728 7.15C238.195 7.18333 237.645 7.36666 237.078 7.7C236.478 8 235.895 8.38333 235.328 8.85C234.761 9.31666 234.228 9.86666 233.728 10.5C233.228 11.1333 232.795 11.8 232.428 12.5C232.228 12.4 231.811 12.1 231.178 11.6C230.545 11.1 229.895 10.5667 229.228 10C228.528 9.4 227.911 8.85 227.378 8.35C226.811 7.85 226.528 7.55 226.528 7.45V7.4C227.128 6.2 227.878 5.16667 228.778 4.3C229.645 3.43333 230.545 2.71666 231.478 2.15C232.411 1.58333 233.295 1.16667 234.128 0.899999C234.928 0.633331 235.528 0.499998 235.928 0.499998Z" fill="url(#paint0_linear_993_7455)"/>
<path d="M24.75 79.05C24.75 79.6167 24.7667 80.2 24.8 80.8C24.8333 81.3667 24.85 81.9333 24.85 82.5C24.85 83.1667 24.75 83.6333 24.55 83.9C24.3833 84.1667 23.9333 84.3 23.2 84.3C22.3333 84.3 21.4833 84.2833 20.65 84.25C19.85 84.1833 19.0167 84.15 18.15 84.15C17.75 84.15 17.2167 84.1667 16.55 84.2C15.9167 84.2333 15.4167 84.3333 15.05 84.5C14.6833 84.6667 14.2667 85 13.8 85.5C13.3333 85.9667 12.9 86.4833 12.5 87.05C12.1 87.6167 11.75 88.2 11.45 88.8C11.1833 89.4 11.05 89.9 11.05 90.3C11.05 91.1 11.3833 91.7333 12.05 92.2C12.75 92.6667 13.55 92.9 14.45 92.9C14.95 92.9 15.45 92.8167 15.95 92.65C16.4833 92.4833 16.9833 92.2167 17.45 91.85C17.2833 91.6833 17.05 91.4667 16.75 91.2C16.4833 90.9 16.2167 90.6 15.95 90.3C15.6833 90 15.45 89.7 15.25 89.4C15.05 89.0667 14.95 88.7833 14.95 88.55C14.95 88.15 15.0667 87.8 15.3 87.5C15.5333 87.1667 15.8167 86.9 16.15 86.7C16.5167 86.4667 16.9 86.3 17.3 86.2C17.7333 86.0667 18.1167 86 18.45 86C18.65 86 18.85 86.0167 19.05 86.05C19.25 86.0833 19.45 86.1333 19.65 86.2C19.9167 86.3 20.35 86.5833 20.95 87.05C21.5833 87.4833 22.2167 87.9833 22.85 88.55C23.5167 89.0833 24.1333 89.6167 24.7 90.15C25.3 90.6833 25.7 91.0833 25.9 91.35C26.4 91.9167 26.65 92.5167 26.65 93.15C26.65 94.0833 26.4167 94.85 25.95 95.45C25.4833 96.0167 24.8333 96.4333 24 96.7L29.7 102.05L28.95 103.2L22.5 97.2H22.2C21.9333 97.2 21.65 97.2333 21.35 97.3C21.0833 97.3333 20.8167 97.35 20.55 97.35C18.7167 97.35 17.0167 96.9 15.45 96C15.0167 95.7333 14.45 95.3667 13.75 94.9C13.05 94.4 12.3167 93.8333 11.55 93.2C10.7833 92.5667 10.0167 91.9 9.25 91.2C8.48333 90.4667 7.78333 89.75 7.15 89.05C6.55 88.3167 6.06667 87.6167 5.7 86.95C5.3 86.25 5.1 85.6333 5.1 85.1C5.1 84.7333 5.25 84.2667 5.55 83.7C5.81667 83.1333 6.15 82.5833 6.55 82.05C6.98333 81.4833 7.41667 80.9667 7.85 80.5C8.31667 80.0333 8.7 79.7 9 79.5C9.33333 79.3 9.76667 79.1833 10.3 79.15C10.8333 79.0833 11.35 79.05 11.85 79.05H12.85C13.55 79.05 14.25 79.0667 14.95 79.1C15.65 79.1333 16.35 79.15 17.05 79.15C17.5167 79.15 17.95 79.0833 18.35 78.95C18.75 78.7833 18.95 78.4333 18.95 77.9C18.95 77.4 18.9333 76.85 18.9 76.25C18.9 75.6167 18.9 75.05 18.9 74.55H8.05C7.28333 74.55 6.65 74.8667 6.15 75.5C5.68333 76.1333 5.41667 76.7833 5.35 77.45L0.15 71.55C0.15 71.05 0.266666 70.6333 0.5 70.3C0.733333 69.9667 1.03333 69.7 1.4 69.5C1.76667 69.3 2.18333 69.15 2.65 69.05C3.08333 68.95 3.5 68.9 3.9 68.9H21.5L23.1 70.05C23.7 69.4833 24.3167 69.15 24.95 69.05C25.6167 68.95 26.4333 68.9 27.4 68.9H30.85L35.65 74.55H34.35C33.75 74.55 33.0833 74.5667 32.35 74.6C31.65 74.6333 30.9833 74.7333 30.35 74.9C29.7167 75.0333 29.15 75.25 28.65 75.55C28.1833 75.85 27.8667 76.2667 27.7 76.8C27.3667 76.5333 27.05 76.2667 26.75 76C26.45 75.7333 26.1667 75.4333 25.9 75.1C25.4333 75.5667 25.1167 76.1833 24.95 76.95C24.8167 77.6833 24.75 78.3833 24.75 79.05ZM22.5852 65.15C22.6852 65.25 22.8518 65.5167 23.0852 65.95C23.3185 66.35 23.5685 66.8 23.8352 67.3C24.0685 67.7667 24.2852 68.2167 24.4852 68.65C24.6518 69.05 24.7352 69.3 24.7352 69.4L23.1352 69.45C22.9352 68.8833 22.6352 68.15 22.2352 67.25C21.8018 66.3167 21.2518 65.4167 20.5852 64.55C19.8852 63.6833 19.0852 62.95 18.1852 62.35C17.2518 61.7167 16.2018 61.4 15.0352 61.4H14.5852C13.6852 61.4667 12.9852 61.5167 12.4852 61.55C11.9852 61.5833 11.5852 61.6167 11.2852 61.65C10.9518 61.65 10.6852 61.6667 10.4852 61.7C10.2518 61.7 9.98516 61.7 9.68516 61.7C8.71849 61.7 7.83515 61.5167 7.03516 61.15C6.23515 60.7833 5.50182 60.3167 4.83516 59.75C4.16849 59.15 3.58516 58.4833 3.08515 57.75C2.55182 56.9833 2.08516 56.2 1.68515 55.4V55.35C2.25182 56.05 2.75182 56.5333 3.18516 56.8C3.58515 57.0667 4.00182 57.2 4.43515 57.2C4.86849 57.2 5.35182 57.1167 5.88516 56.95C6.38515 56.75 7.06849 56.5333 7.93516 56.3C8.73516 56.1 9.48516 56 10.1852 56C11.4185 56 12.5852 56.25 13.6852 56.75C14.7518 57.25 15.8018 57.9167 16.8352 58.75C17.8352 59.5833 18.8185 60.55 19.7852 61.65C20.7185 62.75 21.6518 63.9167 22.5852 65.15ZM22.5852 69.65C22.6852 69.75 22.8352 69.9333 23.0352 70.2C23.2018 70.4333 23.3852 70.6833 23.5852 70.95C23.7518 71.2167 23.9018 71.4833 24.0352 71.75C24.1685 71.9833 24.2352 72.15 24.2352 72.25L22.6352 72.3C22.2352 71.9333 21.8518 71.4333 21.4852 70.8C21.0852 70.1333 20.6185 69.4833 20.0852 68.85C19.5518 68.2167 18.9185 67.6667 18.1852 67.2C17.4185 66.7333 16.4852 66.5 15.3852 66.5H14.7852C13.8852 66.5667 13.2018 66.65 12.7352 66.75C12.2352 66.8167 11.8518 66.8833 11.5852 66.95C11.3185 67.0167 11.0852 67.0833 10.8852 67.15C10.6852 67.1833 10.4352 67.2 10.1352 67.2C9.16849 67.2 8.26849 66.9667 7.43515 66.5C6.56849 66.0333 5.78516 65.45 5.08516 64.75C4.35182 64.0167 3.70182 63.2333 3.13516 62.4C2.56849 61.5333 2.08516 60.7 1.68515 59.9V59.85C2.55182 60.8833 3.53516 61.65 4.63515 62.15C5.73515 62.6167 6.90182 62.85 8.13515 62.85C8.56849 62.85 9.00182 62.8167 9.43516 62.75C9.83516 62.6833 10.2685 62.6 10.7352 62.5C11.2685 62.3667 11.7685 62.2667 12.2352 62.2C12.6685 62.1333 13.1018 62.1 13.5352 62.1C14.5018 62.1 15.3518 62.2833 16.0852 62.65C16.8185 62.9833 17.5185 63.4833 18.1852 64.15C18.8518 64.7833 19.5352 65.5667 20.2352 66.5C20.9018 67.4333 21.6852 68.4833 22.5852 69.65ZM22.5852 65.15C22.6852 65.25 22.8518 65.5167 23.0852 65.95C23.3185 66.35 23.5685 66.8 23.8352 67.3C24.0685 67.7667 24.2852 68.2167 24.4852 68.65C24.6518 69.05 24.7352 69.3 24.7352 69.4L23.1352 69.45C22.9352 68.8833 22.6352 68.15 22.2352 67.25C21.8018 66.3167 21.2518 65.4167 20.5852 64.55C19.8852 63.6833 19.0852 62.95 18.1852 62.35C17.2518 61.7167 16.2018 61.4 15.0352 61.4H14.5852C13.6852 61.4667 12.9852 61.5167 12.4852 61.55C11.9852 61.5833 11.5852 61.6167 11.2852 61.65C10.9518 61.65 10.6852 61.6667 10.4852 61.7C10.2518 61.7 9.98516 61.7 9.68516 61.7C8.71849 61.7 7.83515 61.5167 7.03516 61.15C6.23515 60.7833 5.50182 60.3167 4.83516 59.75C4.16849 59.15 3.58516 58.4833 3.08515 57.75C2.55182 56.9833 2.08516 56.2 1.68515 55.4V55.35C2.25182 56.05 2.75182 56.5333 3.18516 56.8C3.58515 57.0667 4.00182 57.2 4.43515 57.2C4.86849 57.2 5.35182 57.1167 5.88516 56.95C6.38515 56.75 7.06849 56.5333 7.93516 56.3C8.73516 56.1 9.48516 56 10.1852 56C11.4185 56 12.5852 56.25 13.6852 56.75C14.7518 57.25 15.8018 57.9167 16.8352 58.75C17.8352 59.5833 18.8185 60.55 19.7852 61.65C20.7185 62.75 21.6518 63.9167 22.5852 65.15ZM22.5852 69.65C22.6852 69.75 22.8352 69.9333 23.0352 70.2C23.2018 70.4333 23.3852 70.6833 23.5852 70.95C23.7518 71.2167 23.9018 71.4833 24.0352 71.75C24.1685 71.9833 24.2352 72.15 24.2352 72.25L22.6352 72.3C22.2352 71.9333 21.8518 71.4333 21.4852 70.8C21.0852 70.1333 20.6185 69.4833 20.0852 68.85C19.5518 68.2167 18.9185 67.6667 18.1852 67.2C17.4185 66.7333 16.4852 66.5 15.3852 66.5H14.7852C13.8852 66.5667 13.2018 66.65 12.7352 66.75C12.2352 66.8167 11.8518 66.8833 11.5852 66.95C11.3185 67.0167 11.0852 67.0833 10.8852 67.15C10.6852 67.1833 10.4352 67.2 10.1352 67.2C9.16849 67.2 8.26849 66.9667 7.43515 66.5C6.56849 66.0333 5.78516 65.45 5.08516 64.75C4.35182 64.0167 3.70182 63.2333 3.13516 62.4C2.56849 61.5333 2.08516 60.7 1.68515 59.9V59.85C2.55182 60.8833 3.53516 61.65 4.63515 62.15C5.73515 62.6167 6.90182 62.85 8.13515 62.85C8.56849 62.85 9.00182 62.8167 9.43516 62.75C9.83516 62.6833 10.2685 62.6 10.7352 62.5C11.2685 62.3667 11.7685 62.2667 12.2352 62.2C12.6685 62.1333 13.1018 62.1 13.5352 62.1C14.5018 62.1 15.3518 62.2833 16.0852 62.65C16.8185 62.9833 17.5185 63.4833 18.1852 64.15C18.8518 64.7833 19.5352 65.5667 20.2352 66.5C20.9018 67.4333 21.6852 68.4833 22.5852 69.65ZM48.2852 79.05C48.2852 79.6167 48.3018 80.2 48.3352 80.8C48.3685 81.3667 48.3852 81.9333 48.3852 82.5C48.3852 83.1667 48.2852 83.6333 48.0852 83.9C47.9185 84.1667 47.4685 84.3 46.7352 84.3C45.8685 84.3 45.0185 84.2833 44.1852 84.25C43.3852 84.1833 42.5518 84.15 41.6852 84.15C41.2852 84.15 40.7518 84.1667 40.0852 84.2C39.4518 84.2333 38.9518 84.3333 38.5852 84.5C38.2185 84.6667 37.8018 85 37.3352 85.5C36.8685 85.9667 36.4352 86.4833 36.0352 87.05C35.6352 87.6167 35.2852 88.2 34.9852 88.8C34.7185 89.4 34.5852 89.9 34.5852 90.3C34.5852 91.1 34.9185 91.7333 35.5852 92.2C36.2852 92.6667 37.0852 92.9 37.9852 92.9C38.4852 92.9 38.9852 92.8167 39.4852 92.65C40.0185 92.4833 40.5185 92.2167 40.9852 91.85C40.8185 91.6833 40.5852 91.4667 40.2852 91.2C40.0185 90.9 39.7518 90.6 39.4852 90.3C39.2185 90 38.9852 89.7 38.7852 89.4C38.5852 89.0667 38.4852 88.7833 38.4852 88.55C38.4852 88.15 38.6018 87.8 38.8352 87.5C39.0685 87.1667 39.3518 86.9 39.6852 86.7C40.0518 86.4667 40.4352 86.3 40.8352 86.2C41.2685 86.0667 41.6518 86 41.9852 86C42.1852 86 42.3852 86.0167 42.5852 86.05C42.7852 86.0833 42.9852 86.1333 43.1852 86.2C43.4518 86.3 43.8852 86.5833 44.4852 87.05C45.1185 87.4833 45.7518 87.9833 46.3852 88.55C47.0518 89.0833 47.6685 89.6167 48.2352 90.15C48.8352 90.6833 49.2352 91.0833 49.4352 91.35C49.9352 91.9167 50.1852 92.5167 50.1852 93.15C50.1852 94.0833 49.9518 94.85 49.4852 95.45C49.0185 96.0167 48.3685 96.4333 47.5352 96.7L53.2352 102.05L52.4852 103.2L46.0352 97.2H45.7352C45.4685 97.2 45.1852 97.2333 44.8852 97.3C44.6185 97.3333 44.3518 97.35 44.0852 97.35C42.2518 97.35 40.5518 96.9 38.9852 96C38.5518 95.7333 37.9852 95.3667 37.2852 94.9C36.5852 94.4 35.8518 93.8333 35.0852 93.2C34.3185 92.5667 33.5518 91.9 32.7852 91.2C32.0185 90.4667 31.3185 89.75 30.6852 89.05C30.0852 88.3167 29.6018 87.6167 29.2352 86.95C28.8352 86.25 28.6352 85.6333 28.6352 85.1C28.6352 84.7333 28.7852 84.2667 29.0852 83.7C29.3518 83.1333 29.6852 82.5833 30.0852 82.05C30.5185 81.4833 30.9518 80.9667 31.3852 80.5C31.8518 80.0333 32.2352 79.7 32.5352 79.5C32.8685 79.3 33.3018 79.1833 33.8352 79.15C34.3685 79.0833 34.8852 79.05 35.3852 79.05H36.3852C37.0852 79.05 37.7852 79.0667 38.4852 79.1C39.1852 79.1333 39.8852 79.15 40.5852 79.15C41.0518 79.15 41.4852 79.0833 41.8852 78.95C42.2852 78.7833 42.4852 78.4333 42.4852 77.9C42.4852 77.4 42.4685 76.85 42.4352 76.25C42.4352 75.6167 42.4352 75.05 42.4352 74.55H31.5852C30.8185 74.55 30.1852 74.8667 29.6852 75.5C29.2185 76.1333 28.9518 76.7833 28.8852 77.45L23.6852 71.55C23.6852 71.05 23.8018 70.6333 24.0352 70.3C24.2685 69.9667 24.5685 69.7 24.9352 69.5C25.3018 69.3 25.7185 69.15 26.1852 69.05C26.6185 68.95 27.0352 68.9 27.4352 68.9H45.0352L46.6352 70.05C47.2352 69.4833 47.8518 69.15 48.4852 69.05C49.1518 68.95 49.9685 68.9 50.9352 68.9H54.3852L59.1852 74.55H57.8852C57.2852 74.55 56.6185 74.5667 55.8852 74.6C55.1852 74.6333 54.5185 74.7333 53.8852 74.9C53.2518 75.0333 52.6852 75.25 52.1852 75.55C51.7185 75.85 51.4018 76.2667 51.2352 76.8C50.9018 76.5333 50.5852 76.2667 50.2852 76C49.9852 75.7333 49.7018 75.4333 49.4352 75.1C48.9685 75.5667 48.6518 76.1833 48.4852 76.95C48.3518 77.6833 48.2852 78.3833 48.2852 79.05ZM58.9703 83.7C58.9703 85.4 58.9703 87.1167 58.9703 88.85C59.0036 90.55 59.0203 92.25 59.0203 93.95C59.0203 95.35 59.2703 96.4667 59.7703 97.3C60.2703 98.1333 61.1203 98.9333 62.3203 99.7L62.1703 100C61.2036 99.4333 60.3036 98.7833 59.4703 98.05C58.637 97.2833 57.837 96.5167 57.0703 95.75C56.1703 94.85 55.4536 94.1333 54.9203 93.6C54.4203 93.0333 54.037 92.4833 53.7703 91.95C53.5036 91.3833 53.3203 90.7333 53.2203 90C53.1536 89.2333 53.1203 88.2 53.1203 86.9V76.9L48.2703 71.2C48.2703 70.8667 48.4036 70.5667 48.6703 70.3C48.9036 70 49.2036 69.75 49.5703 69.55C49.9036 69.35 50.2703 69.2 50.6703 69.1C51.0703 68.9667 51.4036 68.9 51.6703 68.9H58.4703L64.4703 74.55C63.3703 74.7833 62.4536 75.2167 61.7203 75.85C61.0203 76.45 60.4536 77.1667 60.0203 78C59.6203 78.8333 59.337 79.75 59.1703 80.75C59.037 81.7167 58.9703 82.7 58.9703 83.7ZM44.5707 58.5C45.204 58.5 45.9207 58.7333 46.7207 59.2C47.5207 59.6333 48.354 60.2167 49.2207 60.95C50.0874 61.6833 50.9707 62.5167 51.8707 63.45C52.7374 64.3833 53.5707 65.3333 54.3707 66.3C55.1707 67.2333 55.904 68.15 56.5707 69.05C57.2374 69.9167 57.7874 70.6667 58.2207 71.3L56.9707 72C56.504 71.1 55.9374 70.2333 55.2707 69.4C54.604 68.5667 53.8707 67.85 53.0707 67.25C52.2374 66.6167 51.354 66.1167 50.4207 65.75C49.454 65.35 48.4374 65.15 47.3707 65.15C46.8374 65.1833 46.2874 65.3667 45.7207 65.7C45.1207 66 44.5374 66.3833 43.9707 66.85C43.404 67.3167 42.8707 67.8667 42.3707 68.5C41.8707 69.1333 41.4374 69.8 41.0707 70.5C40.8707 70.4 40.454 70.1 39.8207 69.6C39.1874 69.1 38.5374 68.5667 37.8707 68C37.1707 67.4 36.554 66.85 36.0207 66.35C35.454 65.85 35.1707 65.55 35.1707 65.45V65.4C35.7707 64.2 36.5207 63.1667 37.4207 62.3C38.2874 61.4333 39.1874 60.7167 40.1207 60.15C41.054 59.5833 41.9374 59.1667 42.7707 58.9C43.5707 58.6333 44.1707 58.5 44.5707 58.5ZM69.0707 85.35C69.2374 85.6833 69.604 86.0167 70.1707 86.35C70.7374 86.6833 71.4374 86.85 72.2707 86.85C72.3707 86.85 72.4707 86.85 72.5707 86.85C72.704 86.85 72.8207 86.8333 72.9207 86.8C75.454 86.4667 77.154 85.5667 78.0207 84.1C78.9207 82.6333 79.204 80.8167 78.8707 78.65C79.0707 78.7167 79.454 78.9667 80.0207 79.4C80.6207 79.8 81.2207 80.2667 81.8207 80.8C82.454 81.3 83.0207 81.7833 83.5207 82.25C84.0207 82.6833 84.2707 82.9667 84.2707 83.1C84.2707 84.3333 84.104 85.4833 83.7707 86.55C83.4707 87.6167 83.004 88.55 82.3707 89.35C81.7707 90.1167 81.0374 90.7167 80.1707 91.15C79.3374 91.5833 78.404 91.8 77.3707 91.8C76.2707 91.8 75.1874 91.5833 74.1207 91.15C73.0874 90.7167 72.0707 90.1833 71.0707 89.55C70.0707 88.8833 69.1207 88.1667 68.2207 87.4C67.3207 86.6333 66.4874 85.9 65.7207 85.2C65.5874 85.0667 65.3874 84.9 65.1207 84.7C64.854 84.5 64.5874 84.3 64.3207 84.1C64.0874 83.8667 63.854 83.65 63.6207 83.45C63.3874 83.2167 63.2207 83.0167 63.1207 82.85L63.0707 74.55C62.1374 74.55 61.3374 74.85 60.6707 75.45C60.004 76.05 59.6374 76.8333 59.5707 77.8L54.4707 71.9C54.604 71.3667 54.8374 70.9167 55.1707 70.55C55.4707 70.1833 55.8374 69.8833 56.2707 69.65C56.6707 69.3833 57.1207 69.2 57.6207 69.1C58.0874 68.9667 58.554 68.9 59.0207 68.9H69.7707L71.3707 70.35C72.0374 69.7167 72.704 69.3167 73.3707 69.15C74.0374 68.9833 74.8374 68.9 75.7707 68.9H83.0207L87.9207 74.55H82.9207C82.154 74.55 81.3874 74.5833 80.6207 74.65C79.8874 74.6833 79.1707 74.8167 78.4707 75.05C77.804 75.25 77.1707 75.5833 76.5707 76.05C76.004 76.4833 75.504 77.0833 75.0707 77.85C74.1707 77.05 73.3207 76.2 72.5207 75.3C72.1207 75.4667 71.704 75.7333 71.2707 76.1C70.8707 76.4333 70.4874 76.8333 70.1207 77.3C69.7874 77.7333 69.504 78.2333 69.2707 78.8C69.0707 79.3333 68.9707 79.8833 68.9707 80.45C68.9707 81.4167 68.9874 82.2333 69.0207 82.9C69.054 83.5667 69.0707 84.3833 69.0707 85.35ZM92.4109 75.2C91.9109 75.4667 91.5109 75.85 91.2109 76.35C90.9443 76.85 90.7276 77.4 90.5609 78C90.4276 78.6 90.3443 79.2167 90.3109 79.85C90.2776 80.45 90.2609 81 90.2609 81.5C90.2609 82.1333 90.2776 82.7667 90.3109 83.4C90.3443 84 90.3609 84.6167 90.3609 85.25C90.3609 85.9833 90.2443 86.55 90.0109 86.95C89.7776 87.35 89.4609 87.65 89.0609 87.85C88.6609 88.05 88.1943 88.1833 87.6609 88.25C87.1609 88.2833 86.6109 88.3 86.0109 88.3C85.6443 88.3 85.2943 88.2833 84.9609 88.25C84.6276 88.1833 84.2776 88.15 83.9109 88.15H83.6609C83.0609 88.1833 82.7443 88.35 82.7109 88.65C82.7109 88.95 82.9109 89.2833 83.3109 89.65C83.7443 89.9833 84.3443 90.3 85.1109 90.6C85.9109 90.9 86.7776 91.0667 87.7109 91.1C88.7443 91.1 89.7609 91.0167 90.7609 90.85C91.7943 90.6833 92.7109 90.3833 93.5109 89.95C94.3109 89.4833 94.9609 88.85 95.4609 88.05C95.9609 87.25 96.2109 86.2333 96.2109 85C96.2109 84.8667 96.1776 84.6667 96.1109 84.4C96.3109 84.4667 96.7276 84.75 97.3609 85.25C97.9943 85.7167 98.6443 86.25 99.3109 86.85C100.011 87.4167 100.628 87.9667 101.161 88.5C101.694 89 101.978 89.3333 102.011 89.5C102.044 89.6333 102.061 89.7667 102.061 89.9C102.061 90.0333 102.061 90.1667 102.061 90.3C102.061 91.3333 101.811 92.2167 101.311 92.95C100.811 93.6833 100.178 94.2833 99.4109 94.75C98.6443 95.1833 97.7776 95.5 96.8109 95.7C95.8776 95.9 94.9776 96 94.1109 96C92.7776 96 91.5609 95.8667 90.4609 95.6C89.3943 95.3333 88.3776 94.9667 87.4109 94.5C86.4776 94 85.5609 93.4 84.6609 92.7C83.7943 92 82.8776 91.2167 81.9109 90.35C81.6109 90.0833 81.1776 89.6667 80.6109 89.1C80.0443 88.5333 79.4609 87.9333 78.8609 87.3C78.2943 86.6333 77.7943 86 77.3609 85.4C76.9276 84.7667 76.7109 84.2667 76.7109 83.9C76.7109 83.5333 76.8609 83.3 77.1609 83.2C77.4276 83.0667 77.6943 83 77.9609 83C78.3609 83 78.7443 83.0333 79.1109 83.1C79.5109 83.1333 79.9109 83.15 80.3109 83.15C80.9776 83.15 81.5609 83.1333 82.0609 83.1C82.5943 83.0333 83.0443 82.9 83.4109 82.7C83.7776 82.4667 84.0443 82.1333 84.2109 81.7C84.4109 81.2333 84.5109 80.6167 84.5109 79.85V74.55H82.0109C81.0443 74.55 80.1943 74.8167 79.4609 75.35C78.7276 75.8833 78.3276 76.6667 78.2609 77.7L73.1609 71.75C73.1609 71.1833 73.2943 70.7333 73.5609 70.4C73.7943 70.0333 74.1109 69.7333 74.5109 69.5C74.8776 69.2667 75.2943 69.1167 75.7609 69.05C76.2276 68.95 76.6943 68.9 77.1609 68.9H89.4609L90.6609 69.95C90.9943 69.6833 91.3443 69.45 91.7109 69.25C92.1109 69.0167 92.5276 68.9 92.9609 68.9H98.1109L102.911 74.55H101.361C100.694 74.55 100.028 74.5833 99.3609 74.65C98.7276 74.6833 98.1109 74.8 97.5109 75C96.9109 75.1667 96.3609 75.4333 95.8609 75.8C95.3609 76.1667 94.9276 76.6833 94.5609 77.35C94.1943 76.9833 93.8276 76.6333 93.4609 76.3C93.0943 75.9333 92.7443 75.5667 92.4109 75.2ZM101.939 83.7C101.939 85.4 101.939 87.1167 101.939 88.85C101.972 90.55 101.989 92.25 101.989 93.95C101.989 95.35 102.239 96.4667 102.739 97.3C103.239 98.1333 104.089 98.9333 105.289 99.7L105.139 100C104.172 99.4333 103.272 98.7833 102.439 98.05C101.606 97.2833 100.806 96.5167 100.039 95.75C99.1391 94.85 98.4224 94.1333 97.8891 93.6C97.3891 93.0333 97.0057 92.4833 96.7391 91.95C96.4724 91.3833 96.2891 90.7333 96.1891 90C96.1224 89.2333 96.0891 88.2 96.0891 86.9V76.9L91.2391 71.2C91.2391 70.8667 91.3724 70.5667 91.6391 70.3C91.8724 70 92.1724 69.75 92.5391 69.55C92.8724 69.35 93.2391 69.2 93.6391 69.1C94.0391 68.9667 94.3724 68.9 94.6391 68.9H101.439L107.439 74.55C106.339 74.7833 105.422 75.2167 104.689 75.85C103.989 76.45 103.422 77.1667 102.989 78C102.589 78.8333 102.306 79.75 102.139 80.75C102.006 81.7167 101.939 82.7 101.939 83.7ZM121.789 85.45C121.789 86.15 121.789 86.8667 121.789 87.6C121.789 88.3333 121.739 89.05 121.639 89.75C121.539 90.45 121.373 91.15 121.139 91.85C120.939 92.5167 120.623 93.15 120.189 93.75C119.723 94.4167 119.139 94.9833 118.439 95.45C117.739 95.8833 116.956 96.1 116.089 96.1C115.623 96.1 115.006 95.9333 114.239 95.6C113.473 95.2667 112.656 94.8333 111.789 94.3C110.923 93.7333 110.039 93.1167 109.139 92.45C108.273 91.75 107.489 91.05 106.789 90.35C106.089 89.6167 105.523 88.9167 105.089 88.25C104.623 87.5833 104.389 87 104.389 86.5C104.389 85.3 104.823 84.3167 105.689 83.55C106.556 82.7833 107.589 82.1667 108.789 81.7C110.023 81.2333 111.289 80.9 112.589 80.7C113.889 80.5 114.989 80.3833 115.889 80.35C115.889 79.55 115.873 78.5833 115.839 77.45C115.806 76.3167 115.773 75.35 115.739 74.55H107.639C106.873 74.55 106.239 74.85 105.739 75.45C105.239 76.0167 104.956 76.6833 104.889 77.45L99.7395 71.55C99.7395 71.15 99.8561 70.7833 100.089 70.45C100.323 70.1167 100.606 69.85 100.939 69.65C101.239 69.4167 101.573 69.2333 101.939 69.1C102.306 68.9667 102.639 68.9 102.939 68.9H118.639L119.939 70.2C120.439 69.3333 121.156 68.9 122.089 68.9H128.039L132.939 74.55H127.439C126.739 74.55 126.106 74.8667 125.539 75.5C125.006 76.1 124.706 76.75 124.639 77.45C124.473 77.4167 124.273 77.3 124.039 77.1C123.839 76.9 123.623 76.6833 123.389 76.45C123.156 76.1833 122.939 75.9333 122.739 75.7C122.539 75.4667 122.389 75.2833 122.289 75.15C121.989 75.6167 121.806 76.15 121.739 76.75C121.673 77.35 121.639 77.9167 121.639 78.45C121.639 78.7167 121.623 79.1 121.589 79.6C121.589 80.1 121.606 80.4833 121.639 80.75C122.439 80.8833 123.356 81.2333 124.389 81.8C125.456 82.3667 126.473 83.05 127.439 83.85C128.406 84.6167 129.273 85.45 130.039 86.35C130.806 87.25 131.323 88.1 131.589 88.9L130.639 88.75C129.906 87.55 128.973 86.6833 127.839 86.15C126.706 85.6167 125.339 85.35 123.739 85.35C123.406 85.35 123.089 85.3667 122.789 85.4C122.489 85.4 122.156 85.4167 121.789 85.45ZM115.339 86.6C114.706 86.6 113.989 86.7667 113.189 87.1C112.423 87.4333 111.739 87.8333 111.139 88.3C110.573 88.7333 110.173 89.2 109.939 89.7C109.739 90.1667 109.889 90.5833 110.389 90.95C110.689 91.15 111.056 91.25 111.489 91.25C111.923 91.25 112.373 91.1333 112.839 90.9C113.306 90.6667 113.723 90.35 114.089 89.95C114.489 89.5167 114.806 89.0167 115.039 88.45C115.273 87.8833 115.373 87.2667 115.339 86.6ZM132.798 83.7C132.798 85.4 132.798 87.1167 132.798 88.85C132.832 90.55 132.848 92.25 132.848 93.95C132.848 95.35 133.098 96.4667 133.598 97.3C134.098 98.1333 134.948 98.9333 136.148 99.7L135.998 100C135.032 99.4333 134.132 98.7833 133.298 98.05C132.465 97.2833 131.665 96.5167 130.898 95.75C129.998 94.85 129.282 94.1333 128.748 93.6C128.248 93.0333 127.865 92.4833 127.598 91.95C127.332 91.3833 127.148 90.7333 127.048 90C126.982 89.2333 126.948 88.2 126.948 86.9V76.9L122.098 71.2C122.098 70.8667 122.232 70.5667 122.498 70.3C122.732 70 123.032 69.75 123.398 69.55C123.732 69.35 124.098 69.2 124.498 69.1C124.898 68.9667 125.232 68.9 125.498 68.9H132.298L138.298 74.55C137.198 74.7833 136.282 75.2167 135.548 75.85C134.848 76.45 134.282 77.1667 133.848 78C133.448 78.8333 133.165 79.75 132.998 80.75C132.865 81.7167 132.798 82.7 132.798 83.7ZM143.199 83.7C143.199 85.4 143.199 87.1167 143.199 88.85C143.232 90.55 143.249 92.25 143.249 93.95C143.249 95.35 143.499 96.4667 143.999 97.3C144.499 98.1333 145.349 98.9333 146.549 99.7L146.399 100C145.432 99.4333 144.532 98.7833 143.699 98.05C142.865 97.2833 142.065 96.5167 141.299 95.75C140.399 94.85 139.682 94.1333 139.149 93.6C138.649 93.0333 138.265 92.4833 137.999 91.95C137.732 91.3833 137.549 90.7333 137.449 90C137.382 89.2333 137.349 88.2 137.349 86.9V76.9L132.499 71.2C132.499 70.8667 132.632 70.5667 132.899 70.3C133.132 70 133.432 69.75 133.799 69.55C134.132 69.35 134.499 69.2 134.899 69.1C135.299 68.9667 135.632 68.9 135.899 68.9H142.699L148.699 74.55C147.599 74.7833 146.682 75.2167 145.949 75.85C145.249 76.45 144.682 77.1667 144.249 78C143.849 78.8333 143.565 79.75 143.399 80.75C143.265 81.7167 143.199 82.7 143.199 83.7ZM161.699 83.55C160.599 83.55 159.499 83.7333 158.399 84.1C158.866 84.5 159.349 84.9167 159.849 85.35C160.349 85.75 160.799 86.2 161.199 86.7C161.599 87.2 161.933 87.75 162.199 88.35C162.466 88.9167 162.599 89.5333 162.599 90.2C162.599 90.9333 162.466 91.7167 162.199 92.55C161.966 93.35 161.616 94.1 161.149 94.8C160.716 95.4667 160.166 96.0167 159.499 96.45C158.833 96.8833 158.066 97.1 157.199 97.1C156.499 97.1 155.699 96.8667 154.799 96.4C153.899 95.9333 153.016 95.3667 152.149 94.7C151.283 94.0333 150.466 93.3333 149.699 92.6C148.933 91.8667 148.333 91.2333 147.899 90.7C147.399 90.1 146.999 89.45 146.699 88.75C146.399 88.0167 146.249 87.2667 146.249 86.5C146.249 85.2333 146.549 84.1 147.149 83.1C147.716 82.1 148.466 81.2667 149.399 80.6C150.366 79.9 151.433 79.3667 152.599 79C153.766 78.6333 154.916 78.45 156.049 78.45C157.416 78.45 158.749 78.7167 160.049 79.25C161.383 79.75 162.649 80.4167 163.849 81.25C165.083 82.05 166.233 82.95 167.299 83.95C168.366 84.95 169.316 85.9333 170.149 86.9C169.983 86.9 169.699 86.7333 169.299 86.4C168.899 86.0333 168.349 85.65 167.649 85.25C166.949 84.8167 166.099 84.4333 165.099 84.1C164.133 83.7333 162.999 83.55 161.699 83.55ZM166.749 74.55H152.099H151.099C150.599 74.55 150.083 74.5833 149.549 74.65C149.049 74.6833 148.599 74.8 148.199 75C147.799 75.2 147.466 75.5 147.199 75.9C146.899 76.2667 146.733 76.7833 146.699 77.45L141.799 71.8C141.799 71.3 141.916 70.8667 142.149 70.5C142.349 70.1333 142.633 69.8333 142.999 69.6C143.333 69.3667 143.716 69.2 144.149 69.1C144.583 68.9667 145.016 68.9 145.449 68.9H161.849L166.749 74.55ZM157.199 84.65C156.466 84.9833 155.683 85.45 154.849 86.05C154.016 86.6167 153.299 87.25 152.699 87.95C152.099 88.65 151.716 89.35 151.549 90.05C151.383 90.75 151.566 91.3667 152.099 91.9C152.466 92.2 152.899 92.35 153.399 92.35C154.033 92.35 154.716 92.1333 155.449 91.7C156.183 91.2667 156.799 90.7 157.299 90C157.799 89.2667 158.083 88.45 158.149 87.55C158.216 86.6167 157.899 85.65 157.199 84.65ZM171.714 83.7C171.714 85.4 171.714 87.1167 171.714 88.85C171.748 90.55 171.764 92.25 171.764 93.95C171.764 95.35 172.014 96.4667 172.514 97.3C173.014 98.1333 173.864 98.9333 175.064 99.7L174.914 100C173.948 99.4333 173.048 98.7833 172.214 98.05C171.381 97.2833 170.581 96.5167 169.814 95.75C168.914 94.85 168.198 94.1333 167.664 93.6C167.164 93.0333 166.781 92.4833 166.514 91.95C166.248 91.3833 166.064 90.7333 165.964 90C165.898 89.2333 165.864 88.2 165.864 86.9V76.9L161.014 71.2C161.014 70.8667 161.148 70.5667 161.414 70.3C161.648 70 161.948 69.75 162.314 69.55C162.648 69.35 163.014 69.2 163.414 69.1C163.814 68.9667 164.148 68.9 164.414 68.9H171.214L177.214 74.55C176.114 74.7833 175.198 75.2167 174.464 75.85C173.764 76.45 173.198 77.1667 172.764 78C172.364 78.8333 172.081 79.75 171.914 80.75C171.781 81.7167 171.714 82.7 171.714 83.7ZM209.965 74.45C209.298 74.6833 208.765 75.0167 208.365 75.45C207.965 75.8833 207.665 76.3833 207.465 76.95C207.265 77.5167 207.132 78.1333 207.065 78.8C206.998 79.4333 206.965 80.0667 206.965 80.7C206.965 81.3333 206.982 81.9167 207.015 82.45C207.048 82.9833 206.998 83.45 206.865 83.85C206.765 84.2167 206.515 84.5 206.115 84.7C205.715 84.9 205.082 85 204.215 85H203.865C204.732 85.4 205.565 85.8167 206.365 86.25C207.198 86.6833 208.098 86.9 209.065 86.9C210.465 86.9 211.515 86.5167 212.215 85.75C212.915 84.95 213.132 83.75 212.865 82.15C213.032 82.1833 213.348 82.4833 213.815 83.05C214.315 83.5833 214.832 84.1833 215.365 84.85C215.898 85.5167 216.382 86.1667 216.815 86.8C217.248 87.4 217.482 87.7667 217.515 87.9C217.615 88.4 217.665 88.9167 217.665 89.45C217.665 90.3167 217.415 90.9667 216.915 91.4C216.415 91.8 215.748 92 214.915 92C213.948 92 212.915 91.75 211.815 91.25C210.748 90.75 209.682 90.15 208.615 89.45C207.548 88.7167 206.532 87.95 205.565 87.15C204.598 86.35 203.765 85.65 203.065 85.05C202.098 85.15 201.048 85.2667 199.915 85.4C198.815 85.5 197.782 85.7333 196.815 86.1C195.882 86.4667 195.098 87.0167 194.465 87.75C193.832 88.45 193.515 89.45 193.515 90.75C193.515 91.65 193.882 92.3167 194.615 92.75C195.382 93.15 196.215 93.35 197.115 93.35C197.882 93.35 198.598 93.2333 199.265 93C199.932 92.7333 200.398 92.3667 200.665 91.9C200.465 91.6333 200.198 91.3167 199.865 90.95C199.565 90.55 199.265 90.15 198.965 89.75C198.698 89.3167 198.465 88.9 198.265 88.5C198.065 88.0667 197.965 87.6667 197.965 87.3C197.965 86.8667 198.165 86.5833 198.565 86.45C198.965 86.2833 199.332 86.2 199.665 86.2C200.265 86.2 201.098 86.5333 202.165 87.2C203.232 87.8333 204.282 88.6 205.315 89.5C206.382 90.3667 207.298 91.2667 208.065 92.2C208.832 93.1 209.215 93.8333 209.215 94.4C209.215 95.0333 208.882 95.6 208.215 96.1C207.548 96.6 206.782 97 205.915 97.3L210.965 102.05L210.215 103.2L204.365 97.75C204.098 97.8167 203.832 97.85 203.565 97.85C203.332 97.85 203.115 97.85 202.915 97.85C201.682 97.85 200.432 97.5833 199.165 97.05C197.932 96.5167 196.732 95.85 195.565 95.05C194.432 94.2167 193.348 93.3333 192.315 92.4C191.282 91.4333 190.365 90.5333 189.565 89.7C188.998 89.1333 188.532 88.5167 188.165 87.85C187.798 87.1833 187.615 86.4167 187.615 85.55C187.615 84.2833 187.948 83.3 188.615 82.6C189.248 81.8667 190.048 81.3167 191.015 80.95C192.015 80.5833 193.065 80.35 194.165 80.25C195.298 80.1167 196.332 80.0167 197.265 79.95C196.865 79.55 196.298 79.05 195.565 78.45C194.865 77.8167 194.165 77.15 193.465 76.45C192.798 75.75 192.215 75.05 191.715 74.35C191.215 73.65 190.965 73 190.965 72.4C190.965 71.7333 191.098 71.1833 191.365 70.75C191.665 70.3167 192.032 69.9667 192.465 69.7C192.932 69.4 193.432 69.2 193.965 69.1C194.532 68.9667 195.098 68.9 195.665 68.9H204.415L209.965 74.45ZM196.865 77.55C196.865 77.8833 196.998 78.3167 197.265 78.85C197.532 79.3833 197.832 79.7333 198.165 79.9C198.532 79.9 198.882 79.8833 199.215 79.85C199.582 79.8167 199.898 79.7333 200.165 79.6C200.432 79.4667 200.648 79.2833 200.815 79.05C201.015 78.7833 201.115 78.45 201.115 78.05C201.115 77.35 201.082 76.7667 201.015 76.3C200.982 75.8 200.998 75.2 201.065 74.5C200.565 74.5 200.065 74.55 199.565 74.65C199.065 74.75 198.615 74.9333 198.215 75.2C197.815 75.4333 197.482 75.75 197.215 76.15C196.982 76.5167 196.865 76.9833 196.865 77.55ZM218.785 83.7C218.785 85.4 218.785 87.1167 218.785 88.85C218.818 90.55 218.835 92.25 218.835 93.95C218.835 95.35 219.085 96.4667 219.585 97.3C220.085 98.1333 220.935 98.9333 222.135 99.7L221.985 100C221.018 99.4333 220.118 98.7833 219.285 98.05C218.451 97.2833 217.651 96.5167 216.885 95.75C215.985 94.85 215.268 94.1333 214.735 93.6C214.235 93.0333 213.851 92.4833 213.585 91.95C213.318 91.3833 213.135 90.7333 213.035 90C212.968 89.2333 212.935 88.2 212.935 86.9V76.9L208.085 71.2C208.085 70.8667 208.218 70.5667 208.485 70.3C208.718 70 209.018 69.75 209.385 69.55C209.718 69.35 210.085 69.2 210.485 69.1C210.885 68.9667 211.218 68.9 211.485 68.9H218.285L224.285 74.55C223.185 74.7833 222.268 75.2167 221.535 75.85C220.835 76.45 220.268 77.1667 219.835 78C219.435 78.8333 219.151 79.75 218.985 80.75C218.851 81.7167 218.785 82.7 218.785 83.7ZM234.585 95.15C234.052 95.15 233.368 95.05 232.535 94.85C231.702 94.6167 231.035 94.4 230.535 94.2C230.135 94.0333 229.468 93.65 228.535 93.05C227.635 92.4167 226.718 91.7167 225.785 90.95C224.885 90.15 224.068 89.3833 223.335 88.65C222.635 87.8833 222.285 87.3 222.285 86.9C222.285 86.7 222.368 86.5167 222.535 86.35C222.702 86.15 222.818 85.9667 222.885 85.8C223.052 85.4333 223.152 84.9667 223.185 84.4C223.218 83.8333 223.235 83.3333 223.235 82.9V74.55C222.935 74.5833 222.618 74.6833 222.285 74.85C221.952 74.9833 221.652 75.1833 221.385 75.45C221.085 75.6833 220.852 75.9833 220.685 76.35C220.518 76.6833 220.452 77.0833 220.485 77.55L215.335 71.7C215.335 71.2 215.452 70.7833 215.685 70.45C215.885 70.0833 216.152 69.7833 216.485 69.55C216.818 69.3167 217.168 69.15 217.535 69.05C217.902 68.95 218.252 68.9 218.585 68.9H229.185L230.635 70.1C230.902 69.5333 231.235 69.2 231.635 69.1C232.068 68.9667 232.402 68.9 232.635 68.9H243.185L248.185 74.55H244.835C243.868 74.95 243.068 75.45 242.435 76.05C241.835 76.6167 241.352 77.2667 240.985 78C240.652 78.7333 240.418 79.5333 240.285 80.4C240.185 81.2667 240.135 82.1833 240.135 83.15C240.135 83.85 240.152 84.55 240.185 85.25C240.218 85.95 240.235 86.6667 240.235 87.4C240.235 88.8667 240.035 90.2333 239.635 91.5C239.235 92.7667 238.335 93.7667 236.935 94.5C236.568 94.6667 236.185 94.8167 235.785 94.95C235.385 95.0833 234.985 95.15 234.585 95.15ZM234.435 75.3C234.035 75.5333 233.652 75.85 233.285 76.25C232.952 76.65 232.785 77.0833 232.785 77.55C232.652 77.4833 232.468 77.35 232.235 77.15C232.002 76.9167 231.752 76.6667 231.485 76.4C231.218 76.1 230.968 75.8333 230.735 75.6C230.502 75.3333 230.335 75.1333 230.235 75C229.868 75.3 229.602 75.65 229.435 76.05C229.268 76.45 229.152 76.8667 229.085 77.3C229.052 77.7 229.052 78.1333 229.085 78.6C229.118 79.0333 229.135 79.4667 229.135 79.9C229.135 80.5 229.118 81.1 229.085 81.7C229.085 82.2667 229.085 82.85 229.085 83.45C229.085 84.1833 229.102 84.9167 229.135 85.65C229.168 86.35 229.185 87.0833 229.185 87.85C229.185 88.2167 229.185 88.5833 229.185 88.95C229.185 89.2833 229.152 89.6333 229.085 90C230.252 89.8667 231.185 89.5333 231.885 89C232.585 88.4333 233.102 87.7333 233.435 86.9C233.802 86.0667 234.035 85.15 234.135 84.15C234.268 83.15 234.335 82.1333 234.335 81.1C234.368 80.0333 234.368 79 234.335 78C234.302 77 234.335 76.1 234.435 75.3ZM250.279 83.7C250.279 85.4 250.279 87.1167 250.279 88.85C250.312 90.55 250.329 92.25 250.329 93.95C250.329 95.35 250.579 96.4667 251.079 97.3C251.579 98.1333 252.429 98.9333 253.629 99.7L253.479 100C252.512 99.4333 251.612 98.7833 250.779 98.05C249.946 97.2833 249.146 96.5167 248.379 95.75C247.479 94.85 246.762 94.1333 246.229 93.6C245.729 93.0333 245.346 92.4833 245.079 91.95C244.812 91.3833 244.629 90.7333 244.529 90C244.462 89.2333 244.429 88.2 244.429 86.9V76.9L239.579 71.2C239.579 70.8667 239.712 70.5667 239.979 70.3C240.212 70 240.512 69.75 240.879 69.55C241.212 69.35 241.579 69.2 241.979 69.1C242.379 68.9667 242.712 68.9 242.979 68.9H249.779L255.779 74.55C254.679 74.7833 253.762 75.2167 253.029 75.85C252.329 76.45 251.762 77.1667 251.329 78C250.929 78.8333 250.646 79.75 250.479 80.75C250.346 81.7167 250.279 82.7 250.279 83.7Z" fill="url(#paint1_linear_993_7455)"/>
<defs>
<linearGradient id="paint0_linear_993_7455" x1="-21.5" y1="5.5" x2="246.5" y2="38.5" gradientUnits="userSpaceOnUse">
<stop stop-color="#FABA08"/>
<stop offset="1" stop-color="#9E0000"/>
</linearGradient>
<linearGradient id="paint1_linear_993_7455" x1="3" y1="54.5" x2="200.5" y2="100" gradientUnits="userSpaceOnUse">
<stop stop-color="#F1A708"/>
<stop offset="1" stop-color="#9E0000"/>
</linearGradient>
</defs>
</svg>
