<svg width="299" height="47" viewBox="0 0 299 47" fill="none" xmlns="http://www.w3.org/2000/svg">
<path d="M0.5 19V14H17.25C17.7167 14 18.2333 14.1333 18.8 14.4C19.3667 14.6333 19.9333 15 20.5 15.5C20.9 15.0333 21.4667 14.6667 22.2 14.4C22.9667 14.1333 23.8167 14 24.75 14H29.1V19H23C24.0333 19.8667 24.8333 20.7167 25.4 21.55C25.9667 22.3833 26.25 23.1167 26.25 23.75C26.25 24.7833 25.85 25.75 25.05 26.65C24.2833 27.5167 23.2667 28.1333 22 28.5L21.05 28.75C20.0167 29.0167 19.5 29.2667 19.5 29.5C19.5 29.8 19.8 30.1167 20.4 30.45C20.9 30.75 21.6833 31.1 22.75 31.5C23.8167 31.8667 24.6667 32.4167 25.3 33.15C25.9333 33.8833 26.25 34.6667 26.25 35.5C26.25 36.7333 25.6667 37.8 24.5 38.7C23.3333 39.5667 21.9167 40 20.25 40C16.6167 40 13.2167 38.8667 10.05 36.6C6.88333 34.3333 4.45 31.3 2.75 27.5C2.41667 26.7667 2.25 26.1833 2.25 25.75C2.25 25.45 2.3 25.1833 2.4 24.95C2.46667 24.6833 2.58333 24.45 2.75 24.25C3.08333 23.85 3.38333 23.55 3.65 23.35C3.88333 23.1167 4.08333 23 4.25 23C4.48333 23 4.7 23.4667 4.9 24.4L5.25 25.75C5.95 28.1833 7.31667 30.1667 9.35 31.7C11.3833 33.2333 13.6833 34 16.25 34C17.0833 34 17.7833 33.8833 18.35 33.65C18.95 33.3833 19.25 33.0833 19.25 32.75C19.25 32.3167 18.4667 31.7 16.9 30.9C15.8 30.3667 14.9167 29.9 14.25 29.5C13.7833 29.2333 13.4167 28.9 13.15 28.5C12.8833 28.1 12.75 27.6833 12.75 27.25C12.75 26.8167 13.0667 26.35 13.7 25.85C14.3333 25.3167 15.1833 24.8667 16.25 24.5C17.75 23.9667 18.9667 23.3 19.9 22.5C20.8 21.7333 21.25 20.9833 21.25 20.25C21.25 20.05 21.2 19.8333 21.1 19.6C21.0333 19.4 20.9167 19.2 20.75 19H0.5ZM28.0879 19V14H54.9879C56.8212 14 58.3212 14.3333 59.4879 15C60.6546 14.3333 61.8212 14 62.9879 14H67.2379V19H62.7379C62.9712 19.3 63.1546 19.75 63.2879 20.35C63.4212 20.95 63.4879 21.6667 63.4879 22.5C63.4879 24.0333 62.8546 25.3333 61.5879 26.4C60.3212 27.4667 58.7879 28 56.9879 28H54.4879C52.2546 28 50.3546 28.4833 48.7879 29.45C47.2212 30.45 46.4379 31.6333 46.4379 33C46.4379 33.5667 46.6879 34.0333 47.1879 34.4C47.6879 34.8 48.2879 35 48.9879 35C51.6212 35 53.6212 34.75 54.9879 34.25C54.7879 33.15 55.0379 32.1667 55.7379 31.3C56.4712 30.4333 57.3879 30 58.4879 30C59.9212 30 61.3546 30.5333 62.7879 31.6C64.2546 32.6667 64.9879 33.7167 64.9879 34.75C64.9879 35.75 64.5712 36.65 63.7379 37.45C62.8712 38.25 61.7879 38.7667 60.4879 39C61.5879 40.3 62.6546 41.3333 63.6879 42.1C64.7212 42.9 65.6546 43.3667 66.4879 43.5C66.1212 44.1667 65.7879 44.65 65.4879 44.95C65.1879 45.3167 64.9379 45.5 64.7379 45.5C64.0379 45.5 63.1212 44.9833 61.9879 43.95C61.0879 43.1167 59.7546 41.6333 57.9879 39.5C55.2879 41.7667 52.4379 43.5 49.4379 44.7C46.4379 45.9 43.4546 46.5 40.4879 46.5C38.5212 46.5 36.5212 45.55 34.4879 43.65C32.4879 41.75 31.4879 39.8667 31.4879 38C31.4879 37.4 31.7379 36.8333 32.2379 36.3C32.7712 35.8 33.4379 35.45 34.2379 35.25C33.0712 34.5833 32.1546 33.7333 31.4879 32.7C30.8212 31.6667 30.4879 30.6 30.4879 29.5C30.4879 27.9667 31.0712 26.6667 32.2379 25.6C33.4046 24.5333 34.8212 24 36.4879 24C37.5212 24 38.4712 24.1333 39.3379 24.4C40.2046 24.6333 40.9212 25 41.4879 25.5C42.1546 24.7 42.9212 24.0833 43.7879 23.65C44.6546 23.2167 45.5546 23 46.4879 23H53.9879C54.6879 23 55.2712 22.8 55.7379 22.4C56.2379 22.0333 56.4879 21.5667 56.4879 21C56.4879 20.4333 56.2379 19.9667 55.7379 19.6C55.2712 19.2 54.6879 19 53.9879 19H28.0879ZM36.2379 41.5C36.2379 41.6333 36.4046 41.75 36.7379 41.85C37.0712 41.95 37.4879 42 37.9879 42C40.0879 42 42.0879 41.6833 43.9879 41.05C45.8879 40.3833 47.5546 39.45 48.9879 38.25C46.5879 37.3833 44.6546 36.1 43.1879 34.4C41.7212 32.7 40.9879 30.9 40.9879 29C40.7212 28.5333 40.3879 28.1667 39.9879 27.9C39.5879 27.6333 39.1712 27.5 38.7379 27.5C37.7712 27.5 36.9546 27.8667 36.2879 28.6C35.5879 29.3333 35.2379 30.2167 35.2379 31.25C35.2379 31.95 35.3546 32.5833 35.5879 33.15C35.7879 33.7167 36.0879 34.1667 36.4879 34.5C38.3212 33.8333 39.9879 33.5 41.4879 33.5L42.3879 34.55C43.7879 36.2167 44.4879 37.2833 44.4879 37.75C44.4879 37.8167 44.3879 37.8833 44.1879 37.95C44.0212 37.9833 43.7879 38 43.4879 38C41.8879 38 40.2879 38.3833 38.6879 39.15C37.0546 39.95 36.2379 40.7333 36.2379 41.5ZM66.2227 14H68.7727C69.406 14 70.0393 14.1333 70.6727 14.4C71.3393 14.6333 71.956 15 72.5227 15.5C73.0893 15 73.8227 14.6333 74.7227 14.4C75.6227 14.1333 76.6393 14 77.7727 14H82.0227V19H79.5227C79.056 19 78.6393 19.2 78.2727 19.6C77.9393 19.9667 77.7727 20.4333 77.7727 21V38C77.7727 38.8667 77.506 39.6667 76.9727 40.4C76.406 41.1333 75.6727 41.6667 74.7727 42L68.5227 37C68.3893 36.9 68.2227 36.8 68.0227 36.7C67.856 36.6333 67.7727 36.5667 67.7727 36.5C67.7727 36.3667 67.8727 36.25 68.0727 36.15C68.2727 36.05 68.506 36 68.7727 36C69.3393 36 69.806 35.75 70.1727 35.25C70.5727 34.7833 70.7727 34.2 70.7727 33.5V21C70.7727 20.4333 70.5727 19.9667 70.1727 19.6C69.806 19.2 69.3393 19 68.7727 19H66.2227V14ZM81.0176 19V14H97.6676C98.6009 14 99.5009 14.15 100.368 14.45C101.234 14.75 102.001 15.1833 102.668 15.75C103.334 15.1833 104.051 14.75 104.818 14.45C105.618 14.15 106.401 14 107.168 14H113.018V19H105.168C105.501 19.2667 105.751 19.75 105.918 20.45C106.084 21.15 106.168 22 106.168 23C106.168 24.3667 105.634 25.55 104.568 26.55C103.501 27.5167 102.201 28 100.668 28H97.1676C94.8342 28 92.8342 28.4833 91.1676 29.45C89.5009 30.45 88.6676 31.6333 88.6676 33C88.6676 33.5667 89.0176 34.0333 89.7176 34.4C90.3842 34.8 91.2009 35 92.1676 35C95.5342 35 98.5176 34.5333 101.118 33.6C103.751 32.7 105.768 31.4167 107.168 29.75L110.668 33C111.034 33.3667 111.284 33.6167 111.418 33.75C111.584 33.95 111.668 34.1167 111.668 34.25C111.668 34.55 111.584 34.85 111.418 35.15C111.251 35.45 111.001 35.7333 110.668 36C109.134 37.3 107.384 38.2833 105.418 38.95C103.418 39.65 101.334 40 99.1676 40C94.7342 40 90.9676 38.9 87.8676 36.7C84.7342 34.5 83.1676 31.85 83.1676 28.75C83.1676 27.15 83.8509 25.8 85.2176 24.7C86.5842 23.5667 88.2342 23 90.1676 23H96.6676C97.3676 23 97.9509 22.8 98.4176 22.4C98.9176 22.0333 99.1676 21.5667 99.1676 21C99.1676 20.4333 98.9176 19.9667 98.4176 19.6C97.9509 19.2 97.3676 19 96.6676 19H81.0176ZM111.975 19V14H130.275C130.675 14 131.125 14.1333 131.625 14.4C132.158 14.6333 132.708 15 133.275 15.5C133.675 15.0333 134.275 14.6667 135.075 14.4C135.841 14.1333 136.741 14 137.775 14H143.025V19H140.775C140.208 19 139.741 19.2 139.375 19.6C138.975 19.9667 138.775 20.4333 138.775 21V39C138.775 39.5667 138.508 40.1333 137.975 40.7C137.408 41.2333 136.675 41.6667 135.775 42L130.525 38C130.125 37.7 129.825 37.4333 129.625 37.2C129.391 36.9333 129.275 36.7 129.275 36.5C129.275 36.3667 129.375 36.25 129.575 36.15C129.775 36.05 130.008 36 130.275 36C130.675 36 131.025 35.85 131.325 35.55C131.625 35.25 131.775 34.9 131.775 34.5V29C130.875 29.3333 130.041 29.5 129.275 29.5C127.475 29.5 126.225 29.3333 125.525 29C126.225 29.4667 126.775 30.0167 127.175 30.65C127.575 31.25 127.775 31.8667 127.775 32.5C127.775 33.3333 127.341 34.0333 126.475 34.6C125.575 35.2 124.508 35.5 123.275 35.5C121.175 35.5 119.075 34.55 116.975 32.65C114.841 30.75 113.775 28.8667 113.775 27C113.775 26.0333 114.208 25.2167 115.075 24.55C115.975 23.85 117.041 23.5 118.275 23.5C119.208 23.5 120.625 23.5833 122.525 23.75C124.425 23.9167 125.841 24 126.775 24C129.208 24 130.875 23.8333 131.775 23.5V19H111.975ZM156.994 19V14H167.444C167.911 14 168.427 14.1333 168.994 14.4C169.561 14.6333 170.127 15 170.694 15.5C171.261 15 171.911 14.6333 172.644 14.4C173.377 14.1333 174.144 14 174.944 14H182.194C182.427 14 182.761 14.1333 183.194 14.4C183.594 14.6333 184.094 15 184.694 15.5C185.094 15.0333 185.661 14.6667 186.394 14.4C187.161 14.1333 188.011 14 188.944 14H194.194V19H191.944C191.377 19 190.911 19.2 190.544 19.6C190.144 19.9667 189.944 20.4333 189.944 21V39C189.944 39.5667 189.677 40.1333 189.144 40.7C188.577 41.2333 187.844 41.6667 186.944 42L181.694 38C181.294 37.7 180.994 37.4333 180.794 37.2C180.561 36.9333 180.444 36.7 180.444 36.5C180.444 36.3667 180.544 36.25 180.744 36.15C180.944 36.05 181.177 36 181.444 36C181.844 36 182.194 35.85 182.494 35.55C182.794 35.25 182.944 34.9 182.944 34.5V31C181.511 31 180.127 30.7 178.794 30.1C177.494 29.4667 176.377 28.6 175.444 27.5C175.444 28.9333 175.027 30.1667 174.194 31.2C173.361 32.2333 172.361 32.75 171.194 32.75C170.261 32.75 169.361 32.5333 168.494 32.1C167.627 31.6667 166.861 31.05 166.194 30.25C167.661 32.8167 169.194 34.8333 170.794 36.3C172.427 37.7667 173.894 38.5 175.194 38.5H176.444C177.377 39.2667 177.994 39.8167 178.294 40.15C178.727 40.5833 178.944 40.95 178.944 41.25C178.944 41.45 178.827 41.6333 178.594 41.8C178.327 41.9333 178.027 42 177.694 42C174.761 42 171.827 41.0333 168.894 39.1C165.927 37.1333 163.277 34.4333 160.944 31C160.177 29.8667 159.627 28.95 159.294 28.25C158.894 27.4833 158.694 26.9 158.694 26.5C158.694 25.6667 159.011 24.9667 159.644 24.4C160.277 23.8 161.044 23.5 161.944 23.5C162.777 23.5 163.727 23.85 164.794 24.55C165.827 25.25 166.877 26.2333 167.944 27.5V22C167.944 21.3667 168.194 20.3667 168.694 19H156.994ZM174.944 25.25C176.311 25.75 177.311 26 177.944 26C178.877 26 179.777 25.85 180.644 25.55C181.511 25.25 182.277 24.8167 182.944 24.25V19H177.944C177.044 19.3333 176.311 19.9167 175.744 20.75C175.211 21.55 174.944 22.4667 174.944 23.5V25.25ZM193.176 19V14H215.376C215.842 14 216.359 14.1333 216.926 14.4C217.492 14.6333 218.059 15 218.626 15.5C219.026 15.0333 219.592 14.6667 220.326 14.4C221.092 14.1333 221.942 14 222.876 14H228.126V19H225.876C225.309 19 224.842 19.2 224.476 19.6C224.076 19.9667 223.876 20.4333 223.876 21V39C223.876 39.5667 223.609 40.1333 223.076 40.7C222.509 41.2333 221.776 41.6667 220.876 42L215.626 38C215.226 37.7 214.926 37.4333 214.726 37.2C214.492 36.9333 214.376 36.7 214.376 36.5C214.376 36.3667 214.476 36.25 214.676 36.15C214.876 36.05 215.109 36 215.376 36C215.776 36 216.126 35.85 216.426 35.55C216.726 35.25 216.876 34.9 216.876 34.5V32C215.976 32.3333 214.976 32.5 213.876 32.5C212.042 32.5 210.209 32.1667 208.376 31.5C208.376 32.8667 207.842 34.05 206.776 35.05C205.709 36.0167 204.409 36.5 202.876 36.5C201.109 36.5 199.342 35.6667 197.576 34C195.776 32.3 194.876 30.6333 194.876 29C194.876 28.1667 195.309 27.4667 196.176 26.9C197.076 26.3 198.142 26 199.376 26H201.876V19H193.176ZM208.876 19V26.5C209.609 26.8333 210.442 27 211.376 27C212.576 27 213.659 26.8333 214.626 26.5C215.592 26.1333 216.342 25.6333 216.876 25V19H208.876ZM227.111 14H229.661C230.295 14 230.928 14.1333 231.561 14.4C232.228 14.6333 232.845 15 233.411 15.5C233.978 15 234.711 14.6333 235.611 14.4C236.511 14.1333 237.528 14 238.661 14H242.911V19H240.411C239.945 19 239.528 19.2 239.161 19.6C238.828 19.9667 238.661 20.4333 238.661 21V38C238.661 38.8667 238.395 39.6667 237.861 40.4C237.295 41.1333 236.561 41.6667 235.661 42L229.411 37C229.278 36.9 229.111 36.8 228.911 36.7C228.745 36.6333 228.661 36.5667 228.661 36.5C228.661 36.3667 228.761 36.25 228.961 36.15C229.161 36.05 229.395 36 229.661 36C230.228 36 230.695 35.75 231.061 35.25C231.461 34.7833 231.661 34.2 231.661 33.5V21C231.661 20.4333 231.461 19.9667 231.061 19.6C230.695 19.2 230.228 19 229.661 19H227.111V14ZM241.906 19V14H252.306C252.773 14 253.29 14.1333 253.856 14.4C254.423 14.6333 254.99 15 255.556 15.5C256.123 15 256.773 14.6333 257.506 14.4C258.24 14.1333 259.006 14 259.806 14H263.756V19H262.806C261.973 19 261.273 19.4167 260.706 20.25C260.106 21.0833 259.806 22.0833 259.806 23.25C259.806 24.0167 259.89 25.1833 260.056 26.75C260.223 28.3167 260.306 29.4833 260.306 30.25C260.306 30.95 259.956 31.5333 259.256 32C258.59 32.5 257.773 32.75 256.806 32.75C255.573 32.75 254.423 32.5333 253.356 32.1C252.323 31.6667 251.473 31.05 250.806 30.25C252.04 32.7833 253.49 34.7833 255.156 36.25C256.823 37.75 258.456 38.5 260.056 38.5H261.306C261.773 39.0333 262.34 39.6 263.006 40.2C263.54 40.6667 263.806 41.0167 263.806 41.25C263.806 41.45 263.69 41.6333 263.456 41.8C263.19 41.9333 262.89 42 262.556 42C260.223 42 257.673 41.1333 254.906 39.4C252.173 37.6333 249.473 35.1667 246.806 32C245.74 30.7333 244.94 29.6333 244.406 28.7C243.84 27.7667 243.556 27.0333 243.556 26.5C243.556 25.6667 243.873 24.9667 244.506 24.4C245.14 23.8 245.906 23.5 246.806 23.5C247.64 23.5 248.59 23.85 249.656 24.55C250.69 25.25 251.74 26.2333 252.806 27.5V22C252.806 21.3667 253.056 20.3667 253.556 19H241.906ZM251.006 5.75L255.856 0.749998L260.756 5.75L255.856 10.5L251.006 5.75ZM264.15 15.75C264.15 14.3833 264.633 13.2 265.6 12.2C266.6 11.2333 267.783 10.75 269.15 10.75C270.817 10.75 272.567 11.0833 274.4 11.75C275.833 12.2833 276.983 12.9167 277.85 13.65C278.717 14.3833 279.15 15.0833 279.15 15.75V26.5C280.05 26.8333 280.883 27 281.65 27C282.65 27 283.633 26.8333 284.6 26.5C285.533 26.1333 286.383 25.6333 287.15 25V19C286.75 19 286.3 19.15 285.8 19.45C285.333 19.75 284.867 20.1833 284.4 20.75C284.3 20.8833 284.067 20.8167 283.7 20.55C283.4 20.3167 283.05 19.9667 282.65 19.5C282.017 18.7333 281.517 18.05 281.15 17.45C280.817 16.85 280.65 16.3667 280.65 16C280.65 15.5667 281.15 15.1167 282.15 14.65C283.15 14.2167 284.15 14 285.15 14C286.017 14 286.833 14.1333 287.6 14.4C288.4 14.6333 289.083 15 289.65 15.5C290.217 15 290.85 14.6333 291.55 14.4C292.25 14.1333 292.95 14 293.65 14H298.4V19H295.15C294.883 19 294.65 19.1 294.45 19.3C294.25 19.5 294.15 19.7333 294.15 20V38C294.15 38.8667 293.883 39.6667 293.35 40.4C292.783 41.1333 292.05 41.6667 291.15 42L285.65 37.75C285.383 37.5167 285.067 37.2833 284.7 37.05C284.333 36.8167 284.15 36.6333 284.15 36.5C284.15 36.3667 284.25 36.25 284.45 36.15C284.65 36.05 284.883 36 285.15 36C285.717 36 286.183 35.75 286.55 35.25C286.95 34.7833 287.15 34.2 287.15 33.5V31.75C286.283 32.25 285.117 32.5 283.65 32.5C281.483 32.5 279.817 32.1667 278.65 31.5C278.65 32.8667 278.167 34.05 277.2 35.05C276.2 36.0167 275.017 36.5 273.65 36.5C271.683 36.5 269.683 35.6667 267.65 34C265.65 32.3 264.65 30.6333 264.65 29C264.65 28.1667 265.133 27.4667 266.1 26.9C267.1 26.3 268.283 26 269.65 26H272.15V21C269.95 21 268.067 20.4833 266.5 19.45C264.933 18.4167 264.15 17.1833 264.15 15.75ZM269.65 15.75C269.65 16.7167 269.9 17.5333 270.4 18.2C270.867 18.9 271.45 19.25 272.15 19.25V14.75C272.15 14.35 272.05 14 271.85 13.7C271.65 13.4 271.417 13.25 271.15 13.25C270.75 13.25 270.4 13.5 270.1 14C269.8 14.4667 269.65 15.05 269.65 15.75Z" fill="url(#paint0_linear_956_7454)"/>
<defs>
<linearGradient id="paint0_linear_956_7454" x1="1" y1="29.5" x2="298" y2="29.5" gradientUnits="userSpaceOnUse">
<stop stop-color="#FF1010"/>
<stop offset="1" stop-color="#710B0B"/>
</linearGradient>
</defs>
</svg>
