<svg width="246" height="50" viewBox="0 0 246 50" fill="none" xmlns="http://www.w3.org/2000/svg">
<path d="M10.728 12.256C10.6 12.352 10.424 12.44 10.2 12.52C9.976 12.6 9.728 12.64 9.456 12.64C9.12 12.64 8.832 12.592 8.592 12.496C8.352 12.4 8.184 12.24 8.088 12.016C7.336 10.32 6.688 8.808 6.144 7.48C5.6 6.136 5.168 5.016 4.848 4.12H4.728C4.68 5.256 4.632 6.312 4.584 7.288C4.536 8.264 4.488 9.208 4.44 10.12C4.392 11.032 4.344 11.968 4.296 12.928C4.248 13.872 4.192 14.888 4.128 15.976C4 16.008 3.832 16.04 3.624 16.072C3.432 16.12 3.232 16.144 3.024 16.144C2.576 16.144 2.248 16.064 2.04 15.904C1.832 15.728 1.728 15.472 1.728 15.136C1.728 14.896 1.744 14.432 1.776 13.744C1.824 13.04 1.872 12.2 1.92 11.224C1.984 10.248 2.048 9.216 2.112 8.128C2.192 7.024 2.272 5.936 2.352 4.864C2.448 3.792 2.528 2.816 2.592 1.936C2.72 1.808 2.928 1.68 3.216 1.552C3.504 1.408 3.864 1.336 4.296 1.336C4.776 1.336 5.168 1.424 5.472 1.6C5.792 1.776 6.032 2.048 6.192 2.416C6.56 3.168 6.928 3.992 7.296 4.888C7.664 5.768 8.024 6.664 8.376 7.576C8.728 8.472 9.064 9.304 9.384 10.072H9.504C10.128 8.472 10.744 6.928 11.352 5.44C11.976 3.936 12.504 2.664 12.936 1.624C13.112 1.544 13.328 1.48 13.584 1.432C13.856 1.368 14.12 1.336 14.376 1.336C14.84 1.336 15.216 1.416 15.504 1.576C15.792 1.72 15.968 1.944 16.032 2.248C16.096 2.536 16.168 3.008 16.248 3.664C16.328 4.32 16.408 5.088 16.488 5.968C16.568 6.848 16.64 7.768 16.704 8.728C16.784 9.688 16.856 10.632 16.92 11.56C17 12.472 17.064 13.304 17.112 14.056C17.16 14.792 17.192 15.384 17.208 15.832C17.032 15.944 16.848 16.024 16.656 16.072C16.464 16.12 16.232 16.144 15.96 16.144C15.64 16.144 15.352 16.08 15.096 15.952C14.856 15.808 14.72 15.536 14.688 15.136C14.608 13.68 14.528 12.264 14.448 10.888C14.368 9.496 14.304 8.224 14.256 7.072C14.208 5.904 14.16 4.944 14.112 4.192H14.016C13.712 5.008 13.288 6.056 12.744 7.336C12.216 8.6 11.544 10.24 10.728 12.256ZM27.0658 15.736C26.9538 15.832 26.7538 15.92 26.4658 16C26.1778 16.096 25.8658 16.144 25.5298 16.144C25.1298 16.144 24.7778 16.088 24.4738 15.976C24.1858 15.864 23.9858 15.696 23.8738 15.472C23.6338 14.992 23.3458 14.352 23.0098 13.552C22.6738 12.736 22.3138 11.824 21.9298 10.816C21.5458 9.808 21.1618 8.776 20.7778 7.72C20.4098 6.664 20.0658 5.632 19.7458 4.624C19.4258 3.616 19.1538 2.712 18.9298 1.912C19.0578 1.752 19.2418 1.608 19.4818 1.48C19.7378 1.352 20.0178 1.288 20.3218 1.288C20.6898 1.288 20.9698 1.376 21.1618 1.552C21.3698 1.728 21.5378 2 21.6658 2.368C22.2898 4.32 22.9058 6.216 23.5138 8.056C24.1218 9.896 24.7858 11.76 25.5058 13.648H25.6018C26.0178 12.48 26.4498 11.224 26.8978 9.88C27.3618 8.536 27.8098 7.152 28.2418 5.728C28.6738 4.304 29.0578 2.912 29.3938 1.552C29.5538 1.456 29.7218 1.392 29.8978 1.36C30.0898 1.312 30.2978 1.288 30.5218 1.288C30.8898 1.288 31.1858 1.376 31.4098 1.552C31.6498 1.728 31.7698 2 31.7698 2.368C31.7698 2.624 31.6818 3.088 31.5058 3.76C31.3458 4.416 31.1138 5.192 30.8098 6.088C30.5218 6.968 30.2018 7.896 29.8498 8.872C29.5138 9.832 29.1618 10.776 28.7938 11.704C28.4418 12.616 28.1138 13.424 27.8098 14.128C27.5218 14.832 27.2738 15.368 27.0658 15.736ZM43.0952 12.256C42.9672 12.352 42.7912 12.44 42.5672 12.52C42.3432 12.6 42.0952 12.64 41.8232 12.64C41.4872 12.64 41.1992 12.592 40.9592 12.496C40.7192 12.4 40.5512 12.24 40.4552 12.016C39.7032 10.32 39.0552 8.808 38.5112 7.48C37.9672 6.136 37.5352 5.016 37.2152 4.12H37.0952C37.0472 5.256 36.9992 6.312 36.9512 7.288C36.9032 8.264 36.8552 9.208 36.8072 10.12C36.7592 11.032 36.7112 11.968 36.6632 12.928C36.6152 13.872 36.5592 14.888 36.4952 15.976C36.3672 16.008 36.1992 16.04 35.9912 16.072C35.7992 16.12 35.5992 16.144 35.3912 16.144C34.9432 16.144 34.6152 16.064 34.4072 15.904C34.1992 15.728 34.0952 15.472 34.0952 15.136C34.0952 14.896 34.1112 14.432 34.1432 13.744C34.1912 13.04 34.2392 12.2 34.2872 11.224C34.3512 10.248 34.4152 9.216 34.4792 8.128C34.5592 7.024 34.6392 5.936 34.7192 4.864C34.8152 3.792 34.8952 2.816 34.9592 1.936C35.0872 1.808 35.2952 1.68 35.5832 1.552C35.8712 1.408 36.2312 1.336 36.6632 1.336C37.1432 1.336 37.5352 1.424 37.8392 1.6C38.1592 1.776 38.3992 2.048 38.5592 2.416C38.9272 3.168 39.2952 3.992 39.6632 4.888C40.0312 5.768 40.3912 6.664 40.7432 7.576C41.0952 8.472 41.4312 9.304 41.7512 10.072H41.8712C42.4952 8.472 43.1112 6.928 43.7192 5.44C44.3432 3.936 44.8712 2.664 45.3032 1.624C45.4792 1.544 45.6952 1.48 45.9512 1.432C46.2232 1.368 46.4872 1.336 46.7432 1.336C47.2072 1.336 47.5832 1.416 47.8712 1.576C48.1592 1.72 48.3352 1.944 48.3992 2.248C48.4632 2.536 48.5352 3.008 48.6152 3.664C48.6952 4.32 48.7752 5.088 48.8552 5.968C48.9352 6.848 49.0072 7.768 49.0712 8.728C49.1512 9.688 49.2232 10.632 49.2872 11.56C49.3672 12.472 49.4312 13.304 49.4792 14.056C49.5272 14.792 49.5592 15.384 49.5752 15.832C49.3992 15.944 49.2152 16.024 49.0232 16.072C48.8312 16.12 48.5992 16.144 48.3272 16.144C48.0072 16.144 47.7192 16.08 47.4632 15.952C47.2232 15.808 47.0872 15.536 47.0552 15.136C46.9752 13.68 46.8952 12.264 46.8152 10.888C46.7352 9.496 46.6712 8.224 46.6232 7.072C46.5752 5.904 46.5272 4.944 46.4792 4.192H46.3832C46.0792 5.008 45.6552 6.056 45.1112 7.336C44.5832 8.6 43.9112 10.24 43.0952 12.256ZM60.9122 9.064H63.4322V12.256C63.4322 13.216 63.2482 13.992 62.8802 14.584C62.5122 15.176 62.0162 15.608 61.3922 15.88C60.7842 16.152 60.0882 16.288 59.3042 16.288C58.4242 16.288 57.7442 16.168 57.2642 15.928C56.8002 15.688 56.5682 15.336 56.5682 14.872C56.5682 14.616 56.6162 14.4 56.7122 14.224C56.8082 14.048 56.9042 13.912 57.0002 13.816C57.2562 13.912 57.5362 14 57.8402 14.08C58.1602 14.16 58.4802 14.2 58.8002 14.2C59.5042 14.2 60.0322 14.032 60.3842 13.696C60.7362 13.344 60.9122 12.792 60.9122 12.04V9.064ZM63.4322 9.952H60.9122V1.432C61.0242 1.4 61.1842 1.368 61.3922 1.336C61.6162 1.288 61.8402 1.264 62.0642 1.264C62.5282 1.264 62.8722 1.352 63.0962 1.528C63.3202 1.688 63.4322 1.984 63.4322 2.416V9.952ZM68.0786 11.752L67.9586 9.952L74.7746 8.992C74.7266 8.24 74.4626 7.616 73.9826 7.12C73.5026 6.608 72.8226 6.352 71.9426 6.352C71.0466 6.352 70.3026 6.672 69.7106 7.312C69.1186 7.952 68.8146 8.864 68.7986 10.048L68.8466 10.96C68.9746 12.096 69.3826 12.952 70.0706 13.528C70.7586 14.088 71.6626 14.368 72.7826 14.368C73.4546 14.368 74.0706 14.264 74.6306 14.056C75.1906 13.848 75.6386 13.624 75.9746 13.384C76.1666 13.496 76.3186 13.648 76.4306 13.84C76.5586 14.032 76.6226 14.24 76.6226 14.464C76.6226 14.816 76.4466 15.136 76.0946 15.424C75.7426 15.712 75.2626 15.936 74.6546 16.096C74.0626 16.256 73.3906 16.336 72.6386 16.336C71.4066 16.336 70.3266 16.112 69.3986 15.664C68.4706 15.2 67.7506 14.52 67.2386 13.624C66.7266 12.712 66.4706 11.6 66.4706 10.288C66.4706 9.344 66.6066 8.512 66.8786 7.792C67.1666 7.056 67.5586 6.44 68.0546 5.944C68.5506 5.448 69.1346 5.072 69.8066 4.816C70.4786 4.56 71.1986 4.432 71.9666 4.432C72.9746 4.432 73.8626 4.648 74.6306 5.08C75.4146 5.496 76.0226 6.08 76.4546 6.832C76.8866 7.584 77.1026 8.44 77.1026 9.4C77.1026 9.8 77.0066 10.096 76.8146 10.288C76.6226 10.464 76.3506 10.576 75.9986 10.624L68.0786 11.752ZM86.9063 8.176C86.6503 9.104 86.3703 10.048 86.0663 11.008C85.7623 11.968 85.4663 12.864 85.1783 13.696C84.9063 14.528 84.6583 15.232 84.4343 15.808C84.2903 15.92 84.1063 16.008 83.8823 16.072C83.6743 16.136 83.4023 16.168 83.0663 16.168C82.7143 16.168 82.3943 16.112 82.1063 16C81.8183 15.888 81.6263 15.72 81.5303 15.496C81.3703 15.176 81.1943 14.712 81.0023 14.104C80.8103 13.496 80.6103 12.808 80.4023 12.04C80.1943 11.256 79.9783 10.448 79.7543 9.616C79.5463 8.784 79.3543 7.976 79.1783 7.192C79.0183 6.408 78.8743 5.712 78.7463 5.104C78.8903 4.96 79.0663 4.832 79.2743 4.72C79.4983 4.608 79.7623 4.552 80.0663 4.552C80.4343 4.552 80.7143 4.648 80.9062 4.84C81.1143 5.016 81.2503 5.32 81.3143 5.752C81.4743 6.552 81.6343 7.376 81.7943 8.224C81.9543 9.056 82.1143 9.848 82.2743 10.6C82.4503 11.336 82.6023 11.992 82.7303 12.568C82.8743 13.128 82.9863 13.544 83.0663 13.816H83.1623C83.2743 13.448 83.4503 12.848 83.6903 12.016C83.9463 11.168 84.2423 10.208 84.5783 9.136C84.9303 8.064 85.2743 6.976 85.6103 5.872C85.7863 5.76 85.9783 5.68 86.1863 5.632C86.4103 5.584 86.6503 5.56 86.9063 5.56C87.2743 5.56 87.5783 5.624 87.8183 5.752C88.0583 5.864 88.2183 6.04 88.2983 6.28C88.6503 7.352 88.9783 8.392 89.2823 9.4C89.5863 10.408 89.8583 11.304 90.0983 12.088C90.3383 12.872 90.5063 13.456 90.6023 13.84H90.7223C91.0423 12.464 91.3863 11 91.7543 9.448C92.1223 7.88 92.4263 6.344 92.6663 4.84C92.9703 4.648 93.3303 4.552 93.7463 4.552C94.0823 4.552 94.3543 4.632 94.5623 4.792C94.7863 4.936 94.8983 5.184 94.8983 5.536C94.8983 5.728 94.8423 6.08 94.7303 6.592C94.6343 7.088 94.5063 7.672 94.3463 8.344C94.1863 9 94.0023 9.704 93.7943 10.456C93.5863 11.192 93.3783 11.912 93.1703 12.616C92.9623 13.304 92.7623 13.928 92.5703 14.488C92.3943 15.048 92.2343 15.488 92.0903 15.808C91.9783 15.904 91.7943 15.984 91.5383 16.048C91.2823 16.128 91.0023 16.168 90.6983 16.168C89.8663 16.168 89.3783 15.968 89.2343 15.568C89.0263 15.04 88.7863 14.376 88.5143 13.576C88.2583 12.776 87.9863 11.912 87.6983 10.984C87.4263 10.04 87.1623 9.104 86.9063 8.176ZM98.313 11.752L98.193 9.952L105.009 8.992C104.961 8.24 104.697 7.616 104.217 7.12C103.737 6.608 103.057 6.352 102.177 6.352C101.281 6.352 100.537 6.672 99.945 7.312C99.353 7.952 99.049 8.864 99.033 10.048L99.081 10.96C99.209 12.096 99.617 12.952 100.305 13.528C100.993 14.088 101.897 14.368 103.017 14.368C103.689 14.368 104.305 14.264 104.865 14.056C105.425 13.848 105.873 13.624 106.209 13.384C106.401 13.496 106.553 13.648 106.665 13.84C106.793 14.032 106.857 14.24 106.857 14.464C106.857 14.816 106.681 15.136 106.329 15.424C105.977 15.712 105.497 15.936 104.889 16.096C104.297 16.256 103.625 16.336 102.873 16.336C101.641 16.336 100.561 16.112 99.633 15.664C98.705 15.2 97.985 14.52 97.473 13.624C96.961 12.712 96.705 11.6 96.705 10.288C96.705 9.344 96.841 8.512 97.113 7.792C97.401 7.056 97.793 6.44 98.289 5.944C98.785 5.448 99.369 5.072 100.041 4.816C100.713 4.56 101.433 4.432 102.201 4.432C103.209 4.432 104.097 4.648 104.865 5.08C105.649 5.496 106.257 6.08 106.689 6.832C107.121 7.584 107.337 8.44 107.337 9.4C107.337 9.8 107.241 10.096 107.049 10.288C106.857 10.464 106.585 10.576 106.233 10.624L98.313 11.752ZM110.129 9.664L112.577 9.88V15.952C112.481 15.984 112.329 16.024 112.121 16.072C111.913 16.12 111.689 16.144 111.449 16.144C111.001 16.144 110.665 16.056 110.441 15.88C110.233 15.704 110.129 15.416 110.129 15.016V9.664ZM112.577 11.104L110.129 10.888V0.423999C110.225 0.391999 110.377 0.351999 110.585 0.303999C110.793 0.256 111.009 0.232 111.233 0.232C111.697 0.232 112.033 0.32 112.241 0.495999C112.465 0.655999 112.577 0.943999 112.577 1.36V11.104ZM116.317 9.664L118.765 9.88V15.952C118.669 15.984 118.517 16.024 118.309 16.072C118.101 16.12 117.877 16.144 117.637 16.144C117.189 16.144 116.853 16.056 116.629 15.88C116.421 15.704 116.317 15.416 116.317 15.016V9.664ZM118.765 11.104L116.317 10.888V0.423999C116.413 0.391999 116.565 0.351999 116.773 0.303999C116.981 0.256 117.197 0.232 117.421 0.232C117.885 0.232 118.221 0.32 118.429 0.495999C118.653 0.655999 118.765 0.943999 118.765 1.36V11.104ZM123.297 11.752L123.177 9.952L129.993 8.992C129.945 8.24 129.681 7.616 129.201 7.12C128.721 6.608 128.041 6.352 127.161 6.352C126.265 6.352 125.521 6.672 124.929 7.312C124.337 7.952 124.033 8.864 124.017 10.048L124.065 10.96C124.193 12.096 124.601 12.952 125.289 13.528C125.977 14.088 126.881 14.368 128.001 14.368C128.673 14.368 129.289 14.264 129.849 14.056C130.409 13.848 130.857 13.624 131.193 13.384C131.385 13.496 131.537 13.648 131.649 13.84C131.777 14.032 131.841 14.24 131.841 14.464C131.841 14.816 131.665 15.136 131.313 15.424C130.961 15.712 130.481 15.936 129.873 16.096C129.281 16.256 128.609 16.336 127.857 16.336C126.625 16.336 125.545 16.112 124.617 15.664C123.689 15.2 122.969 14.52 122.457 13.624C121.945 12.712 121.689 11.6 121.689 10.288C121.689 9.344 121.825 8.512 122.097 7.792C122.385 7.056 122.777 6.44 123.273 5.944C123.769 5.448 124.353 5.072 125.025 4.816C125.697 4.56 126.417 4.432 127.185 4.432C128.193 4.432 129.081 4.648 129.849 5.08C130.633 5.496 131.241 6.08 131.673 6.832C132.105 7.584 132.321 8.44 132.321 9.4C132.321 9.8 132.225 10.096 132.033 10.288C131.841 10.464 131.569 10.576 131.217 10.624L123.297 11.752ZM137.394 7.168V10.696H134.922V7.12C134.922 6.736 135.002 6.424 135.162 6.184C135.338 5.928 135.594 5.688 135.93 5.464C136.378 5.176 136.962 4.936 137.682 4.744C138.418 4.552 139.218 4.456 140.082 4.456C141.474 4.456 142.17 4.848 142.17 5.632C142.17 5.824 142.138 6 142.074 6.16C142.026 6.32 141.962 6.464 141.882 6.592C141.722 6.56 141.514 6.528 141.258 6.496C141.018 6.464 140.77 6.448 140.514 6.448C139.858 6.448 139.258 6.52 138.714 6.664C138.186 6.792 137.746 6.96 137.394 7.168ZM134.922 9.664L137.394 9.88V15.952C137.282 15.984 137.122 16.024 136.914 16.072C136.722 16.12 136.506 16.144 136.266 16.144C135.818 16.144 135.482 16.056 135.258 15.88C135.034 15.704 134.922 15.416 134.922 15.016V9.664ZM152.578 12.904C152.578 13.976 152.178 14.816 151.378 15.424C150.594 16.032 149.45 16.336 147.946 16.336C146.698 16.336 145.674 16.144 144.874 15.76C144.074 15.376 143.674 14.912 143.674 14.368C143.674 14.128 143.73 13.912 143.842 13.72C143.97 13.512 144.138 13.344 144.346 13.216C144.794 13.504 145.306 13.768 145.882 14.008C146.474 14.248 147.138 14.368 147.874 14.368C149.378 14.368 150.13 13.888 150.13 12.928C150.13 12.512 150.002 12.184 149.746 11.944C149.49 11.688 149.106 11.496 148.594 11.368L146.914 10.936C145.842 10.696 145.05 10.312 144.538 9.784C144.026 9.256 143.77 8.576 143.77 7.744C143.77 6.816 144.146 6.032 144.898 5.392C145.666 4.752 146.778 4.432 148.234 4.432C148.986 4.432 149.65 4.512 150.226 4.672C150.818 4.816 151.274 5.024 151.594 5.296C151.93 5.568 152.098 5.872 152.098 6.208C152.098 6.448 152.042 6.664 151.93 6.856C151.818 7.048 151.674 7.192 151.498 7.288C151.306 7.176 151.05 7.048 150.73 6.904C150.41 6.76 150.042 6.64 149.626 6.544C149.226 6.448 148.81 6.4 148.378 6.4C147.706 6.4 147.17 6.52 146.77 6.76C146.386 6.984 146.194 7.312 146.194 7.744C146.194 8.048 146.306 8.32 146.53 8.56C146.754 8.784 147.13 8.952 147.658 9.064L149.074 9.424C150.274 9.696 151.154 10.12 151.714 10.696C152.29 11.256 152.578 11.992 152.578 12.904ZM159.231 5.824H166.887C167.159 5.824 167.359 5.912 167.487 6.088C167.615 6.248 167.679 6.48 167.679 6.784C167.679 6.976 167.655 7.152 167.607 7.312C167.575 7.472 167.527 7.616 167.463 7.744H164.487L163.815 7.696H159.807C159.567 7.696 159.375 7.608 159.231 7.432C159.103 7.256 159.039 7.016 159.039 6.712C159.039 6.568 159.055 6.416 159.087 6.256C159.119 6.08 159.167 5.936 159.231 5.824ZM163.143 7.096C163.255 7.096 163.399 7.128 163.575 7.192C163.751 7.256 163.927 7.336 164.103 7.432C164.279 7.512 164.431 7.584 164.559 7.648C164.687 7.712 164.751 7.744 164.751 7.744C164.319 7.888 163.959 8.152 163.671 8.536C163.399 8.904 163.263 9.344 163.263 9.856C163.263 10.496 163.519 11.016 164.031 11.416C164.559 11.8 165.303 11.992 166.263 11.992C166.999 11.992 167.671 11.848 168.279 11.56C168.887 11.256 169.399 10.856 169.815 10.36L170.943 11.872C170.383 12.512 169.663 13.016 168.783 13.384C167.919 13.736 166.943 13.912 165.855 13.912C164.959 13.912 164.135 13.76 163.383 13.456C162.647 13.152 162.055 12.712 161.607 12.136C161.159 11.56 160.935 10.88 160.935 10.096C160.935 9.488 161.039 8.984 161.247 8.584C161.471 8.168 161.751 7.84 162.087 7.6C162.423 7.36 162.775 7.192 163.143 7.096ZM169.599 3.04H158.415C158.159 3.04 157.967 2.968 157.839 2.824C157.711 2.664 157.647 2.44 157.647 2.152C157.647 2.024 157.663 1.88 157.695 1.72C157.711 1.56 157.743 1.416 157.791 1.288H168.975C169.487 1.288 169.743 1.592 169.743 2.2C169.743 2.312 169.727 2.448 169.695 2.608C169.679 2.768 169.647 2.912 169.599 3.04ZM178.671 2.392H180.927V16.12C180.815 16.152 180.671 16.184 180.495 16.216C180.335 16.248 180.159 16.264 179.967 16.264C179.503 16.264 179.167 16.176 178.959 16C178.767 15.824 178.671 15.56 178.671 15.208V2.392ZM183.447 3.04H176.655C176.399 3.04 176.207 2.968 176.079 2.824C175.951 2.664 175.887 2.44 175.887 2.152C175.887 2.024 175.895 1.88 175.911 1.72C175.943 1.56 175.983 1.416 176.031 1.288H182.823C183.335 1.288 183.591 1.592 183.591 2.2C183.591 2.312 183.575 2.448 183.543 2.608C183.527 2.768 183.495 2.912 183.447 3.04ZM171.231 3.04L173.343 2.704C173.599 2.832 173.855 3.024 174.111 3.28C174.367 3.536 174.575 3.848 174.735 4.216C174.911 4.568 174.999 4.968 174.999 5.416C174.999 6.088 174.831 6.664 174.495 7.144C174.159 7.608 173.711 7.984 173.151 8.272C172.607 8.544 171.991 8.728 171.303 8.824C171.543 9.576 171.991 10.216 172.647 10.744C173.319 11.256 174.199 11.512 175.287 11.512C175.927 11.512 176.503 11.408 177.015 11.2C177.527 10.992 177.959 10.736 178.311 10.432C178.663 10.112 178.919 9.8 179.079 9.496L179.391 11.536C178.943 12.144 178.359 12.616 177.639 12.952C176.935 13.288 176.079 13.456 175.071 13.456C173.823 13.456 172.759 13.192 171.879 12.664C170.999 12.136 170.311 11.472 169.815 10.672C169.575 10.288 169.375 9.856 169.215 9.376C169.071 8.88 168.999 8.456 168.999 8.104C168.999 7.896 169.031 7.728 169.095 7.6C169.175 7.456 169.327 7.376 169.551 7.36C170.623 7.296 171.407 7.072 171.903 6.688C172.399 6.288 172.647 5.768 172.647 5.128C172.647 4.632 172.519 4.216 172.263 3.88C172.023 3.528 171.679 3.248 171.231 3.04ZM179.847 3.04H168.039C167.783 3.04 167.591 2.968 167.463 2.824C167.335 2.664 167.271 2.44 167.271 2.152C167.271 2.024 167.279 1.88 167.295 1.72C167.327 1.56 167.367 1.416 167.415 1.288H179.223C179.735 1.288 179.991 1.592 179.991 2.2C179.991 2.312 179.975 2.448 179.943 2.608C179.927 2.768 179.895 2.912 179.847 3.04ZM184.923 2.392H187.179V16.12C187.067 16.152 186.931 16.184 186.771 16.216C186.611 16.248 186.435 16.264 186.243 16.264C185.763 16.264 185.419 16.176 185.211 16C185.019 15.824 184.923 15.56 184.923 15.208V2.392ZM189.699 3.04H182.931C182.659 3.04 182.459 2.968 182.331 2.824C182.203 2.664 182.139 2.44 182.139 2.152C182.139 2.024 182.155 1.88 182.187 1.72C182.219 1.56 182.251 1.416 182.283 1.288H189.075C189.587 1.288 189.843 1.592 189.843 2.2C189.843 2.312 189.827 2.448 189.795 2.608C189.779 2.768 189.747 2.912 189.699 3.04ZM13.44 32.392H15.696V46.12C15.584 46.152 15.44 46.184 15.264 46.216C15.104 46.248 14.928 46.264 14.736 46.264C14.272 46.264 13.936 46.176 13.728 46C13.536 45.824 13.44 45.56 13.44 45.208V32.392ZM18.216 33.04H11.688C11.432 33.04 11.24 32.968 11.112 32.824C10.984 32.664 10.92 32.44 10.92 32.152C10.92 32.024 10.928 31.88 10.944 31.72C10.976 31.56 11.016 31.416 11.064 31.288H17.592C18.104 31.288 18.36 31.592 18.36 32.2C18.36 32.312 18.344 32.448 18.312 32.608C18.296 32.768 18.264 32.912 18.216 33.04ZM3.048 39.16C2.984 39.032 2.928 38.904 2.88 38.776C2.832 38.632 2.808 38.456 2.808 38.248C2.808 38.072 2.832 37.904 2.88 37.744C2.928 37.568 2.984 37.408 3.048 37.264H5.136C5.824 37.264 6.368 37.08 6.768 36.712C7.168 36.328 7.368 35.816 7.368 35.176C7.368 34.584 7.168 34.088 6.768 33.688C6.368 33.272 5.784 33.064 5.016 33.064C4.408 33.064 3.88 33.176 3.432 33.4C3 33.608 2.648 33.84 2.376 34.096C2.12 33.984 1.904 33.832 1.728 33.64C1.568 33.432 1.488 33.192 1.488 32.92C1.488 32.6 1.64 32.304 1.944 32.032C2.264 31.76 2.696 31.544 3.24 31.384C3.8 31.208 4.44 31.12 5.16 31.12C6.024 31.12 6.8 31.28 7.488 31.6C8.176 31.904 8.72 32.336 9.12 32.896C9.52 33.456 9.72 34.128 9.72 34.912C9.72 35.568 9.576 36.136 9.288 36.616C9.016 37.08 8.696 37.448 8.328 37.72C8.472 37.768 8.68 37.824 8.952 37.888C9.24 37.936 9.544 37.976 9.864 38.008C10.184 38.04 10.472 38.056 10.728 38.056C11.768 38.056 12.688 37.912 13.488 37.624L13.872 39.688C13.6 39.768 13.32 39.832 13.032 39.88C12.76 39.912 12.392 39.928 11.928 39.928C11.432 39.928 10.896 39.872 10.32 39.76C9.744 39.648 9.288 39.536 8.952 39.424L8.904 39.496C9.208 39.736 9.456 40.08 9.648 40.528C9.856 40.96 9.96 41.4 9.96 41.848C9.96 42.952 9.52 43.84 8.64 44.512C7.776 45.184 6.576 45.52 5.04 45.52C4.512 45.52 4 45.48 3.504 45.4C3.024 45.32 2.592 45.2 2.208 45.04C1.824 44.88 1.512 44.68 1.272 44.44C1.048 44.2 0.936 43.928 0.936 43.624C0.936 43.288 1.024 43.024 1.2 42.832C1.376 42.624 1.568 42.488 1.776 42.424C2.16 42.76 2.608 43.04 3.12 43.264C3.632 43.472 4.232 43.576 4.92 43.576C5.752 43.576 6.408 43.376 6.888 42.976C7.368 42.576 7.608 42.048 7.608 41.392C7.608 40.72 7.392 40.184 6.96 39.784C6.544 39.368 5.992 39.16 5.304 39.16H3.048ZM19.1844 29.368C19.1844 28.52 19.4164 27.768 19.8804 27.112C20.3444 26.44 21.0324 25.912 21.9444 25.528C22.8724 25.144 24.0164 24.952 25.3764 24.952C26.6884 24.952 27.8964 25.112 29.0004 25.432C30.1204 25.736 31.0804 26.112 31.8804 26.56C32.6964 27.008 33.3284 27.456 33.7764 27.904C34.2404 28.352 34.4724 28.704 34.4724 28.96C34.4724 29.264 34.3444 29.512 34.0884 29.704C33.8324 29.88 33.5284 29.968 33.1764 29.968C32.6164 29.36 31.9364 28.824 31.1364 28.36C30.3524 27.88 29.4804 27.512 28.5204 27.256C27.5604 26.984 26.5524 26.848 25.4964 26.848C24.2164 26.848 23.2324 27.104 22.5444 27.616C21.8564 28.112 21.5124 28.808 21.5124 29.704C21.5124 30.04 21.5524 30.368 21.6324 30.688C21.7124 31.008 21.8164 31.264 21.9444 31.456H19.6884C19.5764 31.264 19.4644 30.976 19.3524 30.592C19.2404 30.208 19.1844 29.8 19.1844 29.368ZM19.7124 32.392H21.9684V46.12C21.8564 46.152 21.7204 46.184 21.5604 46.216C21.4004 46.248 21.2244 46.264 21.0324 46.264C20.5524 46.264 20.2084 46.176 20.0004 46C19.8084 45.824 19.7124 45.56 19.7124 45.208V32.392ZM24.4884 33.04H17.7204C17.4484 33.04 17.2484 32.968 17.1204 32.824C16.9924 32.664 16.9284 32.44 16.9284 32.152C16.9284 32.024 16.9444 31.88 16.9764 31.72C17.0084 31.56 17.0404 31.416 17.0724 31.288H23.8644C24.3764 31.288 24.6324 31.592 24.6324 32.2C24.6324 32.312 24.6164 32.448 24.5844 32.608C24.5684 32.768 24.5364 32.912 24.4884 33.04ZM33.3863 40.552L34.3223 41.848C34.0503 42.248 33.7223 42.616 33.3383 42.952C32.9703 43.272 32.5143 43.528 31.9703 43.72C31.4263 43.896 30.7943 43.984 30.0742 43.984C29.1623 43.984 28.3223 43.824 27.5543 43.504C26.7863 43.168 26.1703 42.672 25.7063 42.016C25.2423 41.344 25.0103 40.52 25.0103 39.544C25.0103 38.664 25.2103 37.904 25.6103 37.264C26.0263 36.608 26.5863 36.104 27.2903 35.752C27.9943 35.4 28.7863 35.224 29.6663 35.224C30.4823 35.224 31.0823 35.344 31.4663 35.584C31.8503 35.824 32.0423 36.136 32.0423 36.52C32.0423 36.664 32.0183 36.816 31.9703 36.976C31.9223 37.12 31.8503 37.248 31.7543 37.36C31.5463 37.296 31.2983 37.24 31.0103 37.192C30.7383 37.144 30.4743 37.12 30.2183 37.12C29.2583 37.12 28.5463 37.36 28.0823 37.84C27.6183 38.32 27.3863 38.912 27.3863 39.616C27.3863 40.384 27.6503 40.992 28.1783 41.44C28.7063 41.872 29.4263 42.088 30.3383 42.088C31.0743 42.088 31.7143 41.92 32.2583 41.584C32.8023 41.248 33.1783 40.904 33.3863 40.552ZM34.6583 33.04H23.9303C23.6742 33.04 23.4822 32.968 23.3542 32.824C23.2262 32.664 23.1622 32.44 23.1622 32.152C23.1622 32.024 23.1782 31.88 23.2102 31.72C23.2262 31.56 23.2582 31.416 23.3062 31.288H34.0343C34.5463 31.288 34.8023 31.592 34.8023 32.2C34.8023 32.312 34.7863 32.448 34.7543 32.608C34.7383 32.768 34.7063 32.912 34.6583 33.04ZM33.3623 32.392H35.6183V46.12C35.5063 46.152 35.3703 46.184 35.2103 46.216C35.0503 46.248 34.8743 46.264 34.6823 46.264C34.2183 46.264 33.8823 46.176 33.6743 46C33.4663 45.824 33.3623 45.56 33.3623 45.208V32.392ZM38.1383 33.04H31.3703C31.0983 33.04 30.8983 32.968 30.7703 32.824C30.6583 32.664 30.6023 32.44 30.6023 32.152C30.6023 32.024 30.6103 31.88 30.6263 31.72C30.6583 31.56 30.6903 31.416 30.7223 31.288H37.5143C38.0263 31.288 38.2823 31.592 38.2823 32.2C38.2823 32.312 38.2663 32.448 38.2343 32.608C38.2183 32.768 38.1863 32.912 38.1383 33.04ZM50.6018 38.128L50.7938 39.952C50.4578 40.128 50.0258 40.28 49.4978 40.408C48.9858 40.536 48.4098 40.6 47.7698 40.6C47.3058 40.6 46.8178 40.568 46.3058 40.504C45.8098 40.424 45.3298 40.304 44.8658 40.144C44.4018 39.968 43.9778 39.752 43.5938 39.496C43.6578 39.352 43.7378 39.2 43.8338 39.04C43.9458 38.88 44.0658 38.728 44.1938 38.584C44.3378 38.44 44.4738 38.32 44.6018 38.224C45.0338 38.384 45.4818 38.504 45.9458 38.584C46.4098 38.664 46.8738 38.704 47.3378 38.704C47.9458 38.704 48.5458 38.656 49.1378 38.56C49.7458 38.464 50.2338 38.32 50.6018 38.128ZM50.3858 33.04H37.6178C37.3617 33.04 37.1697 32.968 37.0417 32.824C36.9137 32.664 36.8497 32.44 36.8497 32.152C36.8497 32.024 36.8657 31.88 36.8977 31.72C36.9137 31.56 36.9457 31.416 36.9937 31.288H49.7618C50.2738 31.288 50.5298 31.592 50.5298 32.2C50.5298 32.312 50.5138 32.448 50.4818 32.608C50.4658 32.768 50.4338 32.912 50.3858 33.04ZM39.8018 40.264C39.3698 40.216 39.0498 40.096 38.8418 39.904C38.6498 39.712 38.5538 39.448 38.5538 39.112C38.5538 38.936 38.5858 38.76 38.6498 38.584C38.7298 38.392 38.8178 38.232 38.9138 38.104C39.1058 38.152 39.3378 38.192 39.6098 38.224C39.8818 38.256 40.1698 38.272 40.4738 38.272C41.5298 38.272 42.3218 38.04 42.8498 37.576C43.3778 37.112 43.6418 36.464 43.6418 35.632C43.6418 35.024 43.5218 34.472 43.2818 33.976C43.0578 33.464 42.7938 33.04 42.4898 32.704L44.7218 32.56C45.0578 32.96 45.3458 33.432 45.5858 33.976C45.8418 34.504 45.9698 35.136 45.9698 35.872C45.9698 36.656 45.7938 37.36 45.4418 37.984C45.0898 38.608 44.6018 39.112 43.9778 39.496C43.3538 39.864 42.6338 40.088 41.8178 40.168C42.2658 41.224 42.8898 42.16 43.6898 42.976C44.5058 43.776 45.3538 44.4 46.2338 44.848C46.2338 45.248 46.1218 45.592 45.8978 45.88C45.6738 46.152 45.3298 46.288 44.8658 46.288C44.4018 46.288 43.9218 46.136 43.4258 45.832C42.9298 45.512 42.4498 45.08 41.9858 44.536C41.5218 43.976 41.0978 43.328 40.7138 42.592C40.3298 41.856 40.0258 41.08 39.8018 40.264ZM58.3538 38.512V40.384H52.6418C52.5618 40.976 52.3458 41.448 51.9938 41.8C51.6578 42.152 51.1618 42.328 50.5058 42.328C49.8018 42.328 49.2818 42.168 48.9458 41.848C48.6098 41.512 48.4418 41.112 48.4418 40.648C48.4418 40.44 48.4738 40.232 48.5378 40.024C48.6018 39.816 48.6738 39.64 48.7538 39.496H49.5218C50.1458 39.496 50.4578 39.176 50.4578 38.536V32.728H52.7138V38.512H58.3538ZM58.7378 33.04H47.5778C47.3058 33.04 47.1058 32.968 46.9778 32.824C46.8658 32.664 46.8098 32.44 46.8098 32.152C46.8098 32.024 46.8178 31.88 46.8338 31.72C46.8658 31.56 46.8978 31.416 46.9298 31.288H58.0898C58.6178 31.288 58.8818 31.592 58.8818 32.2C58.8818 32.312 58.8658 32.448 58.8338 32.608C58.8018 32.768 58.7698 32.912 58.7378 33.04ZM57.6578 32.392H59.9378V46.12C59.8098 46.152 59.6658 46.184 59.5058 46.216C59.3458 46.248 59.1698 46.264 58.9778 46.264C58.5138 46.264 58.1778 46.176 57.9698 46C57.7618 45.824 57.6578 45.56 57.6578 45.208V32.392ZM62.4578 33.04H55.6658C55.3938 33.04 55.1938 32.968 55.0658 32.824C54.9538 32.664 54.8978 32.44 54.8978 32.152C54.8978 32.024 54.9058 31.88 54.9218 31.72C54.9538 31.56 54.9938 31.416 55.0418 31.288H61.8098C62.3378 31.288 62.6018 31.592 62.6018 32.2C62.6018 32.312 62.5858 32.448 62.5538 32.608C62.5218 32.768 62.4898 32.912 62.4578 33.04ZM64.251 40.432C63.803 40.4 63.451 40.288 63.195 40.096C62.955 39.904 62.835 39.64 62.835 39.304C62.835 39.08 62.867 38.888 62.931 38.728C63.011 38.552 63.099 38.392 63.195 38.248C63.371 38.312 63.595 38.36 63.867 38.392C64.139 38.424 64.427 38.44 64.731 38.44C65.915 38.44 66.755 38.168 67.251 37.624C67.747 37.08 67.995 36.416 67.995 35.632C67.995 35.072 67.891 34.544 67.683 34.048C67.491 33.552 67.211 33.104 66.843 32.704L69.051 32.56C69.419 32.976 69.723 33.456 69.963 34C70.203 34.528 70.323 35.16 70.323 35.896C70.323 36.776 70.131 37.536 69.747 38.176C69.379 38.8 68.883 39.288 68.259 39.64C67.651 39.992 66.987 40.208 66.267 40.288C66.747 41.248 67.331 42.112 68.019 42.88C68.723 43.648 69.579 44.296 70.587 44.824C70.587 45.256 70.475 45.608 70.251 45.88C70.043 46.136 69.707 46.264 69.243 46.264C68.731 46.264 68.171 46.048 67.563 45.616C66.971 45.184 66.387 44.536 65.811 43.672C65.235 42.808 64.715 41.728 64.251 40.432ZM72.267 33.04H61.899C61.643 33.04 61.451 32.968 61.323 32.824C61.195 32.664 61.131 32.44 61.131 32.152C61.131 32.024 61.147 31.88 61.179 31.72C61.195 31.56 61.227 31.416 61.275 31.288H71.643C72.155 31.288 72.411 31.592 72.411 32.2C72.411 32.312 72.395 32.448 72.363 32.608C72.347 32.768 72.315 32.912 72.267 33.04ZM79.8994 32.584H82.0594C82.1234 33.336 82.1634 34.024 82.1794 34.648C82.2114 35.256 82.2354 35.848 82.2514 36.424C82.2674 36.984 82.2754 37.568 82.2754 38.176C82.2754 39.136 82.0834 39.936 81.6994 40.576C81.3154 41.216 80.7874 41.696 80.1154 42.016C79.4434 42.32 78.6594 42.472 77.7634 42.472C76.9154 42.472 76.1474 42.32 75.4594 42.016C74.7874 41.712 74.2514 41.248 73.8514 40.624C73.4674 39.984 73.2754 39.16 73.2754 38.152C73.2754 37.544 73.2754 36.96 73.2754 36.4C73.2914 35.824 73.3154 35.232 73.3474 34.624C73.3794 34 73.4194 33.32 73.4674 32.584H75.6274V38.296C75.6274 39.016 75.8194 39.568 76.2034 39.952C76.6034 40.336 77.1234 40.528 77.7634 40.528C78.4354 40.528 78.9554 40.336 79.3234 39.952C79.7074 39.568 79.8994 39.016 79.8994 38.296V32.584ZM86.5954 33.04H71.8594C71.5874 33.04 71.3954 32.968 71.2834 32.824C71.1554 32.664 71.0914 32.44 71.0914 32.152C71.0914 32.024 71.1074 31.88 71.1394 31.72C71.1554 31.56 71.1874 31.416 71.2354 31.288H85.9714C86.4834 31.288 86.7394 31.592 86.7394 32.2C86.7394 32.312 86.7234 32.448 86.6914 32.608C86.6754 32.768 86.6434 32.912 86.5954 33.04ZM85.3474 32.392H87.6274V46.12C87.4994 46.152 87.3554 46.184 87.1954 46.216C87.0354 46.248 86.8594 46.264 86.6674 46.264C86.2034 46.264 85.8674 46.176 85.6594 46C85.4514 45.824 85.3474 45.56 85.3474 45.208V32.392ZM90.1474 33.04H83.3554C83.0834 33.04 82.8834 32.968 82.7554 32.824C82.6434 32.664 82.5874 32.44 82.5874 32.152C82.5874 32.024 82.5954 31.88 82.6114 31.72C82.6434 31.56 82.6834 31.416 82.7314 31.288H89.4994C90.0274 31.288 90.2914 31.592 90.2914 32.2C90.2914 32.312 90.2754 32.448 90.2434 32.608C90.2114 32.768 90.1794 32.912 90.1474 33.04ZM93.8981 31.384H91.6421V30.256C91.6421 29.072 91.4421 28.2 91.0421 27.64C90.6581 27.08 90.1301 26.8 89.4581 26.8C88.9781 26.8 88.5461 26.968 88.1621 27.304C87.7781 27.624 87.5861 28.144 87.5861 28.864V29.584C87.5861 29.584 87.4901 29.624 87.2981 29.704C87.0901 29.768 86.8581 29.8 86.6021 29.8C86.2181 29.8 85.8981 29.712 85.6421 29.536C85.3701 29.344 85.2341 29 85.2341 28.504C85.2341 27.768 85.4181 27.128 85.7861 26.584C86.1541 26.04 86.6581 25.616 87.2981 25.312C87.9221 25.008 88.6261 24.856 89.4101 24.856C90.7701 24.856 91.8581 25.296 92.6741 26.176C93.4901 27.04 93.8981 28.392 93.8981 30.232V31.384ZM91.6421 32.392H93.8981V46.12C93.7861 46.152 93.6501 46.184 93.4901 46.216C93.3301 46.248 93.1541 46.264 92.9621 46.264C92.4821 46.264 92.1381 46.176 91.9301 46C91.7381 45.824 91.6421 45.56 91.6421 45.208V32.392ZM96.4181 33.04H89.6501C89.3781 33.04 89.1781 32.968 89.0501 32.824C88.9221 32.664 88.8581 32.44 88.8581 32.152C88.8581 32.024 88.8741 31.88 88.9061 31.72C88.9381 31.56 88.9701 31.416 89.0021 31.288H95.7941C96.3061 31.288 96.5621 31.592 96.5621 32.2C96.5621 32.312 96.5461 32.448 96.5141 32.608C96.4981 32.768 96.4661 32.912 96.4181 33.04ZM99.0519 33.04L101.164 32.704C101.42 32.832 101.676 33.024 101.932 33.28C102.188 33.536 102.396 33.848 102.556 34.216C102.732 34.568 102.82 34.968 102.82 35.416C102.82 36.088 102.652 36.664 102.316 37.144C101.98 37.608 101.532 37.984 100.972 38.272C100.428 38.544 99.8119 38.728 99.1239 38.824C99.3639 39.576 99.8119 40.216 100.468 40.744C101.14 41.256 102.02 41.512 103.108 41.512C103.748 41.512 104.324 41.408 104.836 41.2C105.348 40.992 105.78 40.736 106.132 40.432C106.484 40.112 106.74 39.8 106.9 39.496L107.212 41.536C106.764 42.144 106.18 42.616 105.46 42.952C104.756 43.288 103.9 43.456 102.892 43.456C101.644 43.456 100.58 43.192 99.6999 42.664C98.8199 42.136 98.1319 41.472 97.6359 40.672C97.3959 40.288 97.1959 39.856 97.0359 39.376C96.8919 38.88 96.8199 38.456 96.8199 38.104C96.8199 37.896 96.8519 37.728 96.9159 37.6C96.9959 37.456 97.1479 37.376 97.3719 37.36C98.4439 37.296 99.2279 37.072 99.7239 36.688C100.22 36.288 100.468 35.768 100.468 35.128C100.468 34.632 100.34 34.216 100.084 33.88C99.8439 33.528 99.4999 33.248 99.0519 33.04ZM107.668 33.04H95.8599C95.6039 33.04 95.4119 32.968 95.2839 32.824C95.1559 32.664 95.0919 32.44 95.0919 32.152C95.0919 32.024 95.1079 31.88 95.1399 31.72C95.1559 31.56 95.1879 31.416 95.2359 31.288H107.044C107.556 31.288 107.812 31.592 107.812 32.2C107.812 32.312 107.796 32.448 107.764 32.608C107.748 32.768 107.716 32.912 107.668 33.04ZM106.492 32.392H108.748V46.12C108.636 46.152 108.492 46.184 108.316 46.216C108.156 46.248 107.98 46.264 107.788 46.264C107.324 46.264 106.988 46.176 106.78 46C106.588 45.824 106.492 45.56 106.492 45.208V32.392ZM111.268 33.04H104.476C104.22 33.04 104.028 32.968 103.9 32.824C103.772 32.664 103.708 32.44 103.708 32.152C103.708 32.024 103.716 31.88 103.732 31.72C103.764 31.56 103.804 31.416 103.852 31.288H110.644C111.156 31.288 111.412 31.592 111.412 32.2C111.412 32.312 111.396 32.448 111.364 32.608C111.348 32.768 111.316 32.912 111.268 33.04ZM127.116 38.968C126.268 38.968 125.436 38.864 124.62 38.656C123.804 38.432 123.132 38.184 122.604 37.912L121.74 38.248C120.876 38.568 120.22 38.992 119.772 39.52C119.324 40.032 119.1 40.664 119.1 41.416C119.1 42.168 119.364 42.736 119.892 43.12C120.42 43.504 121.02 43.696 121.692 43.696C122.236 43.696 122.652 43.552 122.94 43.264C123.228 42.976 123.372 42.584 123.372 42.088C123.372 41.928 123.364 41.776 123.348 41.632C123.332 41.472 123.316 41.336 123.3 41.224C123.492 41.096 123.684 41 123.876 40.936C124.084 40.856 124.324 40.816 124.596 40.816C125.076 40.816 125.476 40.96 125.796 41.248C126.132 41.536 126.3 41.936 126.3 42.448C126.3 43.12 126.108 43.704 125.724 44.2C125.34 44.68 124.876 45.016 124.332 45.208C124.252 45.24 124.172 45.24 124.092 45.208C124.012 45.176 123.932 45.184 123.852 45.232C123.66 45.312 123.388 45.4 123.036 45.496C122.684 45.592 122.22 45.64 121.644 45.64C120.844 45.64 120.068 45.496 119.316 45.208C118.564 44.904 117.948 44.448 117.468 43.84C116.988 43.232 116.748 42.44 116.748 41.464C116.748 40.664 116.9 39.992 117.204 39.448C117.524 38.888 117.932 38.424 118.428 38.056C118.924 37.688 119.436 37.392 119.964 37.168C119.596 37.008 119.268 36.784 118.98 36.496C118.708 36.192 118.484 35.856 118.308 35.488C118.148 35.104 118.068 34.704 118.068 34.288C118.068 33.52 118.252 32.88 118.62 32.368C119.004 31.856 119.492 31.472 120.084 31.216C120.692 30.944 121.324 30.808 121.98 30.808C122.86 30.808 123.588 30.984 124.164 31.336C124.756 31.672 125.196 32.096 125.484 32.608C125.788 33.12 125.94 33.64 125.94 34.168C125.94 34.856 125.74 35.472 125.34 36.016C124.956 36.544 124.412 36.96 123.708 37.264L121.836 36.352C122.06 36.272 122.308 36.144 122.58 35.968C122.868 35.792 123.116 35.568 123.324 35.296C123.532 35.024 123.636 34.704 123.636 34.336C123.636 33.856 123.476 33.464 123.156 33.16C122.852 32.856 122.476 32.704 122.028 32.704C121.58 32.704 121.188 32.848 120.852 33.136C120.532 33.408 120.372 33.8 120.372 34.312C120.372 34.792 120.54 35.216 120.876 35.584C121.228 35.936 121.604 36.2 122.004 36.376C122.26 36.488 122.468 36.56 122.628 36.592C122.804 36.624 122.972 36.648 123.132 36.664C123.292 36.664 123.492 36.696 123.732 36.76C124.26 36.888 124.788 36.984 125.316 37.048C125.844 37.096 126.356 37.12 126.852 37.12C127.284 37.12 127.716 37.096 128.148 37.048C128.596 36.984 129.012 36.888 129.396 36.76L129.324 38.776C129.084 38.84 128.772 38.888 128.388 38.92C128.004 38.952 127.58 38.968 127.116 38.968ZM133.956 33.04H128.172C127.9 33.04 127.7 32.968 127.572 32.824C127.46 32.664 127.404 32.44 127.404 32.152C127.404 32.024 127.412 31.88 127.428 31.72C127.46 31.56 127.492 31.416 127.524 31.288H133.332C133.844 31.288 134.1 31.592 134.1 32.2C134.1 32.312 134.084 32.448 134.052 32.608C134.036 32.768 134.004 32.912 133.956 33.04ZM124.836 44.296C125.044 44.728 125.276 45.16 125.532 45.592C125.804 46.024 126.084 46.424 126.372 46.792C126.66 47.176 126.924 47.504 127.164 47.776C127.132 48.128 126.98 48.408 126.708 48.616C126.452 48.84 126.14 48.952 125.772 48.952C125.34 48.952 124.98 48.8 124.692 48.496C124.404 48.208 124.164 47.768 123.972 47.176L123.228 44.896L124.836 44.296ZM129.18 32.392H131.436V46.12C131.324 46.152 131.188 46.184 131.028 46.216C130.868 46.248 130.692 46.264 130.5 46.264C130.036 46.264 129.7 46.176 129.492 46C129.284 45.824 129.18 45.56 129.18 45.208V32.392ZM141.446 32.584H143.606C143.67 33.336 143.71 34.024 143.726 34.648C143.758 35.256 143.782 35.848 143.798 36.424C143.814 36.984 143.822 37.568 143.822 38.176C143.822 39.136 143.63 39.936 143.246 40.576C142.862 41.216 142.334 41.696 141.662 42.016C140.99 42.32 140.206 42.472 139.31 42.472C138.462 42.472 137.694 42.32 137.006 42.016C136.334 41.712 135.798 41.248 135.398 40.624C135.014 39.984 134.822 39.16 134.822 38.152C134.822 37.544 134.822 36.96 134.822 36.4C134.838 35.824 134.862 35.232 134.894 34.624C134.926 34 134.966 33.32 135.014 32.584H137.174V38.296C137.174 39.016 137.366 39.568 137.75 39.952C138.15 40.336 138.67 40.528 139.31 40.528C139.982 40.528 140.502 40.336 140.87 39.952C141.254 39.568 141.446 39.016 141.446 38.296V32.584ZM148.142 33.04H133.406C133.134 33.04 132.942 32.968 132.83 32.824C132.702 32.664 132.638 32.44 132.638 32.152C132.638 32.024 132.654 31.88 132.686 31.72C132.702 31.56 132.734 31.416 132.782 31.288H147.518C148.03 31.288 148.286 31.592 148.286 32.2C148.286 32.312 148.27 32.448 148.238 32.608C148.222 32.768 148.19 32.912 148.142 33.04ZM146.894 32.392H149.174V46.12C149.046 46.152 148.902 46.184 148.742 46.216C148.582 46.248 148.406 46.264 148.214 46.264C147.75 46.264 147.414 46.176 147.206 46C146.998 45.824 146.894 45.56 146.894 45.208V32.392ZM151.694 33.04H144.902C144.63 33.04 144.43 32.968 144.302 32.824C144.19 32.664 144.134 32.44 144.134 32.152C144.134 32.024 144.142 31.88 144.158 31.72C144.19 31.56 144.23 31.416 144.278 31.288H151.046C151.574 31.288 151.838 31.592 151.838 32.2C151.838 32.312 151.822 32.448 151.79 32.608C151.758 32.768 151.726 32.912 151.694 33.04ZM153.189 32.392H155.445V46.12C155.333 46.152 155.197 46.184 155.037 46.216C154.877 46.248 154.701 46.264 154.509 46.264C154.029 46.264 153.685 46.176 153.477 46C153.285 45.824 153.189 45.56 153.189 45.208V32.392ZM157.965 33.04H151.197C150.925 33.04 150.725 32.968 150.597 32.824C150.469 32.664 150.405 32.44 150.405 32.152C150.405 32.024 150.421 31.88 150.453 31.72C150.485 31.56 150.517 31.416 150.549 31.288H157.341C157.853 31.288 158.109 31.592 158.109 32.2C158.109 32.312 158.093 32.448 158.061 32.608C158.045 32.768 158.013 32.912 157.965 33.04ZM152.733 27.616C152.733 27.184 152.877 26.824 153.165 26.536C153.469 26.232 153.861 26.08 154.341 26.08C154.821 26.08 155.205 26.232 155.493 26.536C155.797 26.824 155.949 27.184 155.949 27.616C155.949 28.048 155.797 28.416 155.493 28.72C155.205 29.008 154.821 29.152 154.341 29.152C153.861 29.152 153.469 29.008 153.165 28.72C152.877 28.416 152.733 28.048 152.733 27.616ZM158.223 35.824H165.879C166.151 35.824 166.351 35.912 166.479 36.088C166.607 36.248 166.671 36.48 166.671 36.784C166.671 36.976 166.647 37.152 166.599 37.312C166.567 37.472 166.519 37.616 166.455 37.744H163.479L162.807 37.696H158.799C158.559 37.696 158.367 37.608 158.223 37.432C158.095 37.256 158.031 37.016 158.031 36.712C158.031 36.568 158.047 36.416 158.079 36.256C158.111 36.08 158.159 35.936 158.223 35.824ZM162.135 37.096C162.247 37.096 162.391 37.128 162.567 37.192C162.743 37.256 162.919 37.336 163.095 37.432C163.271 37.512 163.423 37.584 163.551 37.648C163.679 37.712 163.743 37.744 163.743 37.744C163.311 37.888 162.951 38.152 162.663 38.536C162.391 38.904 162.255 39.344 162.255 39.856C162.255 40.496 162.511 41.016 163.023 41.416C163.551 41.8 164.295 41.992 165.255 41.992C165.959 41.992 166.631 41.856 167.271 41.584C167.911 41.296 168.479 40.896 168.975 40.384L169.767 41.848C169.191 42.504 168.495 43.016 167.679 43.384C166.879 43.736 165.935 43.912 164.847 43.912C163.951 43.912 163.127 43.76 162.375 43.456C161.639 43.152 161.047 42.712 160.599 42.136C160.151 41.56 159.927 40.88 159.927 40.096C159.927 39.488 160.031 38.984 160.239 38.584C160.463 38.168 160.743 37.84 161.079 37.6C161.415 37.36 161.767 37.192 162.135 37.096ZM169.695 33.04H157.407C157.151 33.04 156.959 32.968 156.831 32.824C156.703 32.664 156.639 32.44 156.639 32.152C156.639 32.024 156.655 31.88 156.687 31.72C156.703 31.56 156.735 31.416 156.783 31.288H169.071C169.583 31.288 169.839 31.592 169.839 32.2C169.839 32.312 169.823 32.448 169.791 32.608C169.775 32.768 169.743 32.912 169.695 33.04ZM168.639 32.392H170.895V46.12C170.783 46.152 170.647 46.184 170.487 46.216C170.327 46.248 170.151 46.264 169.959 46.264C169.495 46.264 169.159 46.176 168.951 46C168.743 45.824 168.639 45.56 168.639 45.208V32.392ZM173.415 33.04H166.647C166.375 33.04 166.175 32.968 166.047 32.824C165.935 32.664 165.879 32.44 165.879 32.152C165.879 32.024 165.887 31.88 165.903 31.72C165.935 31.56 165.967 31.416 165.999 31.288H172.791C173.303 31.288 173.559 31.592 173.559 32.2C173.559 32.312 173.543 32.448 173.511 32.608C173.495 32.768 173.463 32.912 173.415 33.04ZM177.172 31.384H174.916V30.256C174.916 29.072 174.716 28.2 174.316 27.64C173.932 27.08 173.404 26.8 172.732 26.8C172.252 26.8 171.82 26.968 171.436 27.304C171.052 27.624 170.86 28.144 170.86 28.864V29.584C170.86 29.584 170.764 29.624 170.572 29.704C170.364 29.768 170.132 29.8 169.876 29.8C169.492 29.8 169.172 29.712 168.916 29.536C168.644 29.344 168.508 29 168.508 28.504C168.508 27.768 168.692 27.128 169.06 26.584C169.428 26.04 169.932 25.616 170.572 25.312C171.196 25.008 171.9 24.856 172.684 24.856C174.044 24.856 175.132 25.296 175.948 26.176C176.764 27.04 177.172 28.392 177.172 30.232V31.384ZM174.916 32.392H177.172V46.12C177.06 46.152 176.924 46.184 176.764 46.216C176.604 46.248 176.428 46.264 176.236 46.264C175.756 46.264 175.412 46.176 175.204 46C175.012 45.824 174.916 45.56 174.916 45.208V32.392ZM179.692 33.04H172.924C172.652 33.04 172.452 32.968 172.324 32.824C172.196 32.664 172.132 32.44 172.132 32.152C172.132 32.024 172.148 31.88 172.18 31.72C172.212 31.56 172.244 31.416 172.276 31.288H179.068C179.58 31.288 179.836 31.592 179.836 32.2C179.836 32.312 179.82 32.448 179.788 32.608C179.772 32.768 179.74 32.912 179.692 33.04ZM194.69 41.632L194.162 40.024C194.466 40.088 194.802 40.144 195.17 40.192C195.538 40.224 195.89 40.24 196.226 40.24C196.69 40.24 197.114 40.208 197.498 40.144C197.898 40.08 198.298 39.984 198.698 39.856L199.01 41.92C198.754 41.984 198.506 42.032 198.266 42.064C198.042 42.096 197.802 42.112 197.546 42.112C196.922 42.112 196.37 42.064 195.89 41.968C195.41 41.856 195.01 41.744 194.69 41.632ZM199.802 33.04H183.938C183.682 33.04 183.49 32.968 183.362 32.824C183.234 32.664 183.17 32.44 183.17 32.152C183.17 32.024 183.186 31.88 183.218 31.72C183.234 31.56 183.266 31.416 183.314 31.288H199.178C199.69 31.288 199.946 31.592 199.946 32.2C199.946 32.312 199.93 32.448 199.898 32.608C199.882 32.768 199.85 32.912 199.802 33.04ZM187.034 45.352L188.858 45.256C189.386 45.896 189.906 46.52 190.418 47.128C190.946 47.736 191.538 48.248 192.194 48.664C192.162 49.048 192.034 49.368 191.81 49.624C191.586 49.88 191.258 50.008 190.826 50.008C190.458 50.008 190.122 49.904 189.818 49.696C189.514 49.504 189.21 49.152 188.906 48.64L187.034 45.352ZM188.546 39.688C188.962 39.576 189.402 39.48 189.866 39.4C190.346 39.304 190.858 39.256 191.402 39.256C192.778 39.256 193.834 39.584 194.57 40.24C195.322 40.88 195.698 41.68 195.698 42.64C195.698 43.44 195.482 44.112 195.05 44.656C194.634 45.2 194.042 45.608 193.274 45.88C192.506 46.152 191.618 46.288 190.61 46.288C190.258 46.288 189.954 46.272 189.698 46.24C189.442 46.208 189.194 46.168 188.954 46.12C188.858 46.12 188.698 46.12 188.474 46.12C188.266 46.12 188.074 46.104 187.898 46.072C187.098 45.896 186.434 45.624 185.906 45.256C185.378 44.872 185.114 44.456 185.114 44.008C185.114 43.672 185.202 43.408 185.378 43.216C185.57 43.008 185.778 42.872 186.002 42.808C186.546 43.256 187.194 43.64 187.946 43.96C188.714 44.28 189.586 44.44 190.562 44.44C191.474 44.44 192.162 44.28 192.626 43.96C193.106 43.624 193.346 43.2 193.346 42.688C193.346 42.144 193.138 41.736 192.722 41.464C192.306 41.192 191.698 41.056 190.898 41.056C190.434 41.056 189.962 41.112 189.482 41.224C189.002 41.32 188.554 41.432 188.138 41.56C187.738 41.4 187.314 41.168 186.866 40.864C186.418 40.56 186.042 40.184 185.738 39.736C185.434 39.288 185.282 38.768 185.282 38.176C185.282 37.28 185.578 36.544 186.17 35.968C186.778 35.392 187.738 35.104 189.05 35.104H192.434V32.344H194.714V35.944C194.714 36.312 194.626 36.568 194.45 36.712C194.29 36.856 194.01 36.928 193.61 36.928H189.362C188.738 36.928 188.29 37.056 188.018 37.312C187.762 37.552 187.634 37.856 187.634 38.224C187.634 38.592 187.73 38.896 187.922 39.136C188.114 39.36 188.322 39.544 188.546 39.688ZM198.554 32.392H200.834V46.12C200.706 46.152 200.562 46.184 200.402 46.216C200.242 46.248 200.066 46.264 199.874 46.264C199.41 46.264 199.074 46.176 198.866 46C198.658 45.824 198.554 45.56 198.554 45.208V32.392ZM203.354 33.04H196.562C196.29 33.04 196.09 32.968 195.962 32.824C195.85 32.664 195.794 32.44 195.794 32.152C195.794 32.024 195.802 31.88 195.818 31.72C195.85 31.56 195.89 31.416 195.938 31.288H202.706C203.234 31.288 203.498 31.592 203.498 32.2C203.498 32.312 203.482 32.448 203.45 32.608C203.418 32.768 203.386 32.912 203.354 33.04ZM211.325 38.728C211.149 38.52 210.853 38.32 210.437 38.128C210.021 37.936 209.557 37.84 209.045 37.84C208.197 37.84 207.509 38.12 206.981 38.68C206.469 39.24 206.213 39.952 206.213 40.816C206.213 41.616 206.405 42.28 206.789 42.808C207.173 43.336 207.669 43.752 208.277 44.056C208.885 44.344 209.525 44.528 210.197 44.608C210.213 44.688 210.221 44.76 210.221 44.824C210.221 44.888 210.221 44.96 210.221 45.04C210.221 45.408 210.109 45.712 209.885 45.952C209.661 46.176 209.325 46.288 208.877 46.288C208.365 46.288 207.813 46.176 207.221 45.952C206.645 45.728 206.101 45.384 205.589 44.92C205.077 44.456 204.661 43.888 204.341 43.216C204.021 42.544 203.861 41.768 203.861 40.888C203.861 39.816 204.085 38.912 204.533 38.176C204.997 37.44 205.589 36.888 206.309 36.52C207.045 36.136 207.821 35.944 208.637 35.944C209.501 35.944 210.245 36.096 210.869 36.4C211.493 36.688 212.029 37.048 212.477 37.48L211.325 38.728ZM212.741 41.896C212.613 41.976 212.453 42.032 212.261 42.064C212.085 42.096 211.909 42.112 211.733 42.112C211.349 42.112 211.045 42.024 210.821 41.848C210.597 41.656 210.485 41.36 210.485 40.96C210.485 40.016 210.685 39.168 211.085 38.416C211.485 37.648 212.037 37.048 212.741 36.616C213.461 36.168 214.277 35.944 215.189 35.944C215.925 35.944 216.509 36.056 216.941 36.28C217.389 36.488 217.733 36.72 217.973 36.976L217.013 38.272C216.837 38.16 216.637 38.064 216.413 37.984C216.205 37.888 215.925 37.84 215.573 37.84C214.693 37.84 213.997 38.16 213.485 38.8C212.989 39.424 212.741 40.456 212.741 41.896ZM217.445 33.04H202.853C202.581 33.04 202.381 32.968 202.253 32.824C202.125 32.664 202.061 32.44 202.061 32.152C202.061 32.024 202.077 31.88 202.109 31.72C202.141 31.56 202.173 31.416 202.205 31.288H216.821C217.333 31.288 217.589 31.592 217.589 32.2C217.589 32.312 217.573 32.448 217.541 32.608C217.525 32.768 217.493 32.912 217.445 33.04ZM216.317 32.392H218.573V46.12C218.461 46.152 218.325 46.184 218.165 46.216C218.005 46.248 217.829 46.264 217.637 46.264C217.173 46.264 216.837 46.176 216.629 46C216.421 45.824 216.317 45.56 216.317 45.208V32.392ZM221.093 33.04H214.325C214.053 33.04 213.853 32.968 213.725 32.824C213.613 32.664 213.557 32.44 213.557 32.152C213.557 32.024 213.565 31.88 213.581 31.72C213.613 31.56 213.645 31.416 213.677 31.288H220.469C220.981 31.288 221.237 31.592 221.237 32.2C221.237 32.312 221.221 32.448 221.189 32.608C221.173 32.768 221.141 32.912 221.093 33.04ZM229.427 40.36L230.195 41.704C230.035 42.024 229.787 42.352 229.451 42.688C229.131 43.024 228.699 43.304 228.155 43.528C227.627 43.752 226.971 43.864 226.187 43.864C225.403 43.864 224.667 43.696 223.979 43.36C223.291 43.024 222.731 42.536 222.299 41.896C221.867 41.24 221.651 40.424 221.651 39.448C221.651 38.584 221.843 37.84 222.227 37.216C222.627 36.592 223.147 36.12 223.787 35.8C224.443 35.464 225.147 35.296 225.899 35.296C226.635 35.296 227.163 35.416 227.483 35.656C227.803 35.88 227.963 36.168 227.963 36.52C227.963 36.712 227.931 36.88 227.867 37.024C227.803 37.152 227.731 37.272 227.651 37.384C227.475 37.32 227.307 37.272 227.147 37.24C226.987 37.192 226.787 37.168 226.547 37.168C225.795 37.168 225.187 37.376 224.723 37.792C224.259 38.208 224.027 38.792 224.027 39.544C224.027 40.264 224.259 40.848 224.723 41.296C225.203 41.728 225.835 41.944 226.619 41.944C227.195 41.944 227.675 41.856 228.059 41.68C228.443 41.488 228.747 41.272 228.971 41.032C229.195 40.776 229.347 40.552 229.427 40.36ZM231.083 38.968L230.219 37.792C230.587 37.12 231.099 36.544 231.755 36.064C232.411 35.584 233.299 35.344 234.419 35.344C235.283 35.344 236.043 35.528 236.699 35.896C237.355 36.248 237.867 36.752 238.235 37.408C238.619 38.048 238.811 38.8 238.811 39.664C238.811 40.56 238.619 41.336 238.235 41.992C237.851 42.632 237.339 43.12 236.699 43.456C236.059 43.792 235.363 43.96 234.611 43.96C234.035 43.96 233.595 43.864 233.291 43.672C233.003 43.48 232.859 43.184 232.859 42.784C232.859 42.608 232.883 42.456 232.931 42.328C232.979 42.184 233.035 42.064 233.099 41.968C233.195 41.984 233.331 42.008 233.507 42.04C233.683 42.056 233.835 42.064 233.963 42.064C234.651 42.064 235.235 41.856 235.715 41.44C236.211 41.024 236.459 40.416 236.459 39.616C236.459 38.912 236.227 38.344 235.763 37.912C235.299 37.48 234.675 37.264 233.891 37.264C233.267 37.264 232.699 37.44 232.187 37.792C231.675 38.144 231.307 38.536 231.083 38.968ZM240.155 33.04H220.571C220.315 33.04 220.123 32.968 219.995 32.824C219.867 32.664 219.803 32.44 219.803 32.152C219.803 32.024 219.819 31.88 219.851 31.72C219.867 31.56 219.899 31.416 219.947 31.288H239.531C240.043 31.288 240.299 31.592 240.299 32.2C240.299 32.312 240.283 32.448 240.251 32.608C240.235 32.768 240.203 32.912 240.155 33.04ZM229.187 32.392H231.467V46.12C231.339 46.152 231.195 46.184 231.035 46.216C230.875 46.248 230.699 46.264 230.507 46.264C230.043 46.264 229.707 46.176 229.499 46C229.291 45.824 229.187 45.56 229.187 45.208V32.392ZM244.766 32.176C244.766 32.624 244.758 33.224 244.742 33.976C244.742 34.712 244.726 35.512 244.694 36.376C244.662 37.24 244.622 38.104 244.574 38.968C244.542 39.816 244.502 40.576 244.454 41.248C244.342 41.328 244.19 41.392 243.998 41.44C243.822 41.488 243.646 41.512 243.47 41.512C243.198 41.512 242.966 41.456 242.774 41.344C242.582 41.232 242.47 41.048 242.438 40.792C242.406 40.36 242.366 39.752 242.318 38.968C242.286 38.184 242.254 37.328 242.222 36.4C242.206 35.456 242.19 34.536 242.174 33.64C242.158 32.744 242.15 31.968 242.15 31.312C242.582 31.056 243.046 30.928 243.542 30.928C243.926 30.928 244.222 31.032 244.43 31.24C244.654 31.448 244.766 31.76 244.766 32.176ZM241.91 44.728C241.91 44.28 242.046 43.912 242.318 43.624C242.606 43.32 242.998 43.168 243.494 43.168C243.974 43.168 244.358 43.32 244.646 43.624C244.934 43.912 245.078 44.28 245.078 44.728C245.078 45.176 244.934 45.552 244.646 45.856C244.358 46.16 243.974 46.312 243.494 46.312C242.998 46.312 242.606 46.16 242.318 45.856C242.046 45.552 241.91 45.176 241.91 44.728Z" fill="#747474"/>
</svg>
