<svg width="179" height="70" viewBox="0 0 179 70" fill="none" xmlns="http://www.w3.org/2000/svg">
<g filter="url(#filter0_d_940_7402)">
<path d="M29.635 20.005H28.975C28.0583 20.7017 27.325 21.4533 26.775 22.26C26.2617 23.0667 26.005 24.0933 26.005 25.34V29.3V29.63C26.445 29.5933 26.9583 29.5383 27.545 29.465C28.1683 29.3917 28.7917 29.245 29.415 29.025C30.0383 28.805 30.625 28.4567 31.175 27.98C31.7617 27.5033 32.275 26.825 32.715 25.945L36.345 32.215C35.795 32.985 35.08 33.5717 34.2 33.975C33.3567 34.3417 32.4583 34.525 31.505 34.525C30.515 34.525 29.58 34.3417 28.7 33.975C27.82 33.5717 26.9583 33.095 26.115 32.545C26.115 33.095 26.06 33.59 25.95 34.03C25.84 34.47 25.62 34.855 25.29 35.185C24.9967 35.4783 24.5567 35.7167 23.97 35.9C23.42 36.0467 22.6683 36.12 21.715 36.12C20.8717 36.12 20.1567 36.065 19.57 35.955C18.9833 35.845 18.4517 35.68 17.975 35.46C17.4983 35.2033 17.0217 34.8917 16.545 34.525C16.105 34.1583 15.5733 33.7183 14.95 33.205C14.6933 33.865 14.7117 34.5617 15.005 35.295C15.335 36.0283 15.7933 36.7067 16.38 37.33C16.9667 37.9533 17.6267 38.4667 18.36 38.87C19.0933 39.2733 19.735 39.475 20.285 39.475C20.9817 39.475 21.605 39.3467 22.155 39.09C22.7417 38.8333 23.2733 38.5583 23.75 38.265C24.2633 37.9717 24.74 37.6967 25.18 37.44C25.62 37.1833 26.0417 37.055 26.445 37.055C26.9217 37.055 27.655 37.3667 28.645 37.99C29.635 38.6133 30.6617 39.3467 31.725 40.19C32.7883 41.0333 33.7783 41.8767 34.695 42.72C35.6117 43.5633 36.235 44.205 36.565 44.645C36.4917 44.5717 36.4 44.6083 36.29 44.755C36.2167 44.9017 36.125 44.975 36.015 44.975C36.015 44.975 35.9783 44.9383 35.905 44.865C35.465 44.095 34.9517 43.545 34.365 43.215C33.815 42.8483 33.375 42.665 33.045 42.665C32.5683 42.665 32.055 42.8117 31.505 43.105C30.9917 43.3617 30.4417 43.655 29.855 43.985C29.2683 44.2783 28.6633 44.5717 28.04 44.865C27.4167 45.1217 26.7567 45.25 26.06 45.25C25.5467 45.25 25.015 45.1583 24.465 44.975C23.9517 44.7917 23.4933 44.5533 23.09 44.26C22.5767 43.93 21.8433 43.3617 20.89 42.555C19.9367 41.7483 18.8917 40.8133 17.755 39.75C16.655 38.6867 15.5183 37.5683 14.345 36.395C13.1717 35.185 12.1083 34.03 11.155 32.93C10.2017 31.7933 9.43167 30.7483 8.845 29.795C8.22167 28.8417 7.91 28.09 7.91 27.54C7.91 27.21 8.03833 26.8983 8.295 26.605C8.515 26.3117 8.80833 26.055 9.175 25.835C9.54167 25.615 9.90833 25.45 10.275 25.34C10.6783 25.23 11.0267 25.175 11.32 25.175C11.76 25.175 12.31 25.3767 12.97 25.78C13.63 26.1467 14.29 26.605 14.95 27.155C15.61 27.6683 16.2333 28.2 16.82 28.75C17.4067 29.3 17.8467 29.74 18.14 30.07C18.7633 29.7033 19.1483 29.3183 19.295 28.915C19.4783 28.475 19.57 27.925 19.57 27.265C19.57 26.0917 19.5517 24.8817 19.515 23.635C19.515 22.3883 19.515 21.1783 19.515 20.005H14.29C13.3367 20.005 12.4383 20.2983 11.595 20.885C10.7517 21.435 10.22 22.2417 10 23.305L4.39 16.87C4.79333 16.3567 5.17833 15.9167 5.545 15.55C5.91167 15.1467 6.35167 14.8167 6.865 14.56C7.34167 14.3033 7.92833 14.12 8.625 14.01C9.285 13.8633 10.1467 13.79 11.21 13.79H23.365L26.28 16.045C27.05 15.1283 27.8567 14.5233 28.7 14.23C29.5433 13.9367 30.515 13.79 31.615 13.79H35.3L40.635 20.005H38.71C38.05 20.005 37.3717 20.0417 36.675 20.115C35.9783 20.1517 35.3 20.2617 34.64 20.445C34.0167 20.5917 33.4667 20.83 32.99 21.16C32.5133 21.49 32.165 21.9483 31.945 22.535L29.635 20.005ZM38.9412 30.07C38.9412 31.94 38.9412 33.8283 38.9412 35.735C38.9778 37.605 38.9962 39.475 38.9962 41.345C38.9962 42.885 39.2712 44.1133 39.8212 45.03C40.3712 45.9467 41.3062 46.8267 42.6262 47.67L42.4612 48C41.3978 47.3767 40.4078 46.6617 39.4912 45.855C38.5745 45.0117 37.6945 44.1683 36.8512 43.325C35.8612 42.335 35.0728 41.5467 34.4862 40.96C33.9362 40.3367 33.5145 39.7317 33.2212 39.145C32.9278 38.5217 32.7262 37.8067 32.6162 37C32.5428 36.1567 32.5062 35.02 32.5062 33.59V22.59L27.1712 16.32C27.1712 15.9533 27.3178 15.6233 27.6112 15.33C27.8678 15 28.1978 14.725 28.6012 14.505C28.9678 14.285 29.3712 14.12 29.8112 14.01C30.2512 13.8633 30.6178 13.79 30.9112 13.79H38.3912L44.9912 20.005C43.7812 20.2617 42.7728 20.7383 41.9662 21.435C41.1962 22.095 40.5728 22.8833 40.0962 23.8C39.6562 24.7167 39.3445 25.725 39.1612 26.825C39.0145 27.8883 38.9412 28.97 38.9412 30.07ZM49.6116 55.81C49.6116 56.7633 49.3916 57.6067 48.9516 58.34C48.5483 59.11 47.9983 59.7517 47.3016 60.265C46.6416 60.7783 45.8716 61.1633 44.9916 61.42C44.1483 61.6767 43.2683 61.805 42.3516 61.805C41.0683 61.805 39.7483 61.5117 38.3916 60.925C37.0349 60.375 35.6966 59.66 34.3766 58.78C33.0566 57.9367 31.8283 57.0017 30.6916 55.975C29.5183 54.9483 28.5283 53.995 27.7216 53.115L28.1066 52.29C28.7299 53.0233 29.4449 53.7017 30.2516 54.325C30.9116 54.8383 31.7183 55.315 32.6716 55.755C33.5883 56.2317 34.6149 56.5067 35.7516 56.58C35.9349 56.58 36.0999 56.58 36.2466 56.58C36.3933 56.6167 36.5583 56.635 36.7416 56.635C37.8416 56.635 38.9783 56.525 40.1516 56.305C41.2883 56.085 42.2966 55.755 43.1766 55.315C44.0199 54.9117 44.6433 54.435 45.0466 53.885C45.4866 53.335 45.5049 52.73 45.1016 52.07C44.8449 51.6667 44.4416 51.465 43.8916 51.465C43.1949 51.465 42.4616 51.6667 41.6916 52.07C40.8849 52.51 40.3533 52.9133 40.0966 53.28C38.9966 52.4 37.8966 51.5017 36.7966 50.585C35.6599 49.705 34.6149 48.7333 33.6616 47.67C34.1749 46.9 34.8533 46.295 35.6966 45.855C36.5033 45.415 37.3649 45.195 38.2816 45.195C39.0149 45.195 39.8766 45.47 40.8666 46.02C41.8566 46.5333 42.8466 47.175 43.8366 47.945C44.7899 48.6783 45.6883 49.4483 46.5316 50.255C47.3749 51.0983 48.0166 51.8133 48.4566 52.4C49.2266 53.39 49.6116 54.5267 49.6116 55.81ZM58.5766 26.715C59.0533 27.1183 59.6216 27.6133 60.2816 28.2C60.9416 28.75 61.5833 29.355 62.2066 30.015C62.8299 30.675 63.3616 31.3533 63.8016 32.05C64.2416 32.7467 64.4616 33.425 64.4616 34.085C64.4616 35.075 64.1683 35.9917 63.5816 36.835C62.9949 37.6783 62.2249 38.43 61.2716 39.09C60.3549 39.7133 59.3283 40.245 58.1916 40.685C57.0549 41.125 55.9549 41.455 54.8916 41.675L61.8766 48.165L61.0516 49.43L52.9666 41.95C52.7833 41.9867 52.6183 42.005 52.4716 42.005C52.3249 42.005 52.1599 42.005 51.9766 42.005C51.6099 42.005 51.2616 41.9867 50.9316 41.95C50.6016 41.9133 50.2716 41.8033 49.9416 41.62C49.6483 41.4733 49.1349 41.1067 48.4016 40.52C47.6683 39.9333 46.9166 39.2917 46.1466 38.595C45.3766 37.8983 44.6799 37.2383 44.0566 36.615C43.4333 35.955 43.0666 35.4783 42.9566 35.185C42.8833 35.0017 42.8283 34.8367 42.7916 34.69C42.7549 34.5067 42.7366 34.3233 42.7366 34.14C42.7366 33.59 42.8833 33.0217 43.1766 32.435C43.4699 31.8483 43.9466 31.555 44.6066 31.555C44.8633 31.555 45.2299 31.72 45.7066 32.05C46.2199 32.38 46.7516 32.765 47.3016 33.205C47.8516 33.645 48.3649 34.085 48.8416 34.525C49.3549 34.965 49.7216 35.295 49.9416 35.515C50.7483 35.295 51.7199 35.02 52.8566 34.69C54.0299 34.3233 55.0383 33.8283 55.8816 33.205C56.7616 32.545 57.3849 31.94 57.7516 31.39C58.1183 30.8033 58.3016 30.3083 58.3016 29.905C58.3383 29.465 58.2099 29.135 57.9166 28.915C57.6233 28.695 57.2383 28.585 56.7616 28.585C56.1016 28.585 55.4783 28.7317 54.8916 29.025C54.3049 29.3183 53.7733 29.7033 53.2966 30.18C52.8199 30.6567 52.4349 31.2067 52.1416 31.83C51.8849 32.4533 51.7566 33.0767 51.7566 33.7L45.2666 27.76C45.2666 26.99 45.4499 26.3117 45.8166 25.725C46.1833 25.1383 46.6599 24.6433 47.2466 24.24C47.8333 23.8 48.4749 23.47 49.1716 23.25C49.9049 23.03 50.6016 22.92 51.2616 22.92C51.4083 22.92 51.5549 22.92 51.7016 22.92C51.8483 22.92 51.9949 22.9383 52.1416 22.975C52.1416 22.535 52.1233 22.04 52.0866 21.49C52.0866 20.94 52.0866 20.445 52.0866 20.005C50.2166 20.005 48.8049 20.225 47.8516 20.665C46.8983 21.105 46.3299 21.5817 46.1466 22.095L40.7566 15.99C41.0866 15.11 41.5816 14.5233 42.2416 14.23C42.9016 13.9367 43.7633 13.79 44.8266 13.79H59.9516L65.3966 20.005H61.3266C60.9599 20.1517 60.5933 20.445 60.2266 20.885C59.8966 21.2883 59.6033 21.7467 59.3466 22.26C59.0899 22.7367 58.8883 23.2133 58.7416 23.69C58.5949 24.1667 58.5216 24.515 58.5216 24.735C58.5216 25.065 58.5399 25.395 58.5766 25.725C58.6499 26.055 58.6499 26.385 58.5766 26.715ZM72.4031 30.07C72.4031 31.94 72.4031 33.8283 72.4031 35.735C72.4398 37.605 72.4581 39.475 72.4581 41.345C72.4581 42.885 72.7331 44.1133 73.2831 45.03C73.8331 45.9467 74.7681 46.8267 76.0881 47.67L75.9231 48C74.8598 47.3767 73.8698 46.6617 72.9531 45.855C72.0364 45.0117 71.1564 44.1683 70.3131 43.325C69.3231 42.335 68.5348 41.5467 67.9481 40.96C67.3981 40.3367 66.9764 39.7317 66.6831 39.145C66.3898 38.5217 66.1881 37.8067 66.0781 37C66.0048 36.1567 65.9681 35.02 65.9681 33.59V22.59L60.6331 16.32C60.6331 15.9533 60.7798 15.6233 61.0731 15.33C61.3298 15 61.6598 14.725 62.0631 14.505C62.4298 14.285 62.8331 14.12 63.2731 14.01C63.7131 13.8633 64.0798 13.79 64.3731 13.79H71.8531L78.4531 20.005C77.2431 20.2617 76.2348 20.7383 75.4281 21.435C74.6581 22.095 74.0348 22.8833 73.5581 23.8C73.1181 24.7167 72.8064 25.725 72.6231 26.825C72.4764 27.8883 72.4031 28.97 72.4031 30.07ZM83.8435 30.07C83.8435 31.94 83.8435 33.8283 83.8435 35.735C83.8802 37.605 83.8985 39.475 83.8985 41.345C83.8985 42.885 84.1735 44.1133 84.7235 45.03C85.2735 45.9467 86.2085 46.8267 87.5285 47.67L87.3635 48C86.3002 47.3767 85.3102 46.6617 84.3935 45.855C83.4768 45.0117 82.5968 44.1683 81.7535 43.325C80.7635 42.335 79.9752 41.5467 79.3885 40.96C78.8385 40.3367 78.4168 39.7317 78.1235 39.145C77.8302 38.5217 77.6285 37.8067 77.5185 37C77.4452 36.1567 77.4085 35.02 77.4085 33.59V22.59L72.0735 16.32C72.0735 15.9533 72.2202 15.6233 72.5135 15.33C72.7702 15 73.1002 14.725 73.5035 14.505C73.8702 14.285 74.2735 14.12 74.7135 14.01C75.1535 13.8633 75.5202 13.79 75.8135 13.79H83.2935L89.8935 20.005C88.6835 20.2617 87.6752 20.7383 86.8685 21.435C86.0985 22.095 85.4752 22.8833 84.9985 23.8C84.5585 24.7167 84.2468 25.725 84.0635 26.825C83.9168 27.8883 83.8435 28.97 83.8435 30.07ZM72.0189 9.61C71.0289 9.68333 70.2773 9.775 69.7639 9.885C69.2139 9.95833 68.7923 10.0317 68.4989 10.105C68.2056 10.1783 67.9489 10.2517 67.7289 10.325C67.5089 10.3617 67.2339 10.38 66.9039 10.38C65.8406 10.38 64.8506 10.1233 63.9339 9.61C62.9806 9.09667 62.1189 8.455 61.3489 7.685C60.5423 6.87833 59.8273 6.01666 59.2039 5.1C58.5806 4.14666 58.0489 3.23 57.6089 2.35V2.295C58.2323 3.065 58.7823 3.59666 59.2589 3.89C59.6989 4.18333 60.1573 4.33 60.6339 4.33C61.1106 4.33 61.6423 4.23833 62.2289 4.055C62.7789 3.835 63.5306 3.59666 64.4839 3.34C65.3639 3.12 66.1889 3.01 66.9589 3.01C68.3156 3.01 69.5989 3.285 70.8089 3.835C71.9823 4.385 73.1373 5.11833 74.2739 6.035C75.3739 6.95167 76.4556 8.015 77.5189 9.225C78.5456 10.435 79.5723 11.7183 80.5989 13.075C80.7089 13.185 80.8739 13.3867 81.0939 13.68C81.2773 13.9367 81.4789 14.2117 81.6989 14.505C81.8823 14.7983 82.0473 15.0917 82.1939 15.385C82.3406 15.6417 82.4139 15.825 82.4139 15.935L80.6539 15.99C80.2139 15.5867 79.7923 15.0367 79.3889 14.34C78.9489 13.6067 78.4356 12.8917 77.8489 12.195C77.2623 11.4983 76.5656 10.8933 75.7589 10.38C74.9156 9.86667 73.8889 9.61 72.6789 9.61H72.0189ZM95.2839 30.07C95.2839 31.94 95.2839 33.8283 95.2839 35.735C95.3206 37.605 95.3389 39.475 95.3389 41.345C95.3389 42.885 95.6139 44.1133 96.1639 45.03C96.7139 45.9467 97.6489 46.8267 98.9689 47.67L98.8039 48C97.7406 47.3767 96.7506 46.6617 95.8339 45.855C94.9173 45.0117 94.0373 44.1683 93.1939 43.325C92.2039 42.335 91.4156 41.5467 90.8289 40.96C90.2789 40.3367 89.8573 39.7317 89.5639 39.145C89.2706 38.5217 89.0689 37.8067 88.9589 37C88.8856 36.1567 88.8489 35.02 88.8489 33.59V22.59L83.5139 16.32C83.5139 15.9533 83.6606 15.6233 83.9539 15.33C84.2106 15 84.5406 14.725 84.9439 14.505C85.3106 14.285 85.7139 14.12 86.1539 14.01C86.5939 13.8633 86.9606 13.79 87.2539 13.79H94.7339L101.334 20.005C100.124 20.2617 99.1156 20.7383 98.3089 21.435C97.5389 22.095 96.9156 22.8833 96.4389 23.8C95.9989 24.7167 95.6873 25.725 95.5039 26.825C95.3573 27.8883 95.2839 28.97 95.2839 30.07ZM121.409 18.575C121.079 18.245 120.603 17.7133 119.979 16.98C119.356 16.2467 118.714 15.4767 118.054 14.67C117.431 13.8633 116.844 13.13 116.294 12.47C115.744 11.81 115.396 11.3883 115.249 11.205C114.149 9.84833 113.013 8.82167 111.839 8.125C110.666 7.42833 109.199 7.08 107.439 7.08C105.753 7.08 104.029 7.48333 102.269 8.29C100.509 9.09666 98.8777 9.995 97.3744 10.985C95.871 11.9383 94.5877 12.8183 93.5244 13.625C92.461 14.4317 91.801 14.835 91.5444 14.835L85.9344 8.455V8.4C87.071 7.41 88.2994 6.53 89.6194 5.76C90.9394 4.99 92.241 4.20166 93.5244 3.395C94.8077 2.58833 96.146 1.92833 97.5394 1.415C98.9327 0.864997 100.399 0.589997 101.939 0.589997C103.809 0.589997 105.569 1.03 107.219 1.91C108.869 2.79 110.409 3.89 111.839 5.21C113.269 6.53 114.589 7.96 115.799 9.5C117.046 11.04 118.201 12.47 119.264 13.79C119.558 14.12 119.796 14.4317 119.979 14.725C120.199 14.9817 120.419 15.2567 120.639 15.55C120.859 15.8433 121.116 16.1733 121.409 16.54C121.703 16.9067 122.069 17.3467 122.509 17.86L121.409 18.575ZM117.119 31.17C117.266 32.4533 117.339 33.7367 117.339 35.02C117.339 36.3033 117.339 37.5867 117.339 38.87C117.339 39.97 117.193 40.795 116.899 41.345C116.606 41.8583 116.038 42.445 115.194 43.105C114.718 43.4717 114.223 43.82 113.709 44.15C113.233 44.48 112.683 44.645 112.059 44.645C111.399 44.645 110.574 44.3517 109.584 43.765C108.631 43.1783 107.641 42.4817 106.614 41.675C105.588 40.8317 104.634 39.9883 103.754 39.145C102.874 38.3017 102.214 37.6417 101.774 37.165C101.151 36.4317 100.638 35.6617 100.234 34.855C99.7944 34.0117 99.5744 33.095 99.5744 32.105C99.5744 31.2617 99.7577 30.455 100.124 29.685C100.454 28.915 100.894 28.255 101.444 27.705C102.031 27.1183 102.709 26.66 103.479 26.33C104.249 26 105.056 25.835 105.899 25.835C105.569 25.505 105.038 24.9367 104.304 24.13C103.608 23.3233 102.874 22.4617 102.104 21.545C101.371 20.5917 100.729 19.7117 100.179 18.905C99.5927 18.0617 99.2994 17.4567 99.2994 17.09C99.2994 16.54 99.4644 16.0633 99.7944 15.66C100.124 15.2567 100.528 14.9267 101.004 14.67C101.518 14.3767 102.049 14.1567 102.599 14.01C103.186 13.8633 103.699 13.79 104.139 13.79H113.819L121.079 19.895C120.273 20.1517 119.594 20.5733 119.044 21.16C118.531 21.71 118.109 22.3517 117.779 23.085C117.486 23.8183 117.284 24.5883 117.174 25.395C117.064 26.2017 117.009 26.99 117.009 27.76C117.633 27.8333 118.238 27.9983 118.824 28.255C119.411 28.5117 119.979 28.7867 120.529 29.08C120.859 29.2633 121.409 29.6483 122.179 30.235C122.949 30.785 123.738 31.4083 124.544 32.105C125.388 32.765 126.121 33.425 126.744 34.085C127.368 34.745 127.698 35.2767 127.734 35.68L127.294 36.505C126.818 35.845 126.231 35.185 125.534 34.525C124.838 33.865 124.086 33.2783 123.279 32.765C122.473 32.2517 121.629 31.8483 120.749 31.555C119.906 31.225 119.044 31.06 118.164 31.06C117.981 31.06 117.798 31.06 117.614 31.06C117.468 31.06 117.303 31.0967 117.119 31.17ZM110.849 31.775C109.383 32.1417 108.209 32.8567 107.329 33.92C106.486 34.9467 106.064 36.23 106.064 37.77C106.064 37.9533 106.064 38.155 106.064 38.375C106.101 38.595 106.138 38.7967 106.174 38.98C106.871 39.2367 107.513 39.365 108.099 39.365C109.089 39.365 109.786 39.0533 110.189 38.43C110.629 37.77 110.849 36.9817 110.849 36.065V31.775ZM105.789 22.645C105.789 22.7917 105.863 23.0117 106.009 23.305C106.156 23.5617 106.321 23.855 106.504 24.185C106.688 24.4783 106.871 24.7717 107.054 25.065C107.238 25.3217 107.384 25.505 107.494 25.615C107.824 25.5783 108.154 25.56 108.484 25.56C108.814 25.5233 109.126 25.505 109.419 25.505C109.639 25.505 109.859 25.505 110.079 25.505C110.299 25.505 110.501 25.5233 110.684 25.56C110.684 24.9367 110.648 24.3133 110.574 23.69C110.538 23.0667 110.519 22.4433 110.519 21.82C110.519 21.38 110.538 20.94 110.574 20.5C110.611 20.06 110.666 19.6383 110.739 19.235C110.263 19.3083 109.731 19.4183 109.144 19.565C108.558 19.675 108.008 19.8583 107.494 20.115C107.018 20.335 106.614 20.665 106.284 21.105C105.954 21.5083 105.789 22.0217 105.789 22.645ZM128.746 30.07C128.746 31.94 128.746 33.8283 128.746 35.735C128.783 37.605 128.801 39.475 128.801 41.345C128.801 42.885 129.076 44.1133 129.626 45.03C130.176 45.9467 131.111 46.8267 132.431 47.67L132.266 48C131.203 47.3767 130.213 46.6617 129.296 45.855C128.379 45.0117 127.499 44.1683 126.656 43.325C125.666 42.335 124.878 41.5467 124.291 40.96C123.741 40.3367 123.319 39.7317 123.026 39.145C122.733 38.5217 122.531 37.8067 122.421 37C122.348 36.1567 122.311 35.02 122.311 33.59V22.59L116.976 16.32C116.976 15.9533 117.123 15.6233 117.416 15.33C117.673 15 118.003 14.725 118.406 14.505C118.773 14.285 119.176 14.12 119.616 14.01C120.056 13.8633 120.423 13.79 120.716 13.79H128.196L134.796 20.005C133.586 20.2617 132.578 20.7383 131.771 21.435C131.001 22.095 130.378 22.8833 129.901 23.8C129.461 24.7167 129.149 25.725 128.966 26.825C128.819 27.8883 128.746 28.97 128.746 30.07ZM141.231 22.535C142.111 22.535 143.065 22.645 144.091 22.865C145.155 23.085 146.09 23.3967 146.896 23.8C147.116 23.91 147.556 24.24 148.216 24.79C148.913 25.3033 149.628 25.8717 150.361 26.495C151.095 27.0817 151.755 27.65 152.341 28.2C152.928 28.75 153.24 29.1167 153.276 29.3C152.653 29.0067 152.103 28.7867 151.626 28.64C151.186 28.4933 150.746 28.3833 150.306 28.31C149.903 28.2367 149.5 28.2 149.096 28.2C148.693 28.1633 148.253 28.145 147.776 28.145C146.566 28.145 145.43 28.3467 144.366 28.75C143.303 29.1533 142.368 29.7217 141.561 30.455C140.755 31.1517 140.113 32.0133 139.636 33.04C139.196 34.0667 138.976 35.2033 138.976 36.45C138.976 37.77 139.141 38.9433 139.471 39.97C139.838 40.96 140.296 41.8583 140.846 42.665C141.396 43.435 142.02 44.1133 142.716 44.7C143.413 45.25 144.091 45.745 144.751 46.185C143.358 45.745 141.946 44.92 140.516 43.71C139.086 42.4633 137.785 41.0883 136.611 39.585C135.438 38.045 134.466 36.4867 133.696 34.91C132.963 33.2967 132.596 31.9217 132.596 30.785C132.596 29.5383 132.816 28.4017 133.256 27.375C133.696 26.3483 134.301 25.4867 135.071 24.79C135.841 24.0567 136.758 23.5067 137.821 23.14C138.885 22.7367 140.021 22.535 141.231 22.535ZM139.801 20.005C139.141 20.005 138.481 20.0233 137.821 20.06C137.161 20.0967 136.538 20.225 135.951 20.445C135.401 20.665 134.925 21.0133 134.521 21.49C134.155 21.93 133.935 22.59 133.861 23.47L128.251 16.98C128.251 16.43 128.38 15.9533 128.636 15.55C128.893 15.1467 129.223 14.8167 129.626 14.56C129.993 14.3033 130.415 14.12 130.891 14.01C131.368 13.8633 131.845 13.79 132.321 13.79H146.016L151.406 20.005H139.801ZM156.837 30.07C156.837 31.94 156.837 33.8283 156.837 35.735C156.873 37.605 156.892 39.475 156.892 41.345C156.892 42.885 157.167 44.1133 157.717 45.03C158.267 45.9467 159.202 46.8267 160.522 47.67L160.357 48C159.293 47.3767 158.303 46.6617 157.387 45.855C156.47 45.0117 155.59 44.1683 154.747 43.325C153.757 42.335 152.968 41.5467 152.382 40.96C151.832 40.3367 151.41 39.7317 151.117 39.145C150.823 38.5217 150.622 37.8067 150.512 37C150.438 36.1567 150.402 35.02 150.402 33.59V22.59L145.067 16.32C145.067 15.9533 145.213 15.6233 145.507 15.33C145.763 15 146.093 14.725 146.497 14.505C146.863 14.285 147.267 14.12 147.707 14.01C148.147 13.8633 148.513 13.79 148.807 13.79H156.287L162.887 20.005C161.677 20.2617 160.668 20.7383 159.862 21.435C159.092 22.095 158.468 22.8833 157.992 23.8C157.552 24.7167 157.24 25.725 157.057 26.825C156.91 27.8883 156.837 28.97 156.837 30.07ZM168.277 30.07C168.277 31.94 168.277 33.8283 168.277 35.735C168.314 37.605 168.332 39.475 168.332 41.345C168.332 42.885 168.607 44.1133 169.157 45.03C169.707 45.9467 170.642 46.8267 171.962 47.67L171.797 48C170.734 47.3767 169.744 46.6617 168.827 45.855C167.91 45.0117 167.03 44.1683 166.187 43.325C165.197 42.335 164.409 41.5467 163.822 40.96C163.272 40.3367 162.85 39.7317 162.557 39.145C162.264 38.5217 162.062 37.8067 161.952 37C161.879 36.1567 161.842 35.02 161.842 33.59V22.59L156.507 16.32C156.507 15.9533 156.654 15.6233 156.947 15.33C157.204 15 157.534 14.725 157.937 14.505C158.304 14.285 158.707 14.12 159.147 14.01C159.587 13.8633 159.954 13.79 160.247 13.79H167.727L174.327 20.005C173.117 20.2617 172.109 20.7383 171.302 21.435C170.532 22.095 169.909 22.8833 169.432 23.8C168.992 24.7167 168.68 25.725 168.497 26.825C168.35 27.8883 168.277 28.97 168.277 30.07Z" fill="white"/>
</g>
<defs>
<filter id="filter0_d_940_7402" x="0.390625" y="0.590027" width="177.936" height="69.215" filterUnits="userSpaceOnUse" color-interpolation-filters="sRGB">
<feFlood flood-opacity="0" result="BackgroundImageFix"/>
<feColorMatrix in="SourceAlpha" type="matrix" values="0 0 0 0 0 0 0 0 0 0 0 0 0 0 0 0 0 0 127 0" result="hardAlpha"/>
<feOffset dy="4"/>
<feGaussianBlur stdDeviation="2"/>
<feComposite in2="hardAlpha" operator="out"/>
<feColorMatrix type="matrix" values="0 0 0 0 0 0 0 0 0 0 0 0 0 0 0 0 0 0 0.6 0"/>
<feBlend mode="normal" in2="BackgroundImageFix" result="effect1_dropShadow_940_7402"/>
<feBlend mode="normal" in="SourceGraphic" in2="effect1_dropShadow_940_7402" result="shape"/>
</filter>
</defs>
</svg>
