<svg width="151" height="70" viewBox="0 0 151 70" fill="none" xmlns="http://www.w3.org/2000/svg">
<g filter="url(#filter0_d_925_7293)">
<path d="M20.16 31.885C20.3433 32.2517 20.7467 32.6183 21.37 32.985C21.9933 33.3517 22.7633 33.535 23.68 33.535C23.79 33.535 23.9 33.535 24.01 33.535C24.1567 33.535 24.285 33.5167 24.395 33.48C27.1817 33.1133 29.0517 32.1233 30.005 30.51C30.995 28.8967 31.3067 26.8983 30.94 24.515C31.16 24.5883 31.5817 24.8633 32.205 25.34C32.865 25.78 33.525 26.2933 34.185 26.88C34.8817 27.43 35.505 27.9617 36.055 28.475C36.605 28.9517 36.88 29.2633 36.88 29.41C36.88 30.7667 36.6967 32.0317 36.33 33.205C36 34.3783 35.4867 35.405 34.79 36.285C34.13 37.1283 33.3233 37.7883 32.37 38.265C31.4533 38.7417 30.4267 38.98 29.29 38.98C28.08 38.98 26.8883 38.7417 25.715 38.265C24.5783 37.7883 23.46 37.2017 22.36 36.505C21.26 35.7717 20.215 34.9833 19.225 34.14C18.235 33.2967 17.3183 32.49 16.475 31.72C16.3283 31.5733 16.1083 31.39 15.815 31.17C15.5217 30.95 15.2283 30.73 14.935 30.51C14.6783 30.2533 14.4217 30.015 14.165 29.795C13.9083 29.5383 13.725 29.3183 13.615 29.135L13.56 20.005C12.5333 20.005 11.6533 20.335 10.92 20.995C10.1867 21.655 9.78333 22.5167 9.71 23.58L4.1 17.09C4.24667 16.5033 4.50333 16.0083 4.87 15.605C5.2 15.2017 5.60333 14.8717 6.08 14.615C6.52 14.3217 7.015 14.12 7.565 14.01C8.07833 13.8633 8.59167 13.79 9.105 13.79H20.93L22.69 15.385C23.4233 14.6883 24.1567 14.2483 24.89 14.065C25.6233 13.8817 26.5033 13.79 27.53 13.79H35.505L40.895 20.005H35.395C34.5517 20.005 33.7083 20.0417 32.865 20.115C32.0583 20.1517 31.27 20.2983 30.5 20.555C29.7667 20.775 29.07 21.1417 28.41 21.655C27.7867 22.1317 27.2367 22.7917 26.76 23.635C25.77 22.755 24.835 21.82 23.955 20.83C23.515 21.0133 23.0567 21.3067 22.58 21.71C22.14 22.0767 21.7183 22.5167 21.315 23.03C20.9483 23.5067 20.6367 24.0567 20.38 24.68C20.16 25.2667 20.05 25.8717 20.05 26.495C20.05 27.5583 20.0683 28.4567 20.105 29.19C20.1417 29.9233 20.16 30.8217 20.16 31.885ZM36.9793 30.07C36.9793 31.94 36.9793 33.8283 36.9793 35.735C37.0159 37.605 37.0343 39.475 37.0343 41.345C37.0343 42.885 37.3093 44.1133 37.8593 45.03C38.4093 45.9467 39.3443 46.8267 40.6643 47.67L40.4993 48C39.4359 47.3767 38.4459 46.6617 37.5293 45.855C36.6126 45.0117 35.7326 44.1683 34.8893 43.325C33.8993 42.335 33.1109 41.5467 32.5243 40.96C31.9743 40.3367 31.5526 39.7317 31.2593 39.145C30.9659 38.5217 30.7643 37.8067 30.6543 37C30.5809 36.1567 30.5443 35.02 30.5443 33.59V22.59L25.2093 16.32C25.2093 15.9533 25.3559 15.6233 25.6493 15.33C25.9059 15 26.2359 14.725 26.6393 14.505C27.0059 14.285 27.4093 14.12 27.8493 14.01C28.2893 13.8633 28.6559 13.79 28.9493 13.79H36.4293L43.0293 20.005C41.8193 20.2617 40.8109 20.7383 40.0043 21.435C39.2343 22.095 38.6109 22.8833 38.1343 23.8C37.6943 24.7167 37.3826 25.725 37.1993 26.825C37.0526 27.8883 36.9793 28.97 36.9793 30.07ZM47.6497 55.81C47.6497 56.7633 47.4297 57.6067 46.9897 58.34C46.5864 59.11 46.0364 59.7517 45.3397 60.265C44.6797 60.7783 43.9097 61.1633 43.0297 61.42C42.1864 61.6767 41.3064 61.805 40.3897 61.805C39.1064 61.805 37.7864 61.5117 36.4297 60.925C35.073 60.375 33.7347 59.66 32.4147 58.78C31.0947 57.9367 29.8664 57.0017 28.7297 55.975C27.5564 54.9483 26.5664 53.995 25.7597 53.115L26.1447 52.29C26.768 53.0233 27.483 53.7017 28.2897 54.325C28.9497 54.8383 29.7564 55.315 30.7097 55.755C31.6264 56.2317 32.653 56.5067 33.7897 56.58C33.973 56.58 34.138 56.58 34.2847 56.58C34.4314 56.6167 34.5964 56.635 34.7797 56.635C35.8797 56.635 37.0164 56.525 38.1897 56.305C39.3264 56.085 40.3347 55.755 41.2147 55.315C42.058 54.9117 42.6814 54.435 43.0847 53.885C43.5247 53.335 43.543 52.73 43.1397 52.07C42.883 51.6667 42.4797 51.465 41.9297 51.465C41.233 51.465 40.4997 51.6667 39.7297 52.07C38.923 52.51 38.3914 52.9133 38.1347 53.28C37.0347 52.4 35.9347 51.5017 34.8347 50.585C33.698 49.705 32.653 48.7333 31.6997 47.67C32.213 46.9 32.8914 46.295 33.7347 45.855C34.5414 45.415 35.403 45.195 36.3197 45.195C37.053 45.195 37.9147 45.47 38.9047 46.02C39.8947 46.5333 40.8847 47.175 41.8747 47.945C42.828 48.6783 43.7264 49.4483 44.5697 50.255C45.413 51.0983 46.0547 51.8133 46.4947 52.4C47.2647 53.39 47.6497 54.5267 47.6497 55.81ZM62.3347 33.095C62.738 32.985 63.1414 32.8383 63.5447 32.655C63.9847 32.435 64.3514 32.1783 64.6447 31.885C64.938 31.555 65.1397 31.1883 65.2497 30.785C65.3597 30.3817 65.2864 29.9417 65.0297 29.465C64.7364 28.915 64.2414 28.64 63.5447 28.64C63.068 28.64 62.5364 28.7683 61.9497 29.025C61.3997 29.2817 60.8497 29.63 60.2997 30.07C59.7864 30.51 59.3097 31.0417 58.8697 31.665C58.4664 32.2517 58.173 32.875 57.9897 33.535C57.9897 34.085 57.843 34.5433 57.5497 34.91C57.2564 35.24 56.8897 35.4967 56.4497 35.68C56.0097 35.8633 55.533 35.9917 55.0197 36.065C54.543 36.1017 54.0847 36.12 53.6447 36.12C52.8014 36.12 52.068 36.0467 51.4447 35.9C50.8214 35.7533 50.2347 35.5333 49.6847 35.24C49.1347 34.9467 48.603 34.5983 48.0897 34.195C47.5764 33.755 47.008 33.2783 46.3847 32.765C46.3847 32.8383 46.3664 32.9117 46.3297 32.985C46.293 33.0583 46.2747 33.1317 46.2747 33.205C46.018 33.755 46.0914 34.3783 46.4947 35.075C46.898 35.735 47.4114 36.3767 48.0347 37C48.6947 37.5867 49.3914 38.1 50.1247 38.54C50.858 38.9433 51.4264 39.145 51.8297 39.145C52.5264 39.145 53.168 39.035 53.7547 38.815C54.378 38.595 54.9647 38.3567 55.5147 38.1C56.0647 37.8433 56.578 37.605 57.0547 37.385C57.5314 37.165 57.9714 37.055 58.3747 37.055C58.8514 37.055 59.6214 37.33 60.6847 37.88C61.748 38.43 62.848 39.145 63.9847 40.025C65.158 40.8683 66.2397 41.785 67.2297 42.775C68.2564 43.765 68.953 44.7 69.3197 45.58C68.1464 44.26 67.2297 43.4533 66.5697 43.16C65.9097 42.83 65.378 42.665 64.9747 42.665C64.498 42.665 63.9847 42.8117 63.4347 43.105C62.9214 43.3617 62.3714 43.655 61.7847 43.985C61.198 44.2783 60.593 44.5717 59.9697 44.865C59.3464 45.1217 58.6864 45.25 57.9897 45.25C57.4764 45.25 56.963 45.1583 56.4497 44.975C55.9364 44.7917 55.4597 44.5533 55.0197 44.26C54.5064 43.93 53.773 43.3617 52.8197 42.555C51.903 41.7483 50.8764 40.8133 49.7397 39.75C48.603 38.6867 47.448 37.5683 46.2747 36.395C45.1014 35.185 44.038 34.0117 43.0847 32.875C42.1314 31.7383 41.3614 30.7117 40.7747 29.795C40.1514 28.8417 39.8397 28.09 39.8397 27.54C39.8397 27.21 39.968 26.8983 40.2247 26.605C40.4447 26.3117 40.738 26.055 41.1047 25.835C41.4714 25.615 41.838 25.45 42.2047 25.34C42.608 25.23 42.9564 25.175 43.2497 25.175C43.6897 25.175 44.2397 25.3767 44.8997 25.78C45.5597 26.1467 46.2197 26.605 46.8797 27.155C47.5397 27.6683 48.163 28.2 48.7497 28.75C49.3364 29.3 49.7764 29.74 50.0697 30.07C50.4364 29.85 50.7664 29.5933 51.0597 29.3C51.353 29.0067 51.4997 28.5483 51.4997 27.925L51.4447 20.28C50.2347 20.28 49.153 20.3167 48.1997 20.39C47.283 20.4267 46.4214 20.555 45.6147 20.775C44.8447 20.9583 44.093 21.2517 43.3597 21.655C42.6264 22.0583 41.8564 22.6083 41.0497 23.305L35.4397 16.87C35.9164 16.3933 36.3564 15.9717 36.7597 15.605C37.1264 15.2383 37.548 14.9267 38.0247 14.67C38.4647 14.3767 39.0147 14.1567 39.6747 14.01C40.3347 13.8633 41.1964 13.79 42.2597 13.79H57.0547C57.2747 13.8633 57.5497 14.0833 57.8797 14.45C58.2097 14.8167 58.4664 15.0917 58.6497 15.275C59.0897 14.615 59.5847 14.1933 60.1347 14.01C60.7214 13.8267 61.3447 13.735 62.0047 13.735C62.3347 13.735 62.683 13.7533 63.0497 13.79C63.4164 13.79 63.8014 13.79 64.2047 13.79H69.3747L74.6547 20.005C74.2514 20.005 73.793 20.005 73.2797 20.005C72.803 19.9683 72.253 19.95 71.6297 19.95C70.8597 19.95 70.053 19.9867 69.2097 20.06C68.3664 20.0967 67.578 20.2067 66.8447 20.39C66.148 20.5733 65.5247 20.8483 64.9747 21.215C64.4247 21.545 64.058 21.985 63.8747 22.535C63.4714 22.205 63.0864 21.8567 62.7197 21.49C62.353 21.0867 61.9864 20.6833 61.6197 20.28H60.9597C60.4097 20.72 59.823 21.2517 59.1997 21.875C58.613 22.4617 58.228 23.1217 58.0447 23.855C59.328 23.855 60.6114 24.2033 61.8947 24.9C62.3714 25.1567 63.1414 25.7067 64.2047 26.55C65.3047 27.3933 66.4047 28.31 67.5047 29.3C68.6047 30.29 69.558 31.2617 70.3647 32.215C71.208 33.1317 71.6297 33.8467 71.6297 34.36C71.6297 34.7267 71.5564 35.1483 71.4097 35.625C71.2997 36.1017 71.1164 36.56 70.8597 37C70.603 37.4033 70.3097 37.77 69.9797 38.1C69.6497 38.3933 69.283 38.595 68.8797 38.705C68.5864 38.6317 68.128 38.3567 67.5047 37.88C66.8814 37.3667 66.2214 36.8167 65.5247 36.23C64.828 35.6067 64.1864 35.0017 63.5997 34.415C63.013 33.7917 62.5914 33.3517 62.3347 33.095ZM95.2432 13.79L100.908 20.06H95.0232H93.1532C92.4565 20.06 91.7782 20.0967 91.1182 20.17C90.4582 20.2067 89.8348 20.335 89.2482 20.555C88.6615 20.7383 88.1115 21.0317 87.5982 21.435C87.0848 21.8383 86.6265 22.3883 86.2232 23.085C85.2332 22.205 84.2982 21.27 83.4182 20.28C82.9048 20.7933 82.3915 21.3067 81.8782 21.82C81.4015 22.3333 80.9248 22.8467 80.4482 23.36C81.1448 23.6167 81.8598 23.965 82.5932 24.405C83.3632 24.8083 84.1148 25.2667 84.8482 25.78C85.5815 26.2933 86.2782 26.825 86.9382 27.375C87.6348 27.925 88.2582 28.4383 88.8082 28.915C89.2482 28.1817 89.5965 27.3933 89.8532 26.55C90.1465 25.7067 90.3298 24.845 90.4032 23.965C90.6232 24.0383 91.0815 24.35 91.7782 24.9C92.4748 25.4133 93.1898 26 93.9232 26.66C94.6932 27.32 95.3715 27.9433 95.9582 28.53C96.5815 29.08 96.8932 29.4283 96.8932 29.575C96.8932 30.3083 96.7465 31.06 96.4532 31.83C96.1965 32.6 95.9215 33.2967 95.6282 33.92C94.9315 35.3867 94.0148 36.505 92.8782 37.275C91.7782 38.045 90.4032 38.43 88.7532 38.43C87.5432 38.43 86.3515 38.1917 85.1782 37.715C84.0415 37.2383 82.9232 36.6517 81.8232 35.955C80.7232 35.2217 79.6782 34.4333 78.6882 33.59C77.6982 32.7467 76.7815 31.94 75.9382 31.17C75.6082 30.8767 75.1682 30.4733 74.6182 29.96C74.0682 29.4467 73.6832 29.0067 73.4632 28.64C73.3898 28.4933 73.3165 28.0167 73.2432 27.21C73.2065 26.3667 73.1698 25.45 73.1332 24.46C73.0965 23.47 73.0782 22.535 73.0782 21.655C73.0415 20.7383 73.0232 20.1333 73.0232 19.84C71.9965 19.84 71.1165 20.115 70.3832 20.665C69.6498 21.1783 69.2465 21.9667 69.1732 23.03L63.5632 16.54C63.8932 15.4033 64.4432 14.67 65.2132 14.34C65.9832 13.9733 66.8815 13.79 67.9082 13.79H80.5582L82.1532 14.835C83.0698 14.3217 83.8765 14.0283 84.5732 13.955C85.3065 13.845 86.1865 13.79 87.2132 13.79H95.2432ZM82.4282 32.71C83.3448 32.71 84.2615 32.545 85.1782 32.215C86.1315 31.8483 86.9198 31.3167 87.5432 30.62C86.6998 30.1433 85.8015 29.7033 84.8482 29.3C83.8948 28.86 82.9232 28.64 81.9332 28.64C81.2365 28.64 80.6315 28.7683 80.1182 29.025L79.5682 28.695C79.5682 29.3183 79.5682 29.9233 79.5682 30.51C79.6048 31.0967 79.6232 31.7017 79.6232 32.325C80.5032 32.5817 81.4382 32.71 82.4282 32.71ZM96.867 30.07C96.867 31.94 96.867 33.8283 96.867 35.735C96.9036 37.605 96.922 39.475 96.922 41.345C96.922 42.885 97.197 44.1133 97.747 45.03C98.297 45.9467 99.232 46.8267 100.552 47.67L100.387 48C99.3236 47.3767 98.3336 46.6617 97.417 45.855C96.5003 45.0117 95.6203 44.1683 94.777 43.325C93.787 42.335 92.9986 41.5467 92.412 40.96C91.862 40.3367 91.4403 39.7317 91.147 39.145C90.8536 38.5217 90.652 37.8067 90.542 37C90.4686 36.1567 90.432 35.02 90.432 33.59V22.59L85.097 16.32C85.097 15.9533 85.2436 15.6233 85.537 15.33C85.7936 15 86.1236 14.725 86.527 14.505C86.8936 14.285 87.297 14.12 87.737 14.01C88.177 13.8633 88.5436 13.79 88.837 13.79H96.317L102.917 20.005C101.707 20.2617 100.699 20.7383 99.892 21.435C99.122 22.095 98.4986 22.8833 98.022 23.8C97.582 24.7167 97.2703 25.725 97.087 26.825C96.9403 27.8883 96.867 28.97 96.867 30.07ZM108.307 30.07C108.307 31.94 108.307 33.8283 108.307 35.735C108.344 37.605 108.362 39.475 108.362 41.345C108.362 42.885 108.637 44.1133 109.187 45.03C109.737 45.9467 110.672 46.8267 111.992 47.67L111.827 48C110.764 47.3767 109.774 46.6617 108.857 45.855C107.941 45.0117 107.061 44.1683 106.217 43.325C105.227 42.335 104.439 41.5467 103.852 40.96C103.302 40.3367 102.881 39.7317 102.587 39.145C102.294 38.5217 102.092 37.8067 101.982 37C101.909 36.1567 101.872 35.02 101.872 33.59V22.59L96.5374 16.32C96.5374 15.9533 96.684 15.6233 96.9774 15.33C97.234 15 97.564 14.725 97.9674 14.505C98.334 14.285 98.7374 14.12 99.1774 14.01C99.6174 13.8633 99.984 13.79 100.277 13.79H107.757L114.357 20.005C113.147 20.2617 112.139 20.7383 111.332 21.435C110.562 22.095 109.939 22.8833 109.462 23.8C109.022 24.7167 108.711 25.725 108.527 26.825C108.381 27.8883 108.307 28.97 108.307 30.07ZM119.253 27.32C119.656 27.32 119.968 27.2283 120.188 27.045C119.894 26.7883 119.454 26.44 118.868 26C118.281 25.5233 117.639 24.9917 116.943 24.405C116.246 23.7817 115.531 23.14 114.798 22.48C114.101 21.82 113.459 21.1783 112.873 20.555C112.249 19.895 111.754 19.29 111.388 18.74C111.021 18.19 110.838 17.7317 110.838 17.365C110.838 16.6317 110.966 16.0267 111.223 15.55C111.479 15.0733 111.828 14.7067 112.268 14.45C112.708 14.1933 113.221 14.0283 113.808 13.955C114.394 13.845 114.999 13.79 115.623 13.79C116.576 13.79 117.493 13.845 118.373 13.955C119.289 14.0283 120.114 14.065 120.848 14.065C121.141 14.065 121.398 14.065 121.618 14.065C121.838 14.0283 122.039 13.9733 122.223 13.9L129.538 20.06C129.061 20.06 128.658 20.1883 128.328 20.445C128.034 20.7017 127.796 21.0317 127.613 21.435C127.466 21.8383 127.356 22.2783 127.283 22.755C127.209 23.195 127.173 23.5983 127.173 23.965C127.173 25.065 127.191 26.1833 127.228 27.32C127.301 28.42 127.338 29.52 127.338 30.62C127.338 31.2433 127.228 31.7933 127.008 32.27C126.788 32.7467 126.311 32.985 125.578 32.985C124.844 32.985 124.129 32.9483 123.433 32.875C122.773 32.765 122.076 32.71 121.343 32.71C119.913 32.71 118.941 32.9667 118.428 33.48C117.951 33.9567 117.823 34.5067 118.043 35.13C118.299 35.7167 118.886 36.285 119.803 36.835C120.719 37.3483 121.856 37.6233 123.213 37.66H123.708C125.394 37.66 126.898 37.4033 128.218 36.89C129.574 36.3767 130.693 35.6433 131.573 34.69C132.489 33.7 133.149 32.5083 133.553 31.115C133.956 29.7217 134.066 28.145 133.883 26.385C134.103 26.5317 134.561 26.88 135.258 27.43C135.954 27.9433 136.688 28.5117 137.458 29.135C138.228 29.7583 138.906 30.345 139.493 30.895C140.079 31.445 140.373 31.8117 140.373 31.995C140.373 33.6083 140.116 35.1117 139.603 36.505C139.126 37.8617 138.411 39.0533 137.458 40.08C136.541 41.07 135.404 41.8583 134.048 42.445C132.728 42.995 131.243 43.27 129.593 43.27C128.089 43.27 126.641 43.0133 125.248 42.5C123.854 41.9867 122.571 41.3083 121.398 40.465C121.031 40.1717 120.499 39.7683 119.803 39.255C119.143 38.705 118.409 38.1 117.603 37.44C116.833 36.7433 116.044 36.01 115.238 35.24C114.431 34.47 113.716 33.7183 113.093 32.985C112.433 32.2517 111.901 31.555 111.498 30.895C111.058 30.235 110.838 29.685 110.838 29.245C110.838 28.7317 111.021 28.3467 111.388 28.09C111.718 27.7967 112.121 27.5767 112.598 27.43C113.074 27.2467 113.569 27.1367 114.083 27.1C114.596 27.0633 115.036 27.045 115.403 27.045C116.026 27.045 116.668 27.1 117.328 27.21C117.988 27.2833 118.629 27.32 119.253 27.32ZM120.518 26.715C120.738 26.055 120.848 25.395 120.848 24.735C120.848 24.0017 120.829 23.305 120.793 22.645C120.756 21.9483 120.738 21.2333 120.738 20.5C120.408 20.5367 120.041 20.6283 119.638 20.775C119.271 20.885 118.923 21.05 118.593 21.27C118.263 21.4533 117.969 21.6917 117.713 21.985C117.493 22.2783 117.383 22.6267 117.383 23.03C117.383 23.3967 117.493 23.745 117.713 24.075C117.969 24.405 118.263 24.735 118.593 25.065C118.923 25.3583 119.271 25.6517 119.638 25.945C120.004 26.2383 120.298 26.495 120.518 26.715ZM140.212 30.07C140.212 31.94 140.212 33.8283 140.212 35.735C140.248 37.605 140.267 39.475 140.267 41.345C140.267 42.885 140.542 44.1133 141.092 45.03C141.642 45.9467 142.577 46.8267 143.897 47.67L143.732 48C142.668 47.3767 141.678 46.6617 140.762 45.855C139.845 45.0117 138.965 44.1683 138.122 43.325C137.132 42.335 136.343 41.5467 135.757 40.96C135.207 40.3367 134.785 39.7317 134.492 39.145C134.198 38.5217 133.997 37.8067 133.887 37C133.813 36.1567 133.777 35.02 133.777 33.59V22.59L128.442 16.32C128.442 15.9533 128.588 15.6233 128.882 15.33C129.138 15 129.468 14.725 129.872 14.505C130.238 14.285 130.642 14.12 131.082 14.01C131.522 13.8633 131.888 13.79 132.182 13.79H139.662L146.262 20.005C145.052 20.2617 144.043 20.7383 143.237 21.435C142.467 22.095 141.843 22.8833 141.367 23.8C140.927 24.7167 140.615 25.725 140.432 26.825C140.285 27.8883 140.212 28.97 140.212 30.07ZM134.162 0.864997C134.492 0.864997 134.895 0.88333 135.372 0.919996C135.849 0.956665 136.344 1.01167 136.857 1.085C137.334 1.15833 137.792 1.25 138.232 1.36C138.672 1.47 139.039 1.58 139.332 1.69C139.552 1.8 139.955 2.11166 140.542 2.625C141.129 3.10166 141.752 3.65167 142.412 4.275C143.035 4.86166 143.604 5.43 144.117 5.98C144.594 6.49333 144.869 6.84166 144.942 7.025C143.255 6.43833 141.587 6.145 139.937 6.145C138.287 6.145 136.912 6.49333 135.812 7.19C134.712 7.85 134.162 8.82167 134.162 10.105C134.162 10.8017 134.4 11.5167 134.877 12.25C135.354 12.9467 135.885 13.6067 136.472 14.23C137.022 14.8167 137.517 15.3117 137.957 15.715C138.397 16.0817 138.58 16.2833 138.507 16.32L136.912 17.09L129.707 8.62C129.23 7.81333 128.992 6.915 128.992 5.925C128.992 5.375 129.12 4.80666 129.377 4.22C129.597 3.59666 129.945 3.04667 130.422 2.57C130.862 2.05666 131.412 1.65333 132.072 1.36C132.695 1.03 133.392 0.864997 134.162 0.864997Z" fill="white"/>
</g>
<defs>
<filter id="filter0_d_925_7293" x="0.0996094" y="0.865234" width="150.162" height="68.9399" filterUnits="userSpaceOnUse" color-interpolation-filters="sRGB">
<feFlood flood-opacity="0" result="BackgroundImageFix"/>
<feColorMatrix in="SourceAlpha" type="matrix" values="0 0 0 0 0 0 0 0 0 0 0 0 0 0 0 0 0 0 127 0" result="hardAlpha"/>
<feOffset dy="4"/>
<feGaussianBlur stdDeviation="2"/>
<feComposite in2="hardAlpha" operator="out"/>
<feColorMatrix type="matrix" values="0 0 0 0 0 0 0 0 0 0 0 0 0 0 0 0 0 0 0.6 0"/>
<feBlend mode="normal" in2="BackgroundImageFix" result="effect1_dropShadow_925_7293"/>
<feBlend mode="normal" in="SourceGraphic" in2="effect1_dropShadow_925_7293" result="shape"/>
</filter>
</defs>
</svg>
